<svg width="536" height="797" viewBox="0 0 536 797" fill="none" xmlns="http://www.w3.org/2000/svg">
<g clip-path="url(#clip0_181_1449)">
<path d="M239.961 360.107C242.779 351.538 247.979 343.992 250.749 335.327C250.846 335.035 251.526 334.986 252.304 334.645C253.616 340.049 253.907 345.502 254.442 350.906C254.588 352.22 254.734 353.875 256.629 353.827C257.941 353.827 258.864 352.658 258.67 351.49C258.378 349.591 261.537 349.883 260.468 347.011C256.191 335.911 254.782 324.275 253.956 312.396C253.664 308.112 254.393 304.802 256.289 301.296C257.212 299.544 258.087 298.132 258.184 295.795C258.281 292.436 260.711 289.369 263.529 287.227C266.299 285.133 268.632 285.328 270.575 288.346C277.427 298.911 287.195 306.749 295.893 315.561C303.96 323.74 311.978 332.113 321.891 338.296C332.825 345.112 343.711 352.025 356.102 356.017C358.532 356.796 361.156 357.283 362.128 360.107C363.197 363.271 364.412 366.387 365.384 369.552L367.328 369.552C366.258 366.387 365.287 363.125 365.092 359.425C382.732 362.541 399.886 366.339 417.477 360.496C417.72 363.564 417.915 366.533 417.963 369.552L421.851 369.552C421.948 367.458 422.045 365.414 422.045 363.32C422.045 360.01 424.572 359.863 426.71 359.231C428.994 358.549 429.48 360.496 429.966 361.908C430.792 364.44 431.716 366.971 432.444 369.552L437.353 369.552C436.769 366.825 436.041 364.099 435.117 361.47C434.048 358.5 433.708 356.31 436.818 354.411C439.879 352.512 440.317 349.786 438.713 346.621C438.179 345.599 437.839 344.479 437.401 343.408C436.429 340.731 437.207 339.27 440.025 338.199C445.176 336.252 450.182 333.817 455.235 331.529C464.08 327.488 472.438 322.474 479.63 315.902C492.362 304.169 504.705 291.998 514.861 277.831C520.644 269.749 526.524 261.619 529.634 252.077C540.033 220.14 537.846 189.225 522.15 159.333C515.93 147.503 507.28 137.717 498.388 127.98C490.418 119.266 481.331 112.499 470.251 108.507C463.497 106.072 456.499 104.271 450.036 101.301C427.245 90.8828 403.385 91.4671 379.33 94.1447C371.944 94.9723 371.458 94.9723 368.883 87.9131C368.397 86.6473 368.008 85.2355 367.959 83.8723C367.522 72.821 366.161 61.7209 371.069 51.1565C372.381 48.2841 370.778 45.4604 367.959 44.5354C365.384 43.6591 359.795 45.9959 358.289 48.5275C356.297 51.9354 356.151 56.1223 359.164 57.9236C363.926 60.7959 363.78 64.9828 363.683 69.4131C363.489 76.8131 363.003 84.1644 364.946 91.4671C365.821 94.8263 364.363 97.3092 361.01 98.5263C359.261 99.1592 357.56 99.8407 355.859 100.571C347.501 104.417 338.754 107.582 330.736 112.255C320.191 118.389 311.881 126.958 303.814 135.964C292.54 148.525 283.842 162.546 278.205 178.417C273.88 190.637 271.061 203.246 268.291 215.904C266.202 225.495 265.23 235.134 265.959 244.774C266.542 252.417 266.008 259.525 262.071 266.049C259.642 270.09 259.642 274.033 262.169 277.733C263.675 279.924 263.529 281.336 261.974 283.186C260.662 284.792 259.593 286.594 258.378 288.298C252.595 296.477 248.999 305.434 250.214 315.609C251.332 325.006 248.465 333.331 244.772 341.656C240.398 351.636 235.004 360.935 228.978 369.698L235.684 369.698C237.434 366.679 238.94 363.564 240.058 360.204L239.961 360.107ZM423.212 353.34C420.928 353.389 420.685 351.782 420.83 350.029C420.928 348.666 421.122 346.962 423.017 347.352C424.912 347.692 424.864 349.737 425.35 351.149C425.301 352.561 424.475 353.291 423.212 353.34ZM433.659 347.06C434 348.569 433.222 349.494 431.959 349.396C429.675 349.25 429.334 347.157 428.994 345.453C428.703 343.846 429.82 342.727 431.327 342.873C433.951 343.067 432.736 345.794 433.659 347.06ZM375.297 346.135C387.883 349.445 400.615 350.614 413.541 349.25C415.388 349.056 417.283 348.179 417.575 351.198C417.817 353.583 416.505 354.362 414.416 354.8C405.183 356.796 395.998 358.014 386.425 356.212C379.185 354.849 371.944 353.827 364.898 351.49C360.379 350.029 357.366 347.352 356.442 341.51C363.294 343.213 369.32 344.577 375.248 346.135L375.297 346.135ZM280.926 258.649C284.571 251.444 287.535 243.898 291.034 236.644C293.415 231.678 295.65 226.517 300.558 223.304C301.482 222.671 302.454 221.746 302.891 220.773C306.681 211.522 314.068 204.415 317.712 195.019C319.851 189.517 323.544 184.649 326.751 179.05C332.291 185.184 337.345 190.783 341.718 197.015C344.196 200.52 345.071 204.609 345.897 208.699C346.14 209.916 346.675 211.23 347.89 211.133C349.542 210.987 349.979 209.429 349.833 207.969C349.299 202.857 347.938 197.891 345.314 193.509C342.204 188.397 339.143 183.286 334.478 179.245C329.812 175.204 329.569 174.036 332.291 168.437C333.992 164.883 333.506 161.865 332.194 158.505C329.764 152.42 328.403 146.383 330.347 139.616C333.846 127.542 344.537 122.868 355.616 129.343C358.192 130.853 360.476 132.897 362.808 134.747C366.793 137.912 370.681 141.174 374.617 144.387C379.671 148.574 385.551 151.203 391.819 153.004C393.374 153.442 394.978 153.637 396.582 153.783C397.845 153.88 398.914 153.345 399.303 152.079C399.692 150.716 398.817 149.791 397.748 149.353C395.853 148.622 393.18 148.72 391.965 147.405C389.001 144.241 385.162 144.387 381.614 143.17C376.609 141.466 372.722 137.522 368.64 134.163C365.627 131.68 362.76 129.003 359.747 126.471C353.964 121.651 347.209 120.824 340.115 122.089C335.547 122.917 332.096 125.692 330.104 129.879C325.585 139.372 323.398 149.109 327.771 159.284C329.132 162.449 329.132 165.272 327.869 168.534C326.459 172.234 324.904 175.788 322.718 179.099C316.06 189.079 309.354 199.059 302.891 209.137C294.144 222.817 287.049 237.325 280.732 252.223C280.051 253.829 279.808 255.825 277.427 256.848C272.471 241.901 270.673 226.761 273.297 211.376C276.407 193.022 282.53 175.545 292.783 159.868C300.899 147.405 309.937 135.526 322.134 126.861C345.654 110.162 371.75 101.155 401.004 100.912C418.741 100.766 435.312 103.93 451.445 110.795C457.374 113.326 463.74 114.836 469.717 117.27C478.367 120.824 485.85 125.984 492.167 133.092C499.651 141.563 507.718 149.547 513.403 159.528C528.176 185.379 532.841 212.642 524.677 241.658C521.859 251.638 515.882 259.915 509.953 268.094C500.963 280.411 490.515 291.511 479.581 302.124C469.668 311.715 458.103 318.871 445.322 323.983C438.908 326.563 432.542 329.29 426.419 332.552C424.475 333.623 423.017 333.963 421.997 331.578C421.462 330.41 421.268 329.29 422.823 328.852C425.252 328.17 427.682 327.391 430.161 327.002C435.117 326.223 439.053 324.081 442.892 320.673C447.072 316.973 450.959 312.494 457.131 311.52C459.755 311.082 461.844 309.037 460.581 305.921C459.706 303.731 461.601 301.881 460.824 299.836C460.386 298.716 459.803 297.742 458.54 297.499C457.374 297.256 456.985 298.327 456.645 299.106C453.923 305.727 447.217 308.258 442.892 312.981C440.706 312.007 441.483 309.183 439.151 308.696C437.304 309.427 436.769 311.277 435.895 312.883C434.34 315.756 433.028 318.92 428.654 317.07C428.071 316.827 427.05 317.703 426.176 317.946C424.378 318.433 422.92 321.744 420.976 319.602C418.838 317.167 414.61 317.021 414.464 312.153C414.27 306.213 412.618 300.371 413.347 294.237C414.902 281.531 423.6 276.808 434.971 282.796C437.401 284.111 439.782 285.523 442.261 286.788C448.529 290.099 455.187 291.365 462.233 291.511C468.405 291.657 472.875 288.882 474.722 283.527C476.569 278.123 479.97 274.52 484.246 271.307C489.446 267.412 490.661 261.473 491.439 255.63C491.779 253.002 492.119 250.908 494.16 248.961C499.651 243.654 499.408 237.617 496.006 231.24C492.508 224.667 486.919 219.604 483.323 213.08C482.546 211.669 481.477 210.403 480.65 209.04C476.86 202.467 476.909 200.471 482.303 195.067C484.975 192.39 485.024 190.734 482.789 187.521C475.208 176.665 465.44 168.388 454.215 161.718C448.141 158.116 449.112 158.018 450.57 153.15C451.834 148.963 452.417 144.533 452.174 140.103C451.882 133.822 450.084 132.751 444.302 134.991C441.046 136.208 437.887 137.571 434.68 138.934C425.836 142.732 416.943 145.312 407.127 142.975C403.093 142.001 398.866 142.634 394.784 144.922C397.748 145.02 400.761 145.555 403.676 145.166C407.758 144.63 411.403 145.799 415.193 146.87C425.01 149.596 434.583 153.101 442.892 159.041C454.847 167.609 467.676 175.253 476.569 187.521C478.172 189.761 479.436 191.513 477.589 194.288C472.389 201.883 475.256 208.845 479.727 215.515C482.74 220.042 485.947 224.521 489.592 229.73C483.566 229.584 478.561 229.73 473.847 231.824C471.612 232.846 469.328 231.434 467.044 231.386C463.399 231.337 462.282 232.749 462.719 236.449C463.351 242.048 466.412 246.234 470.348 250.032C473.118 252.709 477.832 254.267 478.561 257.919C479.241 261.473 478.221 266.049 476.374 269.262C473.75 273.838 472.778 279.048 469.911 283.478C468.988 284.938 467.773 285.961 466.121 286.204C460.629 287.032 455.09 287.811 449.793 285.328C445.419 283.234 440.949 281.336 436.769 278.902C425.544 272.329 415.145 277.49 412.035 289.125C409.945 296.915 410.674 304.704 411.646 312.542C411.889 314.587 412.861 316.535 412.035 319.163C409.411 317.8 407.564 318.871 405.669 320.965C403.093 323.788 400.712 323.545 397.845 320.965C394.443 317.849 389.244 317.46 385.356 320.186C383.121 321.744 381.323 324.178 378.261 324.227C375.2 324.227 376.075 326.612 375.686 328.17C375.151 330.507 377.046 331.042 378.553 331.14C385.405 331.724 392.257 333.136 399.206 331.967C402.413 331.432 405.572 330.799 408.779 330.361C410.577 330.117 412.472 330.069 414.27 330.263C416.797 330.556 417.72 332.746 417.866 334.742C418.06 336.982 415.728 336.69 414.27 337.128C401.198 340.731 388.223 339.367 375.297 336.154C364.315 333.428 353.429 330.361 342.933 326.174C332.291 321.89 323.155 315.074 314.602 307.674C302.016 296.72 290.694 284.598 282.092 270.041C279.76 266.098 278.934 262.787 281.121 258.503L280.926 258.649ZM480.942 267.461C480.796 262.057 483.518 258.454 487.648 255.387C488.183 262.154 486.53 265.173 480.942 267.461ZM477.006 238.542C479.581 237.374 481.768 239.808 481.671 242.924C481.574 245.455 480.748 247.841 479.533 250.08C472.001 248.474 468.016 244.725 466.023 236.838C469.717 238.494 472.924 240.392 477.054 238.542L477.006 238.542ZM480.408 234.988C485.024 233.528 488.62 235.378 492.07 236.449C494.792 237.325 495.18 241.317 492.896 243.946C490.855 246.38 488.28 248.182 485.218 249.788C483.323 244.774 483.906 239.467 480.359 234.94L480.408 234.988ZM439.151 153.345C436.283 151.787 432.299 151.738 430.549 147.016C437.207 145.02 443.184 142.342 449.064 138.593C450.327 142.44 449.987 145.653 449.307 148.72C447.46 156.704 446.343 157.24 439.199 153.345L439.151 153.345ZM269.701 266.974C270.478 269.278 269.749 271.583 267.514 273.887C267.757 271.502 267.951 269.116 269.701 266.974ZM273.005 283.088C270.608 280.362 270.835 277.198 273.686 273.595C278.156 279.827 282.384 286.058 286.952 291.998C295.699 303.438 306.293 313.078 317.615 321.841C326.994 329.095 337.102 335.132 348.473 338.637C352.749 339.952 354.644 343.019 355.422 347.546C345.217 342.775 334.429 339.806 324.953 333.428C312.901 325.346 303.085 315.171 293.075 304.899C286.126 297.791 279.565 290.44 273.005 282.991L273.005 283.088Z" fill="#F9EEED"/>
<path d="M467.433 50.5717C474.09 49.8901 480.748 49.6954 487.454 49.1598C489.495 49.0138 491.779 49.0625 492.751 46.6769C493.82 43.9506 491.827 42.3927 490.224 40.7375C487.891 38.3519 484.83 37.2809 481.768 36.2098C479.436 35.3822 476.763 35.0901 475.257 32.169C478.124 30.6111 480.991 29.394 484.052 28.5664C495.375 25.4506 506.697 22.3348 517.971 19.1703C519.721 18.6835 521.47 18.0019 523.074 17.1256C524.386 16.444 524.92 15.0808 524.532 13.5716C524.046 11.7703 522.539 11.9164 521.179 12.0624C520.061 12.2085 518.895 12.5006 517.777 12.7927C506.843 15.519 495.861 18.148 484.975 21.1177C478.318 22.919 471.903 25.6453 465.295 27.398C461.844 28.323 463.302 31.4874 461.747 33.3375C460.581 34.7493 463.497 35.4309 464.76 36.1125C467.384 37.573 470.203 38.644 472.778 40.1533C473.993 40.8348 476.18 40.8835 475.742 43.7072C461.553 44.2914 447.655 47.5533 433.514 49.2085C428.022 49.8414 422.677 51.3506 417.332 52.7138C415.145 53.298 414.124 54.9046 414.707 56.852C415.193 58.5559 416.991 57.777 418.304 57.5335C434.583 54.223 451.008 52.1296 467.53 50.523L467.433 50.5717Z" fill="#F9EEED"/>
<path d="M251.866 99.8908C258.669 99.2092 265.57 97.9434 272.13 95.7039C274.22 94.9737 277.33 94.3408 277.184 91.7118C276.99 88.45 273.539 89.9592 271.547 89.2289C267.757 87.8658 263.286 89.4237 258.426 86.0158C268.777 84.8473 276.261 79.5408 284.23 75.646C292.297 71.7513 301.335 70.3881 308.965 65.5684C305.709 65.8605 302.696 67.1263 299.586 67.3697C291.082 68.0513 283.55 71.2644 276.066 74.9644C269.652 78.1776 262.946 80.6118 255.802 81.6829C254.004 81.975 252.206 82.4618 250.408 82.8513C247.881 83.3381 247.007 85.3342 247.007 87.4276C247.007 89.375 249.145 89.4723 250.603 90.0566C253.178 91.0789 256.191 90.2026 258.766 92.1013C257.6 94.2434 256.045 93.6592 254.782 93.8053C240.3 95.6066 226.305 98.8684 213.379 106.122C209.005 108.605 205.118 111.964 200.21 113.62C197.197 114.593 197.051 117.125 197.877 119.997C201.765 119.803 204.535 117.612 207.45 115.859C221.203 107.534 235.733 101.546 251.963 99.8908L251.866 99.8908Z" fill="#F9EEED"/>
<path d="M308.674 24.4291C308.674 21.508 308.139 18.587 307.75 14.887C319.316 18.3436 330.493 21.362 341.913 23.6988C342.01 19.8528 339.288 19.2199 336.567 18.3922C326.897 15.4225 317.226 12.3554 307.507 9.33696C306.001 8.85012 304.3 7.53564 302.988 8.8988C301.53 10.4567 301.384 12.5014 302.405 14.6922C303.668 17.3212 305.078 19.9988 305.078 23.1146C302.454 23.5528 300.801 21.9949 299.344 20.8265C290.839 14.1567 281.218 9.82381 270.916 7.09749C262.849 4.95538 255.462 1.06063 247.59 -1.56832C245.501 -2.2499 244.188 -2.73674 242.876 0.233001C241.321 3.73827 243.946 3.88432 245.452 4.5659C251.138 7.0488 256.92 9.43433 262.8 11.4791C273.88 15.3251 285.348 18.2949 295.262 25.0133C297.351 26.4251 299.489 27.837 301.773 28.9567C306.487 31.2936 308.722 29.8817 308.674 24.5265L308.674 24.4291Z" fill="#F9EEED"/>
<path d="M404.259 14.9841L404.356 15.0815C404.356 15.0815 404.502 14.9354 404.551 14.8867C404.454 14.8867 404.356 14.9841 404.259 14.9841Z" fill="#F9EEED"/>
<path d="M434.729 -4.00377C439.685 -7.11956 439.831 -7.55772 434.486 -11.6959C441.678 -14.9091 448.384 -18.317 454.264 -23.1854C456.159 -24.792 460.678 -25.4249 458.443 -28.7354C456.45 -31.7051 453.097 -28.7354 451.299 -27.1775C445.128 -21.6762 437.499 -18.9012 430.306 -15.3959C428.654 -14.5683 426.905 -13.9354 425.155 -13.3512C423.114 -12.6696 423.357 -10.8196 423.066 -9.35904C422.774 -7.9472 424.086 -7.60641 425.155 -7.07088C426.516 -6.3893 428.411 -6.73009 429.14 -5.02614C428.168 -2.25114 425.739 -1.37482 423.552 -0.157711C416.457 3.8344 409.605 8.1673 404.6 14.837C407.175 14.0094 409.362 12.5976 411.598 11.0884C419.227 5.92782 426.953 0.864657 434.777 -4.05246L434.729 -4.00377Z" fill="#F9EEED"/>
<path d="M366.841 376.758C367.91 388.978 368.105 401.246 368.542 413.466C368.591 415.268 367.765 417.702 370.194 418.091C372.575 418.481 372.575 415.803 373.304 414.245C373.596 413.612 373.645 412.882 373.645 412.2C373.256 399.494 373.256 386.787 369.028 374.519C368.493 372.912 367.862 371.257 367.327 369.65L365.383 369.65C366.064 371.987 366.647 374.324 366.89 376.807L366.841 376.758Z" fill="#F9EEED"/>
<path d="M399.983 423.885C400.081 419.308 402.996 415.754 400.469 411.081C396.339 422.083 394.006 432.94 388.952 442.774C388.661 443.358 388.709 444.137 388.758 444.819C388.758 445.208 389.195 445.549 389.438 445.89C390.507 445.987 391.139 445.306 391.674 444.527C399.109 433.67 406.641 422.862 413.979 411.957C415.485 409.669 417.478 406.991 417.478 404.508C417.478 396.281 421.122 388.734 421.462 380.604C421.608 376.953 421.802 373.253 421.948 369.602L418.061 369.602C418.547 389.611 414.465 407.77 400.081 423.836L399.983 423.885Z" fill="#F9EEED"/>
<path d="M433.368 373.935C435.943 393.36 433.805 412.687 430.841 431.869C429.626 439.658 426.176 446.864 422.774 453.972C414.319 471.693 408.196 489.998 408.147 509.861C408.147 517.748 407.078 525.538 406.106 533.327C405.28 539.997 403.531 546.472 402.753 553.141C399.352 583.034 396.047 612.974 398.526 643.061C399.449 654.454 399.643 666.089 404.211 677.092C405.766 680.889 407.516 682.739 410.966 683.713C417.866 685.611 424.669 687.754 431.23 690.723C441.532 695.348 447.558 703.186 450.182 713.946C452.271 722.417 452.271 722.319 444.107 725.971C440.463 727.577 436.381 729.135 436.672 734.977C442.407 733.225 447.898 731.667 453.292 729.865C455.819 729.038 456.645 726.896 456.402 724.315C456.062 720.615 455.916 716.915 455.43 713.264C453.826 700.704 447.46 691.259 436.284 685.319C429.335 681.619 422.094 678.455 414.27 677.14C408.196 676.167 405.183 673.051 404.357 666.722C402.073 649.05 400.275 631.328 401.247 613.461C402.607 588.73 404.503 564.095 409.022 539.705C410.966 529.286 412.278 518.722 412.667 508.011C412.958 499.93 413.881 491.848 415.777 483.961C418.061 474.419 422.386 465.753 426.419 456.941C431.91 444.868 437.061 432.551 438.082 419.357C439.054 407.186 439.539 394.918 438.956 382.6C438.762 378.219 438.179 373.886 437.304 369.65L432.396 369.65C432.785 371.062 433.174 372.523 433.368 373.983L433.368 373.935Z" fill="#F9EEED"/>
<path d="M289.819 794.031C298.129 789.941 300.267 785.706 298.275 776.748C297.934 775.19 297.351 773.632 296.914 772.074C295.553 767.352 292.638 764.285 287.972 762.24C282.092 759.708 275.97 758.978 269.798 758.248C262.46 757.42 255.074 757.031 247.736 755.911C235.782 754.061 225.674 747.83 215.761 741.501C203.029 733.37 189.374 729.524 174.358 730.352C160.023 731.131 145.833 730.352 131.74 727.09C117.308 723.682 102.632 721.929 87.8107 722.027C78.0918 722.027 68.47 721.783 58.7997 720.469C51.9478 719.544 45.8249 717.207 40.2851 713.312C36.9806 710.975 36.9806 707.762 40.0907 705.231C42.812 702.991 46.0679 701.433 49.4209 700.849C63.562 698.464 77.7517 697.003 92.1357 698.269C94.9056 698.512 96.4606 699.583 98.0156 702.115C104.139 711.949 112.934 718.327 124.451 720.469C149.429 725.143 174.552 724.072 199.676 722.124C220.134 720.518 240.398 716.574 261.051 717.548C267.417 717.84 272.811 719.3 277.33 723.828C280.1 726.603 282.919 729.378 285.689 732.153C289.09 735.561 293.172 736.437 297.789 735.756C302.308 735.074 306.293 732.202 311.104 732.64C311.978 732.737 313.29 731.618 313.825 730.693C316.255 726.603 319.899 727.285 323.592 727.82C329.035 728.648 334.526 729.427 339.969 730.352C342.787 730.839 344.245 729.768 345.12 727.139C346.238 723.877 347.598 720.761 348.959 717.402C351.243 719.252 351.291 721.686 351.777 723.828C354.45 734.685 361.593 739.748 372.333 741.355C389.924 743.983 407.321 742.815 424.767 740.283C426.565 740.04 428.217 739.018 430.015 738.628C431.619 738.239 432.202 737.119 432.785 735.853C438.082 723.828 432.639 708.395 421.171 702.261C416.651 699.876 412.035 697.879 407.224 696.322C401.198 694.374 396.873 690.577 394.103 684.783C391.479 679.331 388.855 673.975 387.494 668.036C382.392 645.495 377.29 622.954 372.284 600.414C367.085 577.142 363.683 553.579 362.322 529.724C361.691 518.965 362.517 508.4 366.064 498.225C371.701 482.062 376.075 465.509 383.704 450.076C384.87 447.691 386.425 445.208 384.53 442.384C382.052 442.871 381.76 444.916 380.934 446.425C372.527 461.176 367.085 477.194 361.205 492.967C357.609 502.704 355.422 513.074 355.568 523.541C355.957 546.228 359.407 568.671 363.44 590.969C366.89 609.858 372.382 628.261 377.533 646.712C380.059 655.816 382.1 665.115 384.627 674.219C388.661 688.727 395.513 700.752 411.743 704.452C414.805 705.133 417.72 706.886 420.49 708.541C428.217 713.166 432.007 722.465 430.112 731.277C429.578 733.76 428.8 734.831 425.933 734.052C422.094 732.981 418.109 733.711 414.222 734.344C400.858 736.486 387.446 736.632 374.277 734.003C367.279 732.591 361.885 728.404 358.921 720.858C357.22 716.477 356.685 711.998 355.422 707.665C351 692.622 344.245 678.308 341.67 662.729C341.427 661.171 340.698 659.614 340.017 658.202C334.769 647.443 329.57 636.683 324.078 626.021C321.6 621.25 321.065 615.944 318.83 611.075C312.999 598.271 307.556 585.273 304.495 571.446C303.717 567.941 302.065 564.923 300.218 562.05C290.111 545.887 281.704 529.14 279.08 509.812C277.816 500.416 277.525 490.923 276.067 481.526C274.317 470.28 269.847 459.716 267.806 448.616C265.473 435.909 259.35 424.712 255.608 412.59C255.608 412.492 254.879 412.59 254.442 412.59C253.47 414.926 254.442 417.166 254.977 419.357C257.018 427.39 259.156 435.471 261.391 443.455C266.348 461.225 267.077 479.579 267.951 497.738C268.729 514.048 274.172 528.409 281.218 542.431C291.666 563.073 301.579 583.958 308.528 606.061C312.416 618.475 317.421 630.354 322.475 642.282C327.577 654.404 334.235 665.845 337.442 678.747C337.831 680.353 339.337 682.008 337.636 684.053C330.833 680.743 324.176 677.14 316.498 675.971C308.722 674.754 300.947 676.312 292.783 676.02C294.095 666.721 296.671 658.64 300.073 650.753C300.899 648.903 302.114 647.004 303.62 645.69C308.82 641.114 310.375 634.785 312.075 628.553C312.367 627.482 312.513 626.265 310.909 625.632C309.306 626.752 309.306 628.748 308.868 630.403C307.556 635.174 305.418 639.507 302.356 643.304C299.538 646.81 297.497 650.607 296.234 654.843C294.776 659.711 293.415 664.628 292.103 669.496C290.937 673.732 289.382 677.432 283.988 677.237C282.384 677.189 280.586 677.383 280.635 679.72C280.635 681.619 282.335 681.619 283.599 682.008C289.527 683.81 295.553 683.031 301.482 682.3C308.042 681.473 314.457 681.668 320.725 683.372C332.582 686.585 342.739 691.843 345.606 705.474C346.918 711.706 345.363 717.353 343.468 723.098C342.69 725.337 341.329 725.629 339.191 725.337C333.506 724.51 327.772 723.536 322.037 723.293C318.053 723.147 316.984 721.443 316.692 717.84C316.012 708.931 311.638 701.628 305.953 695.007C304.786 693.644 303.62 692.086 301.725 691.551C293.95 689.311 286.126 687.218 278.011 687.169C261.391 687.071 244.772 687.266 228.444 691.112C222.418 692.524 216.198 693.644 210.026 694.179C204.924 694.666 200.502 696.565 195.983 698.512C200.551 699.437 205.021 699.632 209.589 698.804C223.196 696.322 236.997 694.91 250.798 694.179C256.775 693.839 262.752 694.082 268.68 695.348C278.545 697.441 288.458 699.437 298.615 699.535C300.121 699.535 301.579 699.827 302.308 701.044C305.953 707.373 311.735 712.436 312.561 720.372C313.242 727.139 311.687 729.719 304.981 730.547C295.877 731.683 288.086 728.859 281.607 722.075C281.266 721.735 281.023 721.345 280.732 721.004C275.97 715.844 270.187 713.069 263.043 712.826C248.951 712.339 234.907 712.533 220.912 714.578C215.664 715.357 210.318 715.454 205.118 716.331C201.96 716.866 199.481 714.578 196.371 715.016C187.673 716.331 178.926 716.039 170.179 716.477C165.757 716.672 161.432 716.964 157.204 715.747C154.629 715.016 152.247 715.649 149.72 715.893C140.585 716.915 131.546 715.26 123.771 710.829C111.768 704.062 104.965 692.768 101.563 679.477C98.3072 666.721 98.1128 653.723 100.057 640.87C103.555 617.794 107.832 594.815 114.878 572.517C119.592 557.523 122.41 542.041 127.561 527.144C134.51 506.891 143.597 487.709 155.357 469.891C167.215 451.926 181.258 435.617 195.74 419.697C208.957 405.19 222.078 390.536 233.012 374.178C234.032 372.668 234.956 371.11 235.879 369.504L229.173 369.504C219.988 382.892 209.2 395.161 197.829 406.942C178.391 427.097 160.217 448.178 145.444 472.082C136.697 486.297 129.505 501.146 123.819 516.92C119.009 530.211 115.85 543.94 111.768 557.425C103.847 583.569 97.6755 610.102 93.3991 637.024C92.2329 644.327 89.1228 649.39 83.1456 653.09C82.1738 653.723 81.1047 654.161 80.1328 654.794C70.7054 661.269 59.9174 664.823 49.3723 668.912C37.3208 673.586 25.3179 678.26 14.2869 685.173C9.5732 688.094 6.07442 692.037 3.4503 696.565C-0.340102 703.089 -1.02043 710.099 2.57558 717.11C6.85191 725.532 13.6066 731.472 21.9649 735.269C33.1417 740.332 45.0474 743.204 57.3905 743.837C73.8155 744.665 90.1433 742.864 106.52 742.426C127.901 741.841 148.991 743.935 169.11 751.676C189.131 759.416 208.763 768.18 227.812 778.16C238.843 783.953 250.069 789.406 261.78 793.739C271.061 797.147 280.586 798.607 290.062 793.934L289.819 794.031ZM119.835 712.29C112.06 709.807 106.763 704.987 105.305 696.711C109.824 702.358 115.461 706.691 119.835 712.29ZM271.888 787.653C265.084 786.144 258.573 783.953 252.304 780.984C234.81 772.61 217.462 764.041 199.87 755.911C184.952 748.998 169.498 743.302 153.316 740.381C131.449 736.389 109.29 735.902 87.1304 738.093C71.2885 739.651 55.3009 740.965 39.6048 737.022C29.1083 734.393 19.0978 730.595 11.0797 722.514C4.95674 716.331 4.56798 706.643 9.33025 700.557C13.9468 694.618 19.0492 689.7 25.8524 686.244C39.8477 679.087 53.9402 672.32 69.199 668.231C74.7388 666.77 79.5983 663.314 85.138 661.756C86.6445 661.317 88.0051 660.246 90.5806 660.685C91.3581 670.275 91.5039 679.769 94.2252 688.921C94.7112 690.528 93.6907 691.648 92.1843 691.989C88.8312 692.719 85.4296 693.79 82.028 693.839C70.4624 694.033 59.0426 695.396 47.7201 697.441C41.8401 698.512 36.9806 701.287 34.7939 707.568C33.2875 711.9 34.3079 715.26 37.7582 718.035C42.9092 722.173 48.9835 724.364 55.3981 725.63C63.1246 727.187 70.9484 728.21 78.7721 728.064C100.348 727.674 121.536 730.498 142.577 735.123C153.219 737.46 164.153 737.119 174.99 736.973C188.499 736.778 200.988 740.137 212.408 747.489C216.101 749.874 219.94 751.968 223.73 754.207C234.858 760.828 247.007 764.09 259.885 764.966C265.424 765.356 270.916 765.94 276.407 766.524C279.857 766.914 283.113 768.082 286.369 769.299C290.985 771.003 292.152 774.995 293.075 779.085C293.707 781.762 291.763 783.418 289.77 784.683C284.231 788.14 278.205 789.162 271.839 787.751L271.888 787.653Z" fill="#F9EEED"/>
<path d="M131.935 583.813C131.303 580.648 133.004 578.36 134.705 576.315C145.687 563.317 158.905 553.677 175.67 549.442C178.343 548.76 181.064 548.225 183.883 548.225C204.73 548.225 223.925 553.093 240.885 566.14C256.824 578.409 269.555 592.771 275.678 612.342C279.955 625.925 280.003 639.118 273.832 652.166C270.381 659.468 268.243 667.355 263.821 674.22C261.391 678.017 256.872 679.039 253.276 676.41C252.11 675.534 252.061 674.512 252.839 673.441C253.228 672.905 253.762 672.37 254.345 672.029C262.995 666.673 265.376 657.716 267.903 648.758C268.195 647.638 268.195 646.323 268.826 645.447C273.006 639.508 271.305 633.081 270.527 626.704C268.972 614.533 264.064 603.919 257.115 593.793C238.844 567.163 213.137 556.014 181.842 556.89C171.588 557.183 162.258 562.002 153.657 567.601C147.485 571.642 141.46 575.926 136.357 581.379C135.288 582.547 134.17 583.764 132.032 583.764L131.935 583.813Z" fill="#F9EEED"/>
<path d="M342.108 465.656C348.036 475.88 347.356 487.223 348.085 498.323C348.765 508.839 348.619 519.404 351.146 529.773C352.701 536.2 354.256 542.723 353.722 551C350.612 545.693 349.883 541.117 348.862 536.638C346.432 525.587 346.627 514.243 345.023 503.143C344.246 497.739 344.829 492.092 344.926 486.591C345.023 481.917 344.732 477.389 342.545 473.154C341.33 470.817 341.33 468.285 342.156 465.705L342.108 465.656Z" fill="#F9EEED"/>
<path d="M394.977 20.1449C398.816 18.0028 401.489 16.4936 404.113 15.0331C400.663 14.7896 397.747 15.666 394.977 20.1449Z" fill="#F9EEED"/>
<path d="M404.259 14.9844C404.259 14.9844 404.162 15.0331 404.113 15.0817C404.211 15.0817 404.308 15.0817 404.356 15.0817L404.259 14.9844Z" fill="#F9EEED"/>
<path d="M349.736 301.588C355.762 295.161 362.857 290.001 369.271 284.013C377.581 276.272 386.036 268.629 396.679 264.49C409.265 259.573 421.997 254.705 435.457 252.514C436.867 252.271 438.665 252.611 439.782 250.469C434.728 248.863 430.403 251.394 425.933 251.686C413.978 252.465 402.85 256.311 392.645 262.251C387.251 265.367 383.558 264.247 379.719 260.693C374.714 256.117 369.174 252.514 362.808 250.177C361.545 249.69 360.378 248.863 359.164 248.181C353.235 244.578 351.923 241.803 353.624 234.89C354.839 229.973 356.491 225.153 357.949 220.285C358.597 218.11 358.742 215.449 358.386 212.301C353.284 220.967 350.125 229.778 349.396 239.321C348.861 246.088 351.291 251.394 357.949 254.461C365.044 257.723 371.701 261.959 378.99 264.928C382.829 266.486 383.072 267.996 379.865 270.089C373.013 274.471 367.522 280.507 361.35 285.668C355.373 290.682 350.319 296.671 345.12 303.584C347.938 303.779 348.861 302.561 349.736 301.636L349.736 301.588Z" fill="#F9EEED"/>
<path d="M433.076 185.429C428.217 184.455 423.406 185.039 418.789 186.354C414.707 187.522 411.111 187.035 407.661 184.65C406.738 184.017 405.815 183.287 404.843 182.702C404.017 182.167 403.142 181.972 402.461 182.995C401.927 183.773 401.587 184.698 402.364 185.477C403.336 186.451 404.308 187.425 405.426 188.204C410.966 191.904 416.846 192.245 423.163 190.2C432.979 186.987 438.47 189.567 443.718 198.33C446.44 202.858 446.877 208.359 450.765 213.763C449.501 206.363 446.343 200.959 444.593 195.068C442.892 189.421 438.665 186.597 433.076 185.477L433.076 185.429Z" fill="#F9EEED"/>
<path d="M437.984 207.58C435.846 205.486 434.145 204.123 436.235 200.91C437.158 199.449 436.624 196.674 433.805 197.891C429.383 199.839 428.508 197.891 428.508 194.094C428.508 193.12 427.731 192.487 426.759 192.195C423.309 193.461 425.836 197.843 423.066 199.79C421.122 198.281 419.324 196.869 417.574 195.506C418.449 197.745 419.615 199.644 421.268 200.764C424.523 202.955 427.148 205.778 430.646 207.726C438.956 212.351 439.977 215.223 438.324 224.716C438.081 225.982 437.061 227.248 438.567 229.147C442.698 221.455 442.552 212.107 437.984 207.628L437.984 207.58Z" fill="#F9EEED"/>
<path d="M411.112 273.304C416.992 268.289 423.698 264.687 430.987 262.35C434.777 261.133 438.325 259.721 442.018 257.141C436.235 256.605 431.813 259.77 426.905 260.597C415.534 262.496 407.71 270.139 399.109 276.614C397.311 277.978 395.999 280.022 397.748 281.872C399.012 283.235 400.664 281.434 401.879 280.558C405.037 278.221 408.148 275.835 411.112 273.304Z" fill="#F9EEED"/>
<path d="M314.991 272.329C314.456 255.338 315.477 238.64 322.717 222.866C325.293 217.219 328.063 211.62 330.687 205.973C331.27 204.658 332.728 203.344 330.541 201.299C320.871 218.728 313.63 236.595 312.707 256.653C312.367 263.956 312.804 275.445 314.602 279.145C315.817 276.711 315.088 274.471 314.991 272.329Z" fill="#F9EEED"/>
<path d="M344.731 136.453C348.182 134.505 351.729 134.31 354.547 137.962C355.131 138.741 355.859 140.055 357.512 138.838C356.929 135.771 354.353 134.018 352.458 131.828C351.68 130.951 350.465 130.61 349.299 130.854C342.496 132.168 337.345 135.917 334.526 142.197C332.242 147.309 334.089 151.934 337.782 155.829C337.393 152.957 336.956 150.084 336.616 147.212C335.887 141.078 340.552 138.789 344.731 136.453Z" fill="#F9EEED"/>
<path d="M337.928 156.023C337.928 156.023 337.831 155.926 337.782 155.877C337.782 155.974 337.782 156.072 337.782 156.169L337.879 156.023L337.928 156.023Z" fill="#F9EEED"/>
<path d="M387.689 253.002C396.533 252.515 404.697 248.961 413.201 246.478C404.065 245.894 395.416 247.452 387.689 253.002Z" fill="#F9EEED"/>
<path d="M478.804 292.631C478.998 290.489 478.901 289.077 477.443 288.347C475.597 287.471 475.257 289.223 474.576 290.294C473.556 291.901 471.758 292.485 470.3 293.556C468.308 295.065 467.481 297.694 468.502 299.642C469.863 302.173 472.195 299.934 473.896 299.35C477.249 298.23 478.755 295.455 478.804 292.631Z" fill="#F9EEED"/>
<path d="M281.17 224.618C281.899 223.109 281.558 221.503 281.364 219.896C281.024 216.585 280.392 213.275 281.024 209.818C278.4 214.249 277.962 219.214 276.845 223.985C276.65 224.91 277.379 225.689 278.351 225.933C279.615 226.274 280.538 225.738 281.121 224.57L281.17 224.618Z" fill="#F9EEED"/>
<path d="M490.175 281.092C490.175 279.875 489.738 278.902 488.377 278.658C486.676 278.658 482.983 283.332 483.275 285.182C483.469 286.302 484.344 286.691 485.267 286.74C487.6 286.837 490.127 283.916 490.175 281.092Z" fill="#F9EEED"/>
<path d="M513.112 244.725C508.592 247.646 507.28 249.544 506.6 255.046C507.135 250.664 513.841 250.177 513.112 244.725Z" fill="#F9EEED"/>
<path d="M366.696 170.482L366.842 170.628C366.842 170.628 366.842 170.433 366.891 170.336C366.842 170.385 366.745 170.433 366.696 170.531L366.696 170.482Z" fill="#F9EEED"/>
<path d="M374.568 161.67C371.07 163.666 367.571 165.711 366.89 170.287C369.757 167.707 373.062 165.516 374.568 161.67Z" fill="#F9EEED"/>
<path d="M337.783 156.121C337.783 156.121 337.831 156.316 337.88 156.413L337.88 156.023L337.783 156.121Z" fill="#F9EEED"/>
<path d="M337.879 156.412C337.879 159.723 337.879 162.984 337.879 166.295C338.56 162.984 339.337 159.625 337.879 156.412Z" fill="#F9EEED"/>
<path d="M374.86 152.857C377.873 155.146 380.06 155 383.607 154.464C380.254 153.831 378.213 153.49 374.86 152.857Z" fill="#F9EEED"/>
<path d="M417.137 246.526C419.81 247.111 421.705 247.062 423.94 245.893C421.511 245.407 419.567 244.969 417.137 246.526Z" fill="#F9EEED"/>
<path d="M495.132 273.207C495.52 272.33 495.229 271.503 494.403 270.967C493.285 270.918 492.848 271.649 492.653 272.525C492.41 273.353 492.119 274.521 493.042 274.911C494.451 275.543 494.743 274.132 495.132 273.207Z" fill="#F9EEED"/>
<path d="M366.696 170.482C366.696 170.482 366.599 170.58 366.55 170.628C366.647 170.628 366.744 170.628 366.793 170.628L366.647 170.482L366.696 170.482Z" fill="#F9EEED"/>
<path d="M366.599 170.629C364.266 170.629 362.517 171.749 360.038 174.572C363.343 173.209 365.384 172.528 366.599 170.629Z" fill="#F9EEED"/>
<path d="M444.01 272.913C443.913 272.377 443.427 272.231 442.99 272.426C441.872 272.913 441.289 273.887 441.24 275.055C441.24 275.542 441.726 275.688 442.31 275.445C442.941 274.666 444.35 274.325 444.059 272.864L444.01 272.913Z" fill="#F9EEED"/>
</g>
<defs>
<clipPath id="clip0_181_1449">
<rect width="797" height="536" fill="white" transform="translate(536) rotate(90)"/>
</clipPath>
</defs>
</svg>
