<svg width="372" height="552" viewBox="0 0 372 552" fill="none" xmlns="http://www.w3.org/2000/svg">
<g clip-path="url(#clip0_347_3124)">
<path d="M166.54 249.409C168.496 243.474 172.105 238.248 174.027 232.246C174.095 232.044 174.567 232.01 175.106 231.774C176.017 235.517 176.219 239.293 176.59 243.036C176.692 243.946 176.793 245.093 178.108 245.059C179.019 245.059 179.659 244.25 179.525 243.441C179.322 242.126 181.514 242.328 180.772 240.339C177.805 232.651 176.826 224.592 176.253 216.365C176.051 213.397 176.557 211.105 177.872 208.677C178.513 207.463 179.12 206.485 179.187 204.867C179.255 202.54 180.941 200.416 182.897 198.932C184.82 197.482 186.438 197.617 187.787 199.708C192.543 207.025 199.322 212.453 205.359 218.556C210.957 224.221 216.522 230.021 223.402 234.303C230.991 239.024 238.545 243.812 247.146 246.576C248.832 247.116 250.653 247.453 251.328 249.409C252.07 251.601 252.913 253.759 253.587 255.95L254.936 255.95C254.194 253.759 253.52 251.499 253.385 248.937C265.628 251.095 277.533 253.725 289.742 249.679C289.91 251.803 290.045 253.86 290.079 255.95L292.777 255.95C292.845 254.5 292.912 253.084 292.912 251.634C292.912 249.341 294.666 249.24 296.15 248.802C297.735 248.33 298.072 249.679 298.409 250.656C298.983 252.41 299.624 254.163 300.129 255.95L303.536 255.95C303.131 254.062 302.625 252.174 301.984 250.353C301.242 248.296 301.006 246.779 303.165 245.464C305.29 244.149 305.593 242.261 304.48 240.069C304.109 239.361 303.873 238.585 303.57 237.843C302.895 235.989 303.435 234.977 305.391 234.235C308.966 232.887 312.44 231.201 315.947 229.616C322.085 226.817 327.886 223.344 332.878 218.792C341.714 210.666 350.28 202.237 357.329 192.424C361.343 186.827 365.423 181.196 367.582 174.587C374.799 152.468 373.282 131.057 362.388 110.353C358.071 102.16 352.068 95.3823 345.896 88.6386C340.365 82.6029 334.058 77.916 326.368 75.1511C321.681 73.4652 316.824 72.2176 312.338 70.1608C296.521 62.945 279.961 63.3496 263.267 65.2041C258.14 65.7773 257.803 65.7773 256.016 60.8881C255.678 60.0115 255.409 59.0336 255.375 58.0895C255.071 50.4354 254.127 42.7475 257.533 35.4306C258.444 33.4412 257.331 31.4855 255.375 30.8449C253.587 30.2379 249.709 31.8564 248.663 33.6098C247.281 35.9701 247.179 38.8699 249.27 40.1175C252.576 42.1069 252.474 45.0067 252.407 48.0751C252.272 53.2003 251.935 58.2918 253.284 63.3496C253.891 65.6762 252.879 67.3958 250.552 68.2388C249.338 68.6771 248.157 69.1492 246.977 69.655C241.176 72.3188 235.105 74.5105 229.541 77.7474C222.222 81.996 216.455 87.9305 210.856 94.1684C203.032 102.868 196.995 112.579 193.083 123.571C190.081 132.034 188.125 140.768 186.202 149.534C184.752 156.177 184.078 162.853 184.584 169.529C184.988 174.823 184.617 179.746 181.885 184.265C180.199 187.063 180.199 189.794 181.953 192.357C182.998 193.874 182.897 194.852 181.818 196.133C180.907 197.246 180.165 198.494 179.322 199.674C175.309 205.339 172.813 211.543 173.656 218.59C174.432 225.098 172.442 230.864 169.879 236.629C166.844 243.542 163.1 249.982 158.918 256.051L163.572 256.051C164.786 253.961 165.832 251.803 166.607 249.476L166.54 249.409ZM293.721 244.722C292.136 244.756 291.968 243.643 292.069 242.429C292.136 241.485 292.271 240.305 293.587 240.575C294.902 240.811 294.868 242.227 295.205 243.205C295.172 244.182 294.598 244.688 293.721 244.722ZM300.973 240.372C301.209 241.418 300.669 242.058 299.792 241.991C298.207 241.89 297.971 240.44 297.735 239.26C297.533 238.147 298.308 237.371 299.354 237.472C301.175 237.607 300.332 239.496 300.973 240.372ZM260.467 239.732C269.203 242.024 278.039 242.834 287.01 241.89C288.292 241.755 289.607 241.148 289.809 243.238C289.978 244.891 289.067 245.43 287.617 245.734C281.209 247.116 274.835 247.959 268.191 246.711C263.166 245.767 258.14 245.059 253.25 243.441C250.114 242.429 248.022 240.575 247.382 236.528C252.137 237.708 256.319 238.653 260.434 239.732L260.467 239.732ZM194.971 179.139C197.501 174.149 199.558 168.923 201.986 163.898C203.639 160.459 205.19 156.885 208.597 154.66C209.237 154.221 209.912 153.581 210.215 152.906C212.846 146.5 217.972 141.577 220.502 135.069C221.986 131.259 224.549 127.887 226.775 124.009C230.62 128.258 234.127 132.136 237.163 136.452C238.883 138.879 239.49 141.712 240.063 144.544C240.232 145.387 240.603 146.297 241.446 146.23C242.593 146.129 242.896 145.05 242.795 144.038C242.424 140.498 241.48 137.058 239.658 134.024C237.5 130.483 235.375 126.943 232.137 124.144C228.9 121.346 228.731 120.536 230.62 116.659C231.8 114.197 231.463 112.107 230.552 109.78C228.866 105.565 227.922 101.384 229.271 96.6973C231.699 88.3351 239.119 85.0981 246.808 89.5827C248.596 90.6279 250.181 92.0441 251.8 93.3254C254.565 95.5171 257.263 97.7763 259.995 100.002C263.503 102.902 267.584 104.722 271.934 105.97C273.014 106.273 274.127 106.408 275.24 106.509C276.116 106.577 276.858 106.206 277.128 105.329C277.398 104.385 276.791 103.744 276.049 103.441C274.734 102.935 272.879 103.003 272.036 102.092C269.978 99.9006 267.314 100.002 264.852 99.1588C261.378 97.9786 258.68 95.2474 255.847 92.9208C253.756 91.2012 251.766 89.3466 249.675 87.5933C245.662 84.2551 240.974 83.6819 236.05 84.5586C232.879 85.1318 230.485 87.0538 229.102 89.9536C225.966 96.5287 224.448 103.272 227.483 110.32C228.428 112.511 228.428 114.467 227.551 116.726C226.573 119.289 225.493 121.75 223.976 124.043C219.355 130.955 214.701 137.868 210.215 144.847C204.145 154.322 199.221 164.371 194.836 174.688C194.364 175.801 194.195 177.184 192.543 177.892C189.103 167.54 187.855 157.054 189.676 146.399C191.835 133.687 196.084 121.582 203.2 110.724C208.833 102.092 215.106 93.8649 223.571 87.863C239.894 76.2975 258.005 70.0596 278.309 69.891C290.619 69.7899 302.119 71.9816 313.316 76.7359C317.431 78.4893 321.849 79.5345 325.997 81.2205C332.001 83.6819 337.195 87.2561 341.579 92.179C346.773 98.046 352.371 103.576 356.317 110.488C366.57 128.393 369.808 147.275 364.142 167.371C362.186 174.284 358.037 180.016 353.923 185.681C347.683 194.212 340.432 201.899 332.844 209.25C325.964 215.893 317.937 220.849 309.067 224.39C304.615 226.177 300.197 228.065 295.947 230.324C294.598 231.066 293.587 231.302 292.878 229.65C292.507 228.84 292.372 228.065 293.452 227.762C295.138 227.289 296.824 226.75 298.544 226.48C301.984 225.941 304.716 224.457 307.381 222.097C310.281 219.534 312.979 216.432 317.262 215.758C319.084 215.454 320.534 214.038 319.657 211.88C319.05 210.363 320.365 209.081 319.826 207.665C319.522 206.89 319.117 206.215 318.24 206.047C317.431 205.878 317.161 206.62 316.925 207.159C315.036 211.745 310.382 213.499 307.381 216.769C305.863 216.095 306.403 214.139 304.784 213.802C303.502 214.308 303.131 215.589 302.524 216.702C301.445 218.691 300.534 220.883 297.499 219.602C297.094 219.433 296.386 220.04 295.779 220.209C294.531 220.546 293.519 222.839 292.17 221.355C290.686 219.669 287.752 219.568 287.651 216.196C287.516 212.082 286.369 208.036 286.875 203.788C287.954 194.987 293.991 191.716 301.883 195.864C303.57 196.774 305.222 197.752 306.942 198.629C311.293 200.921 315.913 201.798 320.804 201.899C325.087 202.001 328.19 200.079 329.471 196.369C330.753 192.627 333.114 190.132 336.082 187.906C339.69 185.209 340.533 181.095 341.073 177.049C341.309 175.228 341.545 173.778 342.962 172.429C346.773 168.754 346.604 164.573 344.243 160.156C341.815 155.604 337.937 152.097 335.441 147.579C334.901 146.601 334.159 145.724 333.586 144.78C330.955 140.228 330.989 138.846 334.733 135.103C336.587 133.248 336.621 132.102 335.07 129.876C329.809 122.357 323.03 116.625 315.239 112.006C311.023 109.51 311.698 109.443 312.709 106.071C313.586 103.171 313.991 100.103 313.822 97.0345C313.62 92.6848 312.372 91.943 308.359 93.494C306.099 94.337 303.907 95.2811 301.681 96.2252C295.543 98.8553 289.371 100.642 282.558 99.0239C279.759 98.3495 276.825 98.7879 273.992 100.373C276.049 100.44 278.14 100.811 280.164 100.541C282.997 100.17 285.526 100.98 288.157 101.721C294.969 103.61 301.613 106.037 307.381 110.151C315.677 116.086 324.581 121.379 330.753 129.876C331.866 131.427 332.743 132.641 331.461 134.563C327.852 139.823 329.842 144.645 332.945 149.265C335.036 152.4 337.262 155.503 339.791 159.11C335.609 159.009 332.136 159.11 328.864 160.56C327.313 161.268 325.728 160.291 324.143 160.257C321.613 160.223 320.837 161.201 321.141 163.764C321.579 167.641 323.704 170.541 326.436 173.171C328.358 175.026 331.63 176.105 332.136 178.633C332.608 181.095 331.9 184.265 330.618 186.49C328.797 189.659 328.122 193.267 326.132 196.336C325.492 197.347 324.648 198.055 323.502 198.224C319.691 198.797 315.846 199.337 312.17 197.617C309.134 196.167 306.032 194.852 303.131 193.166C295.34 188.614 288.123 192.188 285.964 200.247C284.514 205.642 285.02 211.037 285.695 216.466C285.863 217.882 286.538 219.231 285.964 221.052C284.143 220.107 282.862 220.849 281.546 222.299C279.759 224.255 278.106 224.086 276.116 222.299C273.756 220.141 270.147 219.871 267.449 221.76C265.897 222.839 264.65 224.525 262.525 224.558C260.4 224.558 261.007 226.21 260.737 227.289C260.366 228.908 261.682 229.279 262.727 229.346C267.483 229.751 272.238 230.729 277.061 229.919C279.287 229.549 281.479 229.11 283.705 228.807C284.953 228.638 286.268 228.604 287.516 228.739C289.27 228.942 289.91 230.459 290.012 231.841C290.147 233.392 288.528 233.19 287.516 233.494C278.444 235.989 269.439 235.045 260.467 232.819C252.845 230.931 245.291 228.807 238.006 225.907C230.62 222.94 224.279 218.219 218.343 213.094C209.608 205.507 201.75 197.111 195.781 187.029C194.162 184.298 193.588 182.005 195.106 179.038L194.971 179.139ZM333.788 185.242C333.687 181.5 335.576 179.004 338.442 176.88C338.813 181.567 337.667 183.658 333.788 185.242ZM331.056 165.213C332.844 164.404 334.362 166.09 334.294 168.248C334.227 170.002 333.653 171.654 332.81 173.205C327.583 172.092 324.817 169.496 323.434 164.033C325.997 165.18 328.223 166.495 331.09 165.213L331.056 165.213ZM333.417 162.752C336.621 161.74 339.117 163.022 341.512 163.764C343.4 164.371 343.67 167.135 342.085 168.956C340.668 170.642 338.881 171.89 336.756 173.003C335.441 169.529 335.846 165.854 333.384 162.718L333.417 162.752ZM304.784 106.206C302.794 105.127 300.028 105.093 298.814 101.823C303.435 100.44 307.583 98.5855 311.664 95.9892C312.541 98.653 312.305 100.878 311.832 103.003C310.551 108.533 309.775 108.903 304.817 106.206L304.784 106.206ZM187.18 184.905C187.72 186.501 187.214 188.097 185.663 189.693C185.831 188.041 185.966 186.389 187.18 184.905ZM189.474 196.066C187.81 194.178 187.967 191.986 189.946 189.491C193.049 193.807 195.983 198.123 199.153 202.237C205.224 210.16 212.576 216.837 220.434 222.906C226.944 227.93 233.959 232.111 241.851 234.539C244.819 235.449 246.134 237.574 246.673 240.709C239.591 237.405 232.104 235.348 225.527 230.931C217.163 225.334 210.35 218.287 203.403 211.172C198.58 206.249 194.027 201.158 189.474 195.999L189.474 196.066Z" fill="#EFECF0"/>
<path d="M324.412 35.0256C329.033 34.5536 333.653 34.4187 338.308 34.0478C339.724 33.9467 341.309 33.9804 341.984 32.3282C342.726 30.4399 341.343 29.3609 340.23 28.2145C338.611 26.5623 336.486 25.8205 334.362 25.0787C332.743 24.5054 330.888 24.3031 329.842 22.28C331.832 21.201 333.822 20.3581 335.947 19.7848C343.805 17.6268 351.663 15.4689 359.488 13.2771C360.702 12.94 361.916 12.4679 363.029 11.861C363.94 11.3889 364.311 10.4448 364.041 9.39951C363.704 8.15192 362.658 8.25308 361.714 8.35423C360.938 8.45539 360.129 8.6577 359.353 8.86001C351.764 10.7483 344.142 12.5691 336.588 14.6259C331.967 15.8735 327.515 17.7617 322.929 18.9756C320.534 19.6162 321.546 21.808 320.467 23.0893C319.657 24.0671 321.681 24.5392 322.558 25.0112C324.379 26.0228 326.335 26.7646 328.122 27.8099C328.966 28.2819 330.483 28.3156 330.18 30.2713C320.332 30.6759 310.686 32.9351 300.872 34.0815C297.061 34.5199 293.351 35.5651 289.641 36.5093C288.123 36.9139 287.415 38.0266 287.82 39.3753C288.157 40.5555 289.405 40.016 290.315 39.8474C301.614 37.5545 313.013 36.1046 324.48 34.9919L324.412 35.0256Z" fill="#EFECF0"/>
<path d="M174.803 69.1837C179.525 68.7117 184.314 67.835 188.867 66.2839C190.317 65.7781 192.475 65.3398 192.374 63.519C192.239 61.2599 189.845 62.3051 188.462 61.7994C185.831 60.8552 182.729 61.9342 179.356 59.5739C186.54 58.7647 191.733 55.0894 197.265 52.3919C202.863 49.6944 209.136 48.7503 214.431 45.4121C212.171 45.6144 210.08 46.4911 207.922 46.6597C202.02 47.1318 196.792 49.3572 191.599 51.9198C187.147 54.1452 182.492 55.8312 177.535 56.573C176.287 56.7753 175.039 57.1125 173.791 57.3822C172.037 57.7194 171.43 59.1019 171.43 60.5518C171.43 61.9005 172.914 61.9679 173.926 62.3726C175.713 63.0807 177.805 62.4737 179.592 63.7888C178.783 65.2724 177.703 64.8677 176.826 64.9689C166.776 66.2165 157.063 68.4756 148.092 73.4997C145.056 75.2194 142.358 77.5459 138.952 78.6924C136.861 79.3667 136.76 81.1201 137.333 83.1095C140.031 82.9746 141.954 81.4573 143.977 80.2434C153.522 74.4775 163.606 70.3302 174.87 69.1837L174.803 69.1837Z" fill="#EFECF0"/>
<path d="M214.229 16.9195C214.229 14.8964 213.858 12.8733 213.588 10.3107C221.615 12.7047 229.372 14.7953 237.298 16.4137C237.365 13.75 235.476 13.3116 233.588 12.7384C226.876 10.6816 220.165 8.55731 213.419 6.46676C212.374 6.12957 211.193 5.21917 210.283 6.16329C209.271 7.24228 209.17 8.65847 209.878 10.1758C210.755 11.9966 211.733 13.8511 211.733 16.0091C209.912 16.3126 208.765 15.2336 207.753 14.4243C201.851 9.8049 195.174 6.80394 188.024 4.9157C182.425 3.43208 177.299 0.734595 171.835 -1.08621C170.385 -1.55827 169.474 -1.89546 168.564 0.161378C167.484 2.58912 169.306 2.69027 170.351 3.16233C174.297 4.88198 178.31 6.5342 182.391 7.95038C190.081 10.6141 198.04 12.671 204.92 17.3241C206.371 18.302 207.855 19.2798 209.44 20.0554C212.711 21.6738 214.263 20.696 214.229 16.987L214.229 16.9195Z" fill="#EFECF0"/>
<path d="M280.568 10.378L280.636 10.4454C280.636 10.4454 280.737 10.3443 280.771 10.3105C280.703 10.3105 280.636 10.378 280.568 10.378Z" fill="#EFECF0"/>
<path d="M301.715 -2.77363C305.155 -4.93162 305.256 -5.23509 301.546 -8.10117C306.538 -10.3266 311.192 -12.6869 315.273 -16.0588C316.588 -17.1715 319.725 -17.6098 318.173 -19.9027C316.791 -21.9595 314.464 -19.9027 313.216 -18.8237C308.932 -15.0135 303.637 -13.0915 298.646 -10.6638C297.499 -10.0906 296.285 -9.65222 295.071 -9.2476C293.655 -8.77554 293.823 -7.49423 293.621 -6.48267C293.418 -5.50484 294.329 -5.2688 295.071 -4.8979C296.015 -4.42584 297.331 -4.66187 297.837 -3.48172C297.162 -1.55976 295.476 -0.952823 293.958 -0.109859C289.034 2.65507 284.279 5.65602 280.805 10.2755C282.592 9.70225 284.11 8.72441 285.661 7.67913C290.956 4.10496 296.319 0.598231 301.749 -2.80735L301.715 -2.77363Z" fill="#EFECF0"/>
<path d="M254.599 260.942C255.341 269.406 255.476 277.903 255.78 286.366C255.813 287.614 255.24 289.3 256.926 289.57C258.579 289.839 258.579 287.985 259.085 286.906C259.287 286.467 259.321 285.962 259.321 285.49C259.051 276.689 259.051 267.888 256.117 259.391C255.746 258.279 255.307 257.132 254.936 256.02L253.587 256.02C254.06 257.638 254.464 259.257 254.633 260.976L254.599 260.942Z" fill="#EFECF0"/>
<path d="M277.6 293.581C277.668 290.411 279.692 287.95 277.938 284.713C275.071 292.333 273.452 299.852 269.945 306.663C269.742 307.068 269.776 307.608 269.81 308.08C269.81 308.349 270.113 308.585 270.282 308.821C271.024 308.889 271.462 308.417 271.833 307.877C276.993 300.358 282.221 292.873 287.314 285.32C288.359 283.735 289.742 281.88 289.742 280.161C289.742 274.462 292.271 269.236 292.507 263.605C292.609 261.076 292.744 258.513 292.845 255.984L290.147 255.984C290.484 269.843 287.651 282.42 277.668 293.547L277.6 293.581Z" fill="#EFECF0"/>
<path d="M300.77 258.987C302.558 272.441 301.074 285.827 299.017 299.112C298.173 304.507 295.779 309.497 293.418 314.42C287.55 326.694 283.3 339.372 283.266 353.129C283.266 358.592 282.524 363.987 281.85 369.381C281.277 374.001 280.062 378.486 279.523 383.105C277.162 403.808 274.869 424.545 276.589 445.383C277.229 453.273 277.364 461.332 280.535 468.953C281.614 471.583 282.828 472.864 285.223 473.538C290.012 474.853 294.733 476.337 299.286 478.394C306.436 481.597 310.618 487.026 312.44 494.477C313.89 500.345 313.89 500.277 308.224 502.806C305.694 503.919 302.861 504.998 303.064 509.044C307.043 507.83 310.854 506.751 314.598 505.503C316.352 504.93 316.925 503.447 316.757 501.66C316.52 499.097 316.419 496.534 316.082 494.005C314.969 485.306 310.551 478.765 302.794 474.651C297.971 472.088 292.946 469.897 287.516 468.986C283.3 468.312 281.209 466.154 280.636 461.77C279.051 449.531 277.803 437.257 278.477 424.882C279.422 407.753 280.737 390.692 283.873 373.799C285.223 366.583 286.133 359.266 286.403 351.848C286.605 346.251 287.246 340.653 288.561 335.191C290.147 328.582 293.148 322.58 295.947 316.477C299.759 308.115 303.334 299.584 304.042 290.446C304.716 282.017 305.054 273.519 304.649 264.989C304.514 261.954 304.109 258.953 303.502 256.02L300.096 256.02C300.366 256.997 300.635 258.009 300.77 259.021L300.77 258.987Z" fill="#EFECF0"/>
<path d="M201.143 549.944C206.911 547.112 208.395 544.178 207.012 537.974C206.776 536.895 206.371 535.816 206.067 534.737C205.123 531.466 203.1 529.342 199.862 527.926C195.781 526.173 191.531 525.667 187.248 525.161C182.156 524.588 177.029 524.318 171.937 523.543C163.64 522.261 156.625 517.945 149.745 513.562C140.908 507.931 131.431 505.267 121.01 505.84C111.061 506.38 101.213 505.84 91.4321 503.581C81.4154 501.221 71.2301 500.007 60.9436 500.074C54.1983 500.074 47.5206 499.906 40.8091 498.995C36.0537 498.355 31.8042 496.736 27.9594 494.039C25.666 492.42 25.666 490.195 27.8245 488.441C29.7131 486.89 31.9728 485.811 34.2999 485.407C44.1142 483.755 53.9623 482.743 63.9452 483.62C65.8676 483.788 66.9469 484.53 68.0261 486.283C72.2756 493.095 78.38 497.512 86.3731 498.995C103.708 502.232 121.145 501.491 138.581 500.142C152.78 499.029 166.844 496.298 181.177 496.972C185.596 497.175 189.339 498.186 192.476 501.322C194.398 503.244 196.354 505.166 198.277 507.088C200.638 509.448 203.471 510.055 206.675 509.583C209.811 509.111 212.577 507.122 215.915 507.425C216.523 507.492 217.433 506.717 217.804 506.076C219.49 503.244 222.02 503.716 224.583 504.087C228.36 504.66 232.172 505.2 235.949 505.84C237.905 506.177 238.917 505.436 239.524 503.615C240.3 501.356 241.244 499.198 242.188 496.871C243.773 498.152 243.807 499.838 244.144 501.322C245.999 508.841 250.957 512.348 258.411 513.461C270.619 515.281 282.693 514.472 294.801 512.719C296.049 512.55 297.196 511.842 298.444 511.572C299.556 511.303 299.961 510.527 300.366 509.65C304.042 501.322 300.265 490.633 292.305 486.385C289.169 484.732 285.965 483.35 282.626 482.271C278.444 480.922 275.442 478.292 273.52 474.28C271.699 470.503 269.877 466.794 268.933 462.68C265.392 447.069 261.851 431.457 258.377 415.845C254.768 399.728 252.407 383.408 251.463 366.886C251.024 359.434 251.598 352.117 254.06 345.07C257.972 333.875 261.007 322.411 266.302 311.722C267.112 310.07 268.191 308.35 266.876 306.395C265.156 306.732 264.953 308.148 264.38 309.193C258.545 319.41 254.768 330.504 250.687 341.428C248.191 348.172 246.674 355.354 246.775 362.604C247.045 378.316 249.439 393.861 252.239 409.304C254.633 422.387 258.444 435.132 262.019 447.912C263.773 454.217 265.189 460.657 266.943 466.963C269.743 477.011 274.498 485.339 285.762 487.902C287.887 488.374 289.911 489.588 291.833 490.734C297.196 493.938 299.826 500.378 298.511 506.481C298.14 508.201 297.6 508.942 295.611 508.403C292.946 507.661 290.181 508.167 287.482 508.605C278.208 510.089 268.899 510.19 259.76 508.369C254.903 507.391 251.159 504.491 249.102 499.265C247.922 496.23 247.551 493.128 246.674 490.127C243.605 479.708 238.917 469.795 237.129 459.005C236.961 457.926 236.455 456.847 235.983 455.869C232.34 448.417 228.731 440.966 224.92 433.581C223.2 430.277 222.829 426.602 221.278 423.23C217.231 414.362 213.453 405.359 211.329 395.783C210.789 393.355 209.642 391.264 208.361 389.275C201.346 378.08 195.511 366.481 193.69 353.095C192.813 346.587 192.611 340.012 191.599 333.504C190.385 325.715 187.282 318.399 185.865 310.711C184.247 301.91 179.997 294.155 177.4 285.759C177.4 285.692 176.894 285.759 176.591 285.759C175.916 287.377 176.591 288.928 176.962 290.446C178.378 296.009 179.862 301.607 181.414 307.137C184.854 319.444 185.36 332.156 185.967 344.733C186.506 356.029 190.284 365.975 195.174 375.686C202.425 389.983 209.305 404.448 214.128 419.757C216.826 428.355 220.3 436.582 223.807 444.843C227.349 453.239 231.969 461.163 234.195 470.099C234.465 471.211 235.51 472.358 234.33 473.774C229.608 471.481 224.988 468.986 219.659 468.177C214.263 467.334 208.867 468.413 203.201 468.21C204.111 461.77 205.899 456.173 208.26 450.71C208.833 449.429 209.676 448.114 210.722 447.204C214.33 444.034 215.41 439.651 216.59 435.335C216.792 434.593 216.894 433.75 215.781 433.312C214.668 434.087 214.668 435.47 214.364 436.616C213.453 439.92 211.97 442.921 209.845 445.551C207.889 447.979 206.472 450.609 205.595 453.543C204.583 456.915 203.639 460.32 202.729 463.692C201.919 466.625 200.84 469.188 197.096 469.053C195.983 469.02 194.735 469.154 194.769 470.773C194.769 472.088 195.95 472.088 196.826 472.358C200.941 473.605 205.123 473.066 209.238 472.56C213.791 471.987 218.243 472.122 222.593 473.302C230.822 475.527 237.871 479.169 239.861 488.61C240.772 492.926 239.692 496.837 238.377 500.816C237.838 502.367 236.893 502.57 235.409 502.367C231.463 501.794 227.484 501.12 223.504 500.951C220.738 500.85 219.996 499.67 219.794 497.175C219.322 491.004 216.286 485.946 212.341 481.361C211.531 480.416 210.722 479.337 209.406 478.967C204.01 477.415 198.58 475.966 192.948 475.932C181.414 475.864 169.879 475.999 158.547 478.663C154.365 479.641 150.048 480.416 145.765 480.787C142.224 481.125 139.155 482.44 136.018 483.788C139.188 484.429 142.291 484.564 145.461 483.991C154.905 482.271 164.483 481.293 174.061 480.787C178.21 480.551 182.358 480.72 186.473 481.597C193.319 483.047 200.199 484.429 207.248 484.496C208.293 484.496 209.305 484.699 209.811 485.542C212.341 489.925 216.354 493.432 216.927 498.928C217.399 503.615 216.32 505.402 211.666 505.975C205.348 506.762 199.941 504.806 195.444 500.108C195.208 499.872 195.039 499.602 194.837 499.366C191.531 495.792 187.518 493.87 182.56 493.702C172.78 493.364 163.033 493.499 153.32 494.915C149.677 495.455 145.967 495.522 142.359 496.129C140.166 496.5 138.446 494.915 136.288 495.219C130.251 496.129 124.18 495.927 118.11 496.23C115.04 496.365 112.039 496.568 109.105 495.725C107.317 495.219 105.665 495.657 103.911 495.826C97.5703 496.534 91.2972 495.387 85.901 492.319C77.5706 487.632 72.8489 479.809 70.4881 470.604C68.2284 461.77 68.0936 452.767 69.4426 443.865C71.8709 427.883 74.8388 411.968 79.7291 396.525C83.0005 386.139 84.9566 375.417 88.5316 365.099C93.3545 351.072 99.6613 337.787 107.823 325.446C116.052 313.004 125.799 301.708 135.85 290.682C145.023 280.634 154.129 270.484 161.717 259.155C162.426 258.11 163.067 257.031 163.707 255.918L159.053 255.918C152.679 265.191 145.192 273.688 137.3 281.848C123.809 295.807 111.196 310.407 100.943 326.963C94.8722 336.809 89.8807 347.093 85.9347 358.018C82.5958 367.223 80.4036 376.732 77.5706 386.072C72.0732 404.179 67.79 422.555 64.8221 441.202C64.0127 446.259 61.8542 449.766 57.7059 452.329C57.0313 452.767 56.2894 453.071 55.6149 453.509C49.072 457.994 41.5848 460.455 34.2662 463.287C25.9021 466.524 17.5717 469.761 9.91585 474.549C6.6444 476.572 4.21615 479.304 2.39492 482.44C-0.235728 486.958 -0.707896 491.813 1.78786 496.669C4.75576 502.502 9.44368 506.616 15.2446 509.246C23.0016 512.753 31.2645 514.742 39.831 515.18C51.2305 515.753 62.5625 514.506 73.9282 514.202C88.7677 513.798 103.405 515.248 117.368 520.609C131.263 525.97 144.888 532.04 158.109 538.952C165.765 542.964 173.555 546.741 181.683 549.742C188.125 552.102 194.735 553.114 201.312 549.877L201.143 549.944ZM83.1692 493.331C77.773 491.611 74.0968 488.273 73.085 482.541C76.2216 486.452 80.1338 489.453 83.1692 493.331ZM188.698 545.527C183.977 544.482 179.457 542.964 175.107 540.908C162.965 535.108 150.925 529.174 138.716 523.543C128.362 518.754 117.637 514.809 106.407 512.786C91.2297 510.021 75.8506 509.684 60.4714 511.202C49.4767 512.281 38.3808 513.191 27.4872 510.46C20.2024 508.639 13.2547 506.009 7.68993 500.412C3.44045 496.129 3.17061 489.419 6.47579 485.204C9.67977 481.091 13.221 477.685 17.9427 475.291C27.6558 470.335 37.4365 465.648 48.0265 462.815C51.8713 461.804 55.2439 459.41 59.0887 458.331C60.1342 458.027 61.0785 457.285 62.866 457.589C63.4056 464.231 63.5068 470.807 65.3954 477.146C65.7327 478.258 65.0245 479.034 63.9789 479.27C61.6518 479.776 59.291 480.518 56.9302 480.551C48.9034 480.686 40.9777 481.63 33.1195 483.046C29.0386 483.788 25.666 485.71 24.1483 490.06C23.1028 493.061 23.8111 495.387 26.2056 497.309C29.7806 500.175 33.9964 501.693 38.4482 502.57C43.8107 503.649 49.2406 504.357 54.6705 504.255C69.645 503.986 84.3496 505.941 98.953 509.145C106.339 510.763 113.927 510.527 121.448 510.426C130.824 510.291 139.492 512.618 147.418 517.709C149.981 519.361 152.645 520.811 155.276 522.362C162.999 526.948 171.431 529.207 180.368 529.814C184.213 530.084 188.024 530.489 191.835 530.893C194.23 531.163 196.489 531.972 198.749 532.815C201.953 533.995 202.762 536.76 203.403 539.593C203.842 541.447 202.492 542.594 201.11 543.47C197.265 545.864 193.083 546.572 188.665 545.594L188.698 545.527Z" fill="#EFECF0"/>
<path d="M91.567 404.348C91.1286 402.156 92.309 400.571 93.4894 399.155C101.112 390.152 110.285 383.476 121.921 380.542C123.776 380.07 125.664 379.699 127.62 379.699C142.089 379.699 155.411 383.071 167.181 392.108C178.243 400.605 187.08 410.552 191.329 424.107C194.297 433.514 194.331 442.652 190.048 451.688C187.653 456.746 186.169 462.209 183.1 466.963C181.414 469.593 178.277 470.301 175.781 468.48C174.972 467.873 174.938 467.165 175.478 466.423C175.748 466.053 176.119 465.682 176.523 465.446C182.527 461.737 184.179 455.532 185.933 449.328C186.135 448.553 186.135 447.642 186.574 447.035C189.474 442.922 188.294 438.471 187.754 434.054C186.675 425.624 183.269 418.273 178.446 411.26C165.765 392.816 147.924 385.094 126.204 385.701C119.088 385.903 112.612 389.242 106.643 393.119C102.359 395.918 98.1774 398.885 94.6361 402.662C93.8941 403.471 93.1184 404.314 91.6345 404.314L91.567 404.348Z" fill="#EFECF0"/>
<path d="M237.433 322.512C241.548 329.593 241.076 337.449 241.582 345.137C242.054 352.42 241.953 359.737 243.706 366.919C244.786 371.37 245.865 375.888 245.494 381.62C243.335 377.945 242.829 374.776 242.121 371.673C240.435 364.019 240.57 356.163 239.457 348.475C238.917 344.732 239.322 340.821 239.389 337.011C239.457 333.774 239.254 330.638 237.737 327.704C236.894 326.086 236.894 324.333 237.467 322.545L237.433 322.512Z" fill="#EFECF0"/>
<path d="M274.126 13.9528C276.791 12.4692 278.646 11.4239 280.467 10.4123C278.072 10.2437 276.049 10.8507 274.126 13.9528Z" fill="#EFECF0"/>
<path d="M280.568 10.3789C280.568 10.3789 280.501 10.4126 280.467 10.4463C280.535 10.4463 280.602 10.4463 280.636 10.4463L280.568 10.3789Z" fill="#EFECF0"/>
<path d="M242.728 208.879C246.91 204.428 251.834 200.854 256.285 196.707C262.053 191.345 267.921 186.051 275.307 183.185C284.042 179.78 292.878 176.408 302.221 174.891C303.199 174.722 304.446 174.958 305.222 173.474C301.715 172.362 298.713 174.115 295.61 174.317C287.314 174.857 279.59 177.521 272.508 181.634C268.764 183.792 266.201 183.017 263.537 180.555C260.063 177.386 256.218 174.891 251.8 173.272C250.923 172.935 250.114 172.362 249.27 171.89C245.156 169.394 244.245 167.473 245.426 162.684C246.269 159.279 247.415 155.941 248.427 152.569C248.877 151.063 248.978 149.22 248.731 147.039C245.19 153.041 242.997 159.144 242.491 165.753C242.12 170.44 243.807 174.115 248.427 176.239C253.351 178.499 257.972 181.432 263.031 183.489C265.695 184.568 265.864 185.613 263.638 187.063C258.882 190.098 255.071 194.279 250.788 197.853C246.64 201.326 243.132 205.473 239.524 210.261C241.48 210.396 242.12 209.553 242.728 208.913L242.728 208.879Z" fill="#EFECF0"/>
<path d="M300.568 128.426C297.195 127.752 293.856 128.157 290.652 129.067C287.819 129.876 285.324 129.539 282.929 127.887C282.288 127.449 281.648 126.943 280.973 126.538C280.4 126.167 279.793 126.032 279.32 126.741C278.949 127.28 278.713 127.921 279.253 128.46C279.927 129.135 280.602 129.809 281.378 130.348C285.222 132.911 289.303 133.147 293.688 131.731C300.5 129.505 304.312 131.293 307.954 137.362C309.843 140.498 310.146 144.308 312.844 148.051C311.967 142.925 309.775 139.183 308.561 135.103C307.381 131.191 304.446 129.236 300.568 128.46L300.568 128.426Z" fill="#EFECF0"/>
<path d="M303.974 143.768C302.49 142.318 301.31 141.374 302.76 139.149C303.401 138.137 303.03 136.215 301.074 137.058C298.005 138.407 297.398 137.058 297.398 134.428C297.398 133.754 296.858 133.316 296.183 133.113C293.789 133.99 295.543 137.025 293.62 138.373C292.271 137.328 291.023 136.35 289.809 135.406C290.416 136.957 291.226 138.272 292.372 139.048C294.632 140.565 296.453 142.521 298.881 143.87C304.649 147.073 305.357 149.062 304.21 155.637C304.042 156.514 303.333 157.391 304.379 158.706C307.246 153.378 307.144 146.904 303.974 143.802L303.974 143.768Z" fill="#EFECF0"/>
<path d="M285.324 189.289C289.405 185.816 294.059 183.321 299.118 181.703C301.749 180.86 304.211 179.882 306.774 178.095C302.761 177.724 299.691 179.916 296.285 180.489C288.393 181.804 282.963 187.098 276.994 191.582C275.746 192.526 274.835 193.942 276.049 195.224C276.926 196.168 278.073 194.92 278.916 194.313C281.108 192.695 283.267 191.043 285.324 189.289Z" fill="#EFECF0"/>
<path d="M218.613 188.615C218.242 176.848 218.95 165.282 223.976 154.357C225.763 150.446 227.686 146.568 229.507 142.657C229.911 141.747 230.923 140.836 229.406 139.42C222.694 151.491 217.669 163.866 217.028 177.758C216.792 182.816 217.095 190.773 218.343 193.336C219.187 191.65 218.681 190.099 218.613 188.615Z" fill="#EFECF0"/>
<path d="M239.254 94.5068C241.649 93.1581 244.111 93.0232 246.067 95.5521C246.471 96.0916 246.977 97.002 248.124 96.159C247.719 94.0347 245.932 92.8209 244.616 91.3035C244.077 90.6966 243.234 90.4606 242.424 90.6292C237.703 91.5396 234.128 94.1359 232.172 98.4856C230.586 102.026 231.868 105.229 234.431 107.927C234.161 105.937 233.858 103.948 233.622 101.959C233.116 97.7101 236.354 96.1253 239.254 94.5068Z" fill="#EFECF0"/>
<path d="M234.532 108.06C234.532 108.06 234.465 107.993 234.431 107.959C234.431 108.026 234.431 108.094 234.431 108.161L234.498 108.06L234.532 108.06Z" fill="#EFECF0"/>
<path d="M269.068 175.229C275.206 174.892 280.872 172.43 286.774 170.711C280.434 170.306 274.431 171.385 269.068 175.229Z" fill="#EFECF0"/>
<path d="M332.304 202.675C332.439 201.191 332.372 200.213 331.36 199.707C330.079 199.101 329.842 200.314 329.37 201.056C328.662 202.169 327.414 202.574 326.402 203.315C325.02 204.361 324.446 206.181 325.155 207.53C326.099 209.284 327.718 207.732 328.898 207.328C331.225 206.552 332.271 204.63 332.304 202.675Z" fill="#EFECF0"/>
<path d="M195.141 155.571C195.646 154.525 195.41 153.413 195.275 152.3C195.039 150.007 194.601 147.714 195.039 145.32C193.218 148.389 192.915 151.828 192.139 155.132C192.004 155.773 192.51 156.313 193.184 156.481C194.061 156.717 194.702 156.346 195.107 155.537L195.141 155.571Z" fill="#EFECF0"/>
<path d="M340.196 194.684C340.196 193.841 339.893 193.167 338.948 192.998C337.768 192.998 335.205 196.235 335.407 197.516C335.542 198.292 336.149 198.562 336.79 198.595C338.409 198.663 340.163 196.64 340.196 194.684Z" fill="#EFECF0"/>
<path d="M356.115 169.496C352.978 171.519 352.068 172.834 351.596 176.644C351.967 173.61 356.621 173.273 356.115 169.496Z" fill="#EFECF0"/>
<path d="M254.498 118.076L254.6 118.177C254.6 118.177 254.6 118.042 254.633 117.975C254.6 118.008 254.532 118.042 254.498 118.109L254.498 118.076Z" fill="#EFECF0"/>
<path d="M259.962 111.973C257.534 113.355 255.105 114.771 254.633 117.941C256.623 116.154 258.916 114.636 259.962 111.973Z" fill="#EFECF0"/>
<path d="M234.432 108.128C234.432 108.128 234.465 108.263 234.499 108.33L234.499 108.061L234.432 108.128Z" fill="#EFECF0"/>
<path d="M234.498 108.33C234.498 110.623 234.498 112.882 234.498 115.175C234.971 112.882 235.51 110.556 234.498 108.33Z" fill="#EFECF0"/>
<path d="M260.165 105.869C262.256 107.454 263.773 107.353 266.235 106.982C263.908 106.544 262.492 106.307 260.165 105.869Z" fill="#EFECF0"/>
<path d="M289.506 170.744C291.361 171.148 292.676 171.115 294.228 170.305C292.541 169.968 291.192 169.665 289.506 170.744Z" fill="#EFECF0"/>
<path d="M343.636 189.223C343.906 188.616 343.704 188.042 343.13 187.672C342.355 187.638 342.051 188.144 341.916 188.751C341.748 189.324 341.545 190.133 342.186 190.403C343.164 190.841 343.366 189.863 343.636 189.223Z" fill="#EFECF0"/>
<path d="M254.498 118.076C254.498 118.076 254.431 118.144 254.397 118.177C254.464 118.177 254.532 118.177 254.565 118.177L254.464 118.076L254.498 118.076Z" fill="#EFECF0"/>
<path d="M254.431 118.178C252.812 118.178 251.598 118.953 249.878 120.909C252.171 119.965 253.588 119.493 254.431 118.178Z" fill="#EFECF0"/>
<path d="M308.157 189.019C308.089 188.648 307.752 188.547 307.449 188.682C306.673 189.019 306.268 189.694 306.234 190.503C306.234 190.84 306.572 190.941 306.976 190.773C307.415 190.233 308.393 189.997 308.191 188.986L308.157 189.019Z" fill="#EFECF0"/>
</g>
<defs>
<clipPath id="clip0_347_3124">
<rect width="552" height="372" fill="white" transform="translate(372) rotate(90)"/>
</clipPath>
</defs>
</svg>
