<svg width="321" height="506" viewBox="0 0 321 506" fill="none" xmlns="http://www.w3.org/2000/svg">
<path d="M254.763 227.317C254.763 231.837 254.763 236.356 254.733 240.876C254.733 242.52 255.086 243.987 256.348 245.161C257.493 246.247 257.67 247.686 257.435 249.241C257.2 250.797 256.877 252.382 256.906 253.966C256.994 258.193 256.554 262.507 259.05 266.382C260.165 268.113 259.989 270.138 259.725 272.105C258.785 279.119 258.873 286.193 258.404 293.266C258.286 295.203 257.758 297.434 259.49 299.165C259.696 299.371 259.784 300.017 259.607 300.193C257.611 302.306 259.167 304.36 259.578 306.62C261.369 303.568 261.516 300.398 261.487 297.228C261.457 292.121 261.046 287.015 261.633 281.908C261.956 279.002 261.692 275.979 262.485 273.22C263.278 270.461 263.16 267.937 262.338 265.354C261.076 261.48 260.459 257.518 260.782 253.438C260.899 252.117 260.018 250.709 260.929 249.505C262.514 247.421 261.956 245.426 260.987 243.342C259.226 239.497 258.11 235.564 259.696 231.367C259.872 230.927 259.96 230.34 259.784 229.929C259.431 229.048 259.226 228.138 259.079 227.199H254.792C254.763 227.199 254.763 227.258 254.763 227.317ZM259.461 294.176C259.108 293.031 258.903 292.268 259.519 291.564C259.989 292.356 260.018 293.09 259.461 294.176Z" fill="#EFECF0"/>
<path d="M11.9416 486.859C10.5616 484.276 9.35781 481.576 7.62547 479.257C6.3042 477.496 5.68762 475.735 5.30592 473.651C4.57188 469.601 5.10038 465.345 3.36804 461.442C2.34038 459.123 2.42848 456.775 2.92763 454.28C3.3387 452.285 4.3076 450.259 3.63228 448.176C3.04505 446.356 3.36806 444.683 3.66167 442.834C4.16082 439.781 4.83613 436.876 6.45102 434.234C6.68592 433.853 6.80335 433.295 6.80335 432.826C6.83271 429.656 6.83271 426.515 8.68249 423.727C9.15228 423.023 8.91741 422.054 8.79996 421.203C8.47699 418.18 8.24207 415.127 7.86037 412.104C7.6842 410.696 7.86035 409.434 8.62376 408.26C9.82759 406.41 10.3268 404.209 11.4132 402.36C13.9676 397.987 13.4978 393.614 12.3821 389.006C11.4719 385.278 10.9727 381.815 15.2595 379.115C18.6068 377.031 19.928 373.245 18.9003 369.107C18.6654 368.167 18.548 367.169 18.225 366.26C17.6378 364.704 17.6965 363.295 18.3425 361.681C19.2821 359.421 20.1335 356.897 19.194 354.549C17.2855 349.824 18.1369 344.893 17.9021 340.079C17.6672 335.325 16.757 330.893 14.6136 326.755C12.0297 321.824 11.2663 316.541 11.3544 311.17C11.4131 307.765 11.7361 304.331 11.7067 300.926C11.7067 298.402 12.4702 296.142 13.4685 293.882C13.8502 293.002 14.408 292.151 14.731 291.241C17.9608 281.937 24.2735 274.893 31.6139 268.671C33.5225 267.057 35.3723 265.031 37.8386 264.21C42.5659 262.654 46.2361 259.426 49.2897 255.904C51.9616 252.851 54.9565 251.736 58.4799 251.56C63.6769 251.296 67.9931 248.771 72.456 246.629C75.4216 245.191 78.4458 243.488 81.5288 242.96C85.4632 242.314 89.4271 241.346 93.479 241.287C95.8573 241.258 98.2943 240.818 100.643 241.904C101.935 242.52 103.256 242.05 104.372 241.082C105.4 240.143 106.692 239.35 108.042 239.937C110.362 240.935 112.593 240.289 114.854 239.937C114.825 239.908 114.796 239.908 114.766 239.908C114.326 239.614 113.709 239.35 113.885 238.822C113.944 238.587 115.06 238.411 115.412 238.939C115.794 239.468 115.089 239.644 114.766 239.908C114.796 239.937 114.825 239.937 114.854 239.966C119.611 242.667 123.428 240.465 127.127 237.648L127.098 237.618C125.894 237.941 124.69 237.765 123.487 237.618C123.457 237.648 123.457 237.648 123.428 237.677C123.399 237.677 123.369 237.677 123.34 237.677C122.899 238.998 121.461 238.939 120.55 239.644C120.11 239.966 119.581 239.82 119.376 239.291C119.17 238.792 119.552 238.382 119.934 238.088C120.991 237.266 122.165 237.589 123.34 237.677C123.34 237.648 123.369 237.648 123.369 237.618C123.398 237.618 123.428 237.618 123.487 237.618C124.69 236.591 125.894 235.769 127.098 237.618C127.127 237.618 127.157 237.618 127.186 237.589C127.157 237.618 127.127 237.618 127.127 237.648C127.127 237.648 127.127 237.648 127.127 237.677C128.39 237.677 127.627 240.289 129.212 239.526C131.796 238.264 134.644 238.646 137.257 237.853C136.905 237.824 136.553 237.853 136.23 237.765C135.818 237.648 135.261 237.472 135.496 236.855C135.642 236.503 136.112 236.621 136.435 236.767C136.846 236.943 137.345 237.09 137.463 237.618C141.016 238.734 144.686 239.086 148.238 238.088C151.586 237.149 155.696 239.438 158.398 235.769C158.515 235.623 158.867 235.593 159.102 235.623C160.981 235.857 162.596 235.065 164.27 233.862C164.094 234.86 163.976 235.505 163.859 236.151C165.063 234.86 166.355 234.537 167.999 235.564C169.115 236.239 170.407 236.738 171.757 236.122C171.875 234.772 169.966 235.3 169.731 234.185C171.111 233.686 172.021 234.302 173.02 234.772C173.607 235.036 173.93 235.887 174.899 235.447C176.161 234.889 177.424 234.537 178.863 235.476C180.155 236.327 181.74 235.241 183.267 235.535C184.999 235.857 185.763 236.621 185.821 238.411C185.91 241.023 185.381 243.488 184.823 245.983C183.795 250.65 183.238 255.317 184.353 260.071C185.293 264.122 185.675 268.142 185.293 272.34C185.029 275.363 184.706 278.532 185.264 281.908C186.35 281.203 186.379 280.323 186.585 279.53C187.201 276.918 186.937 274.13 187.583 271.576C188.493 267.908 188.523 264.18 187.73 260.717C186.467 255.287 186.878 250.122 188.2 244.839C189.11 241.14 189.169 237.354 187.818 233.656C187.29 232.247 186.996 230.692 187.612 229.342C187.935 228.637 188.112 227.933 188.258 227.199H185.205C185.175 227.405 185.146 227.61 185.087 227.816C184.794 228.755 184.559 229.841 183.502 230.105C179.773 231.073 176.25 232.335 172.11 230.897C168.85 229.782 165.151 229.547 161.569 231.426C159.425 232.541 156.518 232.042 154.786 234.361C154.639 234.566 154.081 234.566 153.729 234.478C151.028 233.803 148.385 234.654 145.713 234.83C142.807 235.006 139.87 235.359 137.257 233.421C136.494 232.864 135.407 233.04 134.439 232.952C131.414 232.688 128.39 234.889 125.336 232.893C124.955 232.629 124.015 233.333 123.31 233.451C120.932 233.803 118.73 235.476 116.528 235.388C111.83 235.182 107.338 236.591 102.669 236.327C100.526 236.21 98.3237 236.65 96.1803 237.031C90.4254 238.088 84.7879 239.732 78.945 240.436C78.0641 240.553 77.3007 240.847 76.5373 241.258C75.5684 241.816 74.5113 242.08 73.3662 242.021C71.2522 241.933 69.3143 242.637 67.3177 243.283C63.7356 244.457 60.359 246.335 56.4833 246.394C53.5177 246.453 51.1395 247.715 48.8199 249.417C45.2378 252.059 42.2429 255.551 37.8973 257.166C37.222 257.43 36.5761 257.87 36.0769 258.369C30.7918 263.711 23.3927 266.734 19.4289 273.484C19.2527 273.778 18.9591 274.071 18.6655 274.247C16.2872 275.803 15.1714 278.239 14.0263 280.675C12.8225 283.199 11.4425 285.664 10.1506 288.13C8.56505 291.182 7.30253 294.323 7.56678 297.903C7.74295 300.222 7.44931 302.541 7.03825 304.83C5.80506 311.845 8.65316 318.302 9.85699 324.993C9.91571 325.316 10.2093 325.61 10.3855 325.933C12.4408 329.631 14.7016 333.241 14.0557 337.849C13.8502 339.228 14.3787 340.754 14.6723 342.193C14.9953 343.895 15.2301 345.597 15.054 347.3C14.8484 349.178 15.1421 350.91 15.788 352.671C16.5808 354.901 16.8157 357.044 15.5531 359.333C14.2025 361.769 14.0263 364.499 15.6118 367.023C16.4927 368.402 16.3459 369.782 15.9936 371.249C15.4944 373.362 14.3493 375.329 12.6463 376.356C9.18166 378.44 8.27145 381.58 8.56507 385.044C8.68251 386.717 7.41994 387.362 7.21441 388.566C6.95015 390.239 9.12293 390.385 9.47527 392.058C10.4148 396.402 9.211 400.012 6.48037 403.123C5.21782 404.561 4.60124 405.912 4.89486 407.702C5.71698 412.75 3.80847 417.857 5.30592 422.876C5.36464 423.081 5.27653 423.375 5.18845 423.58C3.33866 428.628 2.98632 434.058 1.28334 439.165C0.519938 441.513 0.19696 443.979 0.549299 446.415C0.901639 448.763 0.666786 450.993 0.314446 453.312C-0.243426 457.069 -0.155339 460.767 1.37147 464.435C2.5753 467.312 3.25058 470.452 3.22122 473.71C3.22122 475.5 3.13314 477.907 4.19016 478.993C6.45101 481.282 7.12632 484.305 8.77057 486.83C9.24036 487.563 9.71015 488.268 10.6497 488.414C11.5893 488.561 12.3821 487.71 11.9416 486.859ZM8.53568 307.002C9.26972 307.824 8.82929 308.734 8.94674 309.761C7.68419 308.792 8.77057 307.882 8.53568 307.002Z" fill="#EFECF0"/>
<path d="M177.16 442.19C177.248 445.507 176.543 447.855 175.104 449.88C174.018 451.377 173.901 453.079 173.901 454.781C173.901 457.247 173.46 459.624 172.785 461.972C171.992 464.79 171.375 467.607 171.17 470.572C170.935 474.094 170.054 477.557 168.703 480.844C167.823 483.016 167.147 485.217 166.912 487.536C166.707 489.649 165.709 491.469 164.945 493.406C164.182 495.314 164.564 496.312 166.413 497.251C167.969 498.043 169.32 499.041 170.348 500.45C171.845 502.475 171.287 504.412 168.997 505.469C168.087 505.88 167.147 506.026 166.149 505.997C163.947 505.938 161.745 505.997 159.543 505.85C158.456 505.792 157.252 505.616 156.372 505.058C153.964 503.473 151.644 502.358 148.561 502.622C146.565 502.798 144.568 500.068 144.187 497.427C143.775 494.639 143.541 491.85 143.893 489.033C144.333 485.511 143.805 482.37 141.221 479.582C139.136 477.322 137.932 474.534 137.727 471.335C137.492 467.93 136.083 464.731 135.701 461.297C135.349 458.127 135.114 454.987 135.319 451.817C135.554 448.119 133.411 445.066 132.295 441.75C131.796 440.224 131.238 438.756 131.355 437.171C131.649 433.62 131.385 430.069 130.739 426.605C129.741 421.176 130.739 415.57 129.418 410.199C127.127 400.807 128.126 391.327 128.096 381.847C128.096 379.117 127.274 376.564 126.981 373.717C124.749 373.423 122.841 375.037 120.668 374.891C119.728 374.832 119.552 375.771 119.464 376.475C118.935 380.438 117.321 383.725 113.592 385.633C112.887 385.985 112.505 386.543 112.447 387.364C112.388 388.215 112.124 389.067 112.153 389.918C112.241 393.293 111.39 396.111 108.248 397.989C107.279 398.576 106.574 399.809 106.604 401.13C106.75 406.119 103.491 409.348 100.144 412.048C96.6794 414.807 93.9487 417.888 92.2164 421.851C91.2181 424.14 90.0142 426.136 87.9002 427.603C85.6981 429.159 84.8172 431.331 84.5824 434.148C84.23 438.727 85.4338 443.1 85.4338 447.62C85.4338 450.702 85.3458 453.725 84.4355 456.66C83.3492 460.182 83.9364 463.41 85.9917 466.375C86.7551 467.49 87.4598 468.635 87.6359 470.014C88.1057 473.947 87.4304 474.827 82.2041 476.941C81.8517 475.444 82.2921 474.182 83.4373 473.419C84.9053 472.479 84.553 471.628 83.8777 470.396C81.793 466.609 81.0002 462.383 80.1194 458.215C79.5615 455.603 80.2368 453.108 81.2938 450.731C82.3508 448.412 82.6445 445.976 82.1453 443.57C81.1177 438.815 81.5287 434.119 82.2041 429.394C82.4096 427.897 83.1143 426.664 83.9657 425.431C87.2249 420.706 90.6309 416.127 93.567 411.167C95.0645 408.614 97.5015 406.53 99.9972 404.798C101.7 403.595 102.669 402.157 102.904 400.014C103.227 396.874 104.431 394.086 107.308 392.383C108.336 391.767 108.571 390.974 108.307 389.918C108.042 388.802 108.365 387.746 108.395 386.66C108.512 383.784 109.775 381.788 112.505 380.819C114.091 380.232 115.148 379.088 115.911 377.649C117.526 374.626 117.144 373.687 113.944 372.484C110.068 371.016 106.516 368.786 102.522 367.582C101.671 367.318 101.172 366.614 100.584 365.968C97.1491 362.182 93.8606 358.249 90.1611 354.698C89.1628 353.729 88.0764 353.054 86.7845 352.614C84.6998 351.88 83.2317 350.559 82.6445 348.329C81.7636 345.042 79.7377 342.547 77.3888 340.111C73.2488 335.855 70.342 330.836 68.9913 324.966C68.2573 321.767 67.8462 318.48 65.7909 315.721C65.2036 314.958 64.7339 313.784 65.0862 312.375C67.2003 315.75 69.1381 318.832 70.1658 322.648C71.5164 327.549 74.3058 331.805 78.2402 335.327C81.1177 337.91 83.7896 340.874 85.0522 344.689C85.5807 346.274 86.0504 347.712 88.1057 347.771C88.6636 347.8 89.3389 348.182 89.6913 348.622C92.0402 351.733 95.4755 353.436 98.4998 355.725C99.3806 356.371 100.467 357.046 100.849 357.985C102.816 362.769 107.484 363.503 111.448 364.941C114.238 365.968 116.88 367.025 119.2 368.874C121.373 370.576 123.692 371.779 126.599 371.222C127.45 369.255 127.01 367.083 127.715 365.117C128.008 364.295 130.504 362.358 131.267 362.387C131.855 362.417 132.119 362.857 132.178 363.327C132.295 364.413 132.119 365.469 131.855 366.555C130.71 371.104 130.416 375.683 131.238 380.35C131.502 381.788 131.59 383.255 131.649 384.723C132.06 394.731 133.088 404.651 134.057 414.601C134.292 417.037 134.321 419.473 134.409 421.909C134.585 426.899 136.083 431.771 135.877 436.819C135.818 437.993 136.288 438.991 136.934 439.872C139.078 442.865 140.105 446.329 140.017 449.88C139.87 455.662 140.751 461.297 141.485 466.962C141.544 467.461 141.691 467.93 141.632 468.429C141.133 472.802 143.041 476.148 146.036 479.142C148.268 481.372 148.473 484.396 148.385 487.36C148.327 489.679 147.945 491.997 147.945 494.286C147.945 497.045 148.444 497.544 151.321 497.809C153.201 497.985 154.933 498.66 156.43 499.658C158.632 501.154 160.981 501.066 163.741 501.037C162.068 497.515 162.538 494.345 164.299 491.293C164.417 491.087 164.475 490.823 164.505 490.588C165.532 483.574 168.322 476.97 169.056 469.897C169.32 467.343 169.672 464.819 170.612 462.383C171.405 460.328 171.816 458.186 171.728 455.926C171.64 453.343 172.227 450.819 173.255 448.442C175.486 443.217 175.926 437.7 176.484 432.123C177.072 426.459 176.954 420.706 178.804 415.188C179.597 412.811 179.978 410.199 178.892 407.704C178.598 407.029 178.422 406.354 178.598 405.591C179.509 401.863 178.775 398.048 179.186 394.291C179.244 393.821 179.303 393.264 179.156 392.823C177.629 388.362 180.008 384.195 180.155 379.851C180.184 379.176 180.478 378.413 181.417 377.826C182.856 380.232 182.357 382.786 181.681 385.075C181.035 387.306 180.889 389.331 181.505 391.532C181.681 392.119 181.916 392.823 181.74 393.322C180.448 397.138 181.74 401.041 181.182 404.945C180.83 407.322 182.151 409.876 181.711 412.488C181.417 414.161 181.212 415.804 180.771 417.477C180.125 419.913 179.332 422.32 179.626 424.991C179.92 427.515 179.861 430.098 179.391 432.651C178.833 435.704 179.303 438.786 180.301 441.662C181.887 446.211 182.826 450.819 183.032 455.603C183.12 457.599 183.619 459.477 184.441 461.268C185.616 463.762 186.027 466.345 185.733 469.104C185.381 472.597 185.909 475.737 188.258 478.702C190.049 480.962 191.459 483.544 193.426 485.746C194.894 487.389 195.481 489.59 196.01 491.733C196.803 494.991 197.331 495.519 200.62 495.783C204.261 496.077 207.755 497.31 211.454 497.398C212.452 497.427 213.451 498.19 214.684 498.366C213.92 497.31 213.04 496.282 212.188 495.46C209.957 493.347 209.927 490.911 210.808 488.417C211.63 486.186 211.572 484.131 210.779 482.018C210.25 480.639 210.133 479.201 210.045 477.704C209.898 475.532 209.781 473.36 209.252 471.188C208.371 467.578 209.105 464.056 211.395 461.15C212.717 459.448 212.805 458.069 212.071 456.131C210.25 451.289 209.193 446.299 210.045 441.075C210.485 438.316 211.014 435.586 211.572 432.857C212.335 429.041 214.566 425.96 216.886 422.995C217.649 421.997 218.472 421.117 218.149 419.737C217.796 418.27 217.855 416.832 218.472 415.452C218.618 415.129 218.677 414.719 218.618 414.396C217.092 407.352 220.028 401.335 222.935 395.318C224.138 392.853 223.052 390.505 222.817 388.186C222.523 385.339 222.083 382.492 220.175 380.027C219.088 378.618 219.294 376.564 219.646 373.951C221.437 379.234 223.375 383.725 224.344 388.421C225.049 391.737 225.225 395.436 222.993 398.605C220.82 401.658 221.232 405.679 219.382 408.878C219.176 409.23 219.264 409.846 219.411 410.316C220.351 413.662 219.411 417.037 219.529 420.412C219.558 421.557 219.235 422.672 218.618 423.524C217.444 425.138 216.857 426.987 215.946 428.689C214.42 431.507 212.981 434.324 213.509 437.7C213.539 437.934 213.509 438.199 213.392 438.404C210.779 444.01 212.364 449.469 214.302 454.752C215.594 458.245 215.389 461.121 212.952 463.909C211.953 465.054 211.278 466.492 211.395 467.93C211.748 472.744 210.573 477.674 212.687 482.4C213.539 484.307 213.186 486.45 212.511 488.505C211.542 491.498 213.392 494.962 216.534 495.725C218.06 496.077 219.147 496.546 219.147 498.161C219.147 499.834 217.737 500.274 216.475 500.743C216.035 500.92 215.535 501.008 215.036 501.008C208.929 501.066 202.851 501.066 196.949 499.1C194.63 498.337 193.162 496.987 193.103 494.404C193.044 491.087 191.547 488.387 189.58 485.804C187.671 483.28 185.88 480.639 184.236 477.939C183.032 475.913 182.592 473.624 182.68 471.247C182.797 467.93 182.386 464.79 181.182 461.591C179.685 457.599 179.685 453.196 179.391 448.941C179.244 446.094 179.127 445.742 177.16 442.19ZM128.948 365.998C128.83 366.526 128.772 366.643 128.772 366.761C128.772 367.348 128.772 367.935 128.83 368.551C128.86 368.844 128.977 368.786 129.036 368.404C129.124 367.817 129.153 367.23 129.183 366.643C129.212 366.496 129.124 366.408 128.948 365.998Z" fill="#EFECF0"/>
<path d="M247.128 346.684C244.662 351.234 242.313 356.047 236.558 357.309C232.213 358.248 230.157 361.77 227.309 364.441C225.548 366.114 223.786 367.464 221.173 366.349C220.762 366.173 220.116 366.085 219.734 366.29C216.357 367.934 212.335 367.64 209.222 370.047C207.255 371.573 204.994 372.424 202.352 371.867C201.677 371.72 200.796 371.808 200.238 372.131C197.36 373.804 193.778 373.393 190.96 375.213C190.754 375.33 190.49 375.477 190.284 375.448C185.851 374.861 181.711 377.678 177.365 376.886C172.579 376.035 167.999 376.944 163.301 377.385C160.834 377.619 158.309 376.68 155.726 376.739C154.551 376.768 153.23 376.093 154.346 374.362C154.61 373.98 154.874 373.452 154.845 373.011C154.757 371.074 155.902 370.722 157.429 370.898C164.71 371.72 172.021 370.84 179.332 371.162C181.182 371.25 182.973 371.221 184.647 370.194C185.146 369.9 185.821 369.607 186.379 369.666C190.49 370.018 194.101 368.022 197.977 367.259C199.21 367.024 200.238 366.378 201.354 365.938C202.91 365.322 204.613 363.913 206.169 366.202C206.727 367.024 207.608 366.378 207.931 365.733C209.399 362.768 211.513 362.416 214.243 363.913C215.212 364.441 216.122 363.884 216.945 363.297C218.266 362.328 219.705 361.682 221.378 362.152C224.549 363.032 227.192 361.653 228.777 359.334C230.774 356.429 233.622 355.196 236.558 354.257C240.052 353.142 242.166 350.529 244.633 348.269C245.337 347.624 245.925 346.89 246.571 346.186C246.688 346.303 246.923 346.479 247.128 346.684Z" fill="#EFECF0"/>
<path d="M59.8891 487.388C57.9806 486.508 56.2483 485.128 55.5436 483.397C54.6921 481.313 53.5176 479.522 52.2551 477.761C50.5227 475.355 49.9649 472.42 48.7317 469.837C47.4104 467.049 46.5296 464.202 45.6781 461.267C45.0028 458.889 44.7679 456.424 44.856 454.047C44.9734 451.581 44.3862 449.527 42.9181 446.826C41.9491 451.112 39.1892 454.223 39.9526 458.508C40.6572 462.499 39.8058 466.051 36.1943 468.457C35.2547 469.074 35.3721 469.896 35.5777 470.717C35.8419 471.774 36.3411 472.772 36.576 473.858C37.1632 476.705 36.3117 479.023 33.8453 480.344C32.6121 481.019 32.0836 482.252 30.6743 483.397C30.5275 480.696 30.9679 478.583 32.9938 477.497C34.7262 476.529 34.8143 475.413 34.2564 473.887C33.4636 471.774 33.2287 469.631 33.8747 467.43C34.0802 466.726 34.227 465.787 34.7262 465.464C37.9266 463.38 37.6917 460.063 37.6917 456.982C37.6917 453.929 38.2202 451.258 40.0113 448.705C41.127 447.149 41.7436 445.271 42.096 443.304C42.7419 439.694 44.6211 436.466 45.7368 433.003C45.913 432.416 46.4415 431.887 46.4121 431.33C46.2947 427.367 48.7904 424.873 51.2274 422.231C52.6074 420.734 54.0755 419.296 54.5747 417.095C54.9564 415.334 56.6593 414.336 58.0393 413.514C60.1534 412.223 61.8564 410.491 63.7649 408.965C65.1449 407.879 66.1725 406.617 66.1138 404.68C66.0844 403.418 66.7304 402.361 67.7581 401.539C68.9325 400.629 69.5197 399.191 70.518 398.164C74.0121 394.583 74.4231 390.093 74.3938 385.573C74.3351 381.376 75.6857 378.294 79.2678 376.063C80.9708 375.007 81.9104 373.246 82.4389 371.309C82.6444 370.546 82.4095 369.548 83.6427 369.049C83.7308 372.63 82.7912 375.535 79.8257 377.707C77.095 379.732 75.1572 382.256 75.5976 385.984C75.8619 388.332 75.304 390.592 74.981 392.881C74.4231 396.609 72.2504 399.602 69.784 402.302C68.6095 403.594 67.3764 404.68 67.6112 406.646C67.6993 407.38 67.4644 408.202 66.8772 408.671C64.0878 410.814 62.2968 414.101 58.9789 415.657C57.1585 416.508 55.5729 417.623 55.338 419.883C55.2206 421.086 54.3104 421.761 53.5764 422.583C52.0496 424.315 50.5815 426.135 49.1427 427.925C48.761 428.395 48.3206 428.952 48.2619 429.481C47.7921 433.795 45.6194 437.522 44.21 441.514C43.4466 443.715 43.0943 445.682 44.6798 447.707C45.6781 448.998 45.7662 450.642 45.7662 452.256C45.7074 457.95 46.647 463.409 49.6419 468.369C50.1117 469.132 50.1998 469.984 50.3172 470.805C50.5815 472.39 51.0219 473.917 52.0202 475.208C54.9564 479.023 56.5712 483.719 59.8891 487.388Z" fill="#EFECF0"/>
<path d="M65.3507 484.276C68.3749 484.775 69.9017 486.448 70.8413 488.914C71.634 491.086 72.4268 493.287 74.4528 494.754C75.04 495.195 75.5979 495.811 76.3906 495.606C79.2681 494.872 82.2043 495.136 85.1404 495.048C85.9332 495.019 87.0195 495.077 87.0783 493.874C87.137 493.052 86.5204 492.494 85.7277 492.348C83.4962 491.907 82.586 490.117 81.7932 488.327C80.237 484.775 78.0643 481.4 78.4753 477.262C78.534 476.792 78.446 476.264 78.5341 475.794C78.5928 475.471 78.7983 475.061 79.0626 474.914C79.5617 474.65 79.9434 475.031 80.2664 475.413C80.6775 475.912 80.7655 476.499 80.8243 477.115C81.1179 480.843 82.9676 484.071 84.2889 487.446C84.7587 488.65 85.669 489.413 86.8434 489.941C88.2234 490.587 89.1336 491.731 89.7796 493.081C91.3064 496.251 90.2494 498.893 86.8434 499.392C83.1145 499.92 79.3268 499.949 75.5685 500.214C74.3647 500.302 73.4839 499.715 72.6617 498.893C71.1056 497.308 69.7549 495.576 69.0796 493.434C68.4043 491.203 67.6996 489.031 65.7911 487.446C64.6753 486.566 65.8204 485.392 65.3507 484.276Z" fill="#EFECF0"/>
<path d="M31.4384 485.273C30.3813 491.202 33.7286 496.016 33.6111 501.416C33.5524 503.999 32.9652 504.644 30.352 504.234C28.5609 503.969 26.7405 503.441 24.9494 503.441C20.5158 503.441 17.4328 500.946 14.4967 498.158C12.9992 496.72 12.9699 495.282 13.9094 491.701C14.9958 491.349 15.3482 492.259 15.8767 492.875C18.8128 496.25 22.7179 497.894 26.9754 498.686C30.1171 499.273 30.7924 498.54 30.1171 495.487C29.6179 493.198 29.383 490.909 29.5005 488.59C29.5298 487.563 29.2362 486.301 31.4384 485.273Z" fill="#EFECF0"/>
<path d="M253.118 331.01C253.911 334.268 251.151 336.41 251.092 339.815C250.358 337.144 250.329 337.115 251.327 335.295C252.061 333.915 252.913 332.624 253.118 331.01Z" fill="#EFECF0"/>
<path d="M254.675 324.758C255.233 323.085 255.791 321.413 256.613 319.006C257.083 321.912 256.642 323.614 254.616 324.7L254.675 324.758Z" fill="#EFECF0"/>
<path d="M254.617 324.67C254.617 325.815 254.617 326.93 254.617 328.075C254.088 326.93 253.941 325.815 254.675 324.758L254.617 324.67Z" fill="#EFECF0"/>
<path d="M189.197 212.76C189.197 212.789 189.168 212.818 189.168 212.848C189.109 213.024 189.109 213.171 189.08 213.347C189.139 213.2 189.168 213.053 189.227 212.907C189.197 212.877 189.197 212.818 189.197 212.76Z" fill="#EFECF0"/>
<path d="M188.434 141.113C188.463 141.113 188.492 141.142 188.521 141.142C188.521 141.142 188.521 141.113 188.492 141.113H188.434Z" fill="#EFECF0"/>
<path d="M188.229 217.896C188.493 216.399 188.464 214.843 189.051 213.376C189.08 213.199 189.08 213.023 189.139 212.877C189.139 212.847 189.168 212.818 189.168 212.789C188.904 211.468 188.757 210.176 189.286 208.856C189.932 210.176 189.726 211.468 189.168 212.789C189.168 212.847 189.198 212.906 189.198 212.965C189.139 213.111 189.11 213.258 189.051 213.405C188.963 213.933 188.963 214.491 188.963 215.049C188.963 219.099 188.963 223.12 188.933 227.17H189.814C190.284 224.411 189.844 221.564 189.873 218.805C189.902 215.254 190.754 211.879 191.224 208.533C192.75 208.357 193.749 208.944 194.806 209.208C201.764 210.998 208.547 213.317 215.887 213.64C223.698 213.992 231.302 213.875 238.907 211.468C243.252 210.088 247.892 209.443 251.973 207.946C254.234 213.875 251.709 220.155 254.322 225.908C254.469 226.26 254.351 226.73 254.322 227.17H258.609C258.286 224.969 258.344 222.709 257.845 220.537C257.434 218.776 256.906 216.927 257.346 215.107C257.845 213.023 257.816 211.028 256.994 209.032C256.348 207.418 257.023 206.478 258.667 206.097C259.372 205.95 260.106 205.745 260.781 205.48C264.305 204.101 264.863 203.25 264.775 199.493C264.716 197.908 264.745 196.294 264.452 194.738C264.099 192.919 264.51 192.097 266.36 191.246C271.381 188.956 276.167 185.933 279.69 181.766C283.713 177.04 286.884 171.493 288.528 165.418C289.938 160.135 291.053 154.734 292.58 149.481C293.343 146.868 293.343 144.198 293.373 141.497C293.461 136.684 292.286 132.105 291.259 127.439C290.055 121.804 288.088 116.432 286.297 111.003C284.564 105.72 281.599 101.112 279.22 96.181C276.46 90.5164 272.438 85.6736 267.535 81.7701C263.541 78.5709 259.137 75.9001 254.821 73.1118C253.206 72.0552 251.444 71.1454 249.506 70.6758C244.427 69.3844 239.23 68.6506 234.238 66.8896C232.535 66.2733 230.656 66.1265 228.836 65.9798C225.958 65.745 225.782 65.7156 225.724 62.8687C225.635 58.5836 225.371 54.3278 224.373 50.1601C224.079 48.8687 223.962 47.5186 224.989 46.3446C225.724 45.4935 225.929 44.3488 225.9 43.2335C225.87 41.6193 224.49 40.504 222.641 40.4746C221.349 40.4746 220.527 41.5899 220.527 43.3216C220.527 44.0847 220.732 44.7597 221.261 45.3467C221.965 46.1098 222.259 47.0197 222.376 48.0176C223.052 53.2125 224.197 58.3488 224.167 63.6318C224.167 66.3613 224.226 66.2733 221.642 66.9483C210.426 69.854 198.858 71.2334 187.935 75.3718C180.859 78.0426 174.399 81.4179 169.936 87.8455C168.615 89.7239 167.059 91.5143 165.356 93.0405C159.249 98.5583 156.136 105.984 153.318 113.292C149.618 122.831 149.647 132.839 151.82 142.818C153.376 149.98 155.579 156.847 158.896 163.481C163.624 172.931 169.379 181.355 178.275 187.342C181.211 189.338 182.738 192.009 181.505 195.795C180.976 197.38 181.035 199.17 180.771 200.872C180.184 204.629 180.154 204.659 183.531 205.979C184.324 206.302 185.293 206.332 185.381 207.447C185.527 209.267 186.35 210.94 186.085 212.847C185.615 216.223 185.351 219.627 185.058 223.032C184.94 224.411 185.028 225.791 184.764 227.141H187.818C188.376 224.088 187.7 220.948 188.229 217.896ZM259.489 201.636C256.318 202.986 256.054 202.868 256.025 200.021C255.995 198.642 255.584 197.057 257.552 195.766C258.315 197.908 257.64 200.168 259.489 201.636ZM275.815 99.6149C277.958 104.252 280.777 108.537 282.362 113.468C284.006 118.575 286.003 123.535 287.089 128.818C287.853 132.516 289.057 136.097 289.38 139.883C289.732 144.227 289.057 148.395 287.706 152.474C286.972 154.676 286.443 156.936 286.032 159.225C284.858 166.181 281.217 171.933 277.341 177.598C275.638 180.093 272.82 181.296 270.5 183.028C266.918 185.728 262.925 187.87 259.284 190.541C258.52 191.099 257.669 191.657 256.377 191.569C255.526 189.338 255.467 186.961 255.819 184.554C256.7 178.156 257.375 171.699 259.724 165.594C260.135 164.537 260.312 163.481 260.165 162.365C260.077 161.749 259.901 160.868 259.343 160.839C255.937 160.839 257.61 158.608 257.728 157.17C257.845 155.967 257.405 155.116 256.994 154C255.349 149.774 253.001 145.342 255.966 140.705C256.465 139.912 256.583 139.12 256.553 138.269C256.465 136.302 257.229 134.483 257.522 132.634C257.963 129.757 259.695 128.261 261.515 126.5C266.859 121.275 270.001 114.936 270.706 107.481C271.087 103.489 271.704 99.5269 270.647 95.4766C270.177 93.6862 269.443 92.072 268.856 90.3403C272.144 92.7177 274.2 96.0929 275.815 99.6149ZM253.646 140.646C248.567 141.145 247.128 140.001 246.482 134.336C248.42 137.682 249.653 140.852 253.646 140.646ZM252.237 132.957C252.296 132.193 252.736 131.636 253.588 131.518C254.527 131.9 255.379 132.458 255.438 133.514C255.467 134.336 254.821 134.864 253.999 134.806C252.883 134.776 252.149 134.16 252.237 132.957ZM190.49 190.688C190.783 189.426 190.548 188.047 190.548 186.667C192.721 186.256 193.896 188.105 195.657 188.692C196.098 186.579 195.305 185.288 193.543 184.935C190.813 184.407 190.578 182.646 190.548 180.357C190.431 172.755 190.901 165.242 192.222 157.757C192.486 156.172 192.633 154.617 192.016 153.061C190.724 157.522 190.724 162.189 189.932 166.738C189.726 167.912 189.697 169.116 189.403 170.319C188.816 167.619 188.816 164.889 189.315 162.248C190.343 156.642 191.517 151.065 191.605 145.313C192.31 147.925 191.987 150.567 191.987 153.179C192.897 151.359 192.633 149.422 192.574 147.543C192.515 145.753 192.838 144.374 194.982 143.787C196.685 143.317 198.388 142.466 199.004 140.03C196.949 140.47 195.921 142.26 193.954 142.525C191.781 142.818 190.343 141.527 188.581 141.116C189.315 141.673 189.638 142.437 189.579 143.317C189.168 148.277 189.198 153.325 188.111 158.227C186.819 164.126 186.526 170.055 187.26 176.042C187.289 176.277 187.377 176.541 187.348 176.776C187.289 177.803 188.082 179.095 186.849 179.74C185.762 180.298 185.527 178.537 184.441 178.478C184.5 179.652 184.705 180.826 185.733 181.355C187.7 182.353 187.671 183.938 187.407 185.699C187.201 187.254 186.966 188.81 186.731 190.453C184.705 190.306 183.59 188.898 182.474 187.724C180.36 185.493 177.981 183.585 175.662 181.619C170.524 177.334 166.619 172.051 163.477 166.21C160.012 159.753 156.812 153.208 155.167 145.988C152.819 135.627 151.262 125.179 155.52 115.082C158.368 108.303 160.952 101.141 167.176 96.3277C168.498 95.3005 169.584 93.8917 170.612 92.5122C175.544 85.8497 182.386 82.3277 190.02 79.5688C201.001 75.6066 212.569 74.3152 223.786 71.5856C228.249 70.4997 232.741 70.8225 237.057 72.7009C239.435 73.7282 242.019 73.9043 244.544 74.3445C250.505 75.4011 255.438 78.6003 260.047 82.2397C262.484 84.1768 265.597 85.3801 267.065 87.8455C259.02 94.0384 255.379 102.521 253.03 111.736C252.208 112.03 251.767 111.56 251.532 111.003C249.771 107.04 246.747 103.959 244.221 100.554C242.636 98.4115 240.14 97.9419 237.674 97.9419C235.501 97.9419 233.358 97.8246 230.979 97.355C231.478 99.0866 232.477 99.6736 234.004 99.6149C234.738 99.5855 235.472 99.4975 236.206 99.5855C239.171 99.9671 241.696 100.642 243.047 104.017C244.985 108.801 249.301 111.971 252.355 116.022C252.678 116.432 253.147 116.579 253.646 116.432C254.263 116.256 254.234 115.699 254.234 115.258C254.586 107.305 258.521 100.906 263.072 94.7721C263.659 93.9797 264.246 93.0698 265.332 93.2166C266.477 93.3633 266.566 94.4787 266.918 95.3885C269.061 100.848 268.386 106.483 267.593 112.001C266.977 116.344 264.305 119.808 261.545 123.124C260.458 124.416 259.137 125.531 257.875 126.705C256.641 127.85 257.405 129.816 256.201 130.99C252.824 128.319 249.301 128.29 246.893 130.902C244.016 134.042 244.104 139.325 247.04 142.231C247.921 143.082 249.007 143.082 250.064 143.376C251.151 143.699 252.237 142.789 253.382 143.523C253.852 146.105 253.294 148.776 253.735 151.447C253.911 152.562 253.94 153.795 254.703 154.499C256.935 156.583 256.377 158.873 255.555 161.25C254.968 162.952 254.351 164.625 253.764 166.298C254.85 166.768 255.32 165.359 256.26 165.799C256.788 167.179 256.113 168.441 255.731 169.673C253.94 175.397 253.118 181.325 251.562 187.107C251.151 188.634 251.151 190.218 251.503 191.833C251.797 193.183 251.65 194.386 250.064 195.179C243.693 198.29 237.087 200.814 230.069 201.724C225.635 202.311 221.084 202.193 216.709 200.579C215.917 200.285 215.036 200.197 214.184 200.227C207.901 200.256 201.911 198.319 195.804 197.262C195.217 197.145 194.63 196.94 194.072 196.675C191.664 195.413 189.697 193.975 190.49 190.688ZM185.968 195.267C187.142 196.998 186.937 198.818 186.761 201.078C184.089 199.17 185.704 197.086 185.968 195.267ZM201.618 206.596C198.593 205.803 195.716 204.394 192.809 203.103C190.284 201.958 190.313 201.87 191.312 198.613C198.652 201.371 206.433 201.841 214.038 203.397C214.86 203.573 215.711 203.719 216.533 203.984C222.846 206.009 229.1 206.038 235.56 204.218C240.14 202.927 244.574 201.342 248.949 199.464C251.914 198.202 252.355 198.671 252.237 201.724C252.149 203.719 251.327 204.776 249.418 205.363C241.021 207.975 232.506 210.323 223.639 209.619C216.269 209.032 208.841 208.474 201.618 206.596Z" fill="#EFECF0"/>
<path d="M163.418 53.6821C169.202 52.9483 173.988 52.1265 178.716 50.9232C184.177 49.5144 189.785 48.9861 195.334 48.1936C196.186 48.0762 197.419 47.4305 197.771 48.898C198.065 50.2481 197.184 50.8645 196.039 51.2754C192.897 52.3613 189.638 52.8603 186.408 53.506C179.009 55.0322 171.581 56.4703 164.152 57.9378C162.479 58.2607 160.776 58.4955 159.073 58.6422C158.016 58.7303 156.606 59.1118 156.195 57.7911C155.784 56.4703 155.402 54.9148 156.518 53.6234C157.957 51.9504 159.631 50.5123 161.48 49.3089C164.416 47.3425 166.501 44.4955 169.907 42.1182C164.916 42.0888 161.011 43.4389 157.047 44.4662C150.059 46.2565 143.129 48.1643 136.171 50.0427C133.499 50.7471 132.412 50.4242 131.972 48.7513C131.443 46.7261 132.706 43.8205 134.526 43.4096C137.962 42.5878 141.456 42.0008 144.92 41.2964C152.319 39.7702 159.719 38.1559 167.206 37.0406C169.379 36.7177 171.551 36.3949 173.753 36.1895C175.926 35.984 176.954 37.4222 176.073 39.418C175.515 40.6507 174.605 41.6779 173.695 42.6465C171.316 45.1119 168.938 47.5479 166.589 50.0427C165.65 50.9819 164.828 52.0091 163.418 53.6821Z" fill="#EFECF0"/>
<path d="M266.037 53.4466C265.391 51.1573 266.272 49.8953 268.357 49.2496C270.5 48.6039 272.614 47.8114 274.64 46.7255C266.478 46.1091 258.344 47.2244 250.064 45.933C250.798 43.9959 252.325 44.1133 253.676 44.084C257.346 43.9959 260.987 44.0546 264.657 43.9372C271.851 43.7024 279.015 43.4089 286.179 42.7045C286.678 42.6458 287.148 42.5578 287.618 42.5284C288.793 42.4697 289.967 42.6752 290.231 43.9666C290.495 45.2286 289.262 45.5515 288.381 45.845C285.152 46.9896 281.922 48.0756 278.692 49.1322C278.017 49.367 277.253 49.4257 276.49 50.4236C280.278 50.629 283.83 50.7464 287.354 51.0399C296.955 51.8617 306.615 51.9204 316.128 53.7108C317.097 53.8869 318.066 54.0336 319.006 54.2978C320.767 54.8261 321.355 55.912 320.797 57.6437C320.356 59.0818 319.886 60.2265 317.743 59.7275C311.695 58.2894 305.558 57.2034 299.509 55.8827C296.867 55.2957 294.224 55.0022 291.552 54.7967C283.537 54.1804 275.55 53.0357 267.476 53.5053C266.977 53.5934 266.507 53.476 266.037 53.4466Z" fill="#EFECF0"/>
<path d="M250.124 19.8426C253.237 18.6686 255.644 16.7021 257.935 14.8824C262.427 11.3311 267.536 9.01244 272.615 6.72313C276.932 4.78603 281.336 2.90763 285.946 1.67493C287.149 1.35208 288.06 1.38142 288.588 2.76087C289.322 4.66863 288.852 5.46108 286.621 5.96003C281.747 7.01663 276.902 8.30804 272.175 9.98099C265.011 12.5344 259.256 17.2598 253.178 21.5449C251.886 22.4547 250.653 23.482 249.155 24.069C247.599 24.6854 246.806 24.0984 246.895 22.3961C246.953 21.3101 247.276 20.2535 247.511 19.1675C247.864 17.6413 248.598 16.2325 248.656 14.5889C247.629 14.0606 247.1 14.9998 246.484 15.4107C241.551 18.5805 236.912 22.1612 232.331 25.8007C231.861 26.1822 231.597 26.7105 230.834 26.2996C228.367 24.8908 228.132 20.3709 230.599 19.0795C233.535 17.5239 236.089 15.4401 238.82 13.6204C242.432 11.1843 246.249 9.01243 250.066 6.89923C252.062 5.78393 252.591 6.19484 252.767 8.51349C252.943 10.7147 252.855 12.7986 251.651 14.8531C250.858 16.2032 249.978 17.7587 250.124 19.8426Z" fill="#EFECF0"/>
<path d="M173.578 14.8511C172.991 12.7086 172.257 11.5052 171.493 10.3312C171.112 9.71486 170.612 9.12786 170.436 8.45281C169.966 6.75051 170.877 5.87 172.609 6.48635C176.191 7.71905 179.626 9.30396 182.944 11.153C186.438 13.1195 189.844 15.2914 193.221 17.4633C195.306 18.8134 195.599 19.8406 194.953 21.719C194.777 22.1886 194.601 22.6289 194.043 22.7463C193.485 22.8637 193.015 22.6289 192.869 22.1299C192.193 19.8113 190.138 19.0482 188.318 18.1677C184.559 16.2893 181.006 13.9413 176.485 12.2096C177.424 14.1467 178.07 15.5262 178.775 16.9056C179.245 17.8155 179.538 18.7547 178.863 19.6645C178.041 20.7505 177.072 19.9874 176.221 19.6939C171.112 17.9916 166.414 15.3794 161.481 13.2662C155.99 10.9182 150.911 7.71906 145.508 5.19496C142.601 3.84486 142.719 3.6394 143.424 0C153.377 4.6373 163.507 8.83436 173.578 14.8511Z" fill="#EFECF0"/>
<path d="M188.494 141.085C188.406 139.881 188.347 138.648 188.259 137.445C188.141 135.772 187.525 134.451 185.969 133.6C184.324 132.69 183.238 131.428 182.974 129.345C182.798 127.877 182.21 126.615 179.949 126.527C177.777 126.41 177.454 123.856 177.601 122.154C177.777 120.041 177.219 118.514 176.044 116.812C174.958 115.286 174.459 113.437 174.341 111.382C174.165 107.626 173.549 103.869 172.991 100.141C172.697 98.1161 172.756 96.2377 173.989 94.5354C175.164 92.9505 176.397 92.657 178.07 93.7136C184.412 97.5878 188.229 103.311 190.608 110.531C188.641 109.24 188.67 109.21 187.936 108.183C186.203 105.659 184.442 103.194 182.68 100.67C181.829 99.4368 180.566 98.6444 179.421 97.7345C178.569 97.0595 177.571 96.2377 176.485 96.8541C175.457 97.4117 176.015 98.615 176.015 99.5543C176.103 103.076 175.898 106.628 176.661 110.12C177.131 112.175 177.454 114.2 179.362 115.521C179.832 115.844 180.272 116.401 180.507 116.929C182.386 121.391 185.881 124.707 188.582 128.581C189.11 129.345 189.58 129.667 190.666 129.374C194.395 128.347 195.893 128.963 198.066 132.045C199.064 133.483 199.622 135.068 199.857 136.799C199.945 137.416 199.622 138.443 199.123 138.15C197.185 136.976 197.009 138.678 196.333 139.617C195.1 141.29 193.515 141.877 191.518 141.143C190.49 140.762 189.492 140.204 188.435 141.114L188.494 141.085ZM196.216 135.508C195.922 134.569 195.775 133.307 194.366 133.424C193.603 133.483 193.338 134.363 193.397 135.126C193.485 136.154 193.867 137.064 195.041 137.064C195.952 137.093 196.216 136.359 196.216 135.508Z" fill="#EFECF0"/>
<path d="M213.333 184.258C211.659 183.7 211.395 182.203 211.101 180.795C210.397 177.654 210.426 174.455 210.778 171.344C210.984 169.554 209.34 167.822 210.984 165.885C213.626 168.35 216.797 169.055 220.321 168.468C220.908 168.38 221.583 168.38 221.818 169.143C222.024 169.788 221.671 170.346 221.26 170.786C220.262 171.902 218.882 172.019 217.561 172.048C216.709 172.078 215.887 171.813 215.036 171.667C213.744 171.461 213.186 172.019 213.303 173.281C213.509 175.6 213.949 177.86 214.86 180.413C217.032 178.27 219.234 176.774 222.2 176.891C224.989 177.008 227.837 176.539 230.451 178.27C231.889 176.187 231.919 173.897 232.212 171.461C230.039 171.285 228.16 172.459 226.076 171.872C223.198 171.109 222.758 170.757 222.699 167.029C225.635 169.377 228.571 169.172 231.478 167.323C232.682 166.56 233.416 166.853 234.033 168.203C234.62 169.436 235.06 170.61 235.002 172.019C234.855 175.453 234.356 178.799 232.946 181.998C231.654 184.933 231.742 188.191 230.891 191.273C230.304 193.474 229.305 195.382 227.661 196.908C224.637 199.725 220.761 199.637 217.854 196.702C216.063 194.912 215.153 192.681 214.595 190.245C214.125 188.249 213.685 186.224 213.245 184.199C214.008 183.73 214.713 183.055 214.125 182.174C212.892 180.354 213.098 178.036 211.923 176.157C211.365 179.092 212.863 181.587 213.333 184.258ZM223.051 190.04C221.906 189.805 221.818 189.247 221.759 188.807C221.583 186.488 221.495 184.17 221.378 181.881C221.26 179.767 220.291 179.151 218.353 179.973C216.269 180.883 214.713 183.994 215.065 186.811C215.359 189.13 216.181 191.302 217.473 193.268C219.469 196.379 222.464 197.113 225.635 195.235C228.601 193.503 231.537 186.665 230.744 183.319C230.216 181.059 228.014 179.679 225.371 179.973C223.492 180.178 223.462 180.325 223.462 183.847C223.492 185.872 223.785 187.956 223.051 190.04ZM233.269 172.899C232.711 175.424 232.124 177.977 231.566 180.501C233.093 178.182 233.827 175.717 233.269 172.899Z" fill="#EFECF0"/>
<path d="M230.833 145.227C233.417 145.461 234.885 147.105 235.032 149.248C235.179 151.155 233.857 153.063 231.89 153.004C229.453 152.946 227.867 153.767 226.341 155.705C225.254 157.084 222.7 157.172 223.052 159.99C221.731 159.491 222.201 158.023 221.026 157.818C219.411 157.524 218.325 156.292 217.209 155.147C216.593 154.501 216.064 154.032 215.007 154.296C211.777 155.176 211.396 154.795 210.926 150.686C212.13 151.185 213.157 150.95 214.302 150.48C216.681 149.482 217.708 150.011 219 152.388C219.353 153.034 219.558 153.767 220.028 154.325C220.498 154.883 221.408 155.382 221.819 154.501C222.759 152.535 223.052 153.357 223.669 154.677C223.904 155.206 224.579 154.765 224.726 154.325C225.049 153.415 225.107 152.447 225.607 151.566C226.928 149.101 227.926 148.572 230.598 149.336C231.538 149.6 232.653 150.363 233.27 149.424C234.092 148.191 233.094 147.193 232.096 146.401C231.861 146.078 231.596 145.872 230.833 145.227Z" fill="#EFECF0"/>
<path d="M241.756 122.392C241.991 123.918 240.875 124.358 239.789 124.476C237.176 124.798 234.533 124.27 231.891 124.74C231.274 124.857 230.687 124.534 230.247 124.094C229.278 123.155 228.132 123.037 226.841 123.214C225.872 123.36 224.844 123.302 223.963 122.832C222.143 121.863 220.44 121.1 218.796 123.155C218.561 123.448 217.738 123.624 217.445 123.448C214.92 121.863 212.747 123.507 210.486 124.094C206.199 125.239 201.971 125.943 197.743 122.891C198.771 122.362 199.71 122.48 200.503 122.803C204.35 124.446 207.932 123.918 211.543 122.01C212.894 121.306 214.391 120.601 216.036 121.599C216.593 121.922 217.738 122.069 218.15 121.717C221.262 119.163 224.785 121.922 227.986 120.866C228.279 120.777 228.749 120.895 229.043 121.042C232.977 123.36 237.235 122.744 241.433 122.392C241.551 122.392 241.668 122.421 241.786 122.45L241.756 122.392Z" fill="#EFECF0"/>
<path d="M196.304 176.48C198.946 178.828 200.091 181.822 200.62 185.051C200.884 186.665 201.119 188.162 203.057 188.69C203.556 188.837 204.172 189.394 204.349 189.893C205.083 192.036 206.903 192.711 208.694 193.415C209.37 193.68 210.045 193.914 210.427 194.648C210.749 195.235 210.808 195.822 210.456 196.38C210.162 196.82 209.663 196.937 209.164 196.849C206.551 196.321 204.349 195.47 202.411 193.122C199.798 189.923 198.946 186.342 198.241 182.527C198.036 181.441 197.566 180.472 196.92 179.562C196.333 178.682 195.746 177.772 196.304 176.48Z" fill="#EFECF0"/>
<path d="M242.108 191.597C241.814 190.364 242.02 189.66 242.695 189.249C246.307 187.018 246.864 183.496 246.864 179.71C246.894 175.895 248.479 172.461 249.155 168.322C250.887 169.937 250.447 171.257 249.947 172.431C249.096 174.28 249.037 176.159 249.301 178.125C249.83 182.205 248.303 185.786 246.189 189.131C245.279 190.511 243.899 191.245 242.108 191.597Z" fill="#EFECF0"/>
<path d="M227.221 97.2077C224.99 97.4131 222.846 98.1175 220.468 97.3251C217.679 96.3859 215.388 98.4404 212.922 99.1448C211.307 99.585 209.898 100.319 208.107 100.025C206.257 99.7318 204.437 100.201 203.35 101.962C202.44 103.401 201.089 103.489 199.533 103.283C202.616 101.698 204.202 97.2957 208.782 98.5578C209.311 98.7045 209.722 98.6165 210.133 98.323C212.423 96.6794 215.535 97.5012 217.767 95.6521C218.09 95.388 218.706 95.3293 219.176 95.388C221.877 95.7108 224.579 96.063 227.251 96.4152C227.251 96.6794 227.251 96.9435 227.221 97.2077Z" fill="#EFECF0"/>
<path d="M221.79 145.842C219 147.046 216.24 145.666 213.48 146.223C216.211 144.403 219.03 145.401 221.79 145.842Z" fill="#EFECF0"/>
<path d="M196.48 105.425C196.422 106.863 194.337 105.924 194.249 107.303C194.19 108.36 194.454 109.504 193.221 110.15C191.929 105.395 192.575 104.427 196.48 105.425Z" fill="#EFECF0"/>
<path d="M179.684 170.699C181.064 171.785 181.945 172.871 181.798 174.485C181.769 174.984 181.652 175.454 181.152 175.63C180.653 175.835 180.154 175.571 179.86 175.219C178.627 173.781 178.715 172.313 179.684 170.699Z" fill="#EFECF0"/>
<path d="M172.932 162.893C174.899 165.299 176.249 167.06 176.866 169.438C174.664 167.999 173.255 165.857 172.932 162.893Z" fill="#EFECF0"/>
<path d="M221.203 200.874C218.502 200.698 217.21 199.025 215.977 197.322C217.856 198.085 219.823 198.702 221.203 200.874Z" fill="#EFECF0"/>
<path d="M234.357 156.494C235.003 157.903 235.237 159.282 234.856 161.161C233.388 159.429 233.975 157.903 234.357 156.494Z" fill="#EFECF0"/>
<path d="M196.186 163.303C196.186 164.917 196.186 166.531 196.186 168.145C195.334 166.531 195.569 164.888 196.186 163.303Z" fill="#EFECF0"/>
<path d="M232.418 195.586C231.714 196.907 230.833 198.11 229.453 199.079C229.306 197.288 229.306 197.288 232.418 195.586Z" fill="#EFECF0"/>
<path d="M241.784 122.45C242.665 121.305 243.781 120.572 245.836 119.809C244.574 121.863 243.898 123.36 241.726 122.391C241.755 122.391 241.784 122.45 241.784 122.45Z" fill="#EFECF0"/>
<path d="M244.808 141.906C245.366 141.906 245.66 142.288 245.866 142.699C246.012 143.022 245.954 143.433 245.543 143.492C244.985 143.58 244.72 143.11 244.515 142.699C244.339 142.376 244.368 142.053 244.808 141.906Z" fill="#EFECF0"/>
<path d="M168.057 156.875C168.968 157.198 169.261 157.815 168.909 158.725C168.88 158.813 168.439 158.872 168.351 158.784C167.793 158.255 167.646 157.638 168.057 156.875Z" fill="#EFECF0"/>
<path d="M261.928 103.02C261.282 103.988 260.665 104.986 260.019 105.955C259.931 104.487 260.46 103.43 261.957 103.078L261.928 103.02Z" fill="#EFECF0"/>
<path d="M201.824 140C202.118 141.027 202.382 141.966 201.237 142.524C200.562 141.438 201.56 140.763 201.824 140Z" fill="#EFECF0"/>
<path d="M187.817 112.322C189.109 112.733 189.315 113.644 188.992 114.113C188.287 115.17 188.317 113.967 188.111 113.644C187.935 113.379 187.935 112.998 187.817 112.322Z" fill="#EFECF0"/>
<path d="M211.513 157.992C211.337 158.138 211.19 158.432 211.014 158.432C210.515 158.432 210.456 158.08 210.691 157.727C210.809 157.551 211.073 157.463 211.279 157.346C211.367 157.551 211.425 157.786 211.513 157.992Z" fill="#EFECF0"/>
<path d="M248.215 116.052C248.156 116.434 247.95 116.698 247.569 116.727C247.158 116.757 246.981 116.375 247.128 116.052C247.275 115.788 247.627 115.67 247.892 115.494C248.009 115.67 248.097 115.846 248.215 116.052Z" fill="#EFECF0"/>
<path d="M261.927 103.078C261.81 102.285 261.311 101.434 262.603 100.582C262.309 101.58 262.104 102.285 261.898 103.019C261.927 103.019 261.927 103.078 261.927 103.078Z" fill="#EFECF0"/>
<path d="M275.317 167.793C276.873 169.143 276.021 170.17 275.346 171.374C271.94 177.449 267.389 181.969 260.078 182.82C261.781 180.648 264.101 179.181 266.42 177.889C268.622 176.657 270.237 175.16 271.529 172.988C272.616 171.198 273.614 169.26 275.317 167.793Z" fill="#EFECF0"/>
<path d="M278.047 164.596C278.164 161.808 278.752 159.225 280.425 156.994C281.1 159.988 279.427 162.277 278.047 164.596Z" fill="#EFECF0"/>
<path d="M281.834 150.125C281.423 147.366 282.274 144.842 283.361 142.348C284.095 145.165 283.566 147.748 281.834 150.125Z" fill="#EFECF0"/>
</svg>
