<svg width="257" height="385" viewBox="0 0 257 385" fill="none" xmlns="http://www.w3.org/2000/svg">
<path d="M212.917 71.8949C211.732 71.5471 210.5 71.153 209.407 70.5734C207.594 69.5301 205.618 68.8578 203.666 68.1623C198.482 66.3771 193.298 64.5224 188.068 62.8299C185.674 62.0185 183.419 61.0216 181.257 59.7929C175.492 56.4775 169.89 52.884 163.73 50.3106C162.615 49.8701 162.173 49.1746 162.522 47.8763C162.917 46.3693 163.916 46.4621 164.939 46.7403C169.449 48.0618 174.191 47.9227 178.84 48.5023C175.609 45.7897 172.099 43.7032 168.031 42.544C165.148 41.7325 162.452 40.3183 159.825 38.8809C155.966 36.7944 151.666 35.7511 147.807 33.6877C143.228 31.2534 138.532 29.0973 133 28.1236C134.255 26.6166 135.534 26.918 136.557 27.3585C139.671 28.7032 143.158 29.19 146.041 31.1838C147.575 32.2503 149.318 32.969 151.131 33.5486C156.199 35.1483 160.685 38.0695 165.613 39.9474C167.566 40.7125 169.518 41.4312 171.471 42.1035C174.586 43.1468 177.05 45.3029 179.909 46.7403C181.955 47.7836 183.977 48.8732 186.185 49.4992C186.859 49.6846 187.533 50.0092 188.161 50.3802C188.719 50.6816 189.184 51.1684 188.998 51.8871C188.789 52.6754 188.115 52.7217 187.487 52.6522C185.209 52.3972 182.954 52.119 180.699 51.7712C178.119 51.4234 175.609 50.612 173.005 50.6584C172.517 50.6584 171.959 50.5193 171.378 51.1684C176.748 53.9041 181.513 57.5904 187.231 59.5378C193.205 61.6012 199.179 63.595 205.223 65.5425C208.175 66.5162 210.756 68.4405 213.917 68.9273C214.754 69.0433 215.195 69.9706 214.916 70.898C214.614 71.9181 213.801 72.1731 212.917 71.8949Z" fill="#EFECF0"/>
<path d="M203.683 33.9593C202.363 33.7076 201.044 33.4101 199.724 33.0669C193.729 31.5111 187.965 29.1317 181.83 27.8733C178.589 27.2326 175.325 26.6378 172.038 26.1802C168.566 25.6997 165.094 25.0362 161.691 24.2354C159.677 23.7549 157.663 23.3431 155.603 23.0914C154.677 22.977 153.357 22.9084 153.334 21.4899C153.334 20.2772 154.237 19.6824 155.255 19.3392C157.454 18.6985 159.63 18.1265 161.83 17.5317C153.01 17.0054 144.19 16.0445 135 16.3877C136.088 15.0607 137.315 15.1293 138.472 15.0607C140.648 14.9234 142.847 15.0378 144.954 15.2895C149.075 15.7471 153.172 15.1522 157.316 15.8386C160.95 16.4335 164.746 15.8843 168.473 15.7928C170.024 15.7471 171.575 15.4954 173.126 15.7699C173.52 15.8386 173.96 15.9987 174.029 16.4792C174.098 17.097 173.682 17.6232 173.173 17.5546C169.399 17.097 166.182 19.4078 162.57 19.6595C160.973 19.751 159.561 20.3001 158.033 21.1467C164.33 22.9542 170.58 23.8693 176.807 24.8532C181.738 25.6311 186.576 26.7293 191.252 28.3766C194.979 29.6579 198.752 30.7103 202.572 31.6255C203.081 31.7399 203.613 31.8086 204.076 32.0145C204.678 32.2433 205.187 32.6322 204.933 33.3873C204.771 33.9821 204.215 34.0737 203.683 33.9593Z" fill="#EFECF0"/>
<path d="M109 13C104.963 9.71643 100.142 8.38037 95.205 7.27075C94.1899 7.0443 93.221 6.74991 92.2291 6.43288C91.4217 6.22907 91.0064 5.77617 91.1449 4.89301C91.2602 3.91926 91.9753 3.78339 92.7135 3.78339C94.213 3.82868 95.7355 4.30423 97.6964 3.14932C96.2661 3.10403 95.2972 3.03609 94.3514 3.01345C87.9383 2.94551 81.5714 2.87758 75.1583 2.83229C72.367 2.80965 69.6448 1.94913 66.8304 2.37939C66.3921 2.44732 66.0231 2.24351 66 1.74531C66 1.3377 66.0692 0.884797 66.4844 0.703636C67.9378 0.137505 69.4603 -0.111594 71.029 0.0469222C79.426 0.794214 87.8691 0.635702 96.2891 0.794218C98.942 0.862154 101.618 1.36035 104.225 1.90384C105.309 2.13029 107.062 2.31145 106.762 3.9419C106.532 5.32326 104.963 5.11945 103.902 5.02887C102.218 4.91565 100.626 5.16474 98.573 5.75352C102.541 7.81423 107.016 8.6974 109 13Z" fill="#EFECF0"/>
<path d="M51.863 139.993C50.9409 140.096 51.0538 138.456 50.3952 138.174C50.2634 137.969 50.1317 137.738 50 137.534C50.0376 137.098 49.9624 136.534 50.1129 136.252C50.3952 135.74 50.7151 136.099 50.9221 136.483C51.242 137.149 51.5619 137.841 51.8441 138.533C51.9759 138.917 52.1076 139.327 51.863 139.993Z" fill="#EFECF0"/>
<path d="M144 366.998C145.909 367.676 146.75 369.312 148.409 369.99C151.591 371.299 154.705 372.819 157.841 374.268C158.659 374.642 159.341 375.297 160 375.998C157.318 375.718 155.091 374.175 152.636 373.263C150.841 372.608 149.136 371.673 147.295 371.066C145.5 370.505 144.182 369.453 144 366.998Z" fill="#EFECF0"/>
<path d="M140 163C140.161 160.267 142.415 159.067 142.921 157C143.266 159.778 142.507 161.378 140 163Z" fill="#EFECF0"/>
<path d="M148.042 149.998C147.944 147.913 147.944 147.913 148.887 145.998C149.082 147.424 149.147 148.849 148.042 149.998Z" fill="#EFECF0"/>
<path d="M97.7812 149.66C98.6876 147.253 96.7122 144.317 93.0635 142.728C92.5057 142.464 91.8782 142.247 91.2972 142.199C87.695 142.006 84.0695 141.525 80.6997 143.426C79.0961 147.037 80.3743 149.685 83.2561 152.019C84.7667 153.271 86.44 153.993 88.183 154.643C91.7853 155.943 96.2706 153.56 97.7812 149.66ZM91.2508 148.072C90.4141 147.735 89.5774 147.229 88.9035 146.604C88.3922 146.098 88.3457 145.256 88.8338 144.341C90.1817 144.413 91.1346 145.111 92.1572 145.569C92.7614 145.833 93.3191 146.267 92.9241 147.013C92.5987 147.663 92.1106 148.433 91.2508 148.072ZM80.6997 143.402C80.6997 143.378 80.7229 143.378 80.7229 143.354L80.6532 143.402V143.426C80.6765 143.426 80.6764 143.402 80.6997 143.402Z" fill="#EFECF0"/>
<path d="M83.1367 170.972C82.1939 171.157 82.2399 170.393 82.01 169.837C80.5612 166.687 79.8483 163.143 77.2498 160.572C76.8129 160.155 76.9969 157.538 77.4338 157.19C77.7788 156.912 78.2156 156.935 78.5146 157.283C79.8023 158.742 81.55 159.9 81.8949 161.985C82.3549 164.718 83.0907 167.196 86.2412 167.937C86.4941 168.007 86.7011 168.308 87 168.563C84.1485 167.984 84.1485 167.984 83.1367 170.972Z" fill="#EFECF0"/>
<path d="M77.3055 145.535C76.6422 144.728 77.1949 143.871 77.6813 143.14C78.0351 142.61 78.3667 142.03 78.7647 141.526C80.2462 139.66 81.0864 139.584 83.1869 140.87C83.6733 141.173 84.2925 141.248 85 141.501C83.806 142.358 82.6784 142.509 81.5065 142.585C80.4231 142.661 79.8703 143.266 80.2241 144.552C80.003 144.678 79.7155 144.804 79.5608 145.006C78.9196 145.888 78.1015 146.443 77.3055 145.535Z" fill="#EFECF0"/>
<path d="M111 98C112.814 92.0166 117.69 88.7246 122 85C118.514 89.5416 113.921 93.0018 111 98Z" fill="#EFECF0"/>
<path d="M109.197 122.622C108.689 122.03 109.319 121.278 109.367 120.618C109.391 120.345 109.585 120.481 109.779 120.459C111.96 120.322 111.96 120.299 112.541 119.821C113.583 118.933 114.577 118.022 115.692 117.225C116.322 116.77 116.903 117.02 117 117.84C116.976 118.136 117.024 118.5 116.637 118.569C114.504 118.842 113.438 120.39 112.202 121.734C111.911 122.03 111.596 122.303 111.209 122.531C110.579 122.895 109.755 123.328 109.197 122.622Z" fill="#EFECF0"/>
<path d="M52.3475 146C51.8217 145.254 52.022 144.463 52.1222 143.649C52.1723 143.264 52.4477 142.699 52.9235 142.88C54.7766 143.581 54.426 142.247 54.5011 141.478C54.5762 140.89 54.3258 140.28 54.3008 139.692C54.2757 139.375 54.5011 139.127 54.8517 139.036C55.2523 138.901 55.4777 139.172 55.6279 139.421C56.3541 140.732 55.8784 141.998 55.3776 143.242C54.4761 145.254 54.476 145.254 52.3475 146Z" fill="#EFECF0"/>
<path d="M105.638 120C104.811 118.457 103.918 117.212 102.46 116.665C102.09 116.54 101.785 115.794 102.198 115.246C102.503 114.823 102.917 115.022 103.222 115.271C103.701 115.669 104.31 115.968 104.571 116.516C105.203 117.735 105.79 118.507 107.031 117.337C107.314 117.063 107.815 117.212 107.967 117.735C108.076 118.084 107.902 118.382 107.597 118.457C106.814 118.581 106.596 119.502 105.638 120Z" fill="#EFECF0"/>
<path d="M96.4356 144.702C96.0749 144.543 95.9052 144.091 96.0537 143.558C96.2235 143.026 96.5417 142.893 96.9448 143.08C98.0905 143.638 99.3635 144.064 100 145.9C98.43 146.352 97.4964 145.155 96.4356 144.702Z" fill="#EFECF0"/>
<path d="M51 152C51.0707 151.164 51.3771 150.641 51.8248 150.244C52.4847 149.596 53.4509 149.387 54.2992 149.031C54.5585 148.927 54.9355 149.094 54.9827 149.387C55.0298 149.638 54.9827 150.035 54.8177 150.16C54.1343 150.62 53.4273 151.101 52.5318 151.477C52.084 151.686 51.5656 151.854 51 152Z" fill="#EFECF0"/>
<path d="M88 139.836C88.5349 139.049 89.1553 138.813 89.9255 139.148C89.9897 139.187 90.0324 139.502 89.9682 139.561C89.4976 140.053 88.8772 140.112 88 139.836Z" fill="#EFECF0"/>
<path d="M106.598 179.518C108.344 177.143 109.904 174.697 111.161 172.089H108.042C107.692 173.09 107.273 174.068 106.831 175.07C105.853 177.259 105.318 179.634 103.968 181.661C105.039 181.172 105.923 180.426 106.598 179.518ZM88.0913 383.136C88.8828 381.715 88.9526 380.155 89.1388 378.594C89.3949 376.382 89.4647 376.405 91.6297 376.498C96.2157 376.638 100.592 377.733 105.155 378.734C104.969 379.689 104.759 380.574 104.62 381.505C104.48 382.321 104.247 383.252 105.248 383.671C106.109 383.997 106.971 384.393 107.623 383.112C108.065 382.227 109.066 382.088 109.997 382.39C110.207 383.322 108.414 382.763 109.136 384.091C110.672 383.578 112.302 384.044 113.955 383.997C118.424 383.881 122.94 383.508 127.363 383.951C133.416 384.58 139.422 384.789 145.451 384.184C153.692 383.369 161.91 383.671 170.127 384.463C174.131 384.859 177.996 384.789 181.814 383.462C182.465 383.252 183.257 383.206 183.979 383.206C186.912 383.159 189.822 383.206 192.732 383.159C198.365 383.066 204.022 382.949 209.516 381.575C213.753 380.527 217.943 379.27 222.18 378.152C226.254 377.057 230.165 375.543 233.261 372.656C235.635 370.42 237.917 368.184 240.687 366.461C242.107 365.576 243.154 364.318 244.202 363.014C246.553 360.056 248.229 356.726 250.371 353.652C251.698 351.788 252.862 349.786 254.189 347.946C257.052 343.917 257.471 339.492 256.587 334.811C256.424 333.879 256.261 332.971 256.191 332.039C255.888 327.358 254.259 323.096 251.954 319.067C251.023 317.437 249.905 315.946 249.3 314.106C248.974 313.128 248.462 312.173 247.158 312.01C246.251 313.175 246.157 314.502 246.46 315.853C246.833 317.716 246.67 319.579 246.507 321.466C246.018 327.591 244.435 333.6 243.434 339.655C242.968 342.566 241.525 345.128 239.826 347.573C238.243 349.879 236.52 352.091 235.007 354.42C231.515 359.823 226.929 363.922 221.272 366.857C215.662 369.768 209.749 371.538 203.393 372.097C199.552 372.423 195.758 373.005 192.01 374.03C191.731 374.099 191.428 374.169 191.102 374.216C188.891 374.519 188.518 374.169 189.263 372.166C190.264 369.279 190.66 366.298 191.125 363.317C191.731 359.474 191.521 355.608 192.289 351.812C193.453 345.733 193.383 339.538 193.43 333.413C193.453 330.805 193.965 328.15 193.43 325.611C192.08 319.16 190.497 312.779 187.959 306.747C185.911 301.833 183.979 296.849 182.372 291.819C180.417 285.74 178.298 279.778 175.063 274.259C174.713 273.653 174.574 272.908 174.201 272.279C171.827 267.761 170.663 262.707 168.079 258.282C165.984 254.672 163.912 251.039 162.934 246.917C162.655 245.683 161.933 244.658 161.095 243.726C156.462 238.626 152.086 233.293 145.987 229.776C145.707 229.613 145.475 229.404 145.242 229.194C142.216 226.329 138.747 223.954 135.278 221.765C132.787 220.181 130.529 218.411 128.318 216.478C126.106 214.592 124.151 212.402 121.52 211.028C120.729 210.632 120.24 209.887 119.961 209.119C119.402 207.605 118.424 206.417 117.377 205.253C115.957 203.669 115.933 203.25 117.865 202.225C119.192 201.573 119.332 200.571 119.425 199.454C119.495 198.522 119.332 197.614 119.285 196.659C119.216 195.634 119.495 194.912 120.612 194.493C125.408 192.676 129.691 189.975 133.742 186.808C135.744 185.27 137.49 183.64 138.933 181.498C141.145 178.237 143.659 175.233 146.173 172.182C147.709 170.319 149.223 168.432 150.666 166.499C153.11 163.239 155.671 160.118 156.975 156.206C157.603 154.342 158.185 152.409 159.023 150.639C161.724 145.073 162.794 139.134 162.841 133.056C162.888 125.021 162.422 117.033 161.491 109.045C160.839 103.339 159.582 97.7495 157.161 92.4629C155.88 89.7148 154.786 86.8735 153.366 84.2185C151.085 80.0032 149.199 75.5549 146.01 71.8752C143.333 68.8243 140.726 65.7036 138.142 62.5363C132.997 56.2947 126.828 51.4972 119.076 48.9353C118.191 48.6559 117.214 48.4929 116.632 47.4914C117.586 45.4653 118.61 43.3925 118.913 41.0636C119.379 37.1976 120.985 33.6809 122.219 30.0245C122.428 29.4423 122.568 28.7669 123.15 28.4408C125.361 27.0901 125.92 24.2953 128.225 22.9912C129.296 22.3856 129.272 21.1979 128.318 20.2896C126.991 19.032 125.361 18.31 123.592 18.0305C122.312 17.8442 121.404 18.5196 121.008 19.8005C120.496 21.4773 120.147 23.224 120.054 25.0173C119.704 31.7712 116.818 37.8963 115.444 44.3939C115.398 44.6035 115.281 44.7666 115.188 44.9529C114.071 47.4681 114.071 47.4681 111.487 46.816C110.276 46.5366 109.043 46.2338 107.809 46.0475C101.198 45.2091 94.6793 44.0679 87.9981 43.672C79.5711 43.2062 71.144 42.9034 62.7169 42.4144C60.8546 42.2979 58.8991 42.4377 57.1764 43.1596C53.9639 44.4871 50.6349 45.5351 47.3293 46.6064C44.6056 47.5147 41.8819 48.3997 39.2281 49.4943C33.0591 52.0561 27.379 55.1536 22.467 59.5086C18.8355 62.7458 15.716 66.5653 13.6209 71.1067C12.5267 73.4589 11.6189 75.881 10.4316 78.2099C8.52273 82.0293 6.73022 85.9186 5.33346 89.9477C3.58752 94.9781 2.84263 100.265 1.74851 105.482C0.747498 110.279 0.53795 115.17 0.258599 120.061C-0.276824 128.957 -0.253516 137.76 3.05214 146.238C3.75052 148.054 3.75052 150.22 4.65841 151.92C6.68371 155.786 9.03488 159.559 11.9681 162.773C15.8324 166.965 20.2788 170.622 24.469 174.511C25.5864 175.559 26.7969 176.514 27.3789 178.097C24.8648 180.263 22.1877 182.08 21.0703 185.364C22.2342 185.41 22.5368 184.642 22.9326 184.106C24.1431 182.522 25.7029 181.311 27.216 180.03C28.2869 179.122 28.962 178.889 30.0561 180.03C32.8263 182.895 36.1785 185.038 39.5773 187.087C40.7878 187.832 41.3232 188.484 40.8809 190.091C39.9265 193.375 39.2979 196.775 38.5297 200.129C37.7848 203.459 38.4134 204.484 41.6259 205.183C42.2079 205.299 42.8364 205.439 43.4417 205.579C45.0014 205.881 45.7696 206.627 45.3505 208.397C44.6987 211.261 44.7453 214.219 45.1643 217.107C45.5368 219.575 45.2574 221.904 44.4892 224.21C43.3485 227.657 41.9518 231.057 40.9275 234.55C39.554 239.325 37.6219 244.052 38.2737 249.199C38.6229 251.994 38.7858 254.789 38.9255 257.607C39.2048 263.732 41.2301 269.205 45.0945 274.026C46.7939 276.122 48.2837 278.451 48.5631 281.245C48.726 282.713 49.0752 284.11 49.4244 285.554C50.4254 289.909 51.6126 294.264 52.2645 298.689C53.8707 309.612 57.1764 319.999 61.2968 330.153C63.1359 334.671 65.0681 339.212 67.9547 343.241C69.0489 344.755 69.9101 346.455 70.4456 348.295C72.564 355.887 75.0782 363.433 75.2179 371.468C75.2411 373.96 75.1946 376.079 72.6804 377.57C71.0974 378.524 70.2361 380.434 70.7482 382.181C71.2371 383.881 73.2158 383.788 74.7289 384.021C75.0316 384.091 75.3575 384.021 75.6834 384.044C78.57 384.277 81.5032 384.091 84.3666 384.859C86.1358 385.325 87.2998 384.603 88.0913 383.136ZM110.812 201.899C109.718 202.272 108.67 202.621 107.506 202.761C103.502 203.25 99.4516 203.436 95.5872 204.624C93.3757 205.276 91.0943 205.066 88.4405 206.138C89.8605 203.017 91.7694 201.387 93.2825 199.407C94.1206 198.312 95.3078 198.033 96.5882 197.963C99.8007 197.823 102.99 197.381 106.156 196.729C109.043 196.17 110.835 197.59 111.534 200.455C111.696 201.2 111.51 201.643 110.812 201.899ZM115.724 199.314C115.584 199.873 115.212 200.152 114.676 200.292C114.211 200.408 113.815 200.152 113.629 199.803C113.023 198.638 112.465 197.451 111.79 195.984C114.956 195.494 116.306 196.799 115.724 199.314ZM29.218 171.53C30.3354 170.528 31.6856 170.179 33.0824 169.923C34.1299 169.737 34.9214 170.132 35.3172 171.134C35.6664 172.135 34.7585 172.298 34.1998 172.671C31.4529 174.604 31.4528 174.604 29.218 171.53ZM51.3566 187.786C51.4032 186.132 51.3799 184.455 51.3566 182.779C51.3566 181.474 50.9143 180.333 50.1926 179.262C49.7271 178.517 49.0753 178.004 48.1674 178.074C47.5155 178.121 46.724 178.493 47.3991 179.215C49.3546 181.241 48.7959 183.617 48.6097 186.062C47.05 186.365 45.8394 185.643 44.8384 184.805C41.6957 182.196 37.971 180.45 34.9447 177.701C34.5024 177.282 34.0136 176.863 33.5247 176.49C32.4771 175.629 32.7565 174.907 33.6877 174.208C35.6897 172.718 36.6674 172.834 38.4366 174.79C38.7159 175.093 38.9953 175.396 39.2514 175.768C40.0429 176.886 41.0904 177.445 42.4406 177.189C43.9305 176.933 42.9993 175.396 43.6279 174.651C45.0479 174.93 45.5368 176.607 47.0266 176.747C47.7948 175.768 46.9335 175.163 46.6076 174.488C46.142 173.579 45.0479 173.113 45.0945 171.902C45.0945 171.879 45.0945 171.879 45.0945 171.856L45.0712 171.833C44.8849 171.623 44.6522 171.46 44.5125 171.204C43.7443 169.69 43.7443 169.643 45.6765 169.41H45.7696V169.364C45.9326 168.758 45.8161 168.246 45.0479 168.502C43.5114 169.015 43.0692 168.223 43.3252 166.988C44.0935 163.309 44.7918 159.652 46.8171 156.392C47.1896 155.786 47.6086 155.157 47.9578 154.552C48.2371 154.063 48.307 153.504 47.8414 153.131C47.5155 152.898 47.0034 152.898 46.6775 153.201C45.1643 154.668 44.1633 153.714 43.0692 152.572C41.1137 150.5 39.8567 147.984 38.6229 145.469C38.3435 144.91 38.0642 144.258 38.2737 143.676C38.9488 141.766 39.4376 139.74 40.7645 137.9C41.393 139.181 40.8111 139.996 40.5085 140.835C40.0894 142.046 39.8333 143.257 40.0429 144.514C40.555 147.705 41.9751 150.127 46.2584 148.66C47.8414 148.124 49.052 147.379 49.8435 146.424C51.0307 145.073 51.4032 143.28 51.0773 140.881C50.9376 139.95 50.8677 139.018 50.7513 138.086C50.5884 137.9 50.4254 137.691 50.2625 137.504C49.3779 137.085 48.5166 136.736 47.5854 136.526C45.723 136.06 43.6977 136.107 41.5328 136.806C42.6036 133.312 44.2331 130.611 45.0479 127.583C45.3971 126.349 45.3505 125.72 44.4194 124.649C41.3931 121.248 38.553 117.639 36.8769 113.33C36.2251 111.7 37.0864 110 37.5753 108.579C38.4366 106.064 37.8546 104.061 36.6674 102.035C33.5247 96.6782 32.803 90.7395 32.0581 84.7542C31.1735 78.0236 33.1755 71.7588 34.549 65.3542C34.8283 63.9569 35.4103 63.561 36.6906 64.2596C37.2261 64.5624 37.8546 64.772 38.3202 65.1912C41.3232 67.8928 44.3961 70.5477 47.2594 73.4123C47.306 73.4589 47.3526 73.5055 47.3991 73.552C49.8202 76.0207 51.892 78.862 54.2898 81.3772C56.9669 84.1719 58.0144 87.8749 60.0397 91.019C61.7857 93.7904 62.391 97.0043 62.9962 100.172C63.1592 100.917 63.3221 101.732 62.5306 102.105C59.481 103.595 58.2938 106.599 56.6177 109.208C55.477 110.955 54.4294 112.771 53.3586 114.564C53.1025 114.984 52.8698 115.473 52.7301 115.938C52.5904 116.358 52.6835 116.87 53.056 117.08C53.4051 117.266 53.9173 117.173 54.2199 116.87C55.5236 115.519 56.8971 114.215 57.8981 112.631C58.5033 111.653 59.0853 110.652 59.7604 109.743C61.1572 107.904 62.5539 106.46 65.394 106.646C68.2574 106.832 71.1207 105.761 74.0306 105.412C78.6166 104.853 83.156 104.923 87.7653 105.295C89.8139 105.482 90.2097 105.901 89.4881 107.95C89.0457 109.185 89.7441 109.208 90.3959 109.371C91.1176 109.58 91.8392 109.371 92.5143 109.068C95.5639 107.601 98.3574 105.831 100.243 102.92C103.223 98.2852 106.179 93.6041 109.322 89.0627C114.048 82.2389 120.1 77.2085 128.597 75.7645C129.202 75.6714 129.831 75.6481 130.436 75.5316C131.786 75.2987 132.438 75.8344 132.322 77.2085C132.136 79.5141 132.322 81.8197 131.693 84.0555C129.808 90.8094 130.273 97.5399 131.903 104.177C132.648 107.158 132.392 110 131.391 112.748C129.971 116.521 128.993 120.294 129.156 124.323C129.179 125.534 128.783 126.605 128.085 127.536C125.92 130.517 123.546 133.196 119.984 134.64C117.865 135.525 115.84 136.736 114.187 138.296C111.464 140.835 110.556 144.281 110.183 147.891C110.09 149.032 110.09 150.22 110.323 151.315C110.882 153.9 110.556 156.485 110.579 159.047C110.579 163.611 109.625 167.92 108.065 172.065C107.716 173.067 107.297 174.045 106.854 175.046C105.877 177.236 105.341 179.611 103.991 181.637C105.062 181.172 105.923 180.426 106.622 179.495C108.368 177.119 109.927 174.674 111.184 172.065C113.093 168.153 114.327 163.984 114.56 159.443C114.746 155.693 114.094 151.967 113.955 148.194C113.792 144.491 114.909 141.789 118.005 139.693C120.496 138.017 123.01 136.293 125.245 134.267C128.923 130.96 131.228 127.094 131.321 122.04C131.391 118.966 132.066 116.008 133.486 113.307C135.162 110.093 135.465 106.762 134.65 103.292C134.58 102.99 134.51 102.687 134.417 102.361C132.648 97.4002 132.881 92.4396 133.695 87.2694C134.487 82.4718 134.533 77.5112 134.836 72.6205C134.929 70.8971 133.626 69.4997 131.949 69.7326C126.362 70.4546 120.705 71.0601 116.352 75.2755C112.139 79.3278 108.158 83.5664 105.108 88.5969C103.013 92.067 100.685 95.4206 98.404 98.7743C97.5659 99.9853 96.6348 101.103 95.657 102.174C94.7492 103.199 93.7016 103.595 92.3281 102.896C90.6986 102.035 88.8827 102.058 87.1135 102.151C80.5255 102.431 74.0073 101.196 67.4193 101.499C66.4183 101.546 65.8829 101.173 65.6268 100.195C65.2543 98.7743 64.9051 97.3536 64.7654 95.9097C63.9972 88.0147 60.4821 81.3772 55.4305 75.4618C52.9629 72.5739 50.3323 69.8724 47.3758 67.5201C46.5843 66.868 45.7695 66.2625 44.9082 65.6803C43.1157 64.4693 41.3232 63.1418 40.0429 61.3252C39.2746 60.2772 38.134 59.7182 36.9234 59.3223C34.6188 58.5538 33.2221 59.299 32.3607 61.6047C30.4751 66.7283 29.6836 72.0848 28.7524 77.4414C28.1239 81.1676 27.7049 84.8706 27.8678 88.6435C28.1239 95.048 30.9174 100.521 34.13 105.784C35.131 107.438 35.6198 108.975 35.1542 110.792C34.0601 114.96 35.3637 118.361 38.1572 121.411C39.5773 122.948 40.7413 124.718 42.3941 126.023C43.4184 126.815 43.4882 127.7 43.0459 128.771C41.8121 131.868 40.5085 134.942 38.7625 137.784C38.1107 138.878 37.6219 140.019 37.0399 141.091C34.549 145.888 36.6208 149.661 39.6471 153.271C39.717 153.341 39.8101 153.411 39.88 153.481C41.0905 154.785 43.0226 155.903 43.3252 157.393C43.6744 159 42.6501 160.98 41.9983 162.726C41.393 164.427 41.0206 166.127 40.9508 167.92C40.9042 168.712 40.7413 169.364 39.7868 169.527C39.0419 169.643 38.7159 169.387 38.3667 168.689C38.0408 168.106 37.3658 167.664 36.8769 167.151C35.5034 165.591 35.5034 165.591 38.3435 164.287C33.8273 164.823 32.1745 162.005 30.6381 159.373C29.4974 157.44 27.4022 156.438 26.4245 154.412C26.2848 154.156 25.9356 154.04 25.5865 154.179C24.9812 154.436 24.888 154.994 25.051 155.484C25.7727 157.533 26.6107 159.559 27.7747 161.422C28.3101 162.284 29.2645 162.89 29.3344 164.007C28.1937 164.823 26.797 164.031 25.5399 164.846C26.4711 165.917 27.6117 165.521 28.636 165.521C29.7069 165.521 30.6613 165.451 31.5226 166.336C33.0358 167.943 32.9427 168.642 30.8708 169.597C30.3121 169.876 29.7534 170.179 29.218 170.505C28.054 171.111 26.9832 170.924 26.0986 169.993C22.7929 166.523 18.5096 164.031 15.4134 160.374C12.0146 156.369 8.33648 152.409 7.14924 146.983C6.80005 145.376 6.26469 143.769 5.68271 142.209C2.93575 135.222 3.09865 127.932 3.58752 120.643C3.79703 117.429 3.65735 114.168 4.1695 110.955C5.17051 104.69 6.17152 98.3783 8.17353 92.3464C9.80308 87.316 12.4104 82.6348 14.459 77.7674C16.0187 74.0644 18.0207 70.7806 20.5116 67.6366C25.4235 61.4882 31.6624 57.3893 38.9255 54.7111C41.6724 53.6863 44.1633 52.1493 46.9336 51.1944C47.0732 51.1478 47.1896 51.1012 47.3293 51.0547C51.054 49.797 54.9649 49.308 58.5266 47.4681C59.3181 47.0955 60.3657 47.2352 61.3201 47.1886C66.9537 46.9092 72.564 47.5147 78.1976 47.701C83.4122 47.8873 88.6267 47.9805 93.7947 48.6559C101.314 49.6573 108.903 50.4026 116.236 52.5685C124.291 54.9673 130.739 59.5552 136 66.1228C138.212 68.8942 140.353 71.7122 142.751 74.3439C146.732 78.699 149.246 84.0322 151.481 89.4353C152.319 91.345 153.227 93.2314 154.088 95.1179C156.765 101.103 158.045 107.461 158.302 113.912C158.581 120.689 159.372 127.42 159.14 134.197C159 138.715 158.418 143.094 156.323 147.216C155.601 148.59 155.136 150.104 154.693 151.594C153.459 155.763 151.388 159.489 148.198 162.424C145.917 164.52 145.009 167.524 142.867 169.69C142.076 170.505 141.308 171.32 140.563 172.159C138.631 174.348 136.838 176.653 135.278 179.192C133.835 181.521 131.251 182.872 129.063 184.362C124.197 187.716 119.123 190.953 112.744 190.65C112.139 190.627 111.487 190.743 110.905 190.93C107.739 191.954 107.879 190.813 107.204 188.415C106.924 187.32 107.157 186.109 106.528 184.618C105.458 185.946 105.783 187.273 105.807 188.484C105.877 191.931 105.9 191.954 102.408 192.42C101.5 192.537 100.592 192.56 99.5446 192.63C99.4282 190.161 101.5 188.578 101.454 186.342C101.43 186.365 101.407 186.412 101.384 186.435C100.103 187.786 99.6843 189.626 98.7066 191.163C97.9617 192.327 97.0771 193.002 95.7036 193.096C92.9101 193.282 90.1399 193.771 87.2998 193.841C80.735 193.934 74.2169 194.19 67.6521 193.748C62.5307 193.398 57.6187 192.187 52.8931 190.161C51.8222 189.602 51.3101 188.973 51.3566 187.786ZM41.9751 143.932C42.8131 145.423 43.302 146.284 43.8607 147.286C42.0682 146.61 42.0682 146.61 41.9751 143.932ZM32.8962 95.3508C31.7322 94.1863 31.7554 92.7657 31.3131 91.1587C32.7332 92.9986 32.7332 92.9985 32.8962 95.3508ZM31.0803 88.2941H31.0105V85.6392H31.0803V88.2941ZM49.6339 73.5986C51.7523 74.4138 52.8697 76.1837 54.2432 77.6975C54.1268 77.8373 53.9872 78.0003 53.8475 78.14C52.4508 76.6262 51.0307 75.1124 49.6339 73.5986ZM66.1855 104.41C65.4406 104.876 64.7887 105.062 63.9274 104.62C64.6723 104.061 65.3474 103.968 66.1855 104.41ZM43.7442 197.707C44.0702 196.193 44.303 194.656 44.6755 193.142C44.8152 192.513 44.8151 191.535 45.8627 191.722C46.6774 191.838 47.4923 192.164 47.6552 193.165C47.7018 193.468 47.7483 193.794 47.7251 194.097C47.3526 196.868 47.1896 199.663 46.2118 202.341C43.0459 200.851 43.0691 200.874 43.7442 197.707ZM67.3495 206.161C63.1126 205.905 58.8758 205.532 54.6622 205.183C53.4051 205.066 52.1714 204.973 50.9608 204.577C48.7959 203.902 48.6562 203.785 49.1451 201.503C49.5874 199.244 50.1693 197.055 50.146 194.609C51.5428 194.446 52.4507 194.889 53.2422 195.238C60.5519 198.499 68.3272 199.011 76.149 199.011C80.735 199.011 85.321 198.848 89.8838 198.778C90.3959 198.778 90.9313 198.662 91.49 199.174C90.3959 201.619 88.1844 203.296 86.8342 205.579C86.6712 205.858 86.066 205.951 85.6935 205.975C79.5711 206.231 73.4719 206.557 67.3495 206.161ZM85.4374 382.81C84.1803 381.901 82.9 382.227 81.5964 382.297C80.3393 382.344 79.4314 381.808 78.6864 380.807C78.2907 380.248 78.3373 379.316 77.4061 379.153C76.1257 381.785 76.1257 381.785 72.7735 381.459C72.5174 380.155 73.4486 379.596 74.3332 379.037C76.3585 377.826 76.987 375.963 76.987 373.727C77.0336 366.926 76.4982 360.196 74.6126 353.628C74.0306 351.532 73.402 349.413 73.2158 347.2C73.1925 346.991 73.1693 346.781 73.0994 346.595C71.0043 341.984 70.0498 336.837 67.0468 332.621C65.9294 331.061 65.3009 329.338 64.7189 327.498C63.1592 322.421 61.8555 317.25 59.8535 312.36C57.4092 306.514 55.9659 300.482 54.895 294.287C54.5226 292.028 54.1734 289.769 53.9639 287.464C53.5216 282.456 52.0084 277.868 49.2615 273.676C49.1451 273.513 49.0054 273.35 48.9356 273.164C47.5854 269.438 46.0024 265.968 43.3485 262.847C41.8587 261.123 42.0216 258.305 42.2777 255.883C42.883 250.084 43.6744 244.309 43.8839 238.463C43.9538 236.157 44.4194 233.945 45.1876 231.732C46.305 228.588 47.2129 225.398 48.2139 222.184C49.2615 218.854 49.5641 215.453 48.6795 212.006C48.5166 211.424 48.2838 210.795 48.2372 210.19C48.0742 207.465 48.2139 206.417 51.4031 207.279C55.7331 208.42 60.2492 208.49 64.6956 208.932C69.4678 209.398 74.2867 208.373 79.0124 209.468C79.478 209.584 80.2229 209.631 80.5255 209.352C82.3879 207.651 84.6459 208.187 86.7644 208.257C90.2795 208.327 93.5153 206.976 96.8442 206.277C99.9869 205.649 103.223 205.206 106.366 204.764C108.437 204.461 110.789 204.81 113.023 204.344C113.559 204.228 114.141 204.344 114.42 204.857C115.444 206.673 117.353 207.838 118.052 209.91C118.447 211.121 119.239 212.123 120.31 212.868C125.827 216.804 130.646 221.578 135.837 225.933C139.492 229.008 143.054 232.175 146.988 234.876C151.69 238.114 155.066 242.702 158.884 246.801C159.512 247.476 159.931 248.361 160.141 249.293C161.188 253.601 163.307 257.444 165.565 261.193C166.938 263.452 167.543 265.968 168.568 268.366C170.267 272.395 171.897 276.448 174.155 280.197C175.947 283.271 177.181 286.648 178.182 290.002C180.114 296.64 182.791 302.951 185.212 309.402C187.191 314.735 188.704 320.301 189.822 325.937C190.404 328.918 189.798 331.946 189.985 334.974C190.241 339.422 190.217 343.987 189.426 348.365C188.495 353.326 188.541 358.309 187.983 363.293C187.54 367.276 186.05 370.955 185.678 374.915C185.608 375.427 185.492 375.939 185.422 376.452C185.375 376.871 185.422 377.313 185.864 377.523C186.307 377.733 186.795 377.546 186.958 377.197C187.68 375.706 188.844 375.893 190.148 376.102C191.614 376.335 193.034 375.823 194.454 375.567C199.506 374.658 204.651 374.845 209.656 373.75C217.734 372.003 224.997 368.743 231.072 362.897C234.751 359.381 237.451 355.282 240.128 351.09C240.408 350.647 240.664 350.181 241.013 349.786C244.295 345.873 245.389 341.145 246.157 336.254C246.996 330.945 248.253 325.728 248.835 319.999C250.208 321.07 250.674 322.188 251.209 323.282C253.816 328.569 254.003 334.345 254.538 340.027C254.724 341.984 253.91 343.707 252.955 345.337C252.327 346.432 251.721 347.55 251 348.551C247.95 352.767 245.855 357.587 242.572 361.663C242.06 362.315 241.571 362.967 240.827 363.41C237.87 365.18 235.402 367.578 232.912 369.977C229.839 372.958 225.974 374.752 221.947 375.753C217.687 376.801 213.59 378.268 209.33 379.316C204.325 380.551 199.227 380.574 194.105 380.783C192.15 380.853 190.148 380.9 188.192 381.11C186.4 381.296 184.607 381.878 182.815 380.62C182.07 380.085 180.813 380.457 179.788 380.76C176.646 381.738 173.456 381.832 170.197 381.529C162.515 380.807 154.833 380.69 147.127 381.459C140.935 382.064 134.696 382.321 128.434 381.459C124.453 380.923 120.333 380.597 116.282 381.529C114.979 381.832 113.792 381.459 112.628 380.993C110.905 380.248 109.229 379.386 107.18 380.318C110.09 376.149 113.908 374.286 118.82 374.821C125.129 375.543 131.461 376.149 137.746 376.964C141.89 377.476 146.01 378.198 150.107 378.92C151.364 379.13 152.598 379.246 153.855 379.27C154.251 379.27 154.693 379.153 154.786 378.641C154.879 378.222 154.717 377.826 154.367 377.546C153.506 376.871 152.435 376.824 151.457 376.498C150.782 376.242 149.618 376.265 149.455 375.846C148.385 373.191 145.614 373.191 143.659 371.98C141.238 370.466 139.003 368.836 137.42 366.437C136.21 364.598 134.417 363.317 132.997 361.64C129.133 357.145 126.595 351.905 124.058 346.665C122.824 344.103 123.243 341.332 123.802 338.677C124.267 336.418 125.082 334.275 125.571 332.016C126.036 329.873 127.433 328.22 128.877 326.496C132.811 321.722 137.862 318.508 142.961 315.248C145.451 313.641 148.431 313.198 150.759 311.288C151.271 310.846 152.272 310.729 151.853 309.751C151.411 308.703 150.456 309.099 149.665 309.332C143.054 311.288 137.327 314.922 132.112 319.23C125.594 324.61 121.683 332.691 120.892 341.192C120.612 344.15 121.031 346.921 122.358 349.692C124.104 353.372 126.013 356.959 128.201 360.405C129.458 362.385 130.948 364.365 132.648 365.972C135.162 368.324 137.001 371.305 139.771 373.378C140.004 373.541 140.283 373.75 140.097 374.216C139.166 374.868 138.095 374.519 137.141 374.356C130.995 373.308 124.733 372.772 118.541 372.166C115.328 371.887 111.999 372.446 109.368 374.519C107.064 376.312 104.736 376.522 102.036 375.893C98.3574 375.031 94.6095 375.101 90.8382 375.008C88.0214 374.961 87.5792 374.565 87.6723 372.446C87.7887 369.581 88.8828 368.51 91.3504 368.65C96.9607 368.999 102.571 368.999 108.135 367.788C106.226 367.136 104.294 366.717 102.292 366.694C98.986 366.624 95.6338 366.507 92.3048 366.321C89.4182 366.158 89.4881 366.018 89.4182 363.154C89.3018 358.379 88.9992 353.628 88.3706 348.854C87.7421 343.8 86.8575 338.746 86.6247 333.646C86.485 330.595 85.8565 327.637 85.0882 324.726C84.0407 320.884 83.8079 316.901 82.9233 313.035C82.6905 311.917 82.9931 311.265 84.4131 311.451C87.9981 311.964 89.5811 313.734 90.1864 317.856C91.0245 323.213 90.3726 328.429 89.0923 333.646C88.5801 335.835 88.3706 337.931 88.9991 340.121C89.2552 341.029 89.4647 342.054 90.1631 342.659C94.3534 346.269 96.4485 351.649 101.244 354.886C104.526 357.122 107.087 360.429 109.881 363.363C111.58 365.18 111.533 365.669 110.486 368.021C111.44 368.464 111.883 367.858 112.139 367.159C112.86 365.296 112.884 363.363 111.394 361.873C107.925 358.309 104.969 354.211 100.825 351.299C99.2421 350.181 98.1247 348.714 97.1236 347.107C95.9131 345.151 94.5396 343.358 92.817 341.797C90.4425 339.701 90.0002 336.976 91.3737 333.786C92.7471 333.995 93.7249 335.043 94.9354 335.579C98.2876 337.093 102.361 336.091 104.247 333.11C105.178 331.62 106.226 330.223 107.343 328.849C109.718 325.891 110.416 322.211 109.043 318.788C107.879 315.853 107.32 312.826 106.645 309.798C106.156 307.446 105.737 305.093 104.876 302.834C103.758 300.11 104.48 297.804 106.645 295.801C109.159 293.495 112.278 292.238 115.072 290.398C119.146 287.696 123.336 285.158 127.457 282.526C132.648 279.219 137.443 275.4 142.495 271.953C145.638 269.787 148.338 267.272 150.852 264.477C153.832 261.147 153.809 256.559 151.62 252.693C149.223 248.431 146.057 245.007 142.541 241.654C140.074 239.325 138.188 236.344 136.745 233.2C135.86 231.29 134.813 229.497 133.369 227.96C132.997 227.54 132.531 226.912 131.81 227.331C131.344 227.587 131.088 228.099 130.995 228.612C130.32 231.756 130.25 231.779 132.275 234.737C136.535 241.048 140.865 247.313 146.196 252.832C149.455 256.256 149.455 259.121 146.289 262.707C142.821 266.666 138.468 269.624 134.114 272.512C131.763 274.049 129.435 275.586 127.317 277.472C125.105 279.429 122.591 280.896 120.1 282.456C115.863 285.111 111.72 287.929 107.786 291.027C106.715 291.889 105.807 292.843 104.899 293.868C102.012 297.152 101.198 300.645 103.293 304.721C104.899 307.911 104.899 311.615 105.853 315.015C106.272 316.598 106.412 318.229 107.32 319.719C107.879 320.674 108.391 321.885 106.505 322.328C105.644 322.537 105.667 323.399 106.296 323.725C107.413 324.33 107.413 325.006 106.948 326.031C106.435 327.265 105.714 328.196 104.27 328.359C103.013 328.522 101.617 328.196 100.453 328.988C100.825 330.176 101.733 329.757 102.338 329.92C103.781 330.339 103.921 330.851 102.99 332.109C102.478 332.831 101.779 333.39 101.011 333.53C98.4738 333.995 95.9596 334.601 93.5153 333.134C92.3048 332.388 91.6297 331.573 91.8392 330.106C91.9789 329.175 92.0022 328.243 92.1419 327.311C92.8635 322.933 92.2117 318.578 91.7694 314.223C91.6064 312.593 91.1641 310.986 90.1864 309.542C88.6965 307.353 87.8818 304.861 87.0205 302.415C85.8798 299.318 86.1358 296.244 87.6955 293.356C88.5568 291.772 88.9992 290.025 89.8139 288.512C91.9556 284.646 93.7016 280.64 97.3099 277.589C102.571 273.141 107.227 268.017 109.764 261.403C110.323 259.889 110.16 259.516 108.787 259.144C101.43 257.211 94.237 254.742 87.2998 251.598C87.0204 251.458 86.7643 251.249 86.4617 251.179C85.7401 250.969 84.9253 249.945 84.2968 250.946C83.4587 252.25 84.6925 252.739 85.6004 253.275C90.0234 255.883 94.7724 257.77 99.6378 259.33C101.71 260.006 103.712 260.96 105.714 261.799C106.691 262.195 106.901 262.824 106.435 263.778C106.016 264.64 105.458 265.362 104.782 266.037C102.641 268.203 100.732 270.532 99.0791 273.071C97.9151 274.841 96.6115 276.424 94.8888 277.659C94.3999 278.008 93.7947 278.451 93.5852 278.986C92.7238 281.175 90.8615 282.736 89.9304 284.739C88.2077 288.605 86.1358 292.378 85.1814 296.57C84.5296 299.271 84.8787 301.949 85.9729 304.535C86.5781 305.955 87.486 307.283 87.4395 308.913C85.1814 309.169 77.4526 307.166 75.9162 305.862C75.3575 305.42 74.8221 304.884 74.3798 304.325C71.0508 299.9 66.7675 296.36 62.9962 292.378C61.7159 291.027 61.1106 289.42 60.971 287.603C60.8546 286.253 60.7149 284.902 60.5752 283.551C60.0165 278.474 58.5033 273.793 54.9416 269.927C54.2897 269.205 54.1268 268.25 54.0104 267.295C53.9173 266.48 53.8941 265.642 53.1724 264.989C51.6825 267.458 51.4962 271.208 53.1258 273.024C56.5013 276.727 57.5489 281.245 57.9446 285.95C58.2705 290.002 59.6906 293.379 62.6471 296.174C64.393 297.827 65.9061 299.667 67.9314 301.064C69.1187 301.903 69.9335 303.137 70.7715 304.348C72.5175 306.91 74.6824 309.006 77.6854 309.984C79.1986 310.45 79.5245 311.382 79.7107 312.942C80.3393 318.718 81.2937 324.493 83.2259 330.013C83.8545 331.853 83.9475 333.693 84.2735 335.533C85.9728 345.174 87.6257 354.839 87.7188 364.691C87.7421 366.181 87.486 367.509 87.0205 368.929C86.066 371.771 85.1348 374.635 87.7653 377.407C88.906 378.618 88.3706 380.597 87.5558 382.134C87.1368 382.88 86.1125 383.275 85.4374 382.81Z" fill="#EFECF0"/>
<path d="M88.5285 29.3634C85.993 28.9733 83.3411 29.3634 80.759 29.4853C77.3395 29.656 73.8734 29.144 70.4771 29.7291C69.9653 29.8023 69.3373 29.9973 69.1512 29.3147C68.9418 28.5589 68.9883 27.8031 69.8258 27.413C71.5239 26.5841 73.222 25.7551 74.9667 24.9749C76.3857 24.3654 77.7815 23.7072 79.247 22.2687C74.0595 22.732 69.2209 23.0733 64.429 23.6584C61.3351 24.0485 58.1947 24.0485 55.0776 24.4142C52.4025 24.7311 49.7273 25.0968 47.0522 25.5113C45.0981 25.8039 43.1209 26.0964 41.1668 26.389C39.2128 26.6816 37.2588 27.0473 35.2815 26.7547C34.6767 26.6572 33.9556 26.4622 34.0021 25.6332C34.0254 24.7799 34.4209 24.3411 35.3979 24.2923C39.3292 24.146 43.1674 23.439 47.0522 22.8295C48.727 22.5857 50.4019 22.3419 52.1001 22.1712C59.637 21.3423 67.2437 21.0253 74.7806 20.1476C78.1304 19.7575 81.4103 20.2695 84.6903 20.2208C85.4347 20.2208 86.2953 20.2208 86.4582 21.1716C86.6675 22.2687 85.8069 22.5613 84.9694 22.8782C82.2012 24.0241 79.433 25.2188 76.4322 26.4378C77.2231 27.4861 77.7582 27.2911 78.2234 27.2667C84.667 27.0473 91.0873 27.1936 97.5077 27.6812C102.16 28.0225 106.813 28.6076 111.488 28.2663C111.651 28.2663 111.814 28.4857 112 28.6076C111.907 29.5585 111.093 29.2903 110.581 29.4853C108.674 30.0705 106.65 30.0217 104.696 29.9729C99.3222 29.8023 93.9253 30.2167 88.5285 29.3634Z" fill="#EFECF0"/>
<path d="M18.3487 139C20.7604 142.011 22.49 144.859 22.9772 148.29C23.099 149.037 22.7336 149.761 21.8566 149.971C21.1015 150.134 20.6873 149.574 20.2975 149.061C18.1051 146.19 17.5448 142.968 18.3487 139Z" fill="#EFECF0"/>
<path d="M121.079 178.35C120.747 177.44 121.53 176.817 122.171 176.242C122.242 176.17 122.337 176.098 122.432 176.074C125.28 175.307 127.962 174.133 130.407 172.407C130.597 172.288 130.81 172.144 131 172C130.905 172.144 130.834 172.264 130.739 172.407C129.267 174.66 127.867 176.889 125.304 177.967C124.639 178.231 123.927 178.614 123.239 178.71C122.503 178.758 121.483 179.525 121.079 178.35Z" fill="#EFECF0"/>
<path d="M15.7756 128C17.5507 130.017 18.0908 132.057 17.9879 134.255C17.9879 134.482 17.6792 134.777 17.422 134.912C17.0876 135.116 16.7275 134.935 16.5988 134.663C15.5441 132.646 14.0778 130.652 15.7756 128Z" fill="#EFECF0"/>
<path d="M14.695 117C15.4018 119 14.6243 120.744 14.8717 123C13.7408 121.093 13.7408 120.651 14.695 117Z" fill="#EFECF0"/>
<path d="M101 187C101.018 185.784 101.089 184.595 102 184C101.911 185.19 101.554 186.147 101 187Z" fill="#EFECF0"/>
<path d="M56.474 175.669C55.8761 175.204 55.1634 175.088 54.4276 175.204C51.0015 175.646 48.1962 174.367 45.7818 171.996C45.5978 171.81 45.322 171.694 45.046 171.577C45.023 171.577 45.023 171.554 45 171.554C45 171.531 45 171.531 45.023 171.508C45.207 170.694 45.4139 169.88 45.5979 169.066C45.6209 169.043 45.6209 169.02 45.6209 168.997C45.6439 168.997 45.6669 169.02 45.6899 169.02C46.6556 169.415 47.1155 170.415 47.8283 171.089C48.6561 171.926 49.4838 172.6 50.6565 172.856C51.8982 173.158 53.2089 174.065 54.3586 172.879C55.1634 172.066 54.2666 168.741 53.2089 167.811C52.657 167.346 52.0592 166.928 51.5533 166.416C48.6791 163.463 48.3572 161.557 50.0587 157.767C51.3464 154.908 51.8062 154.117 53.7147 154.024C54.3126 153.978 55.0944 154.001 56.0831 154.071C57.8307 154.187 59.5552 154.303 61.3258 154.512C63.3722 154.745 65.0738 155.628 65.8096 157.767C66.5454 159.767 65.7866 161.487 64.4529 162.905C64.085 163.301 63.7171 163.766 63.3952 164.207C62.2455 165.719 61.1648 167.323 59.1184 167.811C58.8424 167.881 58.5665 167.904 58.2216 167.95C57.6237 165.905 59.7622 166.067 60.452 164.928C58.5435 164.091 57.1638 162.766 57.3478 160.534C57.3708 160.046 57.3937 159.465 57.6237 159.046C57.8076 158.721 58.1066 158.465 58.6815 158.418C59.7162 158.325 60.0611 159.162 60.406 159.93C60.7279 160.697 60.452 162.092 61.9006 161.789C63.0503 161.58 64.039 160.952 64.246 159.627C64.4299 158.442 63.9241 157.605 62.8893 157.07C62.3605 156.814 61.7397 156.605 61.1418 156.535C59.3023 156.349 57.4398 156.233 55.6003 156.117C55.4623 156.093 55.3243 156.093 55.1863 156.093C53.3928 156.07 52.0822 156.628 51.2084 158.628C50.2887 160.673 50.6335 162.254 52.0362 163.742C52.795 164.579 53.3698 165.626 54.6345 165.719C55.5083 164.975 54.8645 163.626 55.9682 162.859C57.4858 163.719 57.3938 165.184 57.2788 166.602C57.1408 168.253 56.8419 169.903 56.7959 171.577C56.727 174.321 57.1409 174.832 59.7622 175.437C62.6134 176.064 65.4647 175.948 68.2699 175.042C69.4196 174.646 70.5693 174.158 71.949 173.647C72.2249 175.413 71.3511 176.367 70.0635 176.739C65.3727 178.064 60.7509 179.133 56.474 175.669Z" fill="#EFECF0"/>
<path d="M90 187C89.8403 186.932 89.5895 186.909 89.521 186.795C85.5979 180.023 79.0516 176.273 72.7563 172.205C72.0036 171.727 71.0684 171.409 71 170C72.3914 170.205 73.395 171.045 74.4214 171.682C78.3902 174.136 81.9483 177.159 85.6206 180.023C87.8787 181.75 89.2017 184.045 90 187Z" fill="#EFECF0"/>
<path d="M60.7233 183C59.0445 182.49 57.1668 181.372 55.3113 180.23C54.7811 179.89 55.0241 179.039 55.3334 178.456C55.6426 177.848 56.1507 177.946 56.6146 178.189C58.448 179.161 60.1048 180.546 62.2917 180.546C62.7998 180.546 63.0869 181.129 62.9765 181.761C62.7777 182.903 61.9604 182.927 60.7233 183Z" fill="#EFECF0"/>
<path d="M74.0659 178C74.9475 178.101 75.8766 178.327 75.9958 179.608C76.0911 180.714 74.5663 181.921 73.0415 181.996C72.0647 182.046 71.9456 181.619 72.017 180.589C72.16 178.88 72.5888 178.05 74.0659 178Z" fill="#EFECF0"/>
<path d="M65 181.454C66.2485 180.862 67.4969 181.028 68.6705 181.004C69.4196 180.981 69.9439 181.383 69.9939 182.118C70.0438 182.757 69.7941 183.397 69.02 183.562C68.0712 183.776 67.0226 184.297 66.1237 183.776C65.3496 183.326 65.2747 182.307 65 181.454Z" fill="#EFECF0"/>
<path d="M43 118C40.6328 117.732 40.3047 115.878 40 114C41.2188 115.098 41.875 116.732 43 118Z" fill="#EFECF0"/>
<path d="M94 173C93.315 172.676 92.7716 172.297 92.3701 171.865C91.8031 171.297 91.4016 170.622 91 170C92.0394 170.243 92.8189 170.757 93.4803 171.865C93.6693 172.216 93.8346 172.568 94 173Z" fill="#EFECF0"/>
<path d="M44 120C44.8542 118.221 45.7083 117.77 46.8542 117.08C46.8958 117.053 46.9583 117.027 47 117C46.9583 117.212 46.9167 117.425 46.8542 117.584C46.3333 119.23 45.2292 119.124 44 120Z" fill="#EFECF0"/>
<path d="M82 173C81.6032 172.973 81.0635 173.134 81 172.039C81.0159 172.039 81.0158 172.039 81.0158 172.039C81.1905 171.958 81.3333 172.012 81.4603 172.119C81.6825 172.306 81.8254 172.706 82 173Z" fill="#EFECF0"/>
<path d="M90 178C90.6087 178.274 91.2174 178.527 92 178.886C90.7826 179.203 90.1449 178.844 90 178Z" fill="#EFECF0"/>
<path d="M94 180C94.541 180.293 94.8689 180.468 95 180.897C94.4262 181.21 94.2131 180.78 94 180Z" fill="#EFECF0"/>
<path d="M81.5268 171.885C81.3173 171.861 81.1078 171.838 80.875 171.815C81.1078 171.745 81.3406 171.792 81.5268 171.885Z" fill="#EFECF0"/>
<path d="M109.672 13.3593C105.598 9.98498 100.733 8.61199 95.7509 7.47171C94.7266 7.23899 93.7488 6.93647 92.7478 6.61068C91.933 6.40124 91.514 5.93581 91.6537 5.02824C91.7701 4.02758 92.4917 3.88795 93.2367 3.88795C94.7498 3.9345 96.2862 4.42319 98.265 3.23637C96.8217 3.18982 95.8439 3.12001 94.8895 3.09674C88.4178 3.02692 81.9928 2.95711 75.5212 2.91057C72.7044 2.8873 69.9574 2.003 67.1173 2.44515C66.675 2.51496 66.3026 2.30552 66.2793 1.79355C66.2793 1.37467 66.3491 0.909252 66.7681 0.723083C68.2347 0.141306 69.7712 -0.114679 71.3542 0.0482191C79.8278 0.816165 88.348 0.653272 96.8449 0.81617C99.522 0.885983 102.222 1.39795 104.853 1.95646C105.947 2.18917 107.716 2.37533 107.414 4.05085C107.181 5.47039 105.598 5.26095 104.527 5.16786C102.828 5.05151 101.221 5.30749 99.1496 5.91254C103.154 8.03021 107.67 8.93778 109.672 13.3593Z" fill="#EFECF0"/>
<path d="M88.8829 29.2557C86.3455 28.8834 83.6917 29.2557 81.1077 29.3721C77.6856 29.535 74.217 29.0463 70.8182 29.6048C70.3061 29.6746 69.6775 29.8608 69.4913 29.2092C69.2818 28.4878 69.3283 27.7664 70.1664 27.394C71.8658 26.6028 73.5652 25.8116 75.3111 25.0669C76.7311 24.4852 78.128 23.8568 79.5945 22.4839C74.4033 22.926 69.5611 23.2518 64.7656 23.8103C61.6694 24.1826 58.5268 24.1826 55.4074 24.5317C52.7302 24.8342 50.0531 25.1833 47.376 25.5789V23.0191C49.0521 22.7864 50.7282 22.5537 52.4276 22.3908C59.9701 21.5995 67.5824 21.297 75.1249 20.4593C78.4771 20.0869 81.7595 20.5756 85.0419 20.5291C85.7868 20.5291 86.6481 20.5291 86.8111 21.4366C87.0206 22.4838 86.1593 22.7631 85.3212 23.0656C82.551 24.1594 79.7807 25.2997 76.7777 26.4632C77.5692 27.4639 78.1047 27.2777 78.5702 27.2544C85.0186 27.045 91.4436 27.1846 97.8687 27.65C102.525 27.9758 107.18 28.5343 111.86 28.2085C112.023 28.2085 112.185 28.418 112.372 28.5343C112.279 29.4419 111.464 29.1859 110.952 29.3721C109.043 29.9306 107.018 29.8841 105.062 29.8375C99.6846 29.6746 94.2837 30.0702 88.8829 29.2557Z" fill="#EFECF0"/>
<path d="M203.789 34.5121C202.462 34.2561 201.135 33.9536 199.809 33.6046C193.779 32.0221 187.983 29.6019 181.814 28.322C178.555 27.6704 175.272 27.0654 171.967 26.5999C168.475 26.1113 164.983 25.4364 161.561 24.6219C159.535 24.1332 157.51 23.7143 155.438 23.4584C154.507 23.342 153.18 23.2722 153.157 21.8294C153.157 20.596 154.065 19.991 155.089 19.6419C157.301 18.9903 159.489 18.4085 161.7 17.8035C152.831 17.2682 143.962 16.2909 134.72 16.6399C135.814 15.2902 137.048 15.36 138.212 15.2902C140.4 15.1506 142.611 15.2669 144.73 15.5229C148.873 15.9883 152.994 15.3833 157.161 16.0814C160.816 16.6865 164.634 16.128 168.382 16.0349C169.941 15.9883 171.501 15.7323 173.061 16.0116C173.456 16.0814 173.899 16.2443 173.969 16.733C174.038 17.3613 173.619 17.8966 173.107 17.8268C169.313 17.3613 166.077 19.7117 162.445 19.9677C160.839 20.0608 159.419 20.6193 157.883 21.4803C164.215 23.3187 170.5 24.2496 176.762 25.2502C181.721 26.0414 186.586 27.1585 191.288 28.834C195.036 30.1372 198.831 31.2076 202.672 32.1385C203.184 32.2548 203.719 32.3246 204.185 32.5341C204.79 32.7668 205.302 33.1624 205.046 33.9303C204.883 34.5354 204.325 34.6285 203.789 34.5121Z" fill="#EFECF0"/>
<path d="M212.589 72.4191C211.402 72.07 210.168 71.6744 209.074 71.0926C207.258 70.0454 205.279 69.3706 203.324 68.6724C198.132 66.8806 192.941 65.0189 187.703 63.3201C185.306 62.5056 183.047 61.5049 180.882 60.2716C175.109 56.9438 169.499 53.3368 163.33 50.7537C162.212 50.3116 161.77 49.6134 162.119 48.3102C162.515 46.7976 163.516 46.8907 164.54 47.17C169.057 48.4964 173.806 48.3568 178.461 48.9385C175.226 46.2158 171.71 44.1214 167.636 42.9579C164.75 42.1434 162.049 40.7239 159.419 39.281C155.555 37.1867 151.248 36.1394 147.384 34.0683C142.798 31.6248 138.095 29.4606 132.555 28.4833C133.812 26.9706 135.092 27.2732 136.116 27.7153C139.236 29.065 142.728 29.5537 145.614 31.555C147.151 32.6255 148.897 33.3469 150.712 33.9287C155.787 35.5344 160.28 38.4666 165.215 40.3515C167.171 41.1195 169.126 41.8409 171.082 42.5157C174.201 43.5629 176.669 45.7271 179.532 47.17C181.581 48.2171 183.606 49.3109 185.818 49.9392C186.493 50.1254 187.168 50.4512 187.796 50.8235C188.355 51.126 188.821 51.6147 188.634 52.3361C188.425 53.1274 187.75 53.1739 187.121 53.1041C184.84 52.8481 182.582 52.5688 180.324 52.2198C177.74 51.8707 175.226 51.0562 172.618 51.1028C172.129 51.1028 171.571 50.9631 170.989 51.6147C176.366 54.3607 181.138 58.0608 186.865 60.0156C192.848 62.0867 198.831 64.088 204.883 66.0428C207.84 67.0202 210.424 68.9517 213.59 69.4404C214.428 69.5568 214.87 70.4876 214.591 71.4184C214.288 72.4424 213.473 72.6983 212.589 72.4191Z" fill="#EFECF0"/>
<path d="M148.827 145.84C149.106 147.399 149.199 148.958 147.616 150.215C147.477 147.934 147.477 147.934 148.827 145.84Z" fill="#EFECF0"/>
<path d="M139.748 163.225C139.911 160.362 142.192 159.106 142.704 156.941C143.054 159.85 142.285 161.526 139.748 163.225Z" fill="#EFECF0"/>
<path d="M146.197 172.23H140.633C141.378 171.393 142.146 170.578 142.938 169.764C145.079 167.576 145.987 164.597 148.269 162.503C151.434 159.571 153.53 155.848 154.763 151.682C155.206 150.193 155.695 148.68 156.393 147.307C158.488 143.188 159.07 138.813 159.21 134.299C159.443 127.503 158.674 120.778 158.372 114.029C158.116 107.56 156.835 101.23 154.158 95.2496C153.297 93.3646 152.389 91.4797 151.551 89.5715C149.293 84.1726 146.802 78.8435 142.821 74.4918C140.423 71.8621 138.282 69.0463 136.07 66.2771C130.809 59.7146 124.361 55.1302 116.306 52.7333C108.973 50.5691 101.384 49.8244 93.8648 48.8238C88.6968 48.1722 83.4823 48.0558 78.2677 47.8696C72.6342 47.6835 67.0239 47.0551 61.3903 47.3577C60.4358 47.4042 59.3882 47.2646 58.5967 47.6369C55.035 49.4521 51.1241 49.964 47.3994 51.2207V46.8224C50.7051 45.7287 54.034 44.6815 57.2466 43.3783C58.9692 42.6569 60.9247 42.5173 62.787 42.6336C71.2141 43.1223 79.6412 43.4249 88.0683 43.8903C94.7494 44.2626 101.268 45.4262 107.879 46.2639C109.113 46.4268 110.347 46.7294 111.557 47.0319C114.141 47.6602 114.141 47.6602 115.258 45.1702C115.352 44.984 115.468 44.8211 115.515 44.6117C116.888 38.1191 119.775 31.9988 120.124 25.2501C120.217 23.4815 120.543 21.7129 121.078 20.0374C121.474 18.7575 122.382 18.0826 123.662 18.2688C125.432 18.5248 127.061 19.2695 128.388 20.5261C129.342 21.4337 129.366 22.5972 128.295 23.2255C125.99 24.5287 125.432 27.3213 123.22 28.671C122.661 28.9968 122.498 29.6716 122.289 30.2534C121.055 33.907 119.449 37.4209 118.983 41.2839C118.704 43.611 117.656 45.6589 116.702 47.7067C117.261 48.7074 118.262 48.8703 119.146 49.1496C126.875 51.7094 133.067 56.4799 138.212 62.7399C140.796 65.8815 143.403 68.9998 146.08 72.0716C149.27 75.7484 151.178 80.1932 153.437 84.4053C154.857 87.0582 155.951 89.8973 157.231 92.6432C159.652 97.9258 160.909 103.511 161.561 109.212C162.492 117.194 162.958 125.176 162.911 133.205C162.865 139.279 161.794 145.236 159.093 150.774C158.232 152.543 157.673 154.475 157.045 156.336C155.718 160.269 153.157 163.364 150.736 166.622C149.246 168.507 147.733 170.369 146.197 172.23Z" fill="#EFECF0"/>
<path d="M122.289 84.5449C118.867 88.9432 114.305 92.2709 111.418 97.1346C113.21 91.3401 118.029 88.1519 122.289 84.5449Z" fill="#EFECF0"/>
<path d="M108.414 118.336C107.6 118.452 107.367 119.313 106.366 119.779C105.481 118.336 104.527 117.172 102.967 116.66C102.571 116.544 102.245 115.846 102.688 115.334C103.014 114.938 103.456 115.124 103.782 115.357C104.294 115.729 104.946 116.009 105.225 116.521C105.9 117.661 106.529 118.382 107.856 117.289C108.158 117.033 108.694 117.172 108.857 117.661C108.927 117.987 108.74 118.266 108.414 118.336Z" fill="#EFECF0"/>
<path d="M110.789 122.711C110.184 123.083 109.392 123.549 108.857 122.827C108.368 122.222 108.973 121.454 109.02 120.78C109.043 120.5 109.229 120.64 109.415 120.617C111.511 120.477 111.51 120.454 112.069 119.965C113.07 119.057 114.025 118.127 115.096 117.312C115.701 116.847 116.259 117.103 116.353 117.94C116.329 118.243 116.376 118.615 116.003 118.685C113.955 118.964 112.931 120.547 111.743 121.92C111.464 122.222 111.161 122.502 110.789 122.711Z" fill="#EFECF0"/>
<path d="M90.2796 139.579C90.3494 139.626 90.3959 139.999 90.3261 140.068C89.7907 140.627 89.1156 140.697 88.1611 140.371C88.7664 139.463 89.4182 139.184 90.2796 139.579Z" fill="#EFECF0"/>
<path d="M49.8439 146.606C48.6567 143.488 47.9117 140.16 47.5625 136.716C48.4937 136.925 49.355 137.251 50.2396 137.693C50.2862 137.298 50.193 136.786 50.3793 136.53C50.7285 136.064 51.1242 136.39 51.3803 136.739C51.776 137.344 52.1718 137.973 52.521 138.601C52.7072 138.95 52.8702 139.346 52.5675 139.927C51.4268 140.02 51.5665 138.531 50.7517 138.275C50.8681 139.206 50.938 140.137 51.0777 141.068C51.4036 143.465 51.0311 145.256 49.8439 146.606Z" fill="#EFECF0"/>
<path d="M80.2224 143.792C79.9896 143.909 79.687 144.025 79.5241 144.211C78.849 145.026 77.9877 145.514 77.1263 144.677C76.4279 143.932 77.0099 143.141 77.522 142.466C77.8945 141.977 78.2437 141.442 78.6627 140.976C80.2224 139.254 81.107 139.185 83.3185 140.371C83.8307 140.651 84.4825 140.72 85.2275 140.953C83.9704 141.744 82.7832 141.884 81.5494 141.954C80.432 142.047 79.8267 142.605 80.2224 143.792Z" fill="#EFECF0"/>
<path d="M52.9163 142.605C54.639 143.326 54.3131 141.953 54.3829 141.162C54.4527 140.557 54.22 139.929 54.1967 139.323C54.1734 138.998 54.3829 138.742 54.7088 138.649C55.0813 138.509 55.2908 138.788 55.4305 139.044C56.1056 140.394 55.6633 141.697 55.1977 142.977C54.3829 145.048 54.3829 145.048 52.4041 145.816C51.9153 145.048 52.1015 144.234 52.1946 143.396C52.2412 143 52.4973 142.419 52.9163 142.605Z" fill="#EFECF0"/>
<path d="M96.4486 143.375C96.6348 142.91 96.984 142.793 97.4263 142.956C98.6834 143.445 100.08 143.818 100.779 145.424C99.0791 145.82 98.0548 144.795 96.8676 144.376C96.4719 144.237 96.2856 143.818 96.4486 143.375Z" fill="#EFECF0"/>
<path d="M54.429 150.311C53.7539 150.824 53.0556 151.359 52.1709 151.778C51.9149 151.336 51.682 150.87 51.4492 150.405C52.101 149.683 53.0555 149.45 53.8936 149.054C54.1497 148.938 54.5221 149.124 54.5687 149.45C54.6618 149.753 54.6153 150.172 54.429 150.311Z" fill="#EFECF0"/>
<path d="M87.7651 154.639C86.0192 154.034 84.3431 153.313 82.8299 152.103C79.9433 149.845 78.6629 147.309 80.2692 143.795C83.6214 141.957 87.2763 142.422 90.8846 142.608C91.4665 142.655 92.0951 142.864 92.6538 143.12C96.3319 144.656 98.2874 147.495 97.3795 149.822C95.8663 153.615 91.3734 155.919 87.7651 154.639Z" fill="#EFECF0"/>
<path d="M64.7425 163.459C64.3701 163.854 63.9976 164.32 63.6716 164.762C61.53 163.249 59.5745 161.504 57.8286 159.572C56.944 158.618 56.1292 157.641 55.3377 156.617C54.8256 155.965 54.3367 155.267 53.8711 154.569C54.4764 154.523 55.2678 154.546 56.2689 154.616C58.0381 154.732 59.784 154.848 61.5765 155.058C63.6484 155.291 65.3711 156.175 66.116 158.316C66.8377 160.34 66.0927 162.039 64.7425 163.459Z" fill="#EFECF0"/>
<path d="M82.8999 170.627C81.9454 170.813 81.992 170.045 81.7592 169.487C80.2926 166.322 79.571 162.762 76.9404 160.179C76.4981 159.76 76.6844 157.13 77.1267 156.781C77.4759 156.502 77.9181 156.525 78.2207 156.874C79.5244 158.34 81.2936 159.504 81.6428 161.598C82.1084 164.344 82.8533 166.834 86.0426 167.579C86.2987 167.649 86.5081 167.951 86.8108 168.207C83.9241 167.625 83.9242 167.625 82.8999 170.627Z" fill="#EFECF0"/>
<path d="M111.185 172.23H108.065C109.625 168.087 110.579 163.782 110.579 159.221C110.556 156.638 110.882 154.055 110.323 151.495C110.09 150.378 110.09 149.191 110.184 148.074C110.556 144.467 111.464 141.023 114.188 138.487C115.84 136.951 117.866 135.717 119.984 134.833C123.546 133.39 125.92 130.714 128.085 127.735C128.76 126.781 129.179 125.734 129.156 124.524C128.993 120.498 129.971 116.705 131.391 112.958C132.415 110.212 132.648 107.373 131.903 104.394C130.274 97.739 129.808 91.0369 131.694 84.2883C132.322 82.0542 132.136 79.7504 132.322 77.4466C132.439 76.0736 131.787 75.5383 130.437 75.771C129.831 75.8874 129.203 75.9107 128.598 76.0038C120.101 77.4466 114.071 82.4964 109.322 89.2916C106.18 93.8294 103.223 98.5069 100.243 103.138C98.3578 106.047 95.5642 107.815 92.5146 109.281C91.8628 109.584 91.1179 109.793 90.3962 109.584C89.7677 109.421 89.0461 109.398 89.4884 108.164C90.21 106.14 89.8142 105.698 87.7657 105.512C83.1796 105.139 78.6402 105.069 74.0309 105.628C71.121 105.977 68.2577 107.047 65.3943 106.861C62.5542 106.675 61.1575 108.118 59.7607 109.956C59.0856 110.864 58.5036 111.865 57.8984 112.842C56.8974 114.424 55.5239 115.728 54.2202 117.077C53.9176 117.38 53.4054 117.473 53.0563 117.287C52.6838 117.077 52.5907 116.565 52.7304 116.146C52.8701 115.681 53.1028 115.192 53.3589 114.773C54.453 112.982 55.4773 111.166 56.618 109.421C58.2941 106.815 59.4814 103.813 62.5309 102.323C63.3457 101.951 63.1595 101.113 62.9966 100.392C62.3913 97.227 61.786 93.9923 60.04 91.2463C58.0147 88.1047 56.9672 84.4046 54.2901 81.6121C51.8923 79.0988 49.8205 76.2597 47.3994 73.793V67.7891C50.3559 70.1394 52.9864 72.8389 55.454 75.7245C60.5056 81.6354 64.0208 88.2909 64.789 96.1565C64.9287 97.5993 65.2546 99.0189 65.6504 100.438C65.9064 101.416 66.4652 101.788 67.4429 101.742C74.0309 101.462 80.5491 102.696 87.1371 102.393C88.8831 102.3 90.7221 102.277 92.3517 103.138C93.7251 103.859 94.796 103.44 95.6806 102.416C96.6583 101.323 97.5895 100.206 98.4276 99.0189C100.709 95.6678 103.014 92.3168 105.132 88.8494C108.182 83.7996 112.162 79.5642 116.376 75.5383C120.729 71.3263 126.386 70.7212 131.973 69.9998C133.649 69.7671 134.953 71.1634 134.86 72.8854C134.557 77.7724 134.51 82.7291 133.719 87.5229C132.881 92.6891 132.648 97.6459 134.441 102.603C134.534 102.905 134.604 103.208 134.673 103.533C135.511 107.001 135.186 110.329 133.509 113.54C132.089 116.239 131.438 119.195 131.344 122.267C131.251 127.317 128.923 131.156 125.269 134.484C123.01 136.485 120.52 138.231 118.029 139.906C114.933 142.001 113.815 144.7 113.978 148.4C114.118 152.17 114.793 155.893 114.583 159.64C114.327 164.178 113.093 168.343 111.185 172.23Z" fill="#EFECF0"/>
<path d="M93.4462 172.233H92.3521C91.7934 171.744 91.3977 171.162 91.002 170.627C92.0262 170.836 92.8177 171.302 93.4462 172.233Z" fill="#EFECF0"/>
</svg>
