<svg width="509" height="433" viewBox="0 0 509 433" fill="none" xmlns="http://www.w3.org/2000/svg">
<path d="M44.9646 347.748C45.3097 346.627 45.6089 345.444 45.8101 344.312C48.0463 331.152 53.9845 319.533 60.9536 308.343C68.1413 296.762 77.3272 286.936 87.3826 277.85C94.6004 271.328 102.815 266.092 110.435 260.07C116.399 255.388 121.251 249.794 125.141 243.334C127.586 239.276 129.727 235.093 131.516 230.72C132.155 229.232 132.817 227.882 134.596 227.477C137.946 226.704 141.187 225.7 144.607 225.34C152.557 224.469 159.829 226.332 166.019 231.281C170.073 234.497 173.321 238.628 177.392 241.948C180.404 244.454 183.352 247.006 186.686 249.104C187.434 249.545 188.494 249.722 188.477 250.893C187.97 251.687 187.095 251.55 186.37 251.671C182.254 252.538 178.132 253.37 174.004 254.168C160.47 256.683 150.391 264.356 142.576 275.369C138.703 280.87 136.545 287.288 132.943 292.92C129.898 297.645 127.482 302.724 124.011 307.237C118.791 314.026 112.085 315.751 104.116 313.969C102.314 313.598 100.598 312.894 98.8424 312.373C97.7543 312.024 96.6719 312.135 96.1022 313.186C95.5901 314.158 96.2178 314.938 96.9319 315.597C97.3983 316.051 97.8992 316.498 98.3944 316.911C103.928 321.544 110.406 324.39 117.384 325.984C125.214 327.789 133.228 327.934 141.23 328.435C145.468 328.717 149.647 328.23 153.666 326.99C160.314 324.92 166.9 322.684 173.169 319.615C176.749 317.882 179.915 315.581 182.931 313.021C190.109 306.896 196.503 299.911 204.332 294.491C214.359 287.57 220.862 278.264 223.242 266.178C223.932 262.663 224.117 262.703 227.657 262.428C228.429 262.37 229.246 262.375 230.017 262.316C237.617 261.893 245.222 261.505 252.711 260.215C257.127 259.44 261.341 257.884 265.791 257.316C267.702 257.067 269.009 257.237 270.201 258.844C272.683 262.218 275.793 265.097 278.736 268.039C283.325 272.547 288.381 276.446 294.139 279.448C300.404 282.72 307.18 284.17 313.933 285.695C327.066 288.631 340.239 289.045 353.226 284.957C361.256 282.444 369.062 279.011 375.411 273.45C382.105 267.618 388.649 261.528 394.261 254.532C403.889 242.472 410.282 228.899 411.619 213.552C413.531 191.026 408.926 169.875 396.606 150.583C391.59 142.675 385.606 135.992 377.148 131.707C375.639 130.968 374.338 129.769 372.968 128.794C371.067 127.413 369.271 125.801 367.21 124.73C358.308 120.129 348.837 117.005 339.026 115.036C328.772 112.964 318.283 113.73 308.093 115.224C297.005 116.869 286.448 120.62 277.785 128.269C276.611 129.316 275.655 129.334 274.267 128.681C269.753 126.533 266.218 123.442 264.057 118.81C260.578 111.389 255.988 104.756 250.218 98.9225C246.93 95.6129 243.164 93.4812 238.691 92.6368C233.595 91.6841 229.035 89.473 224.377 87.3136C220.456 85.5267 216.633 83.4755 212.148 83.1996C206.379 82.8909 201.406 84.999 196.593 87.8592C189.577 91.9741 183.032 96.789 176.147 101.059C172.803 103.142 169.585 105.345 166.661 108.031C164.348 110.118 161.642 111.776 158.775 113.106C157.693 113.641 156.162 113.615 155.696 115.074C160.365 113.69 164.354 111.215 168.129 108.104C178.162 99.7297 189.94 94.1444 201.7 88.6683C206.346 86.509 211.418 86.899 216.272 88.7422C218.966 89.7783 221.477 91.1994 224.016 92.5803C228.709 95.1588 233.459 97.6569 238.75 98.931C242.964 99.925 246.425 102.143 249.04 105.672C251.205 108.638 253.463 111.518 255.686 114.404C259.13 118.857 261.963 123.694 264.475 128.728C259.864 130.669 259.639 130.6 257.882 126.468C256.465 123.092 255.077 119.677 253.596 116.348C253.164 115.464 252.991 114.006 251.137 114.175C251.818 117.815 253.01 121.121 254.203 124.428C254.785 125.995 255.407 127.59 256.029 129.186C256.346 130.019 256.179 130.719 255.2 131.025C254.181 131.302 253.784 130.625 253.611 129.804C253.369 128.782 253.265 127.737 253.029 126.749C251.011 116.816 245.684 109.598 236.121 105.711C227.208 102.104 217.633 100.91 208.479 98.1932C207.621 97.9473 206.625 97.7246 205.779 98.1851C204.345 98.9564 202.981 98.4412 201.582 98.1443C199.077 97.6076 196.93 96.4444 194.926 94.8676C194.517 94.5465 193.987 94.3519 193.573 94.8463C193.158 95.3407 193.389 95.8688 193.705 96.2761C194.794 97.6876 196.337 98.4207 197.984 98.9241C200.719 99.7764 203.453 100.629 206.332 101.067C214.778 102.309 223.017 104.435 231.06 107.302C232.874 107.955 234.751 108.561 235.949 110.202C235.16 110.37 234.487 109.951 233.807 109.711C230.669 108.784 227.583 107.53 224.365 106.972C217.416 105.763 210.478 104.41 203.598 102.765C202.97 102.622 202.135 102.089 201.595 103.313C203.656 104.384 205.775 104.95 207.968 105.327C211.331 105.897 214.681 106.398 218.026 107.077C225.776 108.612 233.307 110.538 240.222 114.728C246.349 118.448 248.877 123.797 249.685 130.532C249.95 132.542 249.15 133.278 247.366 133.86C245.449 134.5 245.287 133.323 244.688 132.078C243.807 130.206 242.689 128.41 241.578 126.649C240.967 125.759 240.392 124.651 238.958 124.573C238.642 125.865 239.505 126.783 240.104 127.391C241.809 129.089 241.901 131.34 242.564 133.39C243.106 134.928 242.617 135.824 241.177 136.561C238.685 137.793 237.7 137.64 235.863 134.512C230.679 125.605 222.986 119.527 213.9 115.099C212.588 114.469 211.246 113.454 209.053 114.141C212.922 117.105 217.632 117.874 220.851 121.195C219.7 121.955 219.06 121.318 218.375 121.044C212.733 118.943 207.217 116.538 201.379 114.966C196.917 113.765 192.564 112.369 188.965 109.324C188.349 108.825 187.733 107.901 186.299 108.46C187.013 109.97 188.171 110.945 189.524 111.603C192.587 113.144 195.616 114.691 198.88 115.738C205.859 117.969 213.038 119.706 219.453 123.448C224.255 126.257 228.602 129.53 231.516 134.425C234.333 139.16 234.362 139.12 228.95 140.947C227.805 141.316 226.694 141.679 225.583 142.042C223.257 142.786 221.489 142.409 219.722 140.332C216.082 135.984 211.464 132.791 206.299 130.362C197.277 126.1 187.65 124.171 177.978 122.391C172.37 121.347 166.987 119.947 162.064 117.053C161.482 116.761 160.843 115.912 160.083 116.889C162.093 118.925 165.657 120.914 169.653 121.873C176.286 123.525 182.792 125.481 189.234 127.695C196.996 130.362 204.239 133.965 211.108 138.304C212.899 139.456 214.506 140.781 215.663 142.606C216.331 143.627 216.418 144.569 214.921 144.961C212.67 145.515 210.61 146.994 208.122 146.136C207.599 145.975 206.913 145.913 206.764 146.505C205.999 149.572 202.786 149.048 200.95 150.595C199.983 151.395 199.137 151.005 198.417 149.886C193.867 142.644 186.405 140.494 178.69 139.378C170.641 138.176 162.432 139.41 154.332 138.748C153.94 138.743 153.416 138.582 153.307 138.99C152.835 140.84 151.171 140.446 150.072 140.453C144.562 140.42 139.058 140.208 134.331 136.786C133.479 136.149 132.638 135.157 130.784 135.75C135.892 139.959 141.2 141.974 147.36 141.651C151.799 141.439 156.33 140.715 160.694 141.118C169.174 141.928 177.626 143.204 185.716 146.135C189.153 147.365 191.888 149.492 193.869 152.631C194.595 153.785 194.359 154.497 193.231 155.182C192.074 155.907 191.136 156.029 190.157 154.847C188.112 152.391 185.417 150.718 182.849 148.952C180.368 147.278 177.702 145.989 174.438 146.43C180.477 148.57 185.424 152.027 189.726 157.788C186.859 157.418 185.246 156.271 183.473 155.648C177.37 153.553 171.209 151.327 164.681 152.633C159.937 153.569 155.147 154.442 150.49 155.895C144.348 157.809 137.958 158.667 131.66 159.864C128.977 160.384 126.271 159.917 122.725 159.306C125.799 161.554 126.421 161.662 130.376 161.106C137.808 160.109 145.12 158.601 152.454 157.018C159.926 155.413 167.376 154.519 174.952 156.508C178.775 157.497 182.345 158.882 184.194 160.804C182.41 163.086 180.285 161.211 178.345 161.288C176.33 161.342 174.332 160.437 171.626 161.457C174.839 162.406 177.654 162.253 180.211 163.95C176.435 167.062 172.636 169.611 167.846 170.484C168.336 171.075 169.913 170.74 169.067 171.413C162.925 176.302 156.622 181.076 149.484 184.468C142.312 187.865 135.443 185.651 129.403 181.81C125.113 179.094 121.922 174.882 120.096 169.911C118.477 165.543 117.687 161.248 119.425 156.565C121.168 151.917 122.975 147.223 123.307 142.209C123.714 135.518 127.208 130.718 132.1 126.641C133.067 125.841 133.954 124.984 134.846 124.162C128.151 128.294 122.188 133.188 121.056 141.488C120.326 146.887 118.871 151.983 116.598 156.862C115.482 159.315 115.235 161.871 115.541 164.547C116.741 174.263 122.212 181.067 130.21 186.209C131.805 187.252 133.734 187.743 135.444 189.263C133.585 190.46 131.685 190.353 130.004 190.918C128.254 191.494 127.166 190.72 126.624 189.182C124.786 183.93 120.801 181.126 115.867 179.013C109.862 176.442 103.977 173.532 98.7831 169.444C87.1111 160.172 79.716 148.023 74.6117 134.287C73.9953 132.725 73.4824 130.934 74.3916 129.365C75.6058 127.285 75.024 125.718 73.5728 124.048C72.0185 124.521 71.2588 125.711 70.8619 127.159C70.0336 130.06 67.9326 131.722 65.3249 132.903C61.399 134.694 57.479 136.519 53.5013 138.212C39.7835 144.087 28.0814 152.458 19.8116 164.999C11.0295 178.299 7.73425 192.344 14.0883 207.819C16.479 213.617 19.0366 219.351 20.8286 225.39C23.1391 233.043 23.4691 240.531 20.0282 247.978C17.2203 254.115 13.8768 259.81 9.5545 264.961C1.53148 274.522 -6.29569 284.191 -12.263 295.213C-21.0788 311.494 -21.5641 328.115 -15.1924 345.18C-15.0138 345.611 -14.8409 346.007 -14.6278 346.432C-13.9539 347.912 -13.0554 349.249 -12.0188 350.563C-11.6099 351.097 -11.0744 351.538 -10.349 351.204C-10.2512 351.153 -10.1821 351.141 -10.0843 351.089C-9.56621 350.79 -9.05966 350.422 -9.16344 349.802C-9.60752 346.724 -8.58929 343.685 -8.58444 340.107C-9.81014 342.331 -9.30292 344.513 -10.6324 346.116C-11.6516 345.543 -11.9396 344.671 -12.3198 343.885C-15.2114 337.852 -16.0709 331.444 -16.3662 324.8C-16.8121 314.498 -14.9952 304.773 -9.71824 295.779C-4.47 286.825 1.5901 278.478 8.32393 270.551C15.0348 262.698 21.2561 254.466 24.5697 244.349C27.2102 236.363 27.2083 228.713 23.8327 221.062C21.8799 216.608 19.8983 212.194 17.9858 207.769C12.9626 196.002 13.092 184.257 18.7771 172.822C25.3657 159.571 35.5247 149.83 48.822 143.352C55.2865 140.18 62.3615 138.322 68.3824 134.197C69.597 133.391 70.2878 133.701 70.5933 135.101C72.0515 141.905 75.7204 147.701 79.1532 153.572C86.6061 166.277 97.0173 175.654 110.778 181.282C113.294 182.313 115.805 183.521 118.165 184.897C120.797 186.404 123.008 188.371 124.149 191.367C122.278 192.708 120.021 191.953 118.398 193.074C116.585 194.334 114.932 193.797 113.234 192.983C111.42 192.118 109.934 190.88 108.495 189.492C105.403 186.503 102.609 183.182 99.0565 180.625C95.9471 178.383 94.2947 177.633 91.0706 177.465C97.4678 181.528 103.802 185.001 107.252 191.612C105.709 190.667 104.309 189.52 102.939 188.333C97.6067 183.843 91.9521 179.761 85.6415 176.851C80.1716 174.296 74.7765 171.765 69.9338 168.078C69.001 167.384 68.3388 166.61 67.5959 165.778C64.6992 162.474 62.879 158.6 61.1509 154.639C60.7937 153.778 60.5746 152.681 58.8589 152.402C59.8326 155.462 60.812 158.131 61.5899 160.87C62.1488 162.936 63.226 164.704 64.6254 166.276C68.6911 170.836 73.5566 174.448 79.1128 176.882C87.7955 180.599 95.5518 185.568 102.237 192.204C104.835 194.78 107.794 196.976 111.151 198.574C111.692 198.837 112.907 198.457 112.539 200.289C103.004 197.424 96.0365 189.949 86.3809 186.148C87.0721 187.52 87.7974 187.823 88.3905 188.184C91.9893 190.379 95.6629 192.385 99.1178 194.781C102.567 197.143 105.878 199.74 109.937 201.079C110.536 201.262 111.353 201.479 111.238 202.278C111.135 203.145 110.312 203.531 109.494 203.526C107.514 203.574 105.556 203.336 103.651 202.77C99.246 201.489 95.1349 199.415 90.8224 197.835C85.0014 195.729 79.1059 194.025 72.8478 193.975C67.8679 193.924 62.8707 194.194 57.908 193.821C48.0919 193.093 38.6439 191.169 31.3363 183.787C30.7719 183.173 30.0348 182.376 28.8145 183.359C30.6402 185.993 33.2947 187.638 35.8455 189.3C43.0431 193.903 51.1725 195.162 59.4743 195.542C70.9599 196.062 82.158 197.834 92.8214 202.352C97.94 204.505 102.984 206.848 108.833 206.789C108.327 207.795 107.682 207.761 107.026 207.871C102.144 208.618 97.3536 208.003 92.5921 206.924C86.8347 205.622 81.1349 204.451 75.1648 204.424C64.2895 204.369 53.3624 204.216 42.8261 200.881C35.4794 198.57 27.9083 196.828 21.7814 191.621C20.9177 190.915 19.8697 189.957 18.1255 190.568C22.8763 195.191 28.3461 197.958 34.1613 200.03C46.9605 204.58 60.2716 206.671 73.8183 207.412C77.6871 207.614 81.6711 207.443 85.9375 209.172C80.5202 209.69 75.8111 210.408 71.1136 211.619C66.3183 212.883 61.4019 213.848 56.3702 214.124C49.8993 214.5 43.5548 213.721 37.2619 212.402C36.1565 212.162 34.8724 211.28 33.5774 212.665C35.2761 214.116 37.2623 214.315 39.1277 214.64C49.4852 216.482 59.6868 215.906 69.8417 213.143C75.9208 211.487 81.9768 210.331 88.4654 211.546C94.6201 212.676 100.976 213.099 107.176 211.104C108.391 210.723 109.225 210.831 109.433 212.284C109.669 213.697 109.768 214.92 107.856 215.169C105.732 215.419 103.66 215.341 101.575 215.194C95.8009 214.851 90.1068 213.715 84.298 214.015C79.0878 214.286 74.1888 215.779 69.6644 218.45C71.2073 218.333 72.6697 217.946 74.1261 217.525C77.039 216.683 79.9575 215.876 83.0377 216.245C89.7104 217.075 96.3545 218.371 103.706 218.804C99.0206 220.722 94.5586 219.734 90.0337 220.917C92.2738 222.844 94.9794 221.824 97.8008 223.193C87.3462 224.802 77.2079 224.694 68.9826 231.137C72.477 230.374 75.516 227.74 79.5635 228.373C77.4856 230.173 74.3709 229.809 72.9438 232.315C80.8014 228.98 89.1087 227.695 97.8017 226.805C96.6564 228.024 95.4418 228.405 94.1868 228.756C88.8561 230.216 83.5253 231.463 78.2637 233.124C74.3894 234.375 70.6938 236.481 68.1845 239.735C69.9747 238.549 71.3331 237.543 72.7895 236.697C75.5064 235.108 78.2867 233.474 81.5567 233.493C86.0703 233.516 90.4052 232.471 94.717 231.288C95.4308 231.098 96.1963 230.368 97.2099 231.544C92.6852 233.152 88.2181 234.679 83.9814 236.735C79.7389 238.756 76.3199 241.666 73.4135 245.305C78.1161 241.365 83.2161 238.315 89.3414 237.147C88.8292 238.118 88.1385 238.872 87.4017 239.562C84.5526 242.27 81.5366 244.829 78.8142 247.658C71.8441 254.811 64.638 261.614 56.2109 267.063C52.9069 269.175 49.8447 271.671 46.6904 274.041C45.7176 274.806 44.4684 275.405 44.3939 276.869C47.8306 275.55 50.3573 272.824 53.362 270.834C61.9387 265.218 69.9914 259.017 77.2608 251.743C82.7402 246.292 88.4844 241.151 94.6088 236.371C95.996 235.324 97.3142 234.076 100.06 233.935C92.5779 241.422 86.6961 249.348 79.5359 256.214C80.8945 255.633 82.0457 254.873 83.1393 253.982C86.708 251.117 89.96 247.845 92.8492 244.316C97.1657 239.13 102.024 234.633 107.486 230.779C108.499 230.042 109.403 228.864 111.401 229.344C109.208 232.155 106.831 234.501 104.367 236.755C102.393 238.538 100.189 240.218 99.4409 242.964C101.611 242.14 102.687 240.082 104.247 238.582C107.303 235.626 110.584 232.951 114.631 230.609C115.063 233.405 114.528 235.514 113.124 237.307C108.681 243.01 103.938 248.408 97.7851 252.378C92.8117 255.549 87.9421 258.915 82.8133 261.792C81.6447 262.448 80.1365 262.984 79.993 264.673C80.3385 264.615 80.7702 264.649 81.0638 264.494C94.6603 257.258 108.038 249.776 117.534 237.135C117.799 236.808 118.115 236.577 118.605 237.168C117.253 240.334 115.492 243.392 113.529 246.306C109.835 251.812 104.631 255.517 98.8921 258.568C92.5429 262.004 86.4815 265.888 80.5643 269.996C80.0577 270.364 79.3382 270.52 79.661 271.812C88.1167 266.11 97.3271 261.947 105.702 256.4C112.161 252.131 117.312 246.629 120.2 239.274C120.873 237.568 121.777 235.964 122.646 234.366C123.457 232.849 124.487 231.579 126.79 231.122C124.034 237.994 120.541 243.856 115.787 248.973C110.889 254.292 105.34 258.904 99.7915 263.517C91.4339 270.442 82.7768 277.063 75.2945 284.974C66.241 294.53 57.792 304.516 51.8939 316.377C45.5413 329.128 41.3248 342.549 38.6973 356.553C38.1396 359.586 37.6568 362.642 37.3467 365.669C37.8015 365.628 38.2852 365.547 38.7342 365.472L41.6355 364.986C42.4055 359.191 43.2446 353.383 44.9646 347.748ZM236.093 110.213C236.893 110.115 237.394 110.562 238.028 111.164C236.957 111.344 236.387 110.908 236.093 110.213ZM191.194 249.093C193.001 248.648 194.498 249.531 196.042 250.264C194.148 251.042 192.674 250.084 191.194 249.093ZM217.538 270.073C214.875 279.621 209.39 286.95 200.652 291.814C196.047 294.427 192.168 297.981 188.628 301.867C173.502 318.426 154.431 324.985 132.45 324.133C125.656 323.855 118.851 323.082 112.397 320.586C109.812 319.567 107.497 318.255 105.078 316.747C106.178 315.678 107.254 316.171 108.187 316.227C114.537 316.615 119.701 314.157 123.943 309.586C125.445 307.953 126.895 306.222 128.156 304.418C131.499 299.572 134.279 294.325 138.474 290.116C139.24 289.386 140.708 288.396 139.211 286.876C138.779 286.418 139.36 285.647 139.694 285.096C144.125 276.987 149.419 269.583 156.678 263.728C160.31 260.818 164.42 258.854 169.135 257.746C168.231 259.987 165.456 259.531 164.116 261.916C166.165 261.006 167.731 260.389 169.239 259.641C177.586 255.409 186.612 253.756 195.858 253.411C201.465 253.18 207.085 253.231 212.45 251.34C213.152 252.994 211.88 253.455 211.195 254.03C205.336 258.907 199.28 263.463 192.482 266.974C187.877 269.375 183.364 271.902 179.289 275.134C180.711 275.144 181.943 274.442 183.244 273.941C194.947 269.395 205.371 262.726 215.07 254.691C213.033 259.282 209.499 262.778 206.455 266.653C203.381 270.567 200.556 274.689 197.269 278.391C193.856 282.186 190.023 285.59 186.356 289.144C182.851 292.6 179.375 296.015 175.996 299.592C191.405 288.121 204.09 273.955 216.24 259.135C215.234 264.58 212.909 269.361 210.487 274.194C208.018 279.176 204.075 282.989 200.806 287.432C203.138 287.36 204.456 285.687 205.711 284.273C211.04 278.351 214.827 271.484 217.485 264.026C218.986 259.843 220.453 255.666 222.145 251.558C221.144 257.888 219.252 263.978 217.538 270.073ZM247.929 221.881C248.182 220.422 248.798 219.646 250.082 219.679C251.366 219.712 251.556 221.061 251.884 221.962C253.111 225.263 254.103 228.639 255.364 231.934C258.129 239.12 261.257 246.14 265.433 252.63C265.715 253.043 265.905 253.543 266.343 254.461C252.682 258.98 238.854 259.526 225.204 260.289C224.639 258.826 225.008 257.843 225.341 256.866C226.641 252.753 228.016 248.662 229.247 244.56C230.375 240.901 232.32 237.671 234.069 234.332C235.531 231.608 236.687 228.758 239.122 226.756C240.526 225.6 241.453 223.497 244.251 224.729C245.328 225.221 247.596 223.708 247.929 221.881ZM265.693 210.264C263.056 211.06 260.431 211.925 257.835 212.749C257.196 212.963 256.603 213.239 255.993 213.412C255.584 213.516 255.233 213.327 255.054 212.896C254.87 212.431 255.134 212.104 255.422 211.914C257.615 210.59 260.062 210.145 262.567 209.832C263.822 209.692 265.134 209.897 266.527 209.097C265.139 207.595 263.689 208.263 262.422 208.546C260.258 208.979 258.093 209.625 255.957 210.23C254.841 210.559 254.242 210.164 253.856 209.13C253.072 206.995 251.809 199.238 251.901 196.177C253.599 196.99 254.331 199.028 256.26 199.307C257.025 199.427 256.893 200.334 256.859 200.977C256.784 202.229 256.503 203.516 257.413 204.922C259.208 203.771 259.709 202.094 259.76 200.491C260.11 193.881 262.935 187.847 264.171 181.442C265.333 175.44 269.517 170.737 273.966 166.556C277.402 163.324 280.798 160.064 285.271 158.146C286.198 157.743 286.992 156.972 287.763 156.276C289.933 154.39 292.374 152.848 294.964 151.564C300.652 148.841 306.287 146.02 311.571 142.585C314.294 140.818 317.167 141.222 319.919 141.541C324.087 142.046 328.066 142.903 332.372 142.323C335.504 141.94 338.866 142.936 341.923 144.23C349.299 147.35 356.237 151.253 362.479 156.299C366.458 159.493 370.201 162.974 373.939 166.421C374.814 167.195 375.557 168.239 375.949 169.307C377.4 173.101 380.026 176.274 381.611 180.011C382.878 182.915 384.398 185.635 386.598 187.958C387.416 188.813 388.136 189.72 387.941 191.736C382.845 190.145 378.372 191.001 374.389 194.147C372.161 195.901 369.957 197.794 367.793 199.714C365.381 201.854 363.05 204.05 360.097 206.776C364.231 206.651 366.735 204.85 368.979 202.774C371.408 200.525 374.171 198.788 376.796 196.861C379.49 194.922 382.38 194.792 385.397 195.845C390.337 197.567 391.593 201.465 388.618 205.966C388.405 205.966 388.025 206.03 387.933 205.903C384.627 201.64 379.843 201.273 374.858 204.162C370.552 206.654 366.137 208.917 361.676 211.116C358.331 212.774 354.929 213.875 351.262 214.454C348.493 214.882 346.04 214.231 343.691 213.137C340.956 211.859 340.979 211.147 343.356 209.226C343.581 209.082 343.644 208.824 343.782 208.588C341.669 207.844 340.662 208.19 338.733 210.248C336.777 212.347 336.472 214.983 337.941 218.244C339.126 216.628 337.871 214.43 339.39 213.113C339.857 212.929 340.179 213.158 340.444 213.468C344.101 217.495 349.081 217.759 353.894 217.449C357.624 217.249 361.424 216.4 364.906 214.719C368.913 212.772 373.15 211.354 376.891 208.886C378.774 207.615 380.915 206.831 383.224 207.684C385.567 208.531 385.913 209.96 384.152 211.743C383.697 212.209 383.248 212.709 382.701 213.048C377.285 216.328 372.991 221.014 368.018 224.822C362.688 228.832 356.701 231.464 350.438 233.504C345.591 235.095 340.743 236.686 336.098 238.846C332.765 240.36 329.242 241.375 325.534 241.713C332.027 235.738 339.516 231.261 347.592 227.535C328.462 231.412 309.527 233.274 290.988 225.4C290.591 226.635 291.523 226.904 292.105 227.196C299.688 231.132 307.656 233.339 316.298 232.99C322.544 232.758 328.797 232.561 334.991 231.594C335.25 232.932 334.352 233.082 333.748 233.502C330.64 235.723 327.52 237.874 324.498 240.187C320.025 243.592 314.758 244.581 309.421 245.368C306.825 245.768 304.205 246.029 301.586 246.079C293.457 246.307 285.893 249.061 278.156 250.995C274.172 252.016 274.143 252.057 271.863 248.614C266.414 240.46 261.317 232.07 257.751 222.857C255.326 216.64 255.291 217.071 261.802 214.174C263.218 213.512 264.807 213.246 266.304 212.854C267.386 212.531 268.491 212.133 268.048 210.755C267.633 209.55 266.504 210.022 265.693 210.264ZM252.702 177.414C253.634 174.07 253.691 170.377 256.845 167.795C256.535 170.184 255.965 172.511 256.363 174.888C256.496 175.893 255.471 176.348 255.109 177.152L255.143 177.146C255.149 177.181 255.12 177.221 255.12 177.221C257.193 177.086 258.914 178.038 259.617 179.691C260.308 181.275 259.273 185.911 257.8 186.866C255.468 188.425 253.183 190.047 251.48 192.599C253.062 189.324 251.432 186.162 251.69 183.037C251.822 181.705 252.265 180.533 253.238 179.555C253.934 178.836 254.838 178.295 255.12 177.221C255.086 177.227 255.085 177.227 255.051 177.233C255.045 177.198 255.08 177.192 255.109 177.152C254.337 176.998 253.79 177.975 252.702 177.414ZM264.778 167.458C263.19 170.911 261.924 173.744 260.417 177.042C258.401 174.972 257.635 172.727 258.44 170.538C259.315 168.125 261.784 167.605 264.778 167.458ZM257.8 188.778C258.871 188.386 258.825 189.598 259.032 190.414C259.091 192.458 258.648 194.48 257.762 196.399C257.175 197.773 256.046 197.607 255.257 196.712C254.33 195.628 253.673 194.251 254.203 192.745C254.859 190.936 255.992 189.435 257.8 188.778ZM261.226 165.963C259.913 166.821 259.049 166.328 258.347 165.1C257.684 163.9 257.765 162.895 258.927 161.992C260.09 161.089 261.495 160.783 262.94 160.505C263.7 160.378 264.58 160.124 264.373 159.097C264.234 158.27 263.405 158.409 262.761 158.375C262.122 158.376 261.465 158.698 260.694 158.119C263.352 152.574 266.892 147.625 270.863 142.922C272.969 140.444 274.868 137.789 277.556 135.816C278.667 135.027 279.663 134.4 281.12 134.829C289.186 137.197 297.414 138.829 305.67 140.209C306.148 140.306 306.649 140.54 307.328 140.781C306.396 142.424 305.106 142.782 303.92 143.335C296.356 146.939 288.453 149.786 281.119 153.919C276.313 156.601 271.708 159.639 267.949 163.704C267.109 164.624 266.418 165.377 264.985 165.086C263.695 164.806 262.383 165.238 261.226 165.963ZM283.117 131.697C288.159 127.24 293.783 124.562 299.764 122.746C310.65 119.471 321.871 118.618 333.189 119.414C337.645 119.73 341.998 120.488 346.287 121.93C351.855 123.796 357.572 125.282 362.904 127.859C365.265 129.022 367.533 130.271 369.56 131.986C372.255 134.297 375.318 136.051 378.324 137.885C382.821 140.567 386.961 143.875 389.968 148.259C392.231 151.599 394.276 155.117 396.378 158.554C402.759 168.889 405.468 180.406 407.342 192.24C408.484 199.274 408.739 206.314 408.073 213.367C406.948 225.101 402.103 235.617 395.456 245.124C389.424 253.855 382.126 261.594 373.504 267.996C360.397 277.735 345.943 283.45 329.241 282.317C323.092 281.859 316.961 281.505 310.956 279.996C305.135 278.527 299.884 276.007 295.093 272.418C288.828 267.659 282.649 262.78 277.8 256.509C277.426 255.969 276.954 255.482 276.585 254.977C276.481 254.782 276.499 254.46 276.383 253.771C280.833 252.565 285.306 251.285 289.837 250.136C293.792 249.155 297.856 248.828 301.938 248.605C304.54 248.453 307.119 247.95 309.721 247.585C310.383 247.509 311.091 247.072 311.65 247.226C317.165 248.781 322.156 246.139 327.337 245.271C333.699 244.241 339.841 242.327 345.58 239.276C350.11 236.853 354.814 234.825 359.603 233.102C365.233 231.097 370.149 227.794 375.036 224.532C379.29 221.73 383.25 218.446 387.267 215.294C389.501 213.574 391.043 211.332 391.825 208.58C392.912 204.68 393.855 200.768 393.624 196.627C393.346 191.574 391.831 187.188 388.105 183.598C385.347 180.908 383.711 177.498 382.432 173.888C380.151 167.47 376.592 161.904 371.156 157.643C368.052 155.224 365.674 152.045 362.535 149.631C354.456 143.37 345.405 139.786 335.203 138.662C320.989 137.111 306.837 135.303 292.68 133.46C289.628 133.05 286.491 132.973 283.117 131.697ZM112.975 195.258C112.923 194.098 114.046 195.078 114.61 195.055C114.748 195.032 114.938 195.318 115.105 195.468C114.288 196.1 113.045 196.096 112.975 195.258ZM122.201 228.102C120.767 228.235 119.547 227.944 118.804 226.687C114.968 220.105 112.191 213.274 114.498 205.415C114.906 204.036 115.43 202.709 115.953 201.382C117.512 197.119 120.275 194.956 125.111 194.996C135.434 195.144 144.483 190.866 153.25 185.962C163.312 180.31 172.642 173.47 182.082 166.86C188.535 162.343 195.137 158.085 201.936 154.149C209.476 149.769 217.87 148.151 226.211 146.435C235.238 144.569 243.942 141.623 252.675 138.85C258.04 137.172 263.325 135.225 268.955 134.494C269.583 134.424 270.279 134.13 270.786 134.825C270.942 135.755 270.164 136.204 269.687 136.744C262.493 145.528 257.227 155.441 252.446 165.698C246.513 178.415 246.056 191.595 247.965 205.123C248.04 205.784 248.115 206.444 248.288 207.053C249.573 210.91 249.522 214.212 244.796 215.677C244.22 215.844 243.754 216.454 243.299 216.919C243.057 217.172 242.942 217.546 242.62 218.166C244.445 218.038 245.349 216.859 246.5 216.1C247.461 215.478 248.601 213.588 249.689 215.212C250.87 216.962 248.763 217.527 247.594 218.183C246.005 219.087 244.509 220.117 242.978 221.152C237.406 224.99 232.462 229.395 228.813 235.177C230.51 229.616 234.706 225.832 238.384 221.497C235.822 222.528 234.038 224.385 231.822 227.058C227.828 231.836 224.858 237.22 221.613 242.439C216.433 250.744 205.887 251.802 198.747 249.244C189.04 245.77 180.178 240.986 173.112 233.138C170.884 230.643 168.384 228.228 165.799 226.147C161.457 222.695 156.31 220.794 150.512 220.738C144.853 220.659 139.718 222.228 134.624 224.462C130.657 226.225 126.565 227.654 122.201 228.102ZM8.63012 320.33C9.66534 316.119 10.9712 312.04 12.7894 308.052C15.3902 302.375 19.2406 297.586 23.0103 292.74C24.006 291.476 25.1974 290.32 25.5365 288.315C23.7463 289.075 22.664 290.036 21.6683 291.088C13.4897 299.931 6.86006 309.754 4.02481 321.668C1.8452 330.923 2.11243 340.369 2.09179 349.793C2.10386 351.987 2.40948 354.238 2.6691 356.426C2.81335 357.712 3.02672 358.987 3.34368 360.244C4.93862 361.075 6.58533 361.791 8.2493 362.397C5.13121 348.647 5.13341 334.657 8.63012 320.33ZM44.3766 276.978C44.3709 276.944 44.3651 276.909 44.3939 276.869C44.3651 276.909 44.3307 276.915 44.2962 276.921L44.3766 276.978ZM79.97 264.748C79.9642 264.713 79.9643 264.713 79.993 264.673C79.9585 264.679 79.9584 264.679 79.9239 264.685C79.9297 264.719 79.97 264.748 79.97 264.748ZM99.4236 243.073C99.4178 243.038 99.4466 242.998 99.4409 242.964C99.4121 243.004 99.3775 243.01 99.3429 243.015L99.4236 243.073ZM72.892 232.43C72.9207 232.389 72.9496 232.349 72.9438 232.315C72.915 232.355 72.8804 232.361 72.8458 232.366L72.892 232.43ZM155.644 115.189C155.673 115.149 155.667 115.114 155.696 115.074C155.667 115.114 155.598 115.126 155.563 115.131L155.644 115.189Z" fill="#EFECF0"/>
<path d="M46.6843 423.295C29.4841 411.973 16.1924 397.482 9.10007 377.809C6.99139 372 4.61787 366.306 3.35547 360.248C4.95048 361.079 6.59727 361.795 8.26132 362.401C9.65613 368.401 11.6094 374.343 14.1211 380.227C19.9568 393.877 28.7109 405.232 40.6483 414.176C41.7996 413.417 40.9761 412.528 40.7802 411.781C36.6943 396.492 35.585 381.165 37.3601 365.673C37.8149 365.633 38.2986 365.552 38.7477 365.476L41.6492 364.99C41.2871 367.495 40.9539 369.959 40.586 372.429C39.5916 378.794 40.5489 385.15 41.7538 391.501C43.6909 401.589 46.4627 411.361 49.7871 421.04C50.1386 422.079 50.5187 423.077 49.4826 423.889C48.3544 424.786 47.5596 423.856 46.6843 423.295Z" fill="#EFECF0"/>
<path d="M410.881 90.182C412.943 93.8032 415.5 95.9248 417.648 98.3628C418.61 99.4413 419.629 100.439 420.084 101.886C420.464 103.097 420.321 104.148 419.383 105.12C418.479 106.086 417.517 105.857 416.504 105.531C415.75 105.268 414.973 105.079 414.276 104.736C405.363 100.279 395.811 97.5227 386.472 94.1288C385.223 93.6652 383.945 93.4543 382.626 93.4272C380.773 93.3836 379.005 93.0068 377.232 92.383C374.295 91.3874 374.295 91.3874 375.204 88.3311C386.764 88.8739 397.457 92.9265 408.822 97.185C407.699 94.0796 405.988 92.5599 404.526 91.0341C402.412 88.8028 402.118 86.8334 403.666 84.2013C404.472 82.8622 405.272 82.5511 406.51 82.9458C416.528 86.3676 427.277 87.365 436.898 92.2344C442.247 94.9154 447.7 97.5791 453.791 98.542C455.76 98.8497 456.9 100.784 456.331 102.26C455.617 104.15 454.213 104.032 452.457 103.724C445.128 102.366 438.713 98.6239 431.988 95.7838C425.459 93.0526 418.619 91.4359 410.881 90.182Z" fill="#EFECF0"/>
<path d="M273.552 83.0733C270.391 80.7343 267.823 79.3937 264.812 78.8003C263.672 78.5662 262.44 78.6309 261.426 77.8799C260.528 77.1805 259.181 76.5562 259.555 75.1833C259.946 73.7012 260.573 72.1443 262.594 72.1245C264.937 72.1216 267.291 71.9752 269.658 72.11C276.06 72.3835 282.467 72.6914 288.783 74.1479C291.074 74.6848 293.423 74.9289 295.807 74.7421C298.743 74.4629 301.512 75.5218 304.385 75.7135C309.232 76.0348 314.08 76.3561 318.91 76.1491C319.935 76.1192 320.988 76.0489 322.445 76.9028C320.039 78.014 317.932 79.0043 315.71 79.0932C310.736 79.2889 305.791 79.4443 300.799 79.1117C292.797 78.6106 284.915 77.3455 276.993 76.4767C274.679 76.2269 272.301 76.2356 269.4 76.0841C270.534 77.771 272.031 78.2286 273.165 79.0656C274.421 79.9886 275.849 80.6701 276.994 81.7885C278.975 83.6523 278.884 85.0134 276.426 86.2396C273.404 87.7019 270.036 88.5847 266.881 87.555C261.221 85.7761 255.453 86.5298 249.742 85.9281C242.079 85.1222 234.382 84.5345 226.707 83.8721C226.166 83.8211 225.326 83.4661 225.521 83.1501C226.068 82.1732 225.567 80.6635 226.942 80.1852C227.547 79.9777 228.272 79.8562 228.865 80.0048C232.982 80.8381 237.225 80.3045 241.353 80.9943C247.196 81.9632 253.108 81.8583 258.986 82.1841C261.243 82.3019 263.391 82.4025 265.561 83.066C267.813 83.7867 270.173 83.8872 273.552 83.0733Z" fill="#EFECF0"/>
<path d="M306.836 55.1478C308.108 51.4995 307.439 47.9282 306.816 44.42C306.643 43.3865 306.165 42.4395 306.027 41.4001C305.785 39.7407 306.498 38.0629 307.672 37.2287C308.939 36.3083 310.447 37.4722 311.524 38.3898C315.066 41.3028 318.665 44.1354 321.936 47.3416C326.099 51.4255 330.936 54.8653 334.449 59.9435C332.4 60.6409 331.012 59.3505 329.843 58.5192C326.422 56.1171 322.996 53.6806 320.1 50.5887C317.33 47.6173 313.518 46.0599 310.858 42.8931C309.799 44.4163 310.283 45.6102 310.433 46.7184C311.015 50.8354 309.974 54.7994 309.215 58.7515C308.651 61.75 307.172 62.0332 304.915 59.7905C302.404 57.3069 299.951 54.7429 297.44 52.2593C296.594 51.4448 295.764 50.5212 294.751 49.9826C291.365 48.2123 288.29 45.9648 285.279 43.6714C280.885 40.3344 276.077 37.7043 271.431 34.7639C269.323 33.4169 269.427 33.3996 270.606 31.1124C271.596 29.1758 272.828 30.1736 273.848 30.7466C279.306 33.8698 284.569 37.309 289.51 41.1564C290.327 41.7986 291.064 42.596 291.997 43.0773C296.39 45.3518 300.001 48.4657 303.186 52.2177C304.142 53.2617 305.08 54.4149 306.836 55.1478Z" fill="#EFECF0"/>
<path d="M388.462 66.7708C388.473 65.1399 389.584 64.9892 390.603 64.7123C394.063 63.7432 397.569 63.4747 401.104 63.8034C404.236 64.058 407.339 63.9278 410.643 63.7284C410.481 61.914 409.266 61.0196 408.27 60.1595C406.641 58.6971 407.769 57.5874 408.194 56.0995C408.683 54.3531 409.731 54.4609 410.837 54.7007C413.6 55.3002 416.254 53.9704 419.04 54.2828C422.84 54.7088 426.513 55.8643 430.077 57.0027C434.125 58.2725 438.27 58.6407 442.363 59.3362C443.02 59.4388 443.676 59.3288 444.338 59.4658C445.691 59.6996 446.394 60.7152 446.423 61.9498C446.469 63.2878 445.577 64.1101 444.213 64.2324C443.551 64.3079 442.883 64.3489 442.261 64.2406C438.024 63.5337 433.7 63.3726 429.595 61.7582C425.939 60.2811 422.035 59.66 418.143 59.1078C417.378 58.9881 416.566 59.0179 415.806 59.1452C414.568 59.3879 413.929 60.0261 414.719 61.3459C415.686 62.8838 416.694 64.4503 417.564 66.0399C418.226 67.2393 418.503 68.4679 417.501 69.6981C416.35 71.095 415.038 70.4649 413.938 69.8346C408.353 66.5911 401.888 67.8511 395.957 66.3653C394.921 66.1139 393.655 66.6094 392.486 66.8405C391.156 67.1695 389.786 67.4698 388.462 66.7708Z" fill="#EFECF0"/>
<path d="M440.453 132.763C444.823 131.924 447.644 133.506 449.902 136.386C451.975 139.014 452.178 141.92 450.969 144.885C449.364 148.872 446.475 151.977 443.055 154.462C439.221 157.23 432.162 153.454 431.913 148.36C431.641 143.341 433.482 138.853 436.556 134.938C437.672 133.547 439.273 132.925 440.453 132.763ZM441.217 149.635C443.526 149.213 447.227 145.653 447.704 143.413C447.946 142.31 447.681 141.362 447.07 140.473C444.761 137.07 439.763 137.128 437.536 140.583C436.661 141.933 436.311 143.444 436.109 145.001C435.696 148.683 437.498 150.329 441.217 149.635Z" fill="#EFECF0"/>
<path d="M336.357 84.9183C335.953 83.5691 335.625 82.4554 335.227 81.3532C334.444 79.0052 335.779 77.0106 337.126 75.7224C338.502 74.394 340.868 75.1665 342.693 75.6753C344.329 76.1098 344.588 77.6601 344.422 79.211C344.14 81.7728 343.173 84.0598 341.539 85.9628C340.531 87.1587 340.094 88.3653 339.91 89.8128C339.209 95.3846 338.474 100.962 337.703 106.545C337.571 107.453 337.439 108.361 337.232 109.245C336.99 110.348 336.075 110.608 335.102 110.523C333.668 110.444 333.95 109.37 334.054 108.503C334.714 103.327 335.335 98.1232 336.065 92.9361C336.49 90.1731 336.639 87.4564 336.357 84.9183Z" fill="#EFECF0"/>
<path d="M450.94 131.782C450.38 128.441 453.857 123.112 457.19 122.235C458.756 121.831 460.074 122.283 461.001 123.58C462.499 125.738 463.15 128.143 461.965 130.609C461.119 132.344 460.02 134.051 458.811 135.529C457.43 137.248 454.845 137.291 453.215 135.828C452 134.722 451.303 133.315 450.94 131.782ZM459.396 128.205C459.074 127.126 458.555 126.363 457.208 126.589C455.383 126.93 453.818 128.821 454.192 130.423C454.452 131.548 455.171 132.242 456.392 132.109C458.004 131.98 459.719 129.71 459.396 128.205Z" fill="#EFECF0"/>
<path d="M469.091 147.092C465.89 147.699 462.82 144.424 463.781 141.253C464.402 139.236 465.484 137.426 467.016 135.965C469.652 133.469 473.095 134.522 473.959 137.989C474.933 141.687 472.39 146.434 469.091 147.092ZM471.023 139.756C470.695 139.067 470.131 138.879 469.417 139.069C467.845 139.438 466.435 141.41 467.006 142.483C467.38 143.235 468.169 143.493 469.004 143.176C470.212 142.761 471.34 140.801 471.023 139.756Z" fill="#EFECF0"/>
<path d="M217.741 134.886C212.61 130.752 206.835 128.284 200.813 126.672C196.535 125.512 192.309 124.236 188.094 122.817C186.517 122.302 184.91 121.827 183.626 120.52C184.029 120.381 184.277 120.163 184.467 120.237C192.833 123.546 201.745 125.241 210.059 128.665C212.385 129.621 214.476 130.865 216.462 132.338C217.188 132.854 217.856 133.451 217.741 134.886Z" fill="#EFECF0"/>
<path d="M92.5499 195.838C82.4222 190.275 71.2771 191.575 60.4424 190.699C64.2417 189.638 68.0701 189.598 71.8928 189.95C79.1121 190.653 86.5327 190.649 92.5499 195.838Z" fill="#EFECF0"/>
<path d="M61.7915 234.815C60.9456 236.125 59.4949 236.581 58.1305 236.916C50.9173 238.797 43.7329 240.638 36.8251 243.495C44.5845 238.937 53.4329 237.49 61.8319 234.844L61.7915 234.815Z" fill="#EFECF0"/>
<path d="M130.267 166.399C138.136 164.833 145.827 162.624 153.409 159.972C150.214 162.526 135.212 166.668 130.267 166.399Z" fill="#EFECF0"/>
<path d="M195.382 135.582C197.586 134.752 199.107 136.197 200.731 137.201C202.988 138.593 203.956 141.194 205.971 142.839C206.34 143.132 206.593 143.798 206.167 144.223C205.505 144.936 204.941 144.322 204.607 143.812C202.297 140.196 198.796 137.95 195.468 135.461L195.382 135.582Z" fill="#EFECF0"/>
<path d="M155.56 115.122C149.441 117.599 143.074 119.445 137.145 122.421C137.847 120.887 139.402 120.627 140.639 119.959C144.542 117.818 148.762 116.509 152.981 115.2C153.891 114.906 154.754 114.761 155.641 115.179L155.56 115.122Z" fill="#EFECF0"/>
<path d="M70.9979 146.002C72.76 146.982 72.9216 149.01 73.8835 150.513C75.1853 152.562 76.2626 154.754 77.5414 157.09C74.2475 155.021 71.7819 150.688 71.0553 145.922L70.9979 146.002Z" fill="#EFECF0"/>
<path d="M112.709 188.567C109.87 187.095 107.561 184.967 105.183 182.426C108.286 182.933 111.033 185.129 112.709 188.567Z" fill="#EFECF0"/>
<path d="M195.439 135.505C192.94 133.516 189.394 133.756 186.642 131.525C190.994 131.221 194.201 132.773 195.382 135.586L195.439 135.505Z" fill="#EFECF0"/>
<path d="M61.3412 291.738C62.1521 288.096 64.6501 285.624 67.1424 283.117C66.832 284.869 65.2951 285.87 64.3857 287.226C63.3613 288.744 62.3311 290.227 61.3412 291.738Z" fill="#EFECF0"/>
<path d="M30.6125 291.218C29.2315 294.211 27.2057 296.746 24.8976 299.08C26.3535 296.11 27.9361 293.26 30.7278 291.269L30.6125 291.218Z" fill="#EFECF0"/>
<path d="M44.3017 276.917C42.5291 279.693 40.152 281.826 37.4754 283.655L37.5558 283.713C39.3744 281 41.2391 278.351 44.3821 276.974C44.3879 277.009 44.3017 276.917 44.3017 276.917Z" fill="#EFECF0"/>
<path d="M71.0551 145.92C69.028 144.631 68.4345 142.57 67.6162 139.59C70.0695 141.729 70.5999 143.836 71.0323 145.995C70.9977 146.001 71.0551 145.92 71.0551 145.92Z" fill="#EFECF0"/>
<path d="M73.4823 269.021C74.9554 266.579 77.1717 265.18 80.0098 264.74L79.9291 264.683C78.0298 266.489 75.9059 268.013 73.396 268.93L73.4823 269.021Z" fill="#EFECF0"/>
<path d="M69.8719 248.725C69.2909 250.558 67.806 251.657 66.4361 252.807C67.0919 250.997 68.1681 249.577 69.9526 248.783L69.8719 248.725Z" fill="#EFECF0"/>
<path d="M237.427 102.722C236.166 103.252 235.049 103.156 233.978 102.06C235.406 101.467 236.465 101.856 237.427 102.722Z" fill="#EFECF0"/>
<path d="M30.6912 291.274C31.4909 289.263 32.9009 287.716 34.7314 286.56L34.6507 286.502C33.8107 288.485 32.4813 290.089 30.6047 291.182C30.6105 291.217 30.6912 291.274 30.6912 291.274Z" fill="#EFECF0"/>
<path d="M48.6256 253.526C48.0098 254.514 47.1809 255.291 45.9835 255.775C46.2595 254.241 47.7565 254.273 48.6256 253.526Z" fill="#EFECF0"/>
<path d="M72.3103 277.295C72.7936 276.152 73.5244 275.215 75.0728 274.495C74.5321 276.144 73.3349 276.628 72.3103 277.295Z" fill="#EFECF0"/>
<path d="M149.327 175.882C148.406 176.745 147.536 176.43 146.696 176.288C147.438 175.632 148.25 175.39 149.327 175.882Z" fill="#EFECF0"/>
<path d="M73.4014 268.962C72.6878 270.215 71.5191 270.871 69.441 271.609C70.8626 269.918 71.8007 268.947 73.4473 269.025C73.4818 269.019 73.4014 268.962 73.4014 268.962Z" fill="#EFECF0"/>
<path d="M99.3471 243.01C98.5759 244.131 97.7702 245.258 96.999 246.378C97.0331 244.673 98.0059 243.695 99.3932 243.073C99.4277 243.067 99.3471 243.01 99.3471 243.01Z" fill="#EFECF0"/>
<path d="M62.776 277.826C62.667 279.297 61.5388 279.981 60.4163 280.701C60.8881 279.488 61.4059 278.339 62.8221 277.889L62.776 277.826Z" fill="#EFECF0"/>
<path d="M62.8228 277.891C63.2599 276.472 64.3765 275.718 65.5854 275.091C64.8545 276.24 64.164 277.419 62.7421 277.834C62.7766 277.828 62.8228 277.891 62.8228 277.891Z" fill="#EFECF0"/>
<path d="M227.017 116.051C228.715 116.439 229.481 116.984 230.08 117.804C228.952 117.852 228.145 117.278 227.017 116.051Z" fill="#EFECF0"/>
<path d="M62.2359 257.838C62.9551 256.194 63.5476 255.28 65.0328 254.607C64.5957 256.238 63.7037 256.848 62.2359 257.838Z" fill="#EFECF0"/>
<path d="M165.596 156.619C164.479 157.161 163.368 157.736 161.986 157.33C163.097 156.33 164.323 156.443 165.596 156.619Z" fill="#EFECF0"/>
<path d="M32.8768 263.173C31.7891 264.736 31.0293 265.289 29.9182 265.439C30.2057 264.187 31.2823 264.042 32.8768 263.173Z" fill="#EFECF0"/>
<path d="M83.3001 220.552C84.0081 220.115 84.7394 220.027 85.9256 220.75C84.7454 220.912 84.0429 221.171 83.3001 220.552Z" fill="#EFECF0"/>
<path d="M61.8653 234.84C62.8439 234.322 63.8513 233.763 65.5436 232.842C64.3006 234.751 62.9648 234.62 61.7904 234.817L61.8653 234.84Z" fill="#EFECF0"/>
<path d="M60.7991 270.471C60.9775 270.051 60.9889 269.907 61.081 269.821C61.5818 269.419 62.0422 268.987 62.6005 268.717C62.7962 268.613 63.0095 269.038 62.7965 269.25C62.3764 269.71 61.8698 270.079 61.369 270.481C61.3057 270.527 61.1561 270.482 60.7991 270.471Z" fill="#EFECF0"/>
<path d="M156.402 159.399C157.236 158.02 158.296 158.409 159.528 157.919C158.532 159.184 157.605 159.162 156.402 159.399Z" fill="#EFECF0"/>
<path d="M6.64281 286.34C6.6886 285.34 7.11442 284.702 8.04698 284.334C8.04726 285.396 7.61567 286 6.64281 286.34Z" fill="#EFECF0"/>
<path d="M73.6405 260.635C73.3298 261.537 72.4491 261.79 71.7238 262.337C71.1536 261.476 71.9884 261.372 72.3682 261.096C72.7481 260.819 73.0071 260.245 73.6405 260.635Z" fill="#EFECF0"/>
<path d="M34.7307 286.559C35.0412 285.019 36.0714 284.174 37.5221 283.718L37.4416 283.661C36.9181 284.988 36.141 286.075 34.65 286.502C34.6846 286.496 34.7307 286.559 34.7307 286.559Z" fill="#EFECF0"/>
<path d="M59.4227 243.574C59.5036 244.694 59.0892 245.188 58.4099 245.373C58.1393 245.453 57.9032 245.103 58.1104 244.856C58.4902 244.367 58.9622 244.005 59.4227 243.574Z" fill="#EFECF0"/>
<path d="M34.6383 262.243C35.1793 261.656 35.657 261.116 36.6991 261.189C36.1524 261.954 35.7323 262.626 34.6383 262.243Z" fill="#EFECF0"/>
<path d="M70.4516 279.126C70.1928 280.338 69.6518 281.35 69.0818 281.126C68.2411 280.771 69.1333 280.162 69.4901 279.748C69.5995 279.552 69.8702 279.471 70.4516 279.126Z" fill="#EFECF0"/>
<path d="M69.9544 248.787C70.0463 247.851 70.5239 247.311 71.5486 246.856C71.405 248.119 70.72 248.482 69.8737 248.73L69.9544 248.787Z" fill="#EFECF0"/>
<path d="M58.323 283.883C58.2309 283.969 57.9604 284.475 57.5632 284.648C57.097 284.832 57.0104 284.316 57.1657 283.971C57.3729 283.511 57.6088 283.011 58.1673 282.953C58.4839 282.935 58.5646 283.205 58.323 283.883Z" fill="#EFECF0"/>
<path d="M72.8496 232.361C72.3777 233.148 71.7216 233.683 70.53 233.989C70.9844 232.673 71.9112 232.483 72.8957 232.424L72.8496 232.361Z" fill="#EFECF0"/>
<path d="M53.1149 291.806C52.9481 292.294 52.7352 292.719 52.1883 292.846C52.1538 292.852 51.9062 292.433 51.9465 292.249C52.0442 291.772 52.2513 291.313 52.8039 291.22C52.9133 291.237 53.0113 291.61 53.1149 291.806Z" fill="#EFECF0"/>
<path d="M233.502 201.027C231.625 202.121 230.917 204.045 229.726 205.626C226.029 204.333 226.454 201.145 225.941 198.504C225.255 195.042 226.493 192.249 229.238 189.983C226.729 194.299 226.736 198.583 229.046 203.261C231.481 201.472 233.605 199.947 233.95 196.702C234.392 192.555 235.313 191.267 238.686 188.719C234.709 193.175 234.526 198.022 237.17 203.211C234.901 203.874 235.062 201.439 233.502 201.027Z" fill="#EFECF0"/>
<path d="M189.321 201.842C188.998 199.275 190.788 197.452 191.76 195.412C196.479 185.838 203.104 177.681 211.162 170.664C211.536 170.353 212.072 170.157 212.498 169.944L212.417 169.887C211.646 172.07 209.856 173.468 208.29 174.935C201.849 180.795 197.147 187.922 193.13 195.537C192.003 197.709 190.84 199.887 189.205 201.79L189.321 201.842Z" fill="#EFECF0"/>
<path d="M224.431 185.655C223.533 187.081 222.635 188.506 221.738 189.932C219.597 193.265 218.44 196.753 220.157 200.645C220.439 201.27 220.681 201.867 219.818 202.225C218.989 202.576 218.672 201.956 218.361 201.371C216.379 197.382 217.645 193.699 219.734 190.267C220.879 188.411 222.537 186.858 223.959 185.168C224.131 185.351 224.298 185.501 224.431 185.655Z" fill="#EFECF0"/>
<path d="M208.549 212.117C210.2 208.83 211.817 205.549 213.509 202.29C213.774 201.75 214.384 201.364 215.173 200.984C211.944 205.032 213.189 209.498 213.835 214.207C211.572 213.63 212.233 211.429 211.024 210.569C209.872 210.479 209.55 211.949 208.468 212.06L208.549 212.117Z" fill="#EFECF0"/>
<path d="M202.68 226.912C202.305 224.248 203.019 222.145 204.78 220.362C205.661 219.471 206.731 219.079 207.238 220.411C208.206 222.799 209.968 224.629 211.811 227.153C207.96 226.63 207.671 223.207 205.644 221.705C203.808 223.04 203.918 225.394 202.68 226.912Z" fill="#EFECF0"/>
<path d="M220.179 179.779C219.322 182.721 218.499 185.656 218.586 188.936C216.006 186.889 216.507 183.936 220.179 179.779Z" fill="#EFECF0"/>
<path d="M238.604 166.815C237.966 168.303 237.287 169.763 236.677 171.211C236.193 172.354 235.29 172.258 234.386 171.949C233.447 171.646 232.929 170.882 232.871 169.9C232.877 169.51 233.331 169.044 233.573 169.216C235.951 170.907 236.319 168.65 237.217 167.437C237.585 167.092 237.821 166.592 238.604 166.815Z" fill="#EFECF0"/>
<path d="M234.96 165.404C237.267 162.219 239.213 161.326 243.024 162.034C239.899 163.089 237.273 163.954 234.879 165.346L234.96 165.404Z" fill="#EFECF0"/>
<path d="M156.593 198.291C153.897 195.555 153.748 195.297 153.712 191.265C155.123 193.968 156.172 195.989 156.501 198.377L156.593 198.291Z" fill="#EFECF0"/>
<path d="M205.011 204.774C204.631 206.537 205.737 208.264 205.041 210.045C203.198 207.733 203.204 207.555 205.011 204.774Z" fill="#EFECF0"/>
<path d="M146.783 201.211C147.031 201.205 147.336 201.118 147.497 201.233C148.66 202.242 149.754 203.263 151.01 204.399C148.056 204.575 147.561 204.162 146.783 201.211Z" fill="#EFECF0"/>
<path d="M189.207 201.789C188.373 203.168 188.183 205.007 186.163 206.089C186.698 203.98 187.25 202.4 189.288 201.846C189.322 201.841 189.207 201.789 189.207 201.789Z" fill="#EFECF0"/>
<path d="M215.774 217.312C216.545 214.066 216.545 214.066 218.767 212.277C219.21 212.593 218.951 212.955 218.75 213.237C217.886 214.444 217.017 215.617 215.774 217.312Z" fill="#EFECF0"/>
<path d="M203.855 189.596C202.927 188.087 203.411 187.368 203.462 186.616C203.514 186.076 203.836 185.668 204.619 185.253C205.005 186.711 204.378 187.844 203.855 189.596Z" fill="#EFECF0"/>
<path d="M208.466 212.058C207.799 212.524 207.298 213.565 206.181 212.831C206.641 211.549 207.874 212.76 208.547 212.116L208.466 212.058Z" fill="#EFECF0"/>
<path d="M203.251 230.536C202.831 230.359 202.704 230.026 202.854 229.646C202.928 229.457 203.285 229.255 203.435 229.301C203.878 229.404 203.982 229.812 203.832 230.191C203.752 230.346 203.447 230.432 203.251 230.536Z" fill="#EFECF0"/>
<path d="M212.496 169.946C212.738 168.843 213.567 168.279 214.948 167.198C214.407 169.059 213.578 169.623 212.45 169.883C212.415 169.889 212.496 169.946 212.496 169.946Z" fill="#EFECF0"/>
<path d="M156.535 198.372C157.335 198.698 158.136 199.024 158.706 199.885C157.123 200.398 157.019 199.141 156.592 198.291L156.535 198.372Z" fill="#EFECF0"/>
<path d="M242.852 164.4C242.535 164.63 242.253 164.854 241.919 164.981C241.614 165.067 241.055 165.126 241.28 164.557C241.378 164.292 241.85 164.142 242.224 164.044C242.356 163.987 242.575 164.233 242.852 164.4Z" fill="#EFECF0"/>
<path d="M234.879 165.347C234.857 166.272 234.506 166.933 233.389 167.049C233.458 165.975 233.976 165.463 234.96 165.405L234.879 165.347Z" fill="#EFECF0"/>
<path d="M159.87 185.839C159.801 186.276 159.519 186.5 159.139 186.564C158.793 186.622 158.655 186.432 158.828 186.191C158.972 185.99 159.156 185.817 159.374 185.639C159.651 185.38 159.806 185.46 159.87 185.839Z" fill="#EFECF0"/>
<path d="M328.034 195.15C324.114 195.7 320.182 195.757 316.353 194.521C310.722 192.701 307.566 188.697 307.789 182.816C308.229 172.081 312.143 167.247 321.29 163.129C325.285 161.326 329.453 160.77 333.944 161.505C341.866 162.799 347.706 169.896 345.296 179.685C343.525 186.924 338.138 193.988 328.034 195.15ZM324.917 163.796C314.831 166.123 308.742 172.598 310.725 182.961C311.52 187.078 314.118 189.653 317.935 191.033C326.808 194.186 335.132 191.092 339.81 182.977C344.431 174.943 341.539 167.848 335.47 164.898C332.033 163.242 328.302 163.442 324.917 163.796Z" fill="#EFECF0"/>
<path d="M275.336 215.915C272.451 213.105 271.437 209.591 271.067 205.686C270.675 201.643 270.041 197.641 269.585 193.645C269.077 189.125 269.059 184.347 271.038 179.836C272.426 180.489 272.029 181.512 271.948 182.305C271.351 189.346 274.283 194.77 279.829 198.835C283.635 201.633 287.378 204.477 290.557 207.982C291.341 208.843 292.003 209.83 292.596 210.828C292.74 211.052 292.597 211.678 292.378 211.857C292.159 212.035 291.624 212.018 291.319 211.892C290.979 211.772 290.673 211.434 290.414 211.158C285.398 205.375 278.367 201.984 272.718 196.662C273.012 201.181 273.065 205.741 274.587 209.949C275.796 213.359 278.986 214.595 282.309 215.349C283.529 215.641 284.928 215.3 286.086 216.488C285.205 218.016 283.674 217.777 282.327 217.79C279.77 217.793 277.565 216.498 275.204 215.76L275.336 215.915Z" fill="#EFECF0"/>
<path d="M300.19 172.403C301.111 173.24 301.013 173.93 300.869 174.556C299.823 179.336 300.164 184.131 300.332 188.955C300.407 190.89 300.385 192.878 300.103 194.802C299.126 201.27 300.515 207.236 303.66 212.872C304.323 214.071 304.956 215.311 305.792 216.906C301.421 214.77 300.182 210.975 299.369 207.18C298.493 203.005 297.991 198.733 298.329 194.391C298.725 189.33 298.764 184.259 299.016 179.187C299.148 177.005 299.021 174.759 300.19 172.403Z" fill="#EFECF0"/>
<path d="M275.222 215.862C277.831 220.419 281.292 224.337 284.748 228.221C286.326 230.011 288.801 230.375 290.805 231.527C287.478 232.013 284.88 230.501 282.583 228.442C281.327 227.306 280.342 225.877 279.334 224.523C277.808 222.406 276.409 220.196 274.882 218.079C274.145 217.069 274.289 216.443 275.343 215.948C275.337 215.913 275.222 215.862 275.222 215.862Z" fill="#EFECF0"/>
<path d="M335.569 224.456C329.525 224.407 323.537 224.064 318.205 220.637C321.331 220.219 323.986 222.077 327.008 222.314C329.962 222.563 332.863 223.139 335.776 223.572C335.69 223.905 335.633 224.198 335.569 224.456Z" fill="#EFECF0"/>
<path d="M282.575 220.545C284.032 220.974 285.552 221.357 286.663 223.119C284.314 223.3 283.946 221.095 282.575 220.545Z" fill="#EFECF0"/>
<path d="M341.072 223.815C340.139 224.609 339.236 224.725 338.136 224.094C339.068 223.3 339.995 223.322 341.072 223.815Z" fill="#EFECF0"/>
<path d="M332.6 208.84C332.548 209.38 332.22 209.754 331.708 209.875C331.431 209.922 331.207 209.64 331.379 209.399C331.541 209.089 331.811 208.795 332.099 208.606C332.312 208.393 332.548 208.53 332.6 208.84Z" fill="#EFECF0"/>
<path d="M326.214 277.593C323.566 277.895 321.24 278.001 319.127 276.62C318.05 275.915 316.8 275.451 315.453 275.464C314.388 275.466 313.346 275.18 312.522 274.503C311.244 273.442 308.958 272.302 309.62 270.739C310.408 268.872 312.268 270.862 313.644 271.022C318.095 271.516 322.148 273.245 326.202 274.974C327.002 275.301 328.269 275.018 328.258 276.224C328.264 277.746 326.859 277.414 326.214 277.593Z" fill="#EFECF0"/>
<path d="M402.586 207.565C402.578 198.606 401.05 189.688 400.904 180.752C405.305 189.436 404.334 198.489 402.586 207.565Z" fill="#EFECF0"/>
<path d="M398.316 174.632C396.307 173.446 396.341 171.953 395.943 170.851C394.854 167.527 394.099 164.076 391.087 161.782C390.638 161.432 390.471 160.646 390.367 160.026C390.102 158.441 391.04 157.682 392.411 158.444C394.87 159.767 397.058 161.597 397.508 164.497C397.998 167.637 398.039 170.854 398.316 174.632Z" fill="#EFECF0"/>
<path d="M372.259 262.053C372.472 262.902 372.208 263.655 371.586 264.184C370.089 265.426 368.806 266.881 367.183 268.002C365.974 268.842 364.961 269.366 363.677 268.483C362.951 267.967 363.141 265.28 364.2 264.607C366.255 263.306 368.494 262.258 370.733 261.21C371.361 260.928 372 261.352 372.259 262.053Z" fill="#EFECF0"/>
<path d="M347.208 274.467C346.857 275.765 346.092 276.07 345.182 276.364C341.987 277.431 338.774 276.694 335.591 276.554C335.303 276.532 334.848 276.147 334.761 275.843C334.56 275.275 334.997 274.918 335.498 274.728C335.866 274.595 336.212 274.325 336.603 274.33C340.109 274.274 343.633 273.897 347.208 274.467Z" fill="#EFECF0"/>
<path d="M388.426 155.64C385.213 153.203 381.124 151.48 379.902 146.301C383.657 148.576 387.279 152.397 388.426 155.64Z" fill="#EFECF0"/>
<path d="M387.043 245.163C387.148 249.396 385.036 251.627 382.52 253.783C381.184 250.466 381.794 249.23 387.043 245.163Z" fill="#EFECF0"/>
<path d="M356.774 269.042C357.304 269.024 357.966 268.949 358.588 269.057C359.169 269.137 359.498 269.613 359.452 270.188C359.44 270.544 359.32 271.095 359.089 271.205C357.023 272.011 354.968 272.887 352.82 273.424C351.796 273.666 351.588 272.638 352.054 271.816C353.044 270.092 354.834 269.544 356.774 269.042Z" fill="#EFECF0"/>
<path d="M307.022 270.075C305.266 269.979 304.437 269.48 303.406 268.201C305.26 267.82 305.962 268.623 307.022 270.075Z" fill="#EFECF0"/>
<path d="M189.002 266.534C177.357 272.062 165.061 275.821 152.218 277.583C158.193 275.094 164.727 274.673 170.805 272.592C176.815 270.523 183.021 268.988 189.002 266.534Z" fill="#EFECF0"/>
<path d="M173.734 285.845C166.148 292.711 143.555 302.409 136.698 301.752C136.945 300.683 137.866 300.883 138.5 300.848C144.93 300.444 150.606 297.652 156.253 294.9C161.41 292.407 166.343 289.421 171.385 286.664C172.07 286.301 172.698 285.807 173.734 285.845Z" fill="#EFECF0"/>
<path d="M181.752 276.676C177.758 279.541 173.129 281.166 168.547 282.855C172.594 280.087 177.291 278.663 181.752 276.676Z" fill="#EFECF0"/>
<path d="M194.387 271.971C191.411 274.134 188.4 276.302 185.418 278.431C188.014 275.694 190.742 273.112 193.989 271.294C194.133 271.517 194.243 271.747 194.387 271.971Z" fill="#EFECF0"/>
<path d="M179.12 275.166C175.977 277.605 172.172 278.42 168.442 279.47C171.867 277.656 175.309 275.946 179.166 275.229C179.201 275.224 179.12 275.166 179.12 275.166Z" fill="#EFECF0"/>
<path d="M158.431 282.032C160.198 280.496 162.432 280.476 164.602 280.29C162.858 281.751 160.67 282.047 158.431 282.032Z" fill="#EFECF0"/>
<path d="M162.665 309.872C164.68 308.543 166.723 307.173 168.738 305.844C167.253 308.005 165.192 309.272 162.665 309.872Z" fill="#EFECF0"/>
<path d="M159.993 286.694C156.948 287.806 154.731 288.78 152.244 288.771C154.558 288.171 156.567 286.595 159.993 286.694Z" fill="#EFECF0"/>
<path d="M182.092 280.618C180.918 282.302 179.197 283.051 177.441 283.806C178.626 282.19 180.233 281.178 182.092 280.618Z" fill="#EFECF0"/>
<path d="M147.629 309.554C146.996 311.29 145.488 311.188 143.467 311.633C144.975 310.034 146.489 310.17 147.704 309.577L147.629 309.554Z" fill="#EFECF0"/>
<path d="M147.696 309.542C149.423 308.827 151.15 308.113 152.877 307.399C151.49 309.083 149.705 309.665 147.656 309.513C147.627 309.553 147.696 309.542 147.696 309.542Z" fill="#EFECF0"/>
<path d="M156.906 305.591C157.084 304.746 158.057 304.194 158.345 304.429C158.944 305.037 158.069 305.325 157.614 305.578C157.459 305.711 157.154 305.585 156.906 305.591Z" fill="#EFECF0"/>
<path d="M165.53 300.251C165.109 300.286 164.937 300.103 165.115 299.896C165.351 299.608 165.627 299.349 165.921 299.194C166.186 299.079 166.37 299.331 166.197 299.573C166.03 299.849 165.743 300.039 165.53 300.251Z" fill="#EFECF0"/>
<path d="M325.413 186.487C319.858 187.453 315.573 183.071 316.677 177.573C317.603 172.92 322.202 168.785 326.796 168.44C330.901 168.142 334.811 172.198 334.542 176.529C334.203 181.296 330.209 185.648 325.413 186.487ZM324.058 178.603C325.158 178.171 325.497 177.229 325.606 176.184C325.658 175.644 325.255 175.144 324.65 175.352C323.712 175.686 323.275 176.468 323.298 177.456C323.31 177.95 323.327 178.478 324.058 178.603Z" fill="#EFECF0"/>
</svg>
