<svg width="51" height="41" viewBox="0 0 51 41" fill="none" xmlns="http://www.w3.org/2000/svg">
<rect x="0.75" y="0.75" width="49.5" height="39.5" rx="19.75" stroke="#CCD7E2" stroke-width="0.5"/>
<path d="M29.0954 12.7051H21.9054C19.5854 12.7051 17.7051 14.5857 17.7051 16.9057V24.0951C17.7051 26.4151 19.5857 28.2957 21.9057 28.2957H29.0951C31.4151 28.2957 33.2957 26.4151 33.2957 24.0951V16.9057C33.2957 14.5857 31.4154 12.7051 29.0954 12.7051Z" stroke="white" stroke-width="0.5" stroke-miterlimit="10"/>
<path d="M25.4997 24.263C27.5781 24.263 29.263 22.5781 29.263 20.4997C29.263 18.4212 27.5781 16.7363 25.4997 16.7363C23.4212 16.7363 21.7363 18.4212 21.7363 20.4997C21.7363 22.5781 23.4212 24.263 25.4997 24.263Z" stroke="white" stroke-width="0.5" stroke-miterlimit="10"/>
<path d="M30.07 16.7357C30.5153 16.7357 30.8763 16.3747 30.8763 15.9294C30.8763 15.4841 30.5153 15.123 30.07 15.123C29.6247 15.123 29.2637 15.4841 29.2637 15.9294C29.2637 16.3747 29.6247 16.7357 30.07 16.7357Z" fill="white"/>
</svg>
