<svg width="322" height="478" viewBox="0 0 322 478" fill="none" xmlns="http://www.w3.org/2000/svg">
<g clip-path="url(#clip0_269_1744)">
<path d="M144.156 215.974C145.849 210.835 148.972 206.309 150.636 201.112C150.695 200.937 151.103 200.908 151.571 200.703C152.359 203.944 152.534 207.214 152.855 210.455C152.943 211.244 153.03 212.237 154.169 212.207C154.957 212.207 155.512 211.507 155.395 210.806C155.22 209.667 157.117 209.842 156.475 208.12C153.906 201.462 153.059 194.484 152.563 187.36C152.388 184.79 152.826 182.805 153.964 180.702C154.519 179.651 155.045 178.804 155.103 177.403C155.161 175.388 156.621 173.549 158.314 172.264C159.978 171.009 161.379 171.125 162.547 172.936C166.663 179.272 172.531 183.973 177.757 189.258C182.603 194.163 187.42 199.185 193.375 202.893C199.944 206.981 206.483 211.127 213.927 213.521C215.387 213.989 216.963 214.28 217.547 215.974C218.189 217.872 218.919 219.741 219.503 221.638L220.671 221.638C220.028 219.741 219.445 217.784 219.328 215.565C229.925 217.434 240.23 219.711 250.798 216.208C250.944 218.047 251.061 219.828 251.09 221.638L253.425 221.638C253.484 220.383 253.542 219.157 253.542 217.901C253.542 215.916 255.06 215.828 256.345 215.448C257.717 215.04 258.009 216.208 258.301 217.054C258.797 218.573 259.352 220.091 259.789 221.638L262.738 221.638C262.388 220.003 261.95 218.368 261.395 216.792C260.753 215.01 260.548 213.697 262.417 212.558C264.256 211.419 264.519 209.784 263.555 207.886C263.234 207.273 263.03 206.601 262.767 205.959C262.183 204.353 262.65 203.477 264.344 202.835C267.438 201.667 270.445 200.207 273.481 198.835C278.794 196.411 283.815 193.404 288.136 189.462C295.785 182.425 303.2 175.126 309.301 166.629C312.775 161.782 316.307 156.906 318.176 151.183C324.423 132.029 323.109 113.488 313.68 95.56C309.943 88.4648 304.747 82.5959 299.404 76.7562C294.617 71.5297 289.158 67.4712 282.502 65.0769C278.444 63.617 274.24 62.5366 270.357 60.7555C256.666 54.5071 242.332 54.8575 227.881 56.4634C223.444 56.9598 223.152 56.9597 221.605 52.726C221.313 51.9668 221.079 51.1201 221.05 50.3025C220.787 43.6745 219.97 37.0173 222.919 30.6812C223.707 28.9585 222.743 27.265 221.05 26.7103C219.503 26.1847 216.146 27.5862 215.241 29.1045C214.044 31.1484 213.956 33.6595 215.766 34.7398C218.627 36.4625 218.54 38.9736 218.481 41.6306C218.364 46.0688 218.072 50.4777 219.24 54.8575C219.766 56.8722 218.89 58.3613 216.876 59.0912C215.825 59.4708 214.803 59.8796 213.781 60.3176C208.76 62.6242 203.505 64.5221 198.688 67.3252C192.353 71.0042 187.361 76.1431 182.515 81.5448C175.742 89.0779 170.517 97.4871 167.131 107.006C164.532 114.335 162.839 121.897 161.175 129.488C159.92 135.241 159.336 141.022 159.774 146.803C160.124 151.387 159.803 155.65 157.438 159.563C155.979 161.986 155.979 164.351 157.497 166.57C158.402 167.884 158.314 168.731 157.38 169.841C156.592 170.804 155.95 171.884 155.22 172.906C151.746 177.812 149.585 183.184 150.315 189.287C150.987 194.922 149.264 199.915 147.046 204.908C144.418 210.893 141.178 216.47 137.558 221.726L141.587 221.726C142.637 219.916 143.542 218.047 144.214 216.032L144.156 215.974ZM254.243 211.915C252.871 211.945 252.725 210.981 252.812 209.93C252.871 209.112 252.987 208.09 254.126 208.324C255.264 208.528 255.235 209.755 255.527 210.601C255.498 211.448 255.002 211.886 254.243 211.915ZM260.519 208.149C260.724 209.054 260.256 209.609 259.497 209.55C258.125 209.463 257.921 208.207 257.717 207.185C257.542 206.222 258.213 205.55 259.118 205.638C260.694 205.755 259.965 207.39 260.519 208.149ZM225.458 207.594C233.019 209.58 240.668 210.28 248.433 209.463C249.543 209.346 250.681 208.82 250.856 210.631C251.002 212.061 250.214 212.529 248.959 212.791C243.412 213.989 237.895 214.718 232.144 213.638C227.794 212.821 223.444 212.207 219.211 210.806C216.496 209.93 214.686 208.324 214.131 204.82C218.248 205.842 221.868 206.66 225.429 207.594L225.458 207.594ZM168.765 155.125C170.955 150.803 172.736 146.278 174.837 141.927C176.268 138.949 177.611 135.854 180.559 133.927C181.114 133.547 181.698 132.992 181.961 132.408C184.238 126.861 188.675 122.598 190.865 116.962C192.149 113.663 194.368 110.743 196.294 107.385C199.622 111.064 202.659 114.422 205.286 118.16C206.775 120.262 207.3 122.714 207.797 125.167C207.942 125.897 208.264 126.685 208.993 126.627C209.986 126.539 210.249 125.605 210.161 124.729C209.84 121.663 209.023 118.685 207.446 116.057C205.578 112.991 203.739 109.926 200.936 107.502C198.134 105.079 197.988 104.378 199.622 101.02C200.644 98.8886 200.352 97.0783 199.564 95.0636C198.104 91.4138 197.287 87.7932 198.455 83.7346C200.557 76.4934 206.979 73.6904 213.635 77.5738C215.182 78.4789 216.554 79.7053 217.956 80.8148C220.35 82.7127 222.685 84.669 225.05 86.5961C228.086 89.1071 231.618 90.6838 235.384 91.7642C236.318 92.027 237.282 92.1438 238.245 92.2314C239.004 92.2898 239.646 91.9686 239.88 91.2094C240.113 90.3919 239.588 89.8371 238.946 89.5743C237.807 89.1363 236.201 89.1947 235.472 88.4064C233.691 86.5085 231.385 86.5961 229.253 85.8661C226.247 84.8442 223.911 82.4791 221.459 80.4644C219.649 78.9753 217.927 77.3694 216.117 75.8511C212.643 72.9604 208.585 72.4641 204.323 73.2232C201.578 73.7196 199.506 75.3839 198.309 77.895C195.594 83.5886 194.28 89.4283 196.907 95.5308C197.725 97.4287 197.725 99.1222 196.966 101.078C196.119 103.298 195.185 105.429 193.871 107.415C189.872 113.4 185.843 119.386 181.961 125.43C176.706 133.635 172.444 142.336 168.649 151.27C168.24 152.234 168.094 153.431 166.663 154.044C163.686 145.08 162.606 136 164.182 126.773C166.05 115.765 169.729 105.283 175.888 95.8812C180.764 88.4064 186.194 81.282 193.521 76.0847C207.651 66.0696 223.327 60.6679 240.901 60.5219C251.557 60.4344 261.512 62.3322 271.204 66.4492C274.765 67.9675 278.59 68.8727 282.181 70.3326C287.377 72.4641 291.873 75.5591 295.668 79.8221C300.163 84.9026 305.01 89.6911 308.425 95.6768C317.3 111.181 320.102 127.532 315.198 144.934C313.505 150.92 309.914 155.884 306.352 160.789C300.952 168.176 294.675 174.834 288.107 181.199C282.151 186.951 275.203 191.243 267.526 194.309C263.672 195.856 259.848 197.491 256.169 199.448C255.002 200.09 254.126 200.294 253.513 198.864C253.192 198.163 253.075 197.491 254.009 197.229C255.469 196.82 256.928 196.353 258.417 196.119C261.395 195.652 263.76 194.367 266.066 192.323C268.577 190.104 270.912 187.418 274.62 186.834C276.196 186.571 277.451 185.345 276.692 183.476C276.167 182.162 277.305 181.053 276.838 179.826C276.575 179.155 276.225 178.571 275.466 178.425C274.765 178.279 274.532 178.921 274.328 179.388C272.693 183.359 268.664 184.878 266.066 187.71C264.752 187.126 265.219 185.433 263.818 185.141C262.709 185.579 262.388 186.688 261.862 187.652C260.928 189.374 260.14 191.272 257.512 190.163C257.162 190.017 256.549 190.542 256.023 190.688C254.943 190.98 254.068 192.966 252.9 191.681C251.615 190.221 249.076 190.133 248.988 187.214C248.871 183.651 247.879 180.148 248.317 176.469C249.251 168.848 254.476 166.016 261.307 169.607C262.767 170.395 264.198 171.242 265.686 172.001C269.452 173.987 273.452 174.746 277.685 174.834C281.392 174.921 284.078 173.257 285.187 170.045C286.297 166.804 288.34 164.643 290.909 162.716C294.033 160.38 294.763 156.818 295.23 153.314C295.434 151.738 295.639 150.482 296.865 149.314C300.163 146.132 300.018 142.511 297.974 138.686C295.872 134.744 292.515 131.708 290.355 127.795C289.888 126.948 289.245 126.189 288.749 125.371C286.472 121.43 286.501 120.233 289.742 116.992C291.347 115.386 291.376 114.393 290.033 112.466C285.479 105.955 279.612 100.991 272.868 96.9907C269.219 94.83 269.803 94.7716 270.678 91.8518C271.437 89.3407 271.788 86.6837 271.642 84.0266C271.467 80.26 270.387 79.6177 266.913 80.9608C264.957 81.6908 263.059 82.5083 261.132 83.3259C255.819 85.6033 250.477 87.1508 244.58 85.7493C242.157 85.1654 239.617 85.5449 237.165 86.9173C238.946 86.9757 240.756 87.2968 242.507 87.0633C244.959 86.7421 247.149 87.4428 249.426 88.0852C255.323 89.7203 261.074 91.8226 266.066 95.3848C273.247 100.524 280.954 105.108 286.297 112.466C287.26 113.809 288.019 114.86 286.91 116.524C283.786 121.079 285.509 125.255 288.194 129.255C290.004 131.97 291.931 134.657 294.121 137.781C290.501 137.693 287.494 137.781 284.662 139.036C283.319 139.649 281.947 138.803 280.575 138.774C278.385 138.744 277.714 139.591 277.977 141.81C278.356 145.168 280.195 147.679 282.56 149.957C284.224 151.562 287.056 152.497 287.494 154.687C287.902 156.818 287.289 159.563 286.18 161.49C284.604 164.235 284.02 167.359 282.297 170.016C281.743 170.892 281.013 171.505 280.02 171.651C276.721 172.147 273.393 172.614 270.211 171.125C267.584 169.87 264.898 168.731 262.388 167.271C255.644 163.329 249.397 166.424 247.528 173.403C246.273 178.075 246.711 182.746 247.295 187.447C247.441 188.674 248.025 189.841 247.528 191.418C245.952 190.601 244.843 191.243 243.704 192.499C242.157 194.192 240.726 194.046 239.004 192.499C236.96 190.63 233.837 190.396 231.501 192.031C230.158 192.966 229.078 194.426 227.239 194.455C225.4 194.455 225.925 195.886 225.692 196.82C225.371 198.221 226.509 198.543 227.414 198.601C231.53 198.951 235.647 199.798 239.821 199.097C241.748 198.776 243.646 198.397 245.572 198.134C246.653 197.988 247.791 197.959 248.871 198.075C250.389 198.251 250.944 199.565 251.031 200.762C251.148 202.105 249.747 201.93 248.871 202.192C241.018 204.353 233.224 203.536 225.458 201.608C218.861 199.973 212.321 198.134 206.016 195.623C199.622 193.053 194.134 188.966 188.996 184.527C181.435 177.958 174.633 170.687 169.466 161.957C168.065 159.592 167.568 157.606 168.882 155.037L168.765 155.125ZM288.924 160.41C288.837 157.169 290.471 155.008 292.953 153.168C293.274 157.227 292.281 159.037 288.924 160.41ZM286.559 143.066C288.107 142.365 289.42 143.825 289.362 145.694C289.304 147.212 288.807 148.643 288.078 149.986C283.553 149.022 281.159 146.774 279.962 142.044C282.181 143.037 284.107 144.175 286.589 143.066L286.559 143.066ZM288.603 140.934C291.376 140.058 293.537 141.168 295.609 141.81C297.244 142.336 297.478 144.73 296.106 146.307C294.88 147.767 293.332 148.847 291.493 149.811C290.355 146.803 290.705 143.62 288.574 140.905L288.603 140.934ZM263.818 91.9686C262.096 91.0342 259.702 91.005 258.651 88.1728C262.65 86.9757 266.241 85.3698 269.773 83.1215C270.532 85.4281 270.328 87.3552 269.919 89.1947C268.81 93.9833 268.139 94.3044 263.847 91.9686L263.818 91.9686ZM162.022 160.118C162.489 161.5 162.051 162.882 160.708 164.264C160.854 162.833 160.971 161.402 162.022 160.118ZM164.007 169.782C162.567 168.147 162.703 166.249 164.416 164.089C167.101 167.826 169.641 171.563 172.385 175.125C177.64 181.987 184.004 187.768 190.806 193.024C196.44 197.375 202.513 200.995 209.344 203.098C211.913 203.886 213.051 205.725 213.518 208.441C207.388 205.579 200.907 203.798 195.214 199.973C187.974 195.126 182.077 189.024 176.064 182.863C171.889 178.6 167.948 174.191 164.007 169.724L164.007 169.782Z" fill="#F9EEED"/>
<path d="M280.808 30.3314C284.808 29.9226 288.807 29.8058 292.836 29.4846C294.062 29.397 295.434 29.4262 296.018 27.9955C296.66 26.3604 295.463 25.4261 294.5 24.4333C293.098 23.0026 291.259 22.3602 289.42 21.7179C288.019 21.2215 286.413 21.0463 285.508 19.2944C287.231 18.3601 288.953 17.6301 290.792 17.1337C297.594 15.265 304.396 13.3963 311.169 11.4984C312.22 11.2065 313.271 10.7977 314.234 10.2721C315.022 9.86333 315.344 9.04577 315.11 8.14063C314.818 7.06029 313.913 7.14788 313.096 7.23548C312.424 7.32307 311.724 7.49826 311.052 7.67345C304.484 9.30856 297.886 10.8853 291.347 12.6664C287.347 13.7467 283.494 15.3818 279.524 16.433C277.451 16.9877 278.327 18.8856 277.392 19.9952C276.692 20.8419 278.443 21.2507 279.202 21.6595C280.779 22.5354 282.472 23.1778 284.019 24.0829C284.749 24.4917 286.063 24.5209 285.8 26.2144C277.276 26.5648 268.926 28.5211 260.431 29.5138C257.132 29.8934 253.921 30.7985 250.71 31.6161C249.396 31.9665 248.783 32.93 249.134 34.098C249.425 35.1199 250.506 34.6527 251.294 34.5067C261.074 32.5212 270.941 31.2657 280.866 30.3022L280.808 30.3314Z" fill="#F9EEED"/>
<path d="M151.307 59.911C155.395 59.5022 159.54 58.7431 163.481 57.4C164.736 56.962 166.605 56.5824 166.517 55.0057C166.4 53.0494 164.328 53.9546 163.131 53.5166C160.854 52.699 158.168 53.6334 155.249 51.5895C161.467 50.8887 165.962 47.7061 170.75 45.3702C175.596 43.0344 181.026 42.2168 185.609 39.3262C183.653 39.5014 181.843 40.2605 179.975 40.4065C174.866 40.8153 170.341 42.7424 165.846 44.9615C161.992 46.8885 157.964 48.3485 153.672 48.9908C152.592 49.166 151.512 49.458 150.432 49.6916C148.914 49.9836 148.388 51.1807 148.388 52.4362C148.388 53.6042 149.673 53.6626 150.548 54.0129C152.096 54.6261 153.906 54.1005 155.453 55.2393C154.752 56.524 153.818 56.1736 153.059 56.2612C144.36 57.3416 135.952 59.2978 128.187 63.6484C125.559 65.1375 123.224 67.1522 120.275 68.145C118.465 68.7289 118.378 70.2472 118.874 71.9699C121.209 71.8531 122.873 70.5392 124.625 69.4881C132.887 64.4952 141.615 60.9038 151.366 59.911L151.307 59.911Z" fill="#F9EEED"/>
<path d="M185.435 14.6512C185.435 12.8993 185.114 11.1474 184.88 8.92832C191.828 11.0014 198.542 12.8117 205.403 14.2132C205.461 11.9065 203.826 11.527 202.192 11.0306C196.382 9.2495 190.573 7.41 184.734 5.5997C183.829 5.30772 182.807 4.51936 182.019 5.33692C181.143 6.27126 181.056 7.4976 181.669 8.81152C182.428 10.3882 183.274 11.9941 183.274 13.8628C181.698 14.1256 180.705 13.1913 179.83 12.4905C174.721 8.49034 168.941 5.89169 162.752 4.25658C157.906 2.97185 153.468 0.635983 148.739 -0.940729C147.484 -1.34951 146.695 -1.64149 145.907 0.13961C144.973 2.24189 146.549 2.32949 147.454 2.73826C150.87 4.22738 154.344 5.6581 157.876 6.88443C164.532 9.1911 171.422 10.9722 177.377 15.0016C178.633 15.8483 179.917 16.6951 181.289 17.3666C184.121 18.7682 185.464 17.9214 185.435 14.7096L185.435 14.6512Z" fill="#F9EEED"/>
<path d="M242.857 8.98613L242.915 9.04453C242.915 9.04453 243.003 8.95693 243.032 8.92773C242.974 8.92773 242.915 8.98613 242.857 8.98613Z" fill="#F9EEED"/>
<path d="M261.162 -2.40254C264.139 -4.27123 264.227 -4.53402 261.016 -7.01588C265.336 -8.94297 269.365 -10.9869 272.897 -13.9067C274.036 -14.8702 276.751 -15.2498 275.408 -17.2353C274.211 -19.0164 272.197 -17.2353 271.116 -16.301C267.409 -13.0015 262.826 -11.3372 258.505 -9.23495C257.512 -8.73858 256.462 -8.359 255.411 -8.00862C254.184 -7.59984 254.33 -6.49031 254.155 -5.61436C253.98 -4.7676 254.768 -4.56322 255.411 -4.24203C256.228 -3.83326 257.366 -4.03764 257.804 -3.0157C257.221 -1.3514 255.761 -0.825826 254.447 -0.0958662C250.185 2.2984 246.069 4.89705 243.062 8.89722C244.609 8.40085 245.923 7.5541 247.266 6.64895C251.849 3.55393 256.491 0.517299 261.191 -2.43173L261.162 -2.40254Z" fill="#F9EEED"/>
<path d="M220.378 225.962C221.02 233.291 221.137 240.649 221.4 247.978C221.429 249.058 220.932 250.518 222.392 250.752C223.823 250.985 223.823 249.379 224.26 248.445C224.436 248.065 224.465 247.627 224.465 247.219C224.231 239.598 224.231 231.977 221.691 224.619C221.37 223.656 220.991 222.663 220.67 221.699L219.502 221.699C219.911 223.101 220.261 224.502 220.407 225.991L220.378 225.962Z" fill="#F9EEED"/>
<path d="M240.288 254.226C240.346 251.481 242.098 249.35 240.58 246.547C238.099 253.146 236.697 259.657 233.661 265.555C233.486 265.905 233.515 266.373 233.545 266.781C233.545 267.015 233.807 267.219 233.953 267.424C234.595 267.482 234.975 267.073 235.296 266.606C239.763 260.095 244.288 253.613 248.696 247.072C249.601 245.7 250.798 244.094 250.798 242.605C250.798 237.671 252.987 233.145 253.191 228.269C253.279 226.079 253.396 223.86 253.483 221.67L251.148 221.67C251.44 233.67 248.988 244.561 240.346 254.197L240.288 254.226Z" fill="#F9EEED"/>
<path d="M260.344 224.269C261.891 235.919 260.607 247.511 258.826 259.015C258.096 263.686 256.024 268.008 253.98 272.271C248.9 282.899 245.222 293.878 245.193 305.79C245.193 310.521 244.551 315.192 243.967 319.864C243.471 323.864 242.42 327.748 241.953 331.748C239.909 349.676 237.924 367.633 239.413 385.677C239.967 392.51 240.084 399.488 242.828 406.087C243.762 408.364 244.813 409.474 246.886 410.058C251.032 411.197 255.119 412.481 259.06 414.262C265.249 417.036 268.869 421.737 270.445 428.19C271.7 433.271 271.7 433.212 266.796 435.402C264.606 436.366 262.154 437.3 262.329 440.804C265.774 439.753 269.073 438.818 272.313 437.738C273.831 437.242 274.328 435.957 274.182 434.409C273.977 432.19 273.89 429.971 273.598 427.781C272.634 420.248 268.81 414.584 262.096 411.021C257.921 408.802 253.571 406.904 248.871 406.116C245.222 405.532 243.412 403.663 242.916 399.868C241.544 389.269 240.464 378.64 241.048 367.925C241.865 353.092 243.003 338.317 245.718 323.689C246.886 317.441 247.674 311.105 247.908 304.681C248.083 299.834 248.638 294.987 249.776 290.257C251.148 284.534 253.747 279.337 256.17 274.052C259.468 266.811 262.563 259.424 263.176 251.511C263.76 244.211 264.052 236.853 263.701 229.466C263.585 226.838 263.234 224.239 262.709 221.699L259.76 221.699C259.994 222.546 260.227 223.422 260.344 224.298L260.344 224.269Z" fill="#F9EEED"/>
<path d="M174.107 476.221C179.099 473.768 180.384 471.228 179.187 465.856C178.983 464.921 178.632 463.987 178.369 463.053C177.552 460.22 175.8 458.381 172.998 457.154C169.466 455.636 165.787 455.198 162.08 454.76C157.672 454.264 153.234 454.03 148.826 453.359C141.645 452.249 135.572 448.512 129.617 444.716C121.968 439.84 113.765 437.533 104.744 438.03C96.1325 438.497 87.6081 438.03 79.1421 436.073C70.4717 434.029 61.6554 432.978 52.7515 433.037C46.9129 433.037 41.1327 432.891 35.3232 432.102C31.207 431.547 27.5286 430.146 24.2006 427.81C22.2155 426.409 22.2155 424.482 24.0839 422.963C25.7187 421.62 27.6746 420.686 29.689 420.335C38.1841 418.905 46.7085 418.029 55.3497 418.788C57.0137 418.934 57.9479 419.576 58.8821 421.095C62.5604 426.993 67.8443 430.818 74.7631 432.102C89.7683 434.905 104.861 434.263 119.954 433.095C132.244 432.131 144.418 429.766 156.825 430.35C160.649 430.526 163.89 431.402 166.605 434.117C168.269 435.781 169.962 437.446 171.626 439.11C173.669 441.154 176.122 441.679 178.895 441.271C181.61 440.862 184.004 439.139 186.894 439.402C187.419 439.46 188.208 438.789 188.529 438.234C189.988 435.781 192.178 436.19 194.396 436.511C197.666 437.008 200.965 437.475 204.235 438.03C205.928 438.322 206.804 437.679 207.329 436.102C208 434.146 208.818 432.277 209.635 430.263C211.007 431.372 211.037 432.832 211.328 434.117C212.934 440.628 217.225 443.665 223.677 444.628C234.245 446.205 244.696 445.504 255.177 443.986C256.257 443.84 257.249 443.227 258.329 442.993C259.293 442.76 259.643 442.088 259.993 441.329C263.175 434.117 259.906 424.861 253.016 421.182C250.301 419.751 247.528 418.554 244.638 417.62C241.018 416.452 238.42 414.175 236.756 410.7C235.179 407.43 233.603 404.218 232.785 400.656C229.72 387.137 226.655 373.618 223.648 360.099C220.524 346.142 218.481 332.01 217.663 317.703C217.284 311.25 217.78 304.914 219.911 298.812C223.298 289.118 225.925 279.19 230.508 269.935C231.209 268.504 232.143 267.015 231.005 265.321C229.516 265.613 229.341 266.84 228.844 267.745C223.794 276.592 220.524 286.198 216.992 295.658C214.832 301.498 213.518 307.717 213.606 313.995C213.839 327.601 215.912 341.062 218.335 354.435C220.408 365.764 223.706 376.801 226.801 387.867C228.319 393.327 229.545 398.904 231.063 404.364C233.486 413.065 237.602 420.277 247.353 422.496C249.192 422.905 250.944 423.956 252.608 424.949C257.249 427.723 259.526 433.299 258.388 438.584C258.067 440.073 257.6 440.716 255.877 440.249C253.571 439.606 251.177 440.044 248.842 440.424C240.814 441.709 232.756 441.796 224.845 440.219C220.641 439.373 217.401 436.862 215.62 432.336C214.598 429.708 214.277 427.022 213.518 424.423C210.861 415.401 206.804 406.816 205.256 397.473C205.11 396.539 204.672 395.604 204.264 394.758C201.111 388.305 197.987 381.852 194.688 375.457C193.2 372.596 192.878 369.413 191.536 366.494C188.032 358.814 184.763 351.018 182.924 342.726C182.456 340.624 181.464 338.814 180.355 337.091C174.282 327.397 169.232 317.353 167.656 305.761C166.897 300.126 166.721 294.432 165.846 288.797C164.795 282.052 162.109 275.716 160.883 269.059C159.482 261.438 155.803 254.722 153.555 247.452C153.555 247.393 153.117 247.452 152.855 247.452C152.271 248.853 152.855 250.197 153.176 251.51C154.402 256.328 155.686 261.175 157.029 265.964C160.007 276.621 160.445 287.629 160.97 298.52C161.437 308.301 164.707 316.915 168.94 325.324C175.217 337.704 181.172 350.23 185.347 363.486C187.682 370.932 190.689 378.056 193.725 385.21C196.79 392.48 200.79 399.342 202.716 407.079C202.95 408.043 203.855 409.036 202.833 410.262C198.746 408.276 194.747 406.116 190.134 405.415C185.463 404.685 180.792 405.619 175.888 405.444C176.676 399.867 178.223 395.02 180.267 390.29C180.763 389.181 181.493 388.042 182.398 387.254C185.522 384.509 186.456 380.713 187.478 376.976C187.653 376.333 187.74 375.603 186.777 375.224C185.814 375.895 185.814 377.093 185.551 378.085C184.763 380.947 183.478 383.545 181.639 385.823C179.946 387.925 178.72 390.203 177.961 392.743C177.085 395.663 176.268 398.612 175.479 401.532C174.779 404.072 173.845 406.291 170.604 406.174C169.641 406.145 168.561 406.262 168.59 407.663C168.59 408.802 169.612 408.802 170.371 409.036C173.932 410.116 177.552 409.649 181.114 409.211C185.055 408.714 188.908 408.831 192.674 409.853C199.797 411.78 205.899 414.934 207.621 423.109C208.409 426.847 207.475 430.234 206.336 433.679C205.869 435.022 205.052 435.197 203.767 435.022C200.352 434.526 196.907 433.942 193.462 433.796C191.068 433.708 190.426 432.686 190.251 430.526C189.842 425.182 187.215 420.803 183.799 416.832C183.099 416.014 182.398 415.08 181.26 414.758C176.589 413.415 171.889 412.16 167.013 412.131C157.029 412.072 147.045 412.189 137.236 414.496C133.616 415.342 129.88 416.014 126.172 416.335C123.107 416.627 120.45 417.766 117.735 418.934C120.479 419.489 123.165 419.605 125.909 419.109C134.084 417.62 142.374 416.773 150.665 416.335C154.256 416.131 157.847 416.277 161.408 417.036C167.334 418.291 173.29 419.489 179.391 419.547C180.296 419.547 181.172 419.722 181.61 420.452C183.799 424.248 187.273 427.285 187.77 432.044C188.178 436.102 187.244 437.65 183.215 438.146C177.747 438.828 173.066 437.134 169.174 433.066C168.969 432.861 168.823 432.628 168.648 432.423C165.787 429.328 162.313 427.664 158.022 427.518C149.556 427.226 141.119 427.343 132.711 428.569C129.559 429.036 126.347 429.095 123.224 429.62C121.326 429.942 119.837 428.569 117.969 428.832C112.743 429.62 107.489 429.445 102.234 429.708C99.5772 429.825 96.9791 430 94.4393 429.27C92.892 428.832 91.4616 429.212 89.9435 429.358C84.4552 429.971 79.0253 428.978 74.3544 426.321C67.1437 422.262 63.0567 415.488 61.0131 407.517C59.0572 399.867 58.9404 392.071 60.1082 384.363C62.2101 370.523 64.779 356.741 69.012 343.368C71.8438 334.375 73.537 325.09 76.6315 316.156C80.8061 304.009 86.2652 292.505 93.3299 281.818C100.453 271.044 108.89 261.263 117.589 251.715C125.53 243.014 133.412 234.225 139.981 224.414C140.594 223.509 141.148 222.575 141.703 221.611L137.674 221.611C132.157 229.641 125.676 236.999 118.845 244.065C107.167 256.153 96.2492 268.796 87.3745 283.132C82.1198 291.658 77.7992 300.564 74.3836 310.024C71.4935 317.995 69.5959 326.229 67.1437 334.317C62.3852 349.997 58.6777 365.91 56.1087 382.056C55.4081 386.436 53.5397 389.473 49.949 391.692C49.3651 392.071 48.7229 392.334 48.139 392.714C42.4755 396.597 35.9947 398.729 29.6598 401.181C22.4199 403.984 15.2092 406.787 8.58233 410.933C5.75059 412.685 3.6487 415.05 2.07229 417.766C-0.204782 421.678 -0.613504 425.883 1.5468 430.088C4.11577 435.139 8.17362 438.701 13.1948 440.979C19.9092 444.015 27.0616 445.738 34.4766 446.117C44.3439 446.614 54.1528 445.534 63.9909 445.271C76.8358 444.92 89.5056 446.176 101.592 450.818C113.619 455.461 125.413 460.717 136.857 466.702C143.484 470.177 150.227 473.447 157.263 476.046C162.839 478.09 168.561 478.966 174.253 476.163L174.107 476.221ZM71.9898 427.197C67.3189 425.708 64.1368 422.817 63.261 417.853C65.976 421.241 69.3624 423.839 71.9898 427.197ZM163.335 472.396C159.248 471.491 155.336 470.177 151.57 468.396C141.061 463.374 130.639 458.235 120.071 453.359C111.109 449.212 101.825 445.796 92.1038 444.044C78.9669 441.65 65.6548 441.358 52.3428 442.672C42.8258 443.606 33.2213 444.395 23.7919 442.03C17.4862 440.453 11.4724 438.176 6.65558 433.329C2.97726 429.62 2.7437 423.81 5.60464 420.16C8.37798 416.598 11.4432 413.649 15.5303 411.576C23.9379 407.284 32.4039 403.225 41.5705 400.772C44.8986 399.896 47.8179 397.823 51.1459 396.889C52.0509 396.626 52.8683 395.984 54.4155 396.247C54.8826 401.999 54.9702 407.692 56.605 413.182C56.8969 414.145 56.2839 414.817 55.3789 415.021C53.3646 415.459 51.321 416.102 49.2775 416.131C42.3296 416.248 35.4692 417.065 28.6672 418.291C25.1348 418.934 22.2155 420.598 20.9018 424.365C19.9968 426.963 20.6099 428.978 22.6826 430.642C25.7771 433.124 29.4262 434.438 33.2797 435.197C37.9214 436.132 42.6215 436.745 47.3216 436.657C60.2833 436.424 73.0115 438.117 85.6521 440.891C92.0454 442.293 98.6139 442.088 105.124 442C113.24 441.884 120.742 443.898 127.603 448.307C129.821 449.738 132.128 450.994 134.405 452.337C141.09 456.308 148.388 458.264 156.124 458.79C159.452 459.023 162.751 459.374 166.05 459.724C168.123 459.958 170.079 460.658 172.035 461.388C174.808 462.41 175.509 464.804 176.063 467.257C176.443 468.863 175.275 469.856 174.078 470.615C170.75 472.688 167.13 473.301 163.306 472.454L163.335 472.396Z" fill="#F9EEED"/>
<path d="M79.2599 350.143C78.8804 348.245 79.9022 346.873 80.9239 345.646C87.5216 337.85 95.4621 332.069 105.534 329.529C107.139 329.12 108.774 328.799 110.467 328.799C122.991 328.799 134.522 331.719 144.711 339.544C154.286 346.902 161.935 355.515 165.613 367.253C168.182 375.399 168.211 383.312 164.504 391.137C162.431 395.517 161.147 400.247 158.49 404.364C157.03 406.642 154.315 407.255 152.155 405.678C151.454 405.153 151.425 404.539 151.892 403.897C152.126 403.576 152.447 403.255 152.797 403.05C157.994 399.838 159.424 394.466 160.942 389.093C161.117 388.422 161.117 387.634 161.497 387.108C164.008 383.546 162.986 379.692 162.519 375.867C161.584 368.567 158.636 362.202 154.461 356.129C143.485 340.157 128.042 333.471 109.241 333.996C103.082 334.171 97.4764 337.062 92.3093 340.42C88.6017 342.843 84.9818 345.413 81.9165 348.683C81.2743 349.384 80.6028 350.114 79.3183 350.114L79.2599 350.143Z" fill="#F9EEED"/>
<path d="M205.52 279.279C209.081 285.411 208.673 292.214 209.111 298.871C209.519 305.178 209.432 311.514 210.95 317.734C211.884 321.588 212.818 325.5 212.497 330.464C210.629 327.281 210.191 324.537 209.578 321.851C208.118 315.222 208.235 308.419 207.271 301.762C206.804 298.521 207.155 295.134 207.213 291.835C207.271 289.032 207.096 286.316 205.783 283.776C205.053 282.374 205.053 280.856 205.549 279.309L205.52 279.279Z" fill="#F9EEED"/>
<path d="M237.281 12.0802C239.587 10.7955 241.193 9.89031 242.77 9.01436C240.697 8.86837 238.945 9.39394 237.281 12.0802Z" fill="#F9EEED"/>
<path d="M242.858 8.98633C242.858 8.98633 242.799 9.01553 242.77 9.04473C242.828 9.04473 242.887 9.04473 242.916 9.04473L242.858 8.98633Z" fill="#F9EEED"/>
<path d="M210.103 180.876C213.723 177.022 217.986 173.927 221.839 170.335C226.831 165.693 231.911 161.109 238.304 158.627C245.865 155.678 253.514 152.758 261.6 151.444C262.447 151.298 263.527 151.502 264.198 150.218C261.162 149.254 258.564 150.772 255.878 150.948C248.697 151.415 242.011 153.721 235.881 157.284C232.64 159.152 230.422 158.481 228.116 156.349C225.109 153.605 221.781 151.444 217.956 150.042C217.197 149.751 216.497 149.254 215.767 148.845C212.205 146.685 211.417 145.02 212.439 140.874C213.169 137.925 214.161 135.035 215.037 132.115C215.426 130.811 215.514 129.214 215.3 127.326C212.235 132.523 210.337 137.808 209.899 143.531C209.578 147.59 211.038 150.772 215.037 152.612C219.299 154.568 223.299 157.108 227.678 158.89C229.984 159.824 230.13 160.729 228.203 161.985C224.087 164.612 220.788 168.233 217.081 171.328C213.49 174.336 210.454 177.927 207.33 182.073C209.023 182.19 209.578 181.46 210.103 180.905L210.103 180.876Z" fill="#F9EEED"/>
<path d="M260.17 111.211C257.25 110.627 254.36 110.977 251.587 111.766C249.135 112.466 246.974 112.174 244.902 110.744C244.347 110.364 243.792 109.926 243.208 109.576C242.712 109.254 242.187 109.138 241.778 109.751C241.457 110.218 241.252 110.773 241.72 111.24C242.303 111.824 242.887 112.408 243.559 112.875C246.887 115.094 250.419 115.299 254.214 114.072C260.111 112.145 263.41 113.693 266.563 118.948C268.198 121.664 268.46 124.963 270.796 128.204C270.037 123.766 268.139 120.525 267.088 116.992C266.067 113.605 263.527 111.911 260.17 111.24L260.17 111.211Z" fill="#F9EEED"/>
<path d="M263.118 124.494C261.833 123.239 260.811 122.421 262.067 120.494C262.621 119.618 262.3 117.954 260.607 118.684C257.95 119.852 257.425 118.684 257.425 116.406C257.425 115.822 256.958 115.443 256.374 115.268C254.301 116.027 255.819 118.655 254.155 119.823C252.988 118.917 251.908 118.071 250.857 117.253C251.382 118.596 252.083 119.735 253.075 120.406C255.031 121.72 256.608 123.414 258.71 124.582C263.702 127.356 264.315 129.078 263.322 134.772C263.176 135.531 262.563 136.29 263.468 137.429C265.949 132.816 265.862 127.21 263.118 124.523L263.118 124.494Z" fill="#F9EEED"/>
<path d="M246.973 163.914C250.506 160.906 254.534 158.746 258.913 157.344C261.19 156.614 263.321 155.767 265.54 154.22C262.066 153.899 259.409 155.797 256.461 156.293C249.63 157.432 244.93 162.016 239.763 165.899C238.682 166.717 237.894 167.943 238.945 169.053C239.704 169.87 240.697 168.79 241.427 168.264C243.324 166.863 245.192 165.432 246.973 163.914Z" fill="#F9EEED"/>
<path d="M189.229 163.329C188.908 153.139 189.521 143.124 193.871 133.663C195.418 130.276 197.082 126.919 198.659 123.532C199.009 122.743 199.885 121.955 198.571 120.729C192.762 131.182 188.412 141.897 187.857 153.927C187.653 158.307 187.916 165.198 188.996 167.417C189.726 165.957 189.288 164.614 189.229 163.329Z" fill="#F9EEED"/>
<path d="M207.096 81.8373C209.168 80.6694 211.299 80.5526 212.993 82.7424C213.343 83.2096 213.781 83.998 214.773 83.268C214.423 81.4285 212.876 80.3774 211.737 79.0635C211.27 78.5379 210.54 78.3335 209.84 78.4795C205.753 79.2678 202.658 81.5161 200.965 85.2827C199.593 88.3485 200.702 91.1224 202.921 93.4582C202.687 91.7355 202.425 90.0128 202.22 88.2901C201.783 84.6111 204.585 83.2388 207.096 81.8373Z" fill="#F9EEED"/>
<path d="M203.009 93.5739C203.009 93.5739 202.95 93.5155 202.921 93.4863C202.921 93.5447 202.921 93.6031 202.921 93.6615L202.98 93.5739L203.009 93.5739Z" fill="#F9EEED"/>
<path d="M232.903 151.738C238.216 151.446 243.121 149.314 248.229 147.825C242.741 147.475 237.545 148.409 232.903 151.738Z" fill="#F9EEED"/>
<path d="M287.64 175.505C287.756 174.22 287.698 173.373 286.822 172.935C285.713 172.41 285.509 173.461 285.1 174.103C284.487 175.067 283.407 175.417 282.531 176.06C281.334 176.965 280.838 178.541 281.451 179.709C282.268 181.228 283.669 179.885 284.691 179.534C286.705 178.863 287.61 177.198 287.64 175.505Z" fill="#F9EEED"/>
<path d="M168.912 134.716C169.35 133.811 169.146 132.847 169.029 131.884C168.824 129.898 168.445 127.913 168.824 125.84C167.248 128.497 166.985 131.475 166.314 134.337C166.197 134.891 166.635 135.359 167.219 135.505C167.978 135.709 168.533 135.388 168.883 134.687L168.912 134.716Z" fill="#F9EEED"/>
<path d="M294.471 168.585C294.471 167.855 294.208 167.271 293.391 167.125C292.369 167.125 290.15 169.928 290.325 171.038C290.442 171.709 290.968 171.943 291.522 171.972C292.923 172.03 294.442 170.278 294.471 168.585Z" fill="#F9EEED"/>
<path d="M308.25 146.773C305.535 148.525 304.747 149.664 304.338 152.963C304.659 150.336 308.688 150.044 308.25 146.773Z" fill="#F9EEED"/>
<path d="M220.291 102.246L220.379 102.333C220.379 102.333 220.379 102.217 220.408 102.158C220.379 102.187 220.321 102.217 220.291 102.275L220.291 102.246Z" fill="#F9EEED"/>
<path d="M225.021 96.9629C222.919 98.16 220.817 99.3864 220.408 102.131C222.13 100.583 224.116 99.2696 225.021 96.9629Z" fill="#F9EEED"/>
<path d="M202.922 93.6326C202.922 93.6326 202.951 93.7494 202.98 93.8078L202.98 93.5742L202.922 93.6326Z" fill="#F9EEED"/>
<path d="M202.979 93.8066C202.979 95.7921 202.979 97.7484 202.979 99.7339C203.388 97.7484 203.855 95.7337 202.979 93.8066Z" fill="#F9EEED"/>
<path d="M225.195 91.6777C227.005 93.0501 228.319 92.9625 230.45 92.6413C228.436 92.2617 227.21 92.0573 225.195 91.6777Z" fill="#F9EEED"/>
<path d="M250.594 147.854C252.199 148.204 253.338 148.175 254.681 147.474C253.221 147.182 252.053 146.92 250.594 147.854Z" fill="#F9EEED"/>
<path d="M297.449 163.854C297.682 163.329 297.507 162.832 297.011 162.511C296.339 162.482 296.076 162.92 295.96 163.445C295.814 163.942 295.639 164.643 296.193 164.876C297.04 165.256 297.215 164.409 297.449 163.854Z" fill="#F9EEED"/>
<path d="M220.291 102.248C220.291 102.248 220.233 102.306 220.204 102.336C220.262 102.336 220.32 102.336 220.35 102.336L220.262 102.248L220.291 102.248Z" fill="#F9EEED"/>
<path d="M220.232 102.336C218.831 102.336 217.78 103.008 216.291 104.701C218.276 103.883 219.503 103.475 220.232 102.336Z" fill="#F9EEED"/>
<path d="M266.738 163.679C266.68 163.358 266.388 163.27 266.125 163.387C265.454 163.679 265.103 164.263 265.074 164.964C265.074 165.256 265.366 165.344 265.717 165.198C266.096 164.73 266.943 164.526 266.767 163.65L266.738 163.679Z" fill="#F9EEED"/>
</g>
<defs>
<clipPath id="clip0_269_1744">
<rect width="478" height="322" fill="white" transform="translate(322) rotate(90)"/>
</clipPath>
</defs>
</svg>
