<svg width="51" height="41" viewBox="0 0 51 41" fill="none" xmlns="http://www.w3.org/2000/svg">
<rect x="0.75" y="0.75" width="49.5" height="39.5" rx="19.75" stroke="#CCD7E2" stroke-width="0.5"/>
<path d="M33.9148 12.7402C34.4848 12.7402 34.9148 13.2402 34.6848 14.1702L31.8948 27.3202C31.6998 28.2552 31.1348 28.4802 30.3548 28.0452L23.6998 23.1302C23.674 23.1117 23.653 23.0873 23.6385 23.0591C23.624 23.0308 23.6164 22.9995 23.6164 22.9677C23.6164 22.936 23.624 22.9047 23.6385 22.8764C23.653 22.8481 23.674 22.8238 23.6998 22.8052L31.3848 15.8652C31.7348 15.5552 31.3098 15.4052 30.8498 15.6852L21.2048 21.7702C21.1755 21.7893 21.1423 21.8015 21.1077 21.8058C21.073 21.8101 21.0378 21.8065 21.0048 21.7952L16.9098 20.5002C15.9998 20.2352 15.9998 19.6102 17.1148 19.1652L33.4998 12.8452C33.6299 12.7834 33.7709 12.7477 33.9148 12.7402Z" stroke="white" stroke-width="0.5" stroke-linecap="round" stroke-linejoin="round"/>
</svg>
