<svg width="60" height="40" viewBox="0 0 60 40" fill="none" xmlns="http://www.w3.org/2000/svg">
<rect x="0.5" y="0.5" width="59" height="39" rx="19.5" stroke="#CCD7E2"/>
<path d="M21.742 28.555C22.942 30 25.174 30 29.64 30H30.36C34.826 30 37.059 30 38.259 28.555M21.742 28.555C20.542 27.109 20.954 24.915 21.777 20.525C22.362 17.405 22.654 15.844 23.765 14.922M38.259 28.555C39.459 27.109 39.047 24.915 38.224 20.525C37.639 17.405 37.346 15.844 36.235 14.922M36.235 14.922C35.125 14 33.536 14 30.361 14H29.639C26.464 14 24.876 14 23.765 14.922" stroke="#18131B"/>
<path d="M27 14V13C27 12.2044 27.3161 11.4413 27.8787 10.8787C28.4413 10.3161 29.2044 10 30 10C30.7956 10 31.5587 10.3161 32.1213 10.8787C32.6839 11.4413 33 12.2044 33 13V14" stroke="#18131B" stroke-linecap="round"/>
</svg>
