<svg width="151" height="226" viewBox="0 0 151 226" fill="none" xmlns="http://www.w3.org/2000/svg">
<path d="M124.986 42.2035C124.29 41.9994 123.567 41.768 122.925 41.4278C121.861 40.8154 120.701 40.4207 119.555 40.0124C116.512 38.9645 113.469 37.8758 110.399 36.8823C108.994 36.406 107.67 35.8208 106.401 35.0995C103.017 33.1533 99.7284 31.0439 96.1124 29.5333C95.4574 29.2747 95.1981 28.8664 95.4028 28.1043C95.6347 27.2197 96.2215 27.2741 96.8219 27.4374C99.4691 28.2132 102.253 28.1315 104.982 28.4717C103.085 26.8794 101.025 25.6546 98.6367 24.9741C96.9447 24.4978 95.3618 23.6677 93.8199 22.8239C91.5548 21.599 89.0304 20.9866 86.7653 19.7754C84.0772 18.3464 81.3208 17.0807 78.0732 16.5092C78.8101 15.6245 79.5606 15.8015 80.161 16.06C81.9894 16.8494 84.0362 17.1352 85.7282 18.3056C86.6288 18.9316 87.6522 19.3535 88.7166 19.6937C91.6913 20.6328 94.3248 22.3475 97.2176 23.4499C98.3638 23.899 99.51 24.3209 100.656 24.7156C102.485 25.328 103.931 26.5936 105.609 27.4374C106.81 28.0498 107.997 28.6895 109.294 29.0569C109.689 29.1658 110.085 29.3563 110.454 29.5741C110.781 29.751 111.054 30.0368 110.945 30.4587C110.822 30.9214 110.426 30.9486 110.058 30.9078C108.721 30.7581 107.397 30.5948 106.073 30.3906C104.559 30.1865 103.085 29.7102 101.557 29.7374C101.27 29.7374 100.943 29.6557 100.602 30.0368C103.754 31.6427 106.551 33.8066 109.908 34.9498C113.415 36.161 116.921 37.3314 120.469 38.4746C122.202 39.0462 123.717 40.1757 125.573 40.4615C126.064 40.5296 126.323 41.0739 126.159 41.6183C125.982 42.2171 125.504 42.3668 124.986 42.2035Z" fill="#EFECF0"/>
<path d="M119.565 19.9348C118.79 19.7871 118.016 19.6125 117.241 19.411C113.722 18.4978 110.338 17.101 106.737 16.3623C104.835 15.9862 102.919 15.637 100.989 15.3684C98.9507 15.0864 96.9124 14.6969 94.9149 14.2268C93.7326 13.9448 92.5504 13.703 91.341 13.5553C90.7975 13.4881 90.0229 13.4478 90.0093 12.6151C90.0093 11.9033 90.5393 11.5541 91.1372 11.3526C92.4281 10.9766 93.7055 10.6408 94.9964 10.2916C89.8191 9.98272 84.6418 9.41863 79.2471 9.62009C79.8857 8.84111 80.6059 8.88141 81.2854 8.84111C82.5627 8.76053 83.8536 8.82768 85.0902 8.97542C87.509 9.24403 89.9142 8.89484 92.3466 9.29776C94.48 9.64695 96.7086 9.32462 98.8964 9.2709C99.8068 9.24403 100.717 9.09629 101.628 9.25746C101.859 9.29775 102.117 9.39177 102.158 9.67381C102.198 10.0364 101.954 10.3453 101.655 10.3051C99.4399 10.0364 97.5511 11.3929 95.4312 11.5407C94.4936 11.5944 93.6647 11.9167 92.7678 12.4137C96.464 13.4747 100.133 14.0119 103.788 14.5894C106.683 15.0461 109.523 15.6907 112.268 16.6578C114.455 17.4099 116.67 18.0277 118.913 18.5649C119.212 18.6321 119.524 18.6724 119.796 18.7932C120.149 18.9275 120.448 19.1559 120.299 19.5991C120.203 19.9483 119.877 20.002 119.565 19.9348Z" fill="#EFECF0"/>
<path d="M63.9847 7.63117C61.615 5.70368 58.7848 4.91939 55.8869 4.26803C55.291 4.1351 54.7223 3.96229 54.14 3.77619C53.666 3.65655 53.4223 3.39069 53.5035 2.87226C53.5712 2.30066 53.991 2.2209 54.4244 2.2209C55.3046 2.24749 56.1983 2.52664 57.3494 1.8487C56.5098 1.82211 55.941 1.78223 55.3858 1.76894C51.6212 1.72906 47.8838 1.68918 44.1192 1.66259C42.4807 1.6493 40.8827 1.14416 39.2306 1.39673C38.9734 1.43661 38.7567 1.31697 38.7432 1.02452C38.7432 0.785248 38.7838 0.519388 39.0275 0.413044C39.8806 0.0807174 40.7744 -0.0655073 41.6952 0.027544C46.6244 0.466215 51.5806 0.373166 56.5233 0.466217C58.0806 0.506096 59.6514 0.798545 61.1816 1.11758C61.8181 1.25051 62.8472 1.35685 62.6712 2.31395C62.5358 3.12483 61.615 3.00519 60.9921 2.95202C60.0035 2.88555 59.0692 3.03177 57.8639 3.37739C60.1931 4.58706 62.8202 5.10549 63.9847 7.63117Z" fill="#EFECF0"/>
<path d="M30.4451 82.1774C29.9039 82.2376 29.9702 81.2749 29.5835 81.1094C29.5062 80.9891 29.4289 80.8537 29.3516 80.7334C29.3737 80.4777 29.3295 80.1467 29.4178 79.9813C29.5835 79.6804 29.7713 79.891 29.8928 80.1167C30.0806 80.5077 30.2684 80.9139 30.4341 81.32C30.5114 81.5456 30.5888 81.7863 30.4451 82.1774Z" fill="#EFECF0"/>
<path d="M84.5303 215.434C85.6509 215.832 86.1446 216.792 87.1185 217.19C88.9863 217.959 90.814 218.85 92.6551 219.701C93.1354 219.921 93.5356 220.305 93.9225 220.717C92.3482 220.552 91.0408 219.646 89.5999 219.111C88.546 218.727 87.5454 218.178 86.4647 217.821C85.4108 217.492 84.637 216.874 84.5303 215.434Z" fill="#EFECF0"/>
<path d="M82.1826 95.6822C82.2771 94.0777 83.6005 93.3733 83.8975 92.1602C84.1001 93.7907 83.6545 94.73 82.1826 95.6822Z" fill="#EFECF0"/>
<path d="M86.9024 88.0512C86.8452 86.8272 86.8452 86.8272 87.3985 85.7031C87.513 86.5399 87.5511 87.3767 86.9024 88.0512Z" fill="#EFECF0"/>
<path d="M57.3997 87.8523C57.9318 86.4393 56.7722 84.7155 54.6304 83.783C54.3029 83.6276 53.9346 83.5004 53.5935 83.4721C51.479 83.3591 49.3508 83.0765 47.3726 84.1927C46.4313 86.3122 47.1816 87.8664 48.8733 89.237C49.76 89.9717 50.7423 90.3956 51.7655 90.7771C53.88 91.5401 56.513 90.1412 57.3997 87.8523ZM53.5663 86.9197C53.0751 86.7219 52.584 86.4252 52.1884 86.0578C51.8882 85.7611 51.861 85.2666 52.1474 84.7297C52.9387 84.772 53.4981 85.1818 54.0983 85.4503C54.453 85.6057 54.7804 85.86 54.5485 86.298C54.3575 86.6795 54.071 87.1317 53.5663 86.9197ZM47.3726 84.1786C47.3726 84.1645 47.3863 84.1645 47.3863 84.1503L47.3454 84.1786V84.1927C47.359 84.1927 47.359 84.1786 47.3726 84.1786Z" fill="#EFECF0"/>
<path d="M48.8025 100.362C48.2491 100.47 48.2761 100.022 48.1411 99.6955C47.2907 97.8464 46.8722 95.7661 45.3468 94.2569C45.0904 94.0122 45.1984 92.4758 45.4549 92.2718C45.6573 92.1087 45.9138 92.1222 46.0893 92.3262C46.8452 93.1828 47.8711 93.8626 48.0736 95.0863C48.3436 96.6907 48.7755 98.1455 50.6249 98.5806C50.7734 98.6214 50.8948 98.7981 51.0703 98.9477C49.3965 98.6078 49.3965 98.6078 48.8025 100.362Z" fill="#EFECF0"/>
<path d="M45.3795 85.4309C44.9901 84.9572 45.3146 84.454 45.6001 84.0247C45.8078 83.7138 46.0025 83.3734 46.2361 83.0773C47.1057 81.9819 47.599 81.9375 48.832 82.6925C49.1175 82.8701 49.481 82.9145 49.8963 83.0625C49.1954 83.5658 48.5335 83.6546 47.8456 83.699C47.2096 83.7434 46.8851 84.0987 47.0928 84.8536C46.963 84.9276 46.7943 85.0016 46.7034 85.1201C46.327 85.6382 45.8468 85.9638 45.3795 85.4309Z" fill="#EFECF0"/>
<path d="M65.1592 57.5277C66.2238 54.0153 69.086 52.0829 71.6163 49.8965C69.57 52.5625 66.8737 54.5937 65.1592 57.5277Z" fill="#EFECF0"/>
<path d="M64.1012 71.9799C63.8025 71.6323 64.1724 71.1912 64.2008 70.8036C64.215 70.6432 64.3288 70.7234 64.4426 70.71C65.7228 70.6298 65.7228 70.6164 66.0642 70.3357C66.6758 69.8144 67.2591 69.2797 67.9134 68.8119C68.2832 68.5445 68.6246 68.6916 68.6815 69.1728C68.6672 69.3466 68.6957 69.5604 68.4681 69.6005C67.2164 69.7609 66.5905 70.6699 65.8651 71.4586C65.6944 71.6323 65.5095 71.7927 65.2819 71.9264C64.912 72.1403 64.4284 72.3943 64.1012 71.9799Z" fill="#EFECF0"/>
<path d="M30.7294 85.7048C30.4207 85.2668 30.5383 84.8023 30.5971 84.3245C30.6265 84.0989 30.7882 83.7671 31.0675 83.8732C32.1553 84.2847 31.9495 83.5016 31.9936 83.0504C32.0377 82.7053 31.8907 82.3469 31.876 82.0019C31.8613 81.8161 31.9936 81.6701 32.1994 81.617C32.4345 81.5373 32.5668 81.6966 32.655 81.8426C33.0813 82.6124 32.8021 83.3556 32.5081 84.0856C31.9789 85.2668 31.9789 85.2668 30.7294 85.7048Z" fill="#EFECF0"/>
<path d="M62.0116 70.4409C61.526 69.5351 61.002 68.8046 60.1458 68.4832C59.9286 68.4101 59.7496 67.9718 59.9924 67.6504C60.1714 67.402 60.4142 67.5189 60.5931 67.665C60.8742 67.8988 61.2321 68.0741 61.3854 68.3955C61.756 69.1114 62.101 69.5643 62.8294 68.8777C62.9955 68.7169 63.2895 68.8046 63.3789 69.1114C63.4428 69.316 63.3406 69.4913 63.1617 69.5351C62.7016 69.6082 62.5738 70.1487 62.0116 70.4409Z" fill="#EFECF0"/>
<path d="M56.6092 84.9427C56.3975 84.849 56.2979 84.5835 56.3851 84.2712C56.4847 83.9588 56.6715 83.8808 56.9081 83.9901C57.5807 84.318 58.3279 84.5679 58.7016 85.6455C57.7799 85.911 57.2319 85.2082 56.6092 84.9427Z" fill="#EFECF0"/>
<path d="M29.9385 89.2259C29.98 88.735 30.1598 88.4282 30.4227 88.195C30.81 87.8146 31.3772 87.6918 31.8752 87.4832C32.0273 87.4218 32.2487 87.52 32.2764 87.6918C32.304 87.8391 32.2764 88.0723 32.1795 88.1459C31.7783 88.4159 31.3633 88.6982 30.8377 88.9191C30.5748 89.0418 30.2705 89.14 29.9385 89.2259Z" fill="#EFECF0"/>
<path d="M51.6572 82.0866C51.9712 81.6246 52.3354 81.486 52.7875 81.6823C52.8252 81.7054 52.8503 81.8902 52.8126 81.9249C52.5363 82.2136 52.1721 82.2482 51.6572 82.0866Z" fill="#EFECF0"/>
<path d="M62.5746 105.38C63.5995 103.985 64.5151 102.55 65.253 101.019H63.4219C63.2169 101.606 62.9709 102.181 62.7113 102.769C62.1373 104.054 61.8231 105.448 61.0305 106.637C61.6591 106.35 62.1783 105.913 62.5746 105.38ZM51.7108 224.906C52.1754 224.072 52.2164 223.156 52.3257 222.24C52.476 220.941 52.517 220.955 53.7879 221.01C56.4799 221.092 59.049 221.734 61.7274 222.322C61.6181 222.883 61.4951 223.402 61.4131 223.949C61.3311 224.428 61.1945 224.974 61.7821 225.22C62.2877 225.412 62.7933 225.644 63.1759 224.892C63.4355 224.373 64.0232 224.291 64.5698 224.469C64.6928 225.015 63.6406 224.687 64.0642 225.467C64.9661 225.166 65.9226 225.439 66.8928 225.412C69.5166 225.344 72.1676 225.125 74.764 225.385C78.317 225.754 81.8426 225.877 85.3819 225.521C90.2194 225.043 95.0433 225.22 99.8671 225.685C102.218 225.918 104.486 225.877 106.727 225.097C107.11 224.974 107.574 224.947 107.998 224.947C109.72 224.92 111.428 224.947 113.136 224.92C116.443 224.865 119.764 224.797 122.989 223.99C125.476 223.375 127.936 222.637 130.423 221.98C132.814 221.338 135.11 220.449 136.927 218.754C138.321 217.442 139.66 216.129 141.286 215.118C142.12 214.598 142.735 213.86 143.35 213.094C144.73 211.358 145.714 209.403 146.971 207.598C147.75 206.505 148.433 205.329 149.212 204.249C150.893 201.884 151.139 199.286 150.62 196.539C150.524 195.992 150.428 195.459 150.387 194.912C150.21 192.164 149.253 189.662 147.9 187.297C147.354 186.34 146.698 185.465 146.343 184.385C146.151 183.811 145.851 183.25 145.085 183.155C144.552 183.838 144.498 184.617 144.675 185.41C144.894 186.504 144.798 187.598 144.703 188.705C144.416 192.3 143.487 195.828 142.899 199.382C142.626 201.091 141.778 202.595 140.781 204.03C139.852 205.384 138.84 206.682 137.952 208.05C135.902 211.221 133.21 213.627 129.89 215.35C126.596 217.059 123.125 218.098 119.395 218.426C117.14 218.617 114.913 218.959 112.712 219.561C112.548 219.602 112.371 219.643 112.179 219.67C110.881 219.848 110.663 219.643 111.1 218.467C111.688 216.772 111.92 215.022 112.193 213.272C112.548 211.016 112.425 208.747 112.876 206.518C113.56 202.95 113.519 199.314 113.546 195.718C113.56 194.187 113.86 192.629 113.546 191.138C112.753 187.352 111.824 183.606 110.335 180.065C109.132 177.18 107.998 174.255 107.055 171.302C105.907 167.734 104.664 164.234 102.764 160.994C102.559 160.638 102.477 160.201 102.259 159.832C100.865 157.179 100.181 154.213 98.6645 151.615C97.4347 149.496 96.2185 147.364 95.6445 144.944C95.4806 144.219 95.0569 143.618 94.565 143.071C91.8456 140.077 89.2765 136.946 85.6962 134.882C85.5323 134.786 85.3956 134.663 85.2589 134.54C83.4825 132.859 81.4463 131.464 79.4102 130.179C77.948 129.249 76.6225 128.21 75.3243 127.076C74.0261 125.968 72.8782 124.683 71.3341 123.877C70.8694 123.644 70.5825 123.207 70.4185 122.756C70.0905 121.867 69.5166 121.17 68.9016 120.486C68.0681 119.557 68.0544 119.311 69.1886 118.709C69.9676 118.326 70.0495 117.738 70.1042 117.082C70.1452 116.535 70.0495 116.002 70.0222 115.442C69.9812 114.84 70.1452 114.416 70.8011 114.17C73.6162 113.104 76.1306 111.518 78.5083 109.659C79.6835 108.756 80.7084 107.799 81.5557 106.542C82.8539 104.628 84.3297 102.864 85.8055 101.073C86.7075 99.9796 87.5957 98.8722 88.443 97.7375C89.8778 95.8236 91.381 93.9917 92.1462 91.6949C92.5152 90.6012 92.8568 89.4665 93.3488 88.4275C94.934 85.1601 95.5625 81.674 95.5899 78.1059C95.6172 73.3893 95.3439 68.7001 94.7973 64.011C94.4147 60.6615 93.6767 57.3805 92.2555 54.2771C91.504 52.664 90.8617 50.9961 90.0281 49.4376C88.6889 46.9631 87.5821 44.3519 85.7099 42.1919C84.1384 40.401 82.6079 38.5691 81.0911 36.7098C78.071 33.0459 74.4497 30.2297 69.8992 28.7259C69.3799 28.5618 68.806 28.4661 68.4643 27.8783C69.0246 26.6889 69.6259 25.4722 69.8036 24.105C70.0769 21.8356 71.0198 19.7713 71.744 17.6249C71.867 17.2832 71.949 16.8867 72.2906 16.6953C73.5888 15.9024 73.9168 14.2619 75.2697 13.4963C75.8983 13.1408 75.8846 12.4436 75.3243 11.9104C74.5454 11.1722 73.5888 10.7484 72.5503 10.5843C71.7987 10.475 71.2657 10.8714 71.0334 11.6233C70.7328 12.6077 70.5278 13.633 70.4731 14.6857C70.2682 18.6503 68.5737 22.2458 67.7674 26.06C67.7401 26.1831 67.6718 26.2787 67.6171 26.3881C66.9612 27.8646 66.9612 27.8646 65.4443 27.4818C64.7337 27.3178 64.0095 27.14 63.2852 27.0307C59.4043 26.5385 55.578 25.8686 51.6561 25.6362C46.7093 25.3628 41.7625 25.1851 36.8157 24.898C35.7225 24.8296 34.5746 24.9116 33.5633 25.3354C31.6775 26.1147 29.7234 26.7299 27.7829 27.3588C26.1841 27.8919 24.5852 28.4114 23.0274 29.054C19.4061 30.5578 16.0718 32.3761 13.1885 34.9325C11.0567 36.8328 9.22551 39.0749 7.99564 41.7408C7.35337 43.1215 6.82043 44.5433 6.12351 45.9104C5.00296 48.1525 3.95073 50.4356 3.13081 52.8007C2.10592 55.7536 1.66866 58.857 1.0264 61.9193C0.438791 64.7355 0.315784 67.6065 0.151801 70.4774C-0.1625 75.6997 -0.148818 80.8674 1.79165 85.8437C2.2016 86.91 2.20161 88.1814 2.73455 89.1794C3.92343 91.4488 5.3036 93.6636 7.02542 95.5502C9.29385 98.011 11.9039 100.157 14.3636 102.44C15.0196 103.056 15.7302 103.616 16.0718 104.546C14.596 105.817 13.0245 106.884 12.3685 108.811C13.0518 108.838 13.2294 108.387 13.4617 108.073C14.1723 107.143 15.0879 106.432 15.9762 105.68C16.6048 105.147 17.0011 105.011 17.6433 105.68C19.2695 107.362 21.2373 108.62 23.2324 109.823C23.943 110.26 24.2573 110.643 23.9977 111.586C23.4374 113.514 23.0684 115.51 22.6175 117.479C22.1802 119.434 22.5492 120.035 24.435 120.445C24.7766 120.514 25.1456 120.596 25.5009 120.678C26.4164 120.855 26.8673 121.293 26.6214 122.332C26.2387 124.013 26.2661 125.75 26.5121 127.445C26.7307 128.894 26.5667 130.261 26.1158 131.615C25.4462 133.638 24.6263 135.634 24.025 137.684C23.2187 140.487 22.0845 143.262 22.4672 146.284C22.6721 147.924 22.7678 149.565 22.8498 151.219C23.0138 154.814 24.2026 158.027 26.4711 160.857C27.4686 162.087 28.3432 163.454 28.5072 165.095C28.6028 165.956 28.8078 166.777 29.0128 167.624C29.6004 170.181 30.2973 172.737 30.68 175.335C31.6229 181.746 33.5633 187.844 35.9821 193.804C37.0616 196.456 38.1959 199.122 39.8904 201.487C40.5326 202.376 41.0382 203.374 41.3525 204.454C42.596 208.911 44.0719 213.34 44.1539 218.057C44.1676 219.52 44.1402 220.764 42.6644 221.639C41.7352 222.199 41.2295 223.32 41.5302 224.346C41.8171 225.344 42.9787 225.289 43.8669 225.426C44.0446 225.467 44.2359 225.426 44.4272 225.439C46.1217 225.576 47.8435 225.467 49.5243 225.918C50.5629 226.191 51.2462 225.767 51.7108 224.906ZM65.048 118.518C64.4058 118.736 63.7909 118.941 63.1076 119.023C60.7572 119.311 58.3794 119.42 56.111 120.117C54.8128 120.5 53.4736 120.377 51.9158 121.006C52.7493 119.174 53.8699 118.217 54.7581 117.055C55.2501 116.412 55.947 116.248 56.6986 116.207C58.5844 116.125 60.4565 115.865 62.315 115.483C64.0095 115.155 65.0617 115.988 65.4717 117.67C65.5674 118.107 65.458 118.367 65.048 118.518ZM67.9314 117C67.8494 117.328 67.6308 117.492 67.3165 117.574C67.0432 117.643 66.8109 117.492 66.7016 117.287C66.3463 116.604 66.0183 115.906 65.622 115.045C67.4805 114.758 68.273 115.524 67.9314 117ZM17.1514 100.69C17.8073 100.103 18.5999 99.8976 19.4198 99.7472C20.0347 99.6378 20.4993 99.8702 20.7317 100.458C20.9366 101.046 20.4037 101.142 20.0758 101.36C18.4633 102.495 18.4632 102.495 17.1514 100.69ZM30.147 110.233C30.1744 109.262 30.1607 108.278 30.147 107.294C30.147 106.528 29.8874 105.858 29.4638 105.229C29.1905 104.792 28.8078 104.491 28.2749 104.532C27.8923 104.559 27.4276 104.778 27.8239 105.202C28.9718 106.391 28.6439 107.786 28.5345 109.221C27.619 109.399 26.9083 108.975 26.3207 108.483C24.4759 106.952 22.2895 105.927 20.513 104.313C20.2534 104.067 19.9664 103.821 19.6794 103.602C19.0645 103.097 19.2285 102.673 19.7751 102.263C20.9503 101.388 21.5242 101.456 22.5628 102.604C22.7268 102.782 22.8908 102.96 23.0411 103.179C23.5057 103.835 24.1206 104.163 24.9132 104.013C25.7878 103.862 25.2412 102.96 25.6102 102.522C26.4437 102.686 26.7307 103.671 27.6053 103.753C28.0562 103.179 27.5506 102.823 27.3593 102.427C27.086 101.894 26.4437 101.62 26.4711 100.909C26.4711 100.896 26.4711 100.896 26.4711 100.882L26.4574 100.868C26.3481 100.745 26.2114 100.649 26.1294 100.499C25.6785 99.6105 25.6785 99.5831 26.8127 99.4464H26.8674V99.4191C26.963 99.0636 26.8947 98.7629 26.4437 98.9133C25.5418 99.214 25.2822 98.7492 25.4325 98.0246C25.8835 95.8646 26.2934 93.7182 27.4823 91.8043C27.7009 91.4488 27.9469 91.0797 28.1519 90.7243C28.3159 90.4372 28.3569 90.1091 28.0836 89.8903C27.8923 89.7536 27.5916 89.7536 27.4003 89.9314C26.5121 90.7926 25.9245 90.2321 25.2822 89.5622C24.1343 88.3455 23.3964 86.869 22.6721 85.3925C22.5082 85.0644 22.3442 84.6816 22.4672 84.3399C22.8635 83.2188 23.1504 82.0295 23.9293 80.9494C24.2983 81.7013 23.9567 82.1798 23.779 82.672C23.533 83.3829 23.3827 84.0938 23.5057 84.832C23.8063 86.705 24.6399 88.1268 27.1543 87.2655C28.0836 86.951 28.7942 86.5136 29.2588 85.9531C29.9557 85.1601 30.1744 84.1075 29.9831 82.6993C29.9011 82.1525 29.86 81.6057 29.7917 81.0588C29.6961 80.9494 29.6004 80.8264 29.5048 80.717C28.9855 80.471 28.4799 80.2659 27.9333 80.1428C26.84 79.8694 25.6512 79.8968 24.3803 80.3069C25.0089 78.2562 25.9654 76.6704 26.4437 74.8932C26.6487 74.1686 26.6214 73.7995 26.0748 73.1706C24.2983 71.1746 22.6311 69.0556 21.6472 66.5264C21.2646 65.5695 21.7702 64.5715 22.0572 63.7375C22.5628 62.2611 22.2212 61.0853 21.5243 59.896C19.6795 56.7516 19.2558 53.2655 18.8185 49.752C18.2993 45.8011 19.4745 42.1235 20.2807 38.364C20.4447 37.5437 20.7863 37.3113 21.5379 37.7214C21.8522 37.8992 22.2212 38.0222 22.4945 38.2683C24.2573 39.8541 26.0611 41.4126 27.7419 43.0942C27.7693 43.1215 27.7966 43.1489 27.8239 43.1762C29.2451 44.6253 30.4613 46.2932 31.8688 47.7697C33.4403 49.4102 34.0553 51.5839 35.2441 53.4295C36.269 55.0564 36.6244 56.943 36.9797 58.8023C37.0753 59.2397 37.1709 59.7182 36.7063 59.937C34.9162 60.8119 34.2192 62.5755 33.2353 64.1067C32.5658 65.132 31.9508 66.1983 31.3222 67.251C31.1719 67.4971 31.0353 67.7842 30.9533 68.0576C30.8713 68.3037 30.9259 68.6044 31.1446 68.7275C31.3495 68.8369 31.6502 68.7822 31.8278 68.6044C32.5931 67.8115 33.3994 67.0459 33.987 66.1163C34.3423 65.5421 34.6839 64.9543 35.0802 64.4211C35.9001 63.3411 36.72 62.4935 38.3872 62.6028C40.068 62.7122 41.7488 62.0833 43.457 61.8783C46.149 61.5502 48.8137 61.5912 51.5194 61.8099C52.722 61.9193 52.9543 62.1654 52.5307 63.3684C52.2711 64.093 52.681 64.1067 53.0636 64.2024C53.4873 64.3254 53.9109 64.2023 54.3072 64.0246C56.0973 63.1633 57.7372 62.1243 58.844 60.4155C60.5932 57.6949 62.3287 54.947 64.1735 52.2812C66.9475 48.2755 70.5005 45.3226 75.4883 44.475C75.8436 44.4203 76.2126 44.4066 76.5679 44.3383C77.3605 44.2015 77.7431 44.516 77.6747 45.3226C77.5654 46.676 77.6747 48.0294 77.3058 49.3419C76.1989 53.3065 76.4722 57.2574 77.4288 61.1537C77.8661 62.9036 77.7158 64.5715 77.1281 66.1847C76.2946 68.3994 75.7206 70.6141 75.8163 72.9792C75.8299 73.6901 75.5976 74.319 75.1877 74.8658C73.9168 76.6157 72.5229 78.1879 70.4321 79.0355C69.1886 79.555 67.9997 80.2659 67.0295 81.1818C65.4307 82.672 64.8977 84.6953 64.6791 86.8143C64.6244 87.4842 64.6244 88.1814 64.7611 88.824C65.089 90.3415 64.8978 91.859 64.9114 93.3628C64.9114 96.0423 64.3511 98.5715 63.4355 101.005C63.2306 101.593 62.9846 102.167 62.725 102.755C62.151 104.04 61.8367 105.434 61.0441 106.624C61.6727 106.35 62.1783 105.913 62.5883 105.366C63.6132 103.972 64.5288 102.536 65.2667 101.005C66.3872 98.7082 67.1115 96.2611 67.2482 93.5952C67.3575 91.3942 66.9748 89.2068 66.8928 86.9921C66.7972 84.8184 67.4532 83.2325 69.2706 82.0021C70.7328 81.0178 72.2086 80.0061 73.5205 78.8167C75.6796 76.8755 77.0325 74.606 77.0872 71.6394C77.1281 69.8348 77.5244 68.0986 78.358 66.5128C79.3419 64.6262 79.5196 62.6712 79.0413 60.6342C79.0003 60.4565 78.9593 60.2787 78.9046 60.0874C77.8661 57.1754 78.0027 54.2635 78.481 51.2285C78.9456 48.4122 78.9729 45.5003 79.1506 42.6294C79.2052 41.6177 78.44 40.7974 77.4561 40.9342C74.1764 41.358 70.8558 41.7134 68.3004 44.1879C65.827 46.5667 63.4902 49.0548 61.7001 52.0077C60.4702 54.0447 59.1037 56.0134 57.7645 57.982C57.2725 58.6929 56.7259 59.3491 56.152 59.978C55.619 60.5795 55.0041 60.8119 54.1979 60.4018C53.2413 59.896 52.1754 59.9096 51.1368 59.9643C47.2696 60.1284 43.4433 59.4038 39.576 59.5815C38.9884 59.6089 38.6741 59.3901 38.5238 58.8159C38.3052 57.982 38.1002 57.1481 38.0182 56.3005C37.5672 51.666 35.5038 47.7697 32.5384 44.2972C31.0899 42.602 29.5457 41.0162 27.8102 39.6354C27.3456 39.2526 26.8673 38.8972 26.3617 38.5554C25.3095 37.8445 24.2573 37.0652 23.5057 35.9989C23.0547 35.3837 22.3852 35.0556 21.6746 34.8232C20.3217 34.372 19.5018 34.8095 18.9962 36.1629C17.8893 39.1706 17.4247 42.3149 16.878 45.4593C16.5091 47.6467 16.2631 49.8204 16.3588 52.0351C16.5091 55.7946 18.149 59.0073 20.0348 62.097C20.6224 63.0677 20.9093 63.9699 20.636 65.0363C19.9937 67.4834 20.759 69.4794 22.3988 71.2703C23.2324 72.1726 23.9157 73.2116 24.8859 73.9772C25.4872 74.442 25.5282 74.9615 25.2685 75.5904C24.5443 77.4086 23.779 79.2132 22.7541 80.8811C22.3715 81.5236 22.0845 82.1935 21.7429 82.8224C20.2807 85.6386 21.4969 87.8533 23.2734 89.9724C23.3144 90.0134 23.3691 90.0544 23.4101 90.0954C24.1207 90.861 25.2549 91.5172 25.4325 92.3921C25.6375 93.3354 25.0362 94.4975 24.6536 95.5228C24.2983 96.5208 24.0797 97.5188 24.0387 98.5715C24.0113 99.0363 23.9157 99.4191 23.3554 99.5148C22.9181 99.5831 22.7268 99.4328 22.5218 99.0226C22.3305 98.6808 21.9342 98.4211 21.6472 98.1203C20.841 97.2044 20.841 97.2044 22.5082 96.4388C19.8571 96.7532 18.8869 95.099 17.985 93.5542C17.3154 92.4195 16.0855 91.8316 15.5115 90.6422C15.4295 90.4919 15.2246 90.4235 15.0196 90.5055C14.6643 90.6559 14.6096 90.984 14.7053 91.2711C15.1289 92.4742 15.6209 93.6636 16.3041 94.7572C16.6184 95.2631 17.1787 95.6185 17.2197 96.2747C16.5501 96.7532 15.7302 96.2884 14.9923 96.7669C15.5389 97.3958 16.2085 97.1634 16.8097 97.1634C17.4383 97.1634 17.9986 97.1223 18.5042 97.6418C19.3925 98.5851 19.3378 98.9953 18.1216 99.5558C17.7936 99.7198 17.4657 99.8976 17.1514 100.089C16.4681 100.444 15.8395 100.335 15.3202 99.7882C13.3798 97.7512 10.8654 96.2884 9.04789 94.142C7.05276 91.7906 4.89363 89.4665 4.1967 86.2812C3.99172 85.3379 3.67746 84.3946 3.33583 83.4786C1.72333 79.3773 1.81895 75.0982 2.10592 70.8192C2.22891 68.9325 2.14692 67.0186 2.44755 65.132C3.03516 61.4545 3.62276 57.7496 4.79798 54.2088C5.75454 51.2558 7.28507 48.5079 8.48761 45.6507C9.40318 43.477 10.5784 41.5494 12.0406 39.7038C14.9239 36.0946 18.5862 33.6885 22.8498 32.1163C24.4623 31.5148 25.9245 30.6125 27.5506 30.052C27.6326 30.0246 27.7009 29.9973 27.7829 29.9699C29.9694 29.2317 32.2651 28.9446 34.3559 27.8646C34.8205 27.6459 35.4355 27.7279 35.9958 27.7005C39.3027 27.5365 42.5961 27.8919 45.9031 28.0013C48.9641 28.1107 52.0251 28.1654 55.0587 28.5618C59.4726 29.1497 63.9275 29.5872 68.2321 30.8586C72.9602 32.2667 76.7455 34.9599 79.8338 38.8151C81.132 40.442 82.3892 42.0962 83.7968 43.641C86.1335 46.1975 87.6094 49.3282 88.9212 52.4999C89.4132 53.6209 89.9461 54.7283 90.4518 55.8356C92.0233 59.3491 92.7748 63.0813 92.9252 66.8682C93.0891 70.8465 93.5537 74.7974 93.4171 78.7757C93.3351 81.4279 92.9935 83.9981 91.7636 86.4179C91.34 87.2245 91.0667 88.1131 90.807 88.988C90.0828 91.4352 88.8666 93.6225 86.9945 95.3451C85.6553 96.5755 85.1223 98.3391 83.8651 99.6105C83.4005 100.089 82.9495 100.567 82.5123 101.06C81.378 102.345 80.3258 103.698 79.4102 105.188C78.563 106.555 77.0462 107.348 75.7616 108.223C72.9056 110.192 69.9265 112.092 66.1823 111.914C65.827 111.901 65.4443 111.969 65.1027 112.079C63.2442 112.68 63.3262 112.01 62.9299 110.602C62.766 109.959 62.9026 109.249 62.5336 108.374C61.905 109.153 62.0963 109.932 62.11 110.643C62.151 112.666 62.1647 112.68 60.1149 112.953C59.582 113.022 59.049 113.035 58.4341 113.076C58.3657 111.627 59.582 110.698 59.5546 109.385C59.541 109.399 59.5273 109.426 59.5136 109.44C58.762 110.233 58.5161 111.313 57.9421 112.215C57.5048 112.899 56.9855 113.295 56.1793 113.35C54.5395 113.459 52.9133 113.746 51.2462 113.787C47.3926 113.842 43.5663 113.992 39.7127 113.733C36.7063 113.528 33.823 112.817 31.0489 111.627C30.4203 111.299 30.1197 110.93 30.147 110.233ZM24.6399 84.4902C25.1319 85.3652 25.4189 85.871 25.7468 86.4589C24.6946 86.0624 24.6946 86.0624 24.6399 84.4902ZM19.3105 55.9724C18.6272 55.2888 18.6409 54.4549 18.3812 53.5116C19.2148 54.5916 19.2148 54.5916 19.3105 55.9724ZM18.2446 51.83H18.2036V50.2715H18.2446V51.83ZM29.1358 43.2036C30.3793 43.682 31.0353 44.7211 31.8415 45.6097C31.7732 45.6917 31.6912 45.7874 31.6092 45.8694C30.7893 44.9808 29.9557 44.0922 29.1358 43.2036ZM38.8518 61.2904C38.4145 61.5638 38.0319 61.6732 37.5263 61.4135C37.9635 61.0853 38.3598 61.0307 38.8518 61.2904ZM25.6785 116.057C25.8698 115.168 26.0065 114.266 26.2251 113.377C26.3071 113.008 26.3071 112.434 26.922 112.543C27.4003 112.612 27.8786 112.803 27.9743 113.391C28.0016 113.569 28.0289 113.76 28.0153 113.938C27.7966 115.565 27.7009 117.205 27.127 118.777C25.2685 117.902 25.2822 117.916 25.6785 116.057ZM39.535 121.019C37.048 120.869 34.5609 120.65 32.0875 120.445C31.3495 120.377 30.6253 120.322 29.9147 120.09C28.6438 119.693 28.5618 119.625 28.8488 118.285C29.1085 116.959 29.4501 115.674 29.4364 114.239C30.2563 114.143 30.7893 114.403 31.2539 114.608C35.5448 116.522 40.109 116.822 44.7005 116.822C47.3926 116.822 50.0846 116.727 52.763 116.686C53.0636 116.686 53.3779 116.617 53.7059 116.918C53.0636 118.354 51.7654 119.338 50.9728 120.678C50.8772 120.842 50.5219 120.896 50.3033 120.91C46.7093 121.06 43.129 121.252 39.535 121.019ZM50.1529 224.715C49.415 224.181 48.6634 224.373 47.8982 224.414C47.1602 224.441 46.6273 224.127 46.19 223.539C45.9577 223.211 45.9851 222.664 45.4384 222.568C44.6869 224.113 44.6868 224.113 42.719 223.922C42.5687 223.156 43.1153 222.828 43.6346 222.5C44.8235 221.789 45.1924 220.695 45.1924 219.383C45.2198 215.391 44.9055 211.44 43.7986 207.585C43.457 206.354 43.088 205.11 42.9787 203.812C42.965 203.688 42.9514 203.565 42.9104 203.456C41.6805 200.749 41.1202 197.728 39.3574 195.253C38.7015 194.337 38.3325 193.326 37.9909 192.246C37.0753 189.266 36.31 186.231 35.1348 183.36C33.7 179.928 32.8527 176.387 32.2241 172.751C32.0055 171.425 31.8005 170.099 31.6775 168.745C31.4179 165.806 30.5297 163.113 28.9172 160.652C28.8488 160.556 28.7668 160.461 28.7258 160.351C27.9332 158.164 27.004 156.127 25.4462 154.295C24.5716 153.283 24.6673 151.629 24.8176 150.207C25.1729 146.803 25.6375 143.413 25.7605 139.981C25.8015 138.628 26.0748 137.329 26.5257 136.03C27.1817 134.185 27.7146 132.312 28.3022 130.425C28.9172 128.47 29.0948 126.474 28.5755 124.451C28.4799 124.109 28.3432 123.74 28.3159 123.384C28.2202 121.785 28.3022 121.17 30.1743 121.676C32.7161 122.345 35.3671 122.387 37.9772 122.646C40.7786 122.92 43.6073 122.318 46.3813 122.961C46.6546 123.029 47.0919 123.056 47.2696 122.892C48.3628 121.894 49.6883 122.209 50.9319 122.25C52.9953 122.291 54.8948 121.498 56.8489 121.088C58.6937 120.719 60.5932 120.459 62.438 120.199C63.6542 120.021 65.0344 120.226 66.3462 119.953C66.6605 119.885 67.0022 119.953 67.1662 120.254C67.7674 121.32 68.888 122.004 69.2979 123.22C69.5303 123.931 69.9949 124.519 70.6235 124.957C73.8621 127.267 76.6908 130.07 79.7382 132.626C81.8836 134.431 83.9744 136.29 86.2838 137.876C89.0442 139.776 91.0257 142.469 93.2668 144.875C93.6358 145.272 93.8817 145.791 94.0047 146.338C94.6196 148.867 95.8632 151.123 97.1887 153.324C97.995 154.65 98.3503 156.127 98.9515 157.535C99.9491 159.9 100.906 162.279 102.231 164.48C103.283 166.284 104.008 168.267 104.595 170.235C105.729 174.132 107.301 177.836 108.722 181.623C109.884 184.754 110.772 188.021 111.428 191.33C111.77 193.08 111.414 194.857 111.524 196.634C111.674 199.245 111.66 201.925 111.196 204.495C110.649 207.407 110.676 210.333 110.348 213.258C110.089 215.596 109.214 217.756 108.995 220.08C108.954 220.381 108.886 220.682 108.845 220.982C108.818 221.229 108.845 221.488 109.105 221.611C109.364 221.734 109.651 221.625 109.747 221.42C110.171 220.545 110.854 220.654 111.619 220.777C112.48 220.914 113.314 220.613 114.147 220.463C117.113 219.93 120.133 220.039 123.071 219.397C127.813 218.371 132.076 216.457 135.643 213.026C137.802 210.962 139.387 208.555 140.958 206.095C141.122 205.835 141.273 205.561 141.478 205.329C143.405 203.032 144.047 200.257 144.498 197.386C144.99 194.269 145.728 191.207 146.069 187.844C146.876 188.473 147.149 189.129 147.463 189.771C148.994 192.875 149.103 196.265 149.417 199.601C149.527 200.749 149.048 201.761 148.488 202.718C148.119 203.36 147.764 204.017 147.34 204.604C145.55 207.079 144.32 209.909 142.393 212.301C142.093 212.684 141.806 213.067 141.368 213.327C139.633 214.366 138.184 215.774 136.722 217.182C134.918 218.932 132.65 219.984 130.286 220.572C127.785 221.188 125.38 222.049 122.879 222.664C119.941 223.389 116.949 223.402 113.942 223.525C112.794 223.566 111.619 223.594 110.471 223.717C109.419 223.826 108.367 224.168 107.315 223.43C106.877 223.115 106.139 223.334 105.538 223.512C103.693 224.086 101.821 224.14 99.9081 223.963C95.3986 223.539 90.889 223.471 86.3658 223.922C82.7309 224.277 79.0686 224.428 75.3926 223.922C73.0559 223.607 70.6371 223.416 68.2594 223.963C67.4941 224.14 66.7972 223.922 66.114 223.648C65.1027 223.211 64.1188 222.705 62.9163 223.252C64.6244 220.805 66.8655 219.711 69.7489 220.025C73.4522 220.449 77.1691 220.805 80.8587 221.283C83.2911 221.584 85.7099 222.008 88.115 222.432C88.8529 222.555 89.5772 222.623 90.3151 222.637C90.5474 222.637 90.807 222.568 90.8617 222.268C90.9164 222.021 90.8207 221.789 90.6157 221.625C90.1101 221.229 89.4815 221.201 88.9076 221.01C88.5113 220.859 87.828 220.873 87.7323 220.627C87.1037 219.068 85.4776 219.068 84.3297 218.358C82.9085 217.469 81.5967 216.512 80.6674 215.104C79.9568 214.024 78.9046 213.272 78.0711 212.288C75.8026 209.649 74.3131 206.573 72.8236 203.497C72.0993 201.993 72.3453 200.366 72.6733 198.808C72.9466 197.482 73.4249 196.224 73.7118 194.898C73.9851 193.64 74.805 192.67 75.6523 191.658C77.9617 188.855 80.9271 186.969 83.9198 185.055C85.382 184.111 87.1311 183.852 88.4976 182.731C88.7982 182.471 89.3858 182.403 89.1399 181.828C88.8802 181.213 88.3199 181.446 87.8553 181.582C83.9744 182.731 80.6128 184.863 77.5518 187.393C73.7255 190.551 71.4297 195.294 70.9651 200.284C70.8011 202.021 71.0471 203.647 71.826 205.274C72.8509 207.434 73.9714 209.54 75.256 211.563C75.9939 212.725 76.8685 213.887 77.866 214.83C79.3419 216.211 80.4214 217.961 82.0476 219.178C82.1842 219.274 82.3483 219.397 82.2389 219.67C81.6923 220.053 81.0637 219.848 80.5035 219.752C76.8958 219.137 73.2199 218.822 69.5849 218.467C67.6991 218.303 65.745 218.631 64.2008 219.848C62.8479 220.9 61.4814 221.023 59.8963 220.654C57.7371 220.148 55.537 220.189 53.3233 220.135C51.6698 220.107 51.4102 219.875 51.4648 218.631C51.5331 216.949 52.1754 216.321 53.6239 216.403C56.9172 216.608 60.2105 216.608 63.4765 215.897C62.356 215.514 61.2218 215.268 60.0466 215.254C58.1061 215.213 56.1383 215.145 54.1842 215.036C52.4897 214.94 52.5307 214.858 52.4897 213.176C52.4214 210.374 52.2437 207.585 51.8748 204.782C51.5058 201.816 50.9865 198.849 50.8499 195.855C50.7679 194.064 50.3989 192.328 49.948 190.619C49.333 188.363 49.1964 186.025 48.6771 183.756C48.5404 183.1 48.7181 182.717 49.5517 182.826C51.6561 183.127 52.5854 184.166 52.9406 186.586C53.4326 189.73 53.05 192.793 52.2984 195.855C51.9977 197.14 51.8747 198.37 52.2437 199.656C52.394 200.189 52.517 200.79 52.927 201.146C55.3867 203.265 56.6166 206.423 59.4316 208.323C61.3584 209.635 62.8616 211.577 64.5014 213.299C65.499 214.366 65.4717 214.653 64.8567 216.033C65.417 216.293 65.6766 215.938 65.827 215.528C66.2506 214.434 66.2642 213.299 65.3897 212.424C63.3535 210.333 61.6181 207.927 59.1857 206.218C58.2564 205.561 57.6005 204.7 57.0129 203.757C56.3023 202.608 55.4961 201.556 54.4848 200.64C53.091 199.409 52.8313 197.81 53.6376 195.937C54.4438 196.06 55.0178 196.675 55.7284 196.99C57.6962 197.878 60.0876 197.29 61.1945 195.541C61.7411 194.666 62.356 193.845 63.0119 193.039C64.4058 191.303 64.8158 189.142 64.0095 187.133C63.3262 185.41 62.9983 183.633 62.602 181.856C62.315 180.475 62.069 179.094 61.5634 177.768C60.9075 176.169 61.3311 174.815 62.602 173.639C64.0778 172.286 65.909 171.548 67.5488 170.468C69.9402 168.882 72.4 167.392 74.8187 165.847C77.8661 163.906 80.6811 161.664 83.6465 159.64C85.4913 158.369 87.0764 156.892 88.5523 155.252C90.3014 153.297 90.2878 150.604 89.0032 148.334C87.5957 145.832 85.7372 143.823 83.6738 141.854C82.2253 140.487 81.1184 138.737 80.2711 136.892C79.7519 135.771 79.1369 134.718 78.2897 133.816C78.071 133.569 77.7977 133.2 77.3741 133.446C77.1008 133.597 76.9505 133.898 76.8958 134.198C76.4995 136.044 76.4585 136.058 77.6474 137.794C80.1481 141.499 82.6899 145.176 85.8192 148.416C87.7324 150.426 87.7324 152.107 85.8739 154.213C83.8378 156.537 81.2824 158.273 78.727 159.968C77.3468 160.871 75.9803 161.773 74.7367 162.88C73.4385 164.029 71.9627 164.89 70.5005 165.806C68.0134 167.364 65.581 169.019 63.2716 170.837C62.643 171.343 62.11 171.903 61.5771 172.505C59.8826 174.432 59.4043 176.483 60.6342 178.875C61.5771 180.748 61.5771 182.922 62.1374 184.918C62.3833 185.848 62.4653 186.805 62.9982 187.68C63.3262 188.24 63.6269 188.951 62.52 189.211C62.0144 189.334 62.0281 189.84 62.397 190.031C63.0529 190.387 63.0529 190.783 62.7796 191.385C62.479 192.109 62.0553 192.656 61.2081 192.752C60.4702 192.847 59.6503 192.656 58.967 193.121C59.1857 193.818 59.7186 193.572 60.0739 193.668C60.9212 193.914 61.0031 194.214 60.4565 194.953C60.1559 195.376 59.7459 195.705 59.295 195.787C57.8055 196.06 56.3296 196.415 54.8948 195.554C54.1842 195.117 53.7879 194.638 53.9109 193.777C53.9929 193.23 54.0065 192.683 54.0885 192.136C54.5121 189.566 54.1295 187.01 53.8699 184.453C53.7742 183.496 53.5146 182.553 52.9406 181.705C52.0661 180.42 51.5878 178.957 51.0822 177.522C50.4126 175.704 50.5629 173.899 51.4785 172.204C51.9841 171.274 52.2437 170.249 52.722 169.36C53.9792 167.091 55.0041 164.74 57.1222 162.949C60.2106 160.337 62.9436 157.33 64.4331 153.447C64.7611 152.559 64.6654 152.34 63.8592 152.121C59.5409 150.986 55.3184 149.537 51.2462 147.692C51.0822 147.61 50.9318 147.487 50.7542 147.446C50.3306 147.323 49.8523 146.721 49.4833 147.309C48.9914 148.074 49.7156 148.362 50.2486 148.676C52.845 150.207 55.6327 151.315 58.4887 152.23C59.7049 152.627 60.8802 153.187 62.0554 153.68C62.6293 153.912 62.7523 154.281 62.479 154.842C62.233 155.348 61.905 155.771 61.5087 156.168C60.2515 157.439 59.131 158.806 58.1608 160.296C57.4775 161.335 56.7122 162.265 55.701 162.99C55.414 163.195 55.0587 163.454 54.9358 163.769C54.4301 165.054 53.337 165.97 52.7903 167.146C51.7791 169.415 50.5629 171.63 50.0026 174.091C49.62 175.676 49.825 177.249 50.4672 178.766C50.8225 179.6 51.3555 180.379 51.3282 181.336C50.0026 181.487 45.4658 180.311 44.5638 179.545C44.2359 179.286 43.9216 178.971 43.6619 178.643C41.7078 176.046 39.1934 173.968 36.9797 171.63C36.2281 170.837 35.8728 169.894 35.7908 168.827C35.7225 168.034 35.6404 167.241 35.5585 166.448C35.2305 163.468 34.3422 160.72 32.2514 158.451C31.8688 158.027 31.7732 157.467 31.7048 156.906C31.6502 156.428 31.6365 155.935 31.2129 155.553C30.3383 157.002 30.229 159.203 31.1856 160.269C33.167 162.443 33.782 165.095 34.0143 167.857C34.2056 170.235 35.0392 172.218 36.7747 173.858C37.7996 174.829 38.6878 175.909 39.8767 176.729C40.5736 177.221 41.0519 177.946 41.5438 178.657C42.5687 180.161 43.8396 181.391 45.6024 181.965C46.4907 182.239 46.682 182.785 46.7913 183.701C47.1602 187.092 47.7205 190.482 48.8548 193.722C49.2237 194.802 49.2783 195.882 49.4697 196.962C50.4672 202.622 51.4375 208.296 51.4921 214.079C51.5058 214.953 51.3555 215.733 51.0822 216.567C50.5219 218.235 49.9753 219.916 51.5194 221.543C52.189 222.254 51.8747 223.416 51.3965 224.318C51.1505 224.756 50.5492 224.988 50.1529 224.715Z" fill="#EFECF0"/>
<path d="M51.968 17.2367C50.4796 17.0077 48.9229 17.2367 47.4072 17.3083C45.3998 17.4084 43.3652 17.1079 41.3715 17.4514C41.0711 17.4943 40.7024 17.6088 40.5932 17.2081C40.4703 16.7644 40.4976 16.3207 40.9892 16.0918C41.986 15.6052 42.9828 15.1186 44.007 14.6606C44.84 14.3028 45.6593 13.9164 46.5196 13.072C43.4745 13.3439 40.6342 13.5443 37.8212 13.8878C36.0051 14.1168 34.1616 14.1168 32.3318 14.3314C30.7615 14.5175 29.1911 14.7322 27.6208 14.9755C26.4737 15.1472 25.3131 15.3189 24.166 15.4907C23.019 15.6624 21.8719 15.8771 20.7113 15.7053C20.3562 15.6481 19.9329 15.5336 19.9602 15.047C19.9739 14.5461 20.206 14.2885 20.7796 14.2599C23.0873 14.174 25.3404 13.759 27.6208 13.4012C28.6039 13.2581 29.5871 13.1149 30.584 13.0148C35.0082 12.5282 39.4735 12.3421 43.8978 11.8269C45.8641 11.5979 47.7895 11.8984 49.7149 11.8698C50.1518 11.8698 50.6571 11.8698 50.7526 12.428C50.8755 13.072 50.3703 13.2437 49.8787 13.4298C48.2538 14.1024 46.6288 14.8037 44.8673 15.5193C45.3315 16.1347 45.6456 16.0202 45.9187 16.0059C49.7012 15.8771 53.47 15.963 57.2389 16.2492C59.9699 16.4496 62.7009 16.793 65.4456 16.5927C65.5412 16.5927 65.6368 16.7215 65.746 16.793C65.6914 17.3512 65.2135 17.1938 64.9131 17.3083C63.7934 17.6517 62.6054 17.6231 61.4583 17.5945C58.304 17.4943 55.136 17.7376 51.968 17.2367Z" fill="#EFECF0"/>
<path d="M10.7711 81.5957C12.1868 83.3633 13.2021 85.035 13.4881 87.0493C13.5596 87.4878 13.3451 87.9126 12.8303 88.0359C12.387 88.1318 12.1439 87.8029 11.9151 87.5015C10.6281 85.8161 10.2992 83.9251 10.7711 81.5957Z" fill="#EFECF0"/>
<path d="M71.0757 104.695C70.8806 104.16 71.3404 103.794 71.7166 103.457C71.7584 103.414 71.8141 103.372 71.8698 103.358C73.5417 102.908 75.1161 102.219 76.5511 101.206C76.6626 101.136 76.788 101.051 76.8994 100.967C76.8437 101.051 76.8019 101.122 76.7462 101.206C75.8823 102.528 75.0604 103.837 73.5557 104.47C73.1655 104.624 72.7475 104.849 72.3435 104.906C71.9116 104.934 71.3125 105.384 71.0757 104.695Z" fill="#EFECF0"/>
<path d="M9.26097 75.1387C10.3029 76.3227 10.62 77.5201 10.5596 78.8106C10.5596 78.9436 10.3784 79.1166 10.2274 79.1964C10.0311 79.3161 9.81971 79.2097 9.74421 79.0501C9.12507 77.866 8.26431 76.6952 9.26097 75.1387Z" fill="#EFECF0"/>
<path d="M8.62672 68.6797C9.04164 69.8537 8.58523 70.8776 8.73046 72.2018C8.06657 71.0823 8.06657 70.823 8.62672 68.6797Z" fill="#EFECF0"/>
<path d="M59.2891 109.771C59.2995 109.057 59.3415 108.359 59.8761 108.01C59.8237 108.708 59.614 109.27 59.2891 109.771Z" fill="#EFECF0"/>
<path d="M33.1514 103.121C32.8005 102.848 32.382 102.779 31.9501 102.848C29.9389 103.107 28.2922 102.356 26.8749 100.964C26.767 100.855 26.605 100.787 26.443 100.719C26.4295 100.719 26.4295 100.705 26.416 100.705C26.416 100.691 26.416 100.691 26.4295 100.678C26.5375 100.2 26.659 99.7223 26.767 99.2446C26.7805 99.231 26.7805 99.2173 26.7805 99.2037C26.794 99.2037 26.8075 99.2173 26.821 99.2173C27.3879 99.4493 27.6578 100.036 28.0763 100.432C28.5622 100.923 29.0481 101.319 29.7365 101.469C30.4653 101.647 31.2347 102.179 31.9096 101.483C32.3821 101.005 31.8556 99.0535 31.2347 98.5076C30.9108 98.2347 30.5598 97.989 30.2629 97.6888C28.5757 95.9555 28.3867 94.8364 29.3855 92.6119C30.1414 90.9332 30.4114 90.4692 31.5317 90.4146C31.8826 90.3873 32.3416 90.4009 32.922 90.4419C33.9478 90.5101 34.9601 90.5784 35.9995 90.7012C37.2008 90.8377 38.1996 91.3563 38.6315 92.6119C39.0635 93.7856 38.618 94.7955 37.8351 95.628C37.6192 95.86 37.4032 96.1329 37.2143 96.3922C36.5394 97.2793 35.905 98.221 34.7037 98.5076C34.5417 98.5486 34.3797 98.5622 34.1772 98.5895C33.8263 97.3885 35.0816 97.4841 35.4865 96.8153C34.3662 96.324 33.5563 95.5461 33.6643 94.2359C33.6778 93.9493 33.6913 93.6081 33.8263 93.3625C33.9343 93.1714 34.1098 93.0213 34.4472 92.994C35.0546 92.9394 35.2571 93.4307 35.4596 93.8811C35.6485 94.3315 35.4865 95.1503 36.3369 94.9729C37.0118 94.8501 37.5922 94.4816 37.7137 93.7037C37.8216 93.0076 37.5247 92.5163 36.9173 92.2024C36.6068 92.0523 36.2424 91.9295 35.8915 91.8885C34.8117 91.7794 33.7183 91.7111 32.6385 91.6429C32.5575 91.6292 32.4765 91.6292 32.3955 91.6292C31.3427 91.6156 30.5734 91.9431 30.0604 93.1168C29.5205 94.3178 29.723 95.2459 30.5463 96.1193C30.9918 96.6106 31.3292 97.2248 32.0716 97.2793C32.5845 96.8426 32.2066 96.0511 32.8545 95.6007C33.7453 96.1056 33.6913 96.9654 33.6238 97.798C33.5428 98.7669 33.3674 99.7359 33.3404 100.719C33.2999 102.329 33.5429 102.629 35.0816 102.984C36.7553 103.353 38.429 103.284 40.0758 102.752C40.7507 102.52 41.4256 102.233 42.2354 101.933C42.3974 102.97 41.8845 103.53 41.1286 103.748C38.3751 104.526 35.662 105.154 33.1514 103.121Z" fill="#EFECF0"/>
<path d="M52.832 109.772C52.7382 109.732 52.591 109.719 52.5508 109.652C50.2478 105.676 46.4051 103.475 42.7097 101.087C42.2678 100.807 41.7189 100.62 41.6787 99.793C42.4955 99.913 43.0846 100.407 43.6871 100.78C46.0168 102.221 48.1055 103.995 50.2612 105.676C51.5867 106.69 52.3633 108.038 52.832 109.772Z" fill="#EFECF0"/>
<path d="M35.6458 107.423C34.6603 107.124 33.5581 106.468 32.4688 105.797C32.1576 105.597 32.3003 105.098 32.4818 104.756C32.6634 104.399 32.9616 104.456 33.2339 104.599C34.3102 105.17 35.2827 105.983 36.5665 105.983C36.8647 105.983 37.0333 106.325 36.9684 106.696C36.8517 107.366 36.372 107.381 35.6458 107.423Z" fill="#EFECF0"/>
<path d="M43.4784 104.488C43.9958 104.547 44.5413 104.68 44.6112 105.432C44.6671 106.082 43.7721 106.79 42.877 106.834C42.3036 106.864 42.2337 106.613 42.2756 106.008C42.3595 105.005 42.6113 104.518 43.4784 104.488Z" fill="#EFECF0"/>
<path d="M38.1562 106.517C38.8891 106.169 39.622 106.267 40.3109 106.253C40.7506 106.239 41.0584 106.475 41.0877 106.906C41.117 107.281 40.9704 107.657 40.5161 107.754C39.9591 107.879 39.3435 108.185 38.8159 107.879C38.3615 107.615 38.3175 107.017 38.1562 106.517Z" fill="#EFECF0"/>
<path d="M25.2415 69.268C23.8519 69.1105 23.6593 68.0224 23.4805 66.9199C24.1959 67.5642 24.5811 68.5235 25.2415 69.268Z" fill="#EFECF0"/>
<path d="M55.18 101.554C54.7779 101.364 54.4589 101.142 54.2232 100.888C53.8904 100.555 53.6547 100.158 53.4189 99.793C54.0291 99.9358 54.4867 100.237 54.8749 100.888C54.9859 101.094 55.0829 101.3 55.18 101.554Z" fill="#EFECF0"/>
<path d="M25.8291 70.4407C26.3305 69.3966 26.8319 69.1316 27.5045 68.7264C27.529 68.7109 27.5657 68.6953 27.5901 68.6797C27.5657 68.8044 27.5412 68.929 27.5045 69.0225C27.1988 69.9888 26.5506 69.9264 25.8291 70.4407Z" fill="#EFECF0"/>
<path d="M48.1358 101.554C47.9029 101.538 47.5861 101.632 47.5488 100.989C47.5581 100.989 47.5581 100.989 47.5581 100.989C47.6606 100.942 47.7445 100.974 47.819 101.036C47.9495 101.146 48.0333 101.381 48.1358 101.554Z" fill="#EFECF0"/>
<path d="M52.832 104.488C53.1893 104.649 53.5467 104.798 54.0061 105.008C53.2914 105.194 52.9171 104.984 52.832 104.488Z" fill="#EFECF0"/>
<path d="M55.1797 105.662C55.4972 105.834 55.6897 105.937 55.7667 106.189C55.4299 106.372 55.3048 106.12 55.1797 105.662Z" fill="#EFECF0"/>
<path d="M47.8582 100.899C47.7352 100.885 47.6122 100.871 47.4756 100.858C47.6122 100.817 47.7489 100.844 47.8582 100.899Z" fill="#EFECF0"/>
<path d="M64.3792 7.84208C61.9878 5.86132 59.1318 5.05535 56.2074 4.38599C55.6062 4.24939 55.0322 4.0718 54.4446 3.88056C53.9663 3.75761 53.7203 3.4844 53.8023 2.95165C53.8707 2.36425 54.2943 2.28228 54.7316 2.28228C55.6198 2.3096 56.5217 2.59647 57.6833 1.89979C56.836 1.87247 56.2621 1.83149 55.7018 1.81783C51.9028 1.77684 48.1313 1.73587 44.3323 1.70855C42.6788 1.69488 41.0663 1.17579 39.3992 1.43534C39.1395 1.47632 38.9209 1.35337 38.9072 1.05284C38.9072 0.806951 38.9482 0.533743 39.1942 0.42446C40.0551 0.0829483 40.957 -0.0673179 41.8862 0.0283053C46.8604 0.4791 51.8618 0.38348 56.8497 0.479103C58.4212 0.520084 60.0063 0.820616 61.5505 1.14847C62.1928 1.28507 63.2313 1.39435 63.0537 2.3779C62.917 3.21119 61.9878 3.08825 61.3592 3.03361C60.3617 2.9653 59.4188 3.11557 58.2025 3.47074C60.553 4.71384 63.204 5.2466 64.3792 7.84208Z" fill="#EFECF0"/>
<path d="M52.1757 17.1741C50.6862 16.9555 49.1284 17.1741 47.6115 17.2424C45.6027 17.338 43.5666 17.0512 41.5715 17.379C41.2708 17.42 40.9019 17.5293 40.7925 17.1468C40.6695 16.7233 40.6969 16.2998 41.1888 16.0813C42.1864 15.6168 43.1839 15.1523 44.2088 14.7152C45.0424 14.3737 45.8624 14.0049 46.7233 13.1989C43.6759 13.4585 40.8335 13.6497 38.0185 13.9776C36.201 14.1961 34.3562 14.1961 32.5251 14.401C30.9536 14.5786 29.3821 14.7835 27.8105 15.0157V13.5131C28.7944 13.3765 29.7784 13.2399 30.7759 13.1443C35.2035 12.6798 39.672 12.5022 44.0995 12.0104C46.0673 11.7919 47.9941 12.0787 49.9209 12.0514C50.3582 12.0514 50.8638 12.0514 50.9595 12.5842C51.0825 13.1989 50.5769 13.3628 50.0849 13.5404C48.4588 14.1825 46.8326 14.8518 45.0698 15.5348C45.5344 16.1222 45.8487 16.013 46.122 15.9993C49.9073 15.8764 53.6789 15.9583 57.4505 16.2315C60.1835 16.4228 62.9166 16.7506 65.6633 16.5594C65.7589 16.5594 65.8546 16.6823 65.9639 16.7506C65.9093 17.2834 65.431 17.1331 65.1304 17.2424C64.0098 17.5703 62.8209 17.5429 61.6731 17.5156C58.5164 17.42 55.346 17.6522 52.1757 17.1741Z" fill="#EFECF0"/>
<path d="M119.628 20.26C118.849 20.1097 118.07 19.9322 117.291 19.7272C113.752 18.7983 110.349 17.3776 106.728 16.6263C104.815 16.2438 102.888 15.8887 100.947 15.6154C98.8976 15.3286 96.8478 14.9324 94.839 14.4543C93.6502 14.1674 92.4613 13.9216 91.2451 13.7713C90.6985 13.703 89.9195 13.662 89.9059 12.8151C89.9059 12.091 90.4388 11.7359 91.0401 11.531C92.3383 11.1485 93.6228 10.807 94.921 10.4518C89.7146 10.1376 84.5081 9.56387 79.083 9.76877C79.7253 8.97647 80.4495 9.01745 81.1328 8.97647C82.4173 8.89451 83.7155 8.96281 84.959 9.11307C87.3915 9.38628 89.8102 9.03111 92.2563 9.44093C94.4017 9.7961 96.6428 9.46825 98.8429 9.4136C99.7585 9.38628 100.674 9.23602 101.59 9.39994C101.822 9.44092 102.082 9.53655 102.123 9.82342C102.164 10.1922 101.918 10.5064 101.617 10.4655C99.3895 10.1923 97.4901 11.572 95.3583 11.7222C94.4154 11.7769 93.5818 12.1047 92.6799 12.6101C96.3968 13.6893 100.086 14.2357 103.762 14.8231C106.673 15.2876 109.529 15.9433 112.29 16.9269C114.49 17.6918 116.717 18.3202 118.972 18.8666C119.272 18.9349 119.587 18.9759 119.86 19.0989C120.215 19.2355 120.516 19.4677 120.366 19.9185C120.27 20.2737 119.942 20.3283 119.628 20.26Z" fill="#EFECF0"/>
<path d="M124.793 42.5116C124.096 42.3066 123.371 42.0744 122.729 41.7329C121.663 41.1182 120.502 40.722 119.354 40.3122C116.307 39.2604 113.259 38.1675 110.184 37.1703C108.777 36.6922 107.451 36.1048 106.181 35.3808C102.792 33.4274 99.4983 31.31 95.877 29.7937C95.221 29.5341 94.9614 29.1243 95.1664 28.3593C95.3987 27.4714 95.9863 27.526 96.5876 27.69C99.2386 28.4686 102.026 28.3866 104.759 28.7282C102.86 27.1299 100.796 25.9004 98.405 25.2174C96.7105 24.7393 95.1254 23.906 93.5812 23.0591C91.3128 21.8296 88.7847 21.2149 86.5163 19.9991C83.8242 18.5648 81.0639 17.2944 77.8115 16.7206C78.5494 15.8327 79.301 16.0103 79.9023 16.2698C81.7334 17.0621 83.7832 17.349 85.4777 18.5238C86.3796 19.1522 87.4045 19.5757 88.4704 19.9172C91.4494 20.8597 94.0868 22.581 96.9839 23.6875C98.1317 24.1382 99.2796 24.5617 100.427 24.9579C102.259 25.5726 103.707 26.843 105.388 27.69C106.591 28.3047 107.779 28.9467 109.078 29.3156C109.474 29.4248 109.87 29.6161 110.239 29.8347C110.567 30.0122 110.84 30.2991 110.731 30.7226C110.608 31.187 110.212 31.2144 109.843 31.1734C108.504 31.0231 107.178 30.8592 105.853 30.6543C104.336 30.4494 102.86 29.9713 101.329 29.9986C101.042 29.9986 100.714 29.9166 100.373 30.2991C103.529 31.911 106.331 34.0831 109.693 35.2305C113.204 36.4463 116.716 37.6211 120.269 38.7686C122.005 39.3423 123.522 40.4761 125.38 40.763C125.872 40.8313 126.132 41.3777 125.968 41.9242C125.79 42.5252 125.312 42.6755 124.793 42.5116Z" fill="#EFECF0"/>
<path d="M87.3638 85.6094C87.5278 86.5246 87.5825 87.4399 86.6532 88.1775C86.5712 86.8388 86.5712 86.8388 87.3638 85.6094Z" fill="#EFECF0"/>
<path d="M82.0342 95.8153C82.1298 94.135 83.469 93.3974 83.7697 92.127C83.9746 93.8345 83.5237 94.8181 82.0342 95.8153Z" fill="#EFECF0"/>
<path d="M85.8195 101.103H82.5535C82.9908 100.611 83.4418 100.133 83.9064 99.6545C85.1636 98.3704 85.6965 96.6219 87.0357 95.3924C88.8942 93.6712 90.1241 91.4855 90.8483 89.0403C91.108 88.166 91.3949 87.2781 91.8049 86.4722C93.0348 84.0543 93.3764 81.4861 93.4584 78.836C93.595 74.8471 93.1441 70.8992 92.9665 66.9377C92.8161 63.1401 92.0646 59.4245 90.493 55.9137C89.9874 54.8072 89.4545 53.7007 88.9625 52.5806C87.637 49.4114 86.1748 46.2831 83.838 43.7286C82.4305 42.185 81.1733 40.5321 79.8751 38.9065C76.7868 35.0542 73.0015 32.3631 68.2733 30.9561C63.9688 29.6857 59.5139 29.2485 55.1 28.6611C52.0663 28.2786 49.0054 28.2103 45.9443 28.101C42.6374 27.9918 39.344 27.6229 36.037 27.8005C35.4768 27.8278 34.8618 27.7459 34.3972 27.9644C32.3064 29.03 30.0107 29.3305 27.8242 30.0681V27.4863C29.7647 26.8443 31.7188 26.2296 33.6046 25.4646C34.6159 25.0411 35.7637 24.9591 36.857 25.0274C41.8038 25.3143 46.7506 25.4919 51.6974 25.7651C55.6193 25.9837 59.4456 26.6667 63.3265 27.1585C64.0508 27.2541 64.775 27.4317 65.4856 27.6093C67.0025 27.9781 67.0025 27.9781 67.6584 26.5164C67.7131 26.4071 67.7814 26.3115 67.8087 26.1886C68.615 22.3773 70.3094 18.7846 70.5144 14.8231C70.5691 13.7849 70.7604 12.7467 71.0747 11.7631C71.307 11.0118 71.84 10.6157 72.5916 10.7249C73.6301 10.8752 74.5867 11.3123 75.3656 12.05C75.9259 12.5828 75.9395 13.2658 75.3109 13.6346C73.9581 14.3996 73.6301 16.0389 72.3319 16.8312C72.004 17.0224 71.9083 17.4186 71.7853 17.7601C71.0611 19.9048 70.1181 21.9675 69.8448 24.2351C69.6809 25.6012 69.0659 26.8033 68.5057 28.0054C68.8336 28.5928 69.4212 28.6884 69.9405 28.8524C74.4774 30.355 78.1123 33.1554 81.1323 36.8301C82.6492 38.6742 84.1797 40.5047 85.7512 42.3079C87.6233 44.4663 88.7439 47.0754 90.0694 49.548C90.903 51.1052 91.5452 52.7718 92.2968 54.3838C93.718 57.4847 94.456 60.7632 94.8386 64.11C95.3852 68.7955 95.6585 73.4811 95.6311 78.1939C95.6038 81.7593 94.9752 85.2564 93.3901 88.5076C92.8845 89.5458 92.5565 90.6796 92.1875 91.7724C91.4086 94.081 89.9054 95.8979 88.4843 97.8103C87.6097 98.9168 86.7214 100.01 85.8195 101.103Z" fill="#EFECF0"/>
<path d="M71.786 49.6289C69.7772 52.2107 67.0988 54.1642 65.4043 57.0192C66.4565 53.6178 69.2852 51.7463 71.786 49.6289Z" fill="#EFECF0"/>
<path d="M63.6415 69.4638C63.1632 69.5321 63.0266 70.0375 62.439 70.3107C61.9197 69.4638 61.3594 68.7807 60.4438 68.4802C60.2115 68.4119 60.0202 68.0021 60.2798 67.7016C60.4711 67.4693 60.7308 67.5786 60.9221 67.7152C61.2227 67.9338 61.6054 68.0977 61.7693 68.3982C62.1656 69.0676 62.5346 69.4911 63.3135 68.849C63.4912 68.6988 63.8055 68.7807 63.9011 69.0676C63.9421 69.2589 63.8328 69.4228 63.6415 69.4638Z" fill="#EFECF0"/>
<path d="M65.0346 72.0328C64.6793 72.2514 64.2147 72.5246 63.9004 72.1011C63.6134 71.746 63.9687 71.2952 63.996 70.899C64.0097 70.7351 64.119 70.817 64.2284 70.8034C65.4582 70.7214 65.4582 70.7078 65.7862 70.4209C66.3738 69.8881 66.9341 69.3417 67.5627 68.8636C67.918 68.5904 68.2459 68.7407 68.3006 69.2324C68.2869 69.41 68.3143 69.6286 68.0956 69.6696C66.8931 69.8335 66.2918 70.7624 65.5949 71.5684C65.4309 71.746 65.2533 71.9099 65.0346 72.0328Z" fill="#EFECF0"/>
<path d="M52.9955 81.9349C53.0365 81.9622 53.0638 82.1808 53.0228 82.2218C52.7085 82.5498 52.3122 82.5908 51.752 82.3995C52.1072 81.8665 52.4899 81.7026 52.9955 81.9349Z" fill="#EFECF0"/>
<path d="M29.2591 86.0603C28.5622 84.2298 28.1249 82.2763 27.9199 80.2546C28.4665 80.3775 28.9721 80.5688 29.4914 80.8283C29.5187 80.5961 29.4641 80.2956 29.5734 80.1453C29.7784 79.8721 30.0107 80.0633 30.161 80.2682C30.3933 80.6234 30.6256 80.9923 30.8306 81.3611C30.9399 81.566 31.0356 81.7982 30.8579 82.1397C30.1883 82.1944 30.2703 81.3201 29.7921 81.1698C29.8604 81.7163 29.9014 82.2627 29.9834 82.8091C30.1747 84.2161 29.9561 85.268 29.2591 86.0603Z" fill="#EFECF0"/>
<path d="M47.0922 84.4072C46.9555 84.4755 46.7779 84.5438 46.6823 84.6531C46.286 85.1312 45.7804 85.4181 45.2747 84.9263C44.8648 84.4892 45.2064 84.0247 45.507 83.6286C45.7257 83.3417 45.9306 83.0275 46.1766 82.7543C47.0922 81.7434 47.6115 81.7025 48.9097 82.3991C49.2103 82.5631 49.5929 82.604 50.0302 82.7407C49.2923 83.2051 48.5954 83.2871 47.8711 83.3281C47.2152 83.3827 46.8599 83.7105 47.0922 84.4072Z" fill="#EFECF0"/>
<path d="M31.0626 83.7113C32.0738 84.1348 31.8825 83.3289 31.9235 82.8644C31.9645 82.5092 31.8278 82.1404 31.8142 81.7852C31.8005 81.594 31.9235 81.4437 32.1148 81.3891C32.3335 81.3071 32.4564 81.471 32.5384 81.6213C32.9347 82.4136 32.6751 83.1786 32.4018 83.9299C31.9235 85.1457 31.9235 85.1457 30.7619 85.5965C30.4749 85.1457 30.5843 84.6676 30.6389 84.1758C30.6663 83.9436 30.8166 83.6021 31.0626 83.7113Z" fill="#EFECF0"/>
<path d="M56.6166 84.1638C56.726 83.8905 56.9309 83.8222 57.1906 83.9178C57.9285 84.2048 58.7484 84.4235 59.1584 85.3664C58.1608 85.5987 57.5595 84.9974 56.8626 84.7514C56.6303 84.6694 56.521 84.4235 56.6166 84.1638Z" fill="#EFECF0"/>
<path d="M31.9513 88.2349C31.555 88.5356 31.1451 88.8499 30.6258 89.0958C30.4755 88.8362 30.3388 88.5629 30.2021 88.2896C30.5848 87.866 31.1451 87.7293 31.637 87.497C31.7873 87.4287 32.006 87.538 32.0333 87.7293C32.088 87.907 32.0607 88.1529 31.9513 88.2349Z" fill="#EFECF0"/>
<path d="M51.5196 90.7749C50.4947 90.4197 49.5108 89.9962 48.6226 89.2859C46.9281 87.9608 46.1765 86.4718 47.1194 84.4091C49.0872 83.3299 51.2327 83.6031 53.3508 83.7124C53.6924 83.7397 54.0614 83.8627 54.3893 84.0129C56.5484 84.9145 57.6963 86.5811 57.1634 87.9471C56.2751 90.1738 53.6377 91.5262 51.5196 90.7749Z" fill="#EFECF0"/>
<path d="M38.0047 95.9532C37.7861 96.1854 37.5674 96.4586 37.3761 96.7182C36.1189 95.8303 34.971 94.8057 33.9462 93.6719C33.4269 93.1118 32.9486 92.5381 32.484 91.937C32.1833 91.5545 31.8964 91.1447 31.623 90.7349C31.9783 90.7076 32.443 90.7213 33.0306 90.7622C34.0691 90.8305 35.094 90.8988 36.1462 91.0218C37.3624 91.1584 38.3737 91.6775 38.811 92.9342C39.2346 94.1227 38.7973 95.1199 38.0047 95.9532Z" fill="#EFECF0"/>
<path d="M48.6634 100.16C48.1031 100.269 48.1304 99.8186 47.9938 99.4907C47.1329 97.6329 46.7092 95.5428 45.1651 94.0265C44.9054 93.7806 45.0148 92.237 45.2744 92.0321C45.4794 91.8682 45.739 91.8818 45.9166 92.0867C46.6819 92.9474 47.7204 93.6304 47.9254 94.8598C48.1987 96.4717 48.636 97.9334 50.5082 98.3705C50.6585 98.4115 50.7815 98.5891 50.9591 98.7394C49.2646 98.3979 49.2646 98.3979 48.6634 100.16Z" fill="#EFECF0"/>
<path d="M65.267 101.101H63.4358C64.3514 98.6695 64.9117 96.1423 64.9117 93.4649C64.898 91.9486 65.0893 90.4322 64.7614 88.9296C64.6247 88.2739 64.6247 87.5772 64.6794 86.9215C64.898 84.8041 65.431 82.7824 67.0298 81.2934C68 80.3918 69.1889 79.6678 70.4324 79.1487C72.5232 78.3018 73.9171 76.7308 75.188 74.9823C75.5843 74.4222 75.8302 73.8075 75.8166 73.0971C75.7209 70.7339 76.2949 68.5072 77.1284 66.3079C77.7297 64.696 77.8664 63.0294 77.4291 61.2809C76.4725 57.374 76.1992 53.4398 77.3061 49.4782C77.675 48.1668 77.5657 46.8144 77.675 45.462C77.7434 44.6561 77.3607 44.3419 76.5682 44.4785C76.2129 44.5468 75.8439 44.5605 75.4886 44.6151C70.5008 45.4621 66.9615 48.4264 64.1738 52.4152C62.329 55.079 60.5935 57.8248 58.8443 60.5432C57.7375 62.2507 56.0976 63.2889 54.3075 64.1495C53.9248 64.3271 53.4875 64.4501 53.0639 64.3271C52.695 64.2315 52.2714 64.2179 52.531 63.4938C52.9546 62.3054 52.7223 62.0458 51.5197 61.9366C48.8277 61.718 46.163 61.677 43.4573 62.0049C41.7491 62.2098 40.0683 62.8382 38.3875 62.7289C36.7203 62.6196 35.9004 63.4665 35.0805 64.5457C34.6842 65.0785 34.3426 65.6659 33.9873 66.2396C33.3997 67.1685 32.5934 67.9335 31.8281 68.7258C31.6505 68.9034 31.3498 68.958 31.1449 68.8487C30.9262 68.7258 30.8716 68.4253 30.9536 68.1794C31.0356 67.9062 31.1722 67.6193 31.3225 67.3734C31.9648 66.3216 32.566 65.256 33.2356 64.2315C34.2195 62.7015 34.9165 60.9393 36.7066 60.0651C37.1849 59.8465 37.0756 59.3547 36.9799 58.9313C36.6247 57.0734 36.2693 55.1746 35.2444 53.5627C34.0556 51.7185 33.4406 49.5465 31.8691 47.9073C30.4616 46.4319 29.2454 44.7654 27.8242 43.3174V39.793C29.5597 41.1727 31.1039 42.7573 32.5524 44.4512C35.5177 47.9209 37.5812 51.8278 38.0322 56.445C38.1142 57.292 38.3055 58.1253 38.5378 58.9586C38.6881 59.5323 39.0161 59.7509 39.59 59.7236C43.4573 59.5596 47.2835 60.2836 51.1508 60.1061C52.1757 60.0514 53.2552 60.0377 54.2118 60.5432C55.0181 60.9667 55.6466 60.7208 56.1659 60.1197C56.7399 59.4777 57.2865 58.822 57.7785 58.1253C59.1176 56.1582 60.4705 54.1911 61.7141 52.1557C63.5042 49.1914 65.8409 46.7051 68.3143 44.3419C70.8697 41.8693 74.1904 41.5142 77.4701 41.0907C78.454 40.9541 79.2192 41.7737 79.1646 42.7846C78.9869 45.6533 78.9596 48.563 78.495 51.377C78.003 54.4096 77.8664 57.3193 78.9186 60.229C78.9732 60.4066 79.0142 60.5842 79.0552 60.7754C79.5472 62.8108 79.3558 64.7643 78.3719 66.6494C77.5384 68.234 77.1557 69.9689 77.1011 71.7721C77.0464 74.7364 75.6799 76.9904 73.5345 78.9438C72.209 80.1186 70.7467 81.1431 69.2846 82.1267C67.4671 83.3561 66.8112 84.9408 66.9068 87.1128C66.9888 89.3258 67.3851 91.5114 67.2621 93.7108C67.1118 96.3745 66.3875 98.8198 65.267 101.101Z" fill="#EFECF0"/>
<path d="M54.8548 101.103H54.2125C53.8845 100.816 53.6522 100.474 53.4199 100.16C54.0212 100.283 54.4858 100.556 54.8548 101.103Z" fill="#EFECF0"/>
</svg>
