<svg width="271" height="270" viewBox="0 0 271 270" fill="none" xmlns="http://www.w3.org/2000/svg">
<path d="M-27.6044 223.603C-27.3834 222.882 -27.1918 222.121 -27.0631 221.393C-25.6329 212.928 -21.8275 205.455 -17.3607 198.259C-12.7538 190.811 -6.86461 184.493 -0.417429 178.651C4.21038 174.458 9.47772 171.092 14.3643 167.22C18.1879 164.21 21.2983 160.613 23.7916 156.459C25.3592 153.849 26.731 151.159 27.8774 148.346C28.2866 147.389 28.7107 146.521 29.8516 146.261C32.0005 145.764 34.0791 145.12 36.2725 144.889C41.372 144.331 46.0371 145.532 50.0094 148.718C52.6108 150.788 54.6956 153.447 57.3081 155.584C59.2407 157.197 61.1327 158.84 63.2719 160.19C63.7522 160.474 64.4317 160.588 64.4212 161.342C64.0966 161.852 63.5353 161.764 63.0701 161.842C60.4301 162.398 57.7862 162.932 55.1388 163.444C46.4579 165.057 39.9953 169.99 34.9856 177.073C32.5029 180.61 31.1211 184.738 28.812 188.36C26.8607 191.398 25.3121 194.666 23.0874 197.567C19.7412 201.933 15.4398 203.041 10.3279 201.892C9.17188 201.653 8.07111 201.199 6.94451 200.864C6.24638 200.639 5.55216 200.71 5.18707 201.386C4.85887 202.011 5.26176 202.513 5.72001 202.937C6.01935 203.229 6.34079 203.517 6.65859 203.783C10.2097 206.765 14.3656 208.598 18.8422 209.625C23.8655 210.789 29.0062 210.885 34.1396 211.21C36.8577 211.393 39.5386 211.08 42.1157 210.284C46.38 208.955 50.6036 207.518 54.6237 205.546C56.9199 204.432 58.9499 202.953 60.8837 201.307C65.4859 197.369 69.5854 192.878 74.6052 189.394C81.035 184.945 85.2035 178.96 86.7265 171.186C87.168 168.925 87.2863 168.95 89.5573 168.775C90.0521 168.738 90.5765 168.741 91.0713 168.704C95.9458 168.434 100.824 168.187 105.628 167.359C108.46 166.862 111.162 165.862 114.017 165.498C115.243 165.338 116.081 165.449 116.846 166.483C118.44 168.654 120.435 170.507 122.324 172.401C125.269 175.302 128.513 177.812 132.208 179.745C136.227 181.852 140.574 182.787 144.907 183.77C153.332 185.663 161.782 185.934 170.111 183.308C175.261 181.693 180.267 179.488 184.338 175.912C188.63 172.163 192.826 168.247 196.423 163.748C202.596 155.993 206.692 147.264 207.545 137.391C208.764 122.901 205.803 109.293 197.895 96.8779C194.674 91.7893 190.834 87.4881 185.407 84.7287C184.439 84.2529 183.604 83.4814 182.725 82.854C181.505 81.9645 180.352 80.9272 179.03 80.2373C173.318 77.2749 167.242 75.2623 160.948 73.9924C154.37 72.6562 147.642 73.1452 141.106 74.1033C133.994 75.1578 127.223 77.5679 121.669 82.4857C120.916 83.1586 120.303 83.1701 119.413 82.7496C116.517 81.3664 114.248 79.3768 112.861 76.3964C110.627 71.6211 107.68 67.3525 103.977 63.598C101.867 61.4679 99.4506 60.0954 96.5808 59.5507C93.3121 58.9362 90.3861 57.5123 87.3975 56.1218C84.8818 54.971 82.4287 53.6502 79.5517 53.4713C75.8513 53.2709 72.6616 54.6254 69.5757 56.4638C65.076 59.1087 60.8795 62.2041 56.4648 64.9487C54.3202 66.2877 52.2569 67.7042 50.3822 69.4309C48.8986 70.7731 47.1637 71.8384 45.3252 72.6932C44.6312 73.0373 43.649 73.0195 43.3505 73.9581C46.3449 73.0692 48.9028 71.4787 51.3238 69.4782C57.7566 64.0943 65.3098 60.505 72.8518 56.986C75.831 55.5984 79.0846 55.8509 82.1986 57.0382C83.9274 57.7056 85.5382 58.6206 87.1674 59.5097C90.1784 61.17 93.2263 62.7785 96.6207 63.5998C99.3244 64.2407 101.545 65.6688 103.223 67.9396C104.613 69.8486 106.062 71.7021 107.489 73.5594C109.7 76.4246 111.519 79.5377 113.131 82.7765C110.174 84.0237 110.03 83.9795 108.902 81.3203C107.992 79.1487 107.1 76.9511 106.15 74.8091C105.872 74.2403 105.761 73.302 104.572 73.4101C105.009 75.752 105.775 77.8794 106.541 80.0069C106.915 81.0152 107.314 82.0419 107.714 83.0687C107.918 83.6042 107.811 84.0551 107.183 84.2513C106.53 84.4292 106.275 83.9934 106.163 83.4652C106.008 82.8077 105.941 82.1353 105.789 81.5C104.492 75.1096 101.072 70.4645 94.9363 67.9605C89.2179 65.6373 83.076 64.866 77.2029 63.1155C76.6525 62.9571 76.0135 62.8135 75.4709 63.1095C74.5517 63.6052 73.6763 63.2734 72.7787 63.0819C71.172 62.7358 69.7941 61.9869 68.5082 60.9719C68.2458 60.7652 67.906 60.6398 67.6403 60.9577C67.3747 61.2757 67.5226 61.6154 67.7259 61.8776C68.4245 62.7859 69.4146 63.2581 70.471 63.5824C72.2256 64.1315 73.9802 64.6807 75.8268 64.9638C81.245 65.7652 86.5305 67.1355 91.6909 68.9826C92.8545 69.4029 94.0587 69.7936 94.8276 70.8497C94.3218 70.9572 93.8896 70.6878 93.4537 70.533C91.4406 69.936 89.4605 69.1284 87.3959 68.7679C82.938 67.988 78.4874 67.1157 74.0736 66.055C73.671 65.9629 73.1352 65.6197 72.7886 66.4069C74.1112 67.0968 75.4705 67.4615 76.8777 67.7043C79.0346 68.0721 81.1842 68.3957 83.3301 68.8337C88.3015 69.8238 93.1328 71.0652 97.5701 73.7626C101.501 76.1573 103.125 79.5993 103.645 83.9325C103.816 85.2255 103.303 85.6987 102.158 86.0727C100.929 86.4837 100.825 85.7264 100.44 84.925C99.8745 83.7211 99.1571 82.5653 98.4435 81.4316C98.0516 80.8593 97.6819 80.1465 96.7623 80.0954C96.5598 80.9268 97.1142 81.5175 97.4986 81.9089C98.5925 83.0016 98.6526 84.4498 99.0783 85.7684C99.4262 86.7582 99.1128 87.3348 98.1899 87.8084C96.5914 88.6002 95.9598 88.5009 94.7803 86.4883C91.4523 80.757 86.5156 76.8446 80.686 73.9931C79.8437 73.5874 78.9829 72.9341 77.5762 73.3748C80.0593 75.2829 83.0805 75.7794 85.1464 77.917C84.4082 78.4052 83.998 77.9954 83.5584 77.8184C79.9383 76.4653 76.3993 74.9162 72.6539 73.903C69.7913 73.1293 66.9987 72.23 64.6891 70.2699C64.2938 69.9488 63.8983 69.3543 62.979 69.7134C63.4376 70.6847 64.1804 71.3121 65.0486 71.7364C67.0139 72.7287 68.9572 73.7247 71.0516 74.3993C75.5285 75.8368 80.1344 76.9565 84.2501 79.3659C87.3314 81.1739 90.1211 83.2813 91.9921 86.4313C93.8002 89.4778 93.8186 89.452 90.3481 90.6257C89.6134 90.8627 88.9009 91.096 88.1883 91.3293C86.6967 91.807 85.5628 91.564 84.4281 90.2274C82.092 87.4288 79.1288 85.3732 75.815 83.8092C70.0262 81.0648 63.8507 79.8207 57.6457 78.6727C54.0483 77.9993 50.5948 77.0967 47.4359 75.2334C47.0628 75.0452 46.6524 74.4988 46.1654 75.1272C47.4552 76.4377 49.7421 77.718 52.3055 78.3368C56.5605 79.4013 60.7345 80.6617 64.8679 82.0884C69.8473 83.8063 74.4948 86.1266 78.9025 88.92C80.0516 89.6617 81.0825 90.5144 81.8256 91.6887C82.2545 92.346 82.3103 92.9518 81.3504 93.2038C79.9067 93.5595 78.5854 94.5099 76.9896 93.957C76.6535 93.8538 76.214 93.8135 76.1182 94.1941C75.6285 96.1673 73.5677 95.8289 72.3904 96.8236C71.7704 97.3376 71.2272 97.0868 70.7651 96.3667C67.8442 91.7065 63.0571 90.3209 58.108 89.6005C52.9447 88.8248 47.6793 89.6156 42.483 89.1873C42.2319 89.1838 41.8958 89.0806 41.8258 89.3429C41.5239 90.5328 40.4564 90.2787 39.751 90.2829C36.2169 90.2597 32.6863 90.1219 29.6527 87.9186C29.1059 87.5089 28.5663 86.8701 27.3775 87.2516C30.6552 89.9608 34.0609 91.2588 38.0122 91.0526C40.8593 90.9175 43.7654 90.4535 46.5648 90.7137C52.0049 91.238 57.4268 92.0615 62.6167 93.9492C64.822 94.7419 66.5772 96.1112 67.849 98.1311C68.3149 98.8733 68.1639 99.3316 67.4404 99.7718C66.6984 100.238 66.0965 100.316 65.4681 99.5553C64.1559 97.975 62.4269 96.8975 60.779 95.7609C59.1866 94.6833 57.4761 93.8533 55.3824 94.1356C59.2573 95.5145 62.4313 97.7398 65.1927 101.447C63.3534 101.208 62.3188 100.47 61.181 100.068C57.2655 98.719 53.3131 97.2848 49.1259 98.1229C46.0834 98.7237 43.0112 99.2838 40.0244 100.217C36.0849 101.447 31.9862 101.996 27.9467 102.764C26.226 103.098 24.4902 102.796 22.215 102.403C24.1881 103.849 24.587 103.919 27.1238 103.563C31.8909 102.924 36.5802 101.956 41.2842 100.94C46.0768 99.9096 50.855 99.3371 55.7159 100.619C58.1685 101.256 60.4588 102.149 61.6452 103.386C60.5015 104.853 59.1379 103.646 57.8934 103.695C56.6009 103.729 55.319 103.146 53.5838 103.802C55.6449 104.413 57.4507 104.316 59.0911 105.408C56.6701 107.409 54.234 109.047 51.1619 109.607C51.4761 109.988 52.4878 109.773 51.9452 110.205C48.0072 113.349 43.9657 116.418 39.3881 118.597C34.7884 120.781 30.3817 119.354 26.506 116.882C23.7534 115.133 21.7054 112.422 20.5323 109.224C19.4925 106.413 18.9845 103.65 20.0975 100.638C21.2143 97.6487 22.3716 94.6294 22.5834 91.404C22.8424 87.0998 25.0817 84.0132 28.2188 81.3915C28.8388 80.8776 29.4071 80.3267 29.9791 79.7979C25.6862 82.4537 21.8627 85.6006 21.1392 90.9396C20.6728 94.4127 19.7408 97.6904 18.2845 100.828C17.5692 102.406 17.4117 104.05 17.6087 105.772C18.3815 112.022 21.8931 116.401 27.025 119.711C28.0485 120.383 29.2859 120.7 30.3834 121.678C29.1912 122.447 27.9725 122.378 26.8944 122.741C25.772 123.111 25.0737 122.613 24.7258 121.623C23.5453 118.243 20.9883 116.439 17.8224 115.078C13.9695 113.422 10.1939 111.548 6.86091 108.916C-0.629123 102.948 -5.37661 95.1304 -8.65517 86.292C-9.05106 85.2874 -9.38063 84.135 -8.7979 83.126C-8.01969 81.788 -8.39339 80.7797 -9.32481 79.7053C-10.3217 80.009 -10.8086 80.7741 -11.0628 81.7053C-11.5931 83.5714 -12.9403 84.6401 -14.6126 85.3987C-17.1304 86.5496 -19.6443 87.7225 -22.1953 88.8106C-30.9927 92.5855 -38.4964 97.9665 -43.7971 106.032C-49.4262 114.585 -51.5355 123.619 -47.4547 133.577C-45.9194 137.307 -44.2769 140.996 -43.1255 144.882C-41.641 149.806 -41.4269 154.623 -43.6317 159.413C-45.4309 163.36 -47.5738 167.023 -50.3447 170.335C-55.4881 176.483 -60.5057 182.7 -64.33 189.789C-69.9798 200.26 -70.2857 210.952 -66.1931 221.932C-66.0784 222.209 -65.9674 222.464 -65.8306 222.737C-65.3978 223.69 -64.8211 224.551 -64.1557 225.396C-63.8932 225.739 -63.5496 226.024 -63.0844 225.809C-63.0217 225.776 -62.9774 225.768 -62.9146 225.735C-62.5824 225.543 -62.2576 225.306 -62.3244 224.907C-62.6102 222.927 -61.958 220.972 -61.9561 218.671C-62.7416 220.101 -62.4155 221.505 -63.2678 222.536C-63.9217 222.167 -64.1068 221.606 -64.3509 221.1C-66.2077 217.218 -66.761 213.096 -66.9526 208.821C-67.2419 202.194 -66.0796 195.938 -62.6975 190.154C-59.3338 184.395 -55.4492 179.028 -51.1323 173.93C-46.8301 168.88 -42.842 163.587 -40.7197 157.079C-39.0285 151.943 -39.0322 147.022 -41.1999 142.099C-42.4539 139.233 -43.7265 136.393 -44.9547 133.545C-48.1806 125.974 -48.1013 118.419 -44.4582 111.064C-40.2361 102.542 -33.7227 96.2783 -25.1952 92.1157C-21.0495 90.077 -16.5118 88.884 -12.651 86.2322C-11.8721 85.7144 -11.4289 85.9135 -11.2325 86.8148C-10.2949 91.1921 -7.93968 94.9217 -5.73586 98.6995C-0.951093 106.875 5.73019 112.911 14.559 116.536C16.1733 117.2 17.784 117.978 19.2987 118.864C20.9871 119.834 22.4062 121.1 23.1388 123.028C21.9392 123.89 20.4914 123.403 19.4505 124.124C18.2878 124.934 17.2277 124.588 16.1379 124.064C14.9742 123.507 14.0208 122.71 13.0969 121.816C11.1124 119.893 9.31961 117.755 7.03984 116.109C5.04457 114.666 3.98439 114.183 1.91627 114.074C6.02107 116.69 10.085 118.926 12.3003 123.18C11.3101 122.571 10.4122 121.833 9.53267 121.069C6.11086 118.179 2.48239 115.551 -1.56646 113.677C-5.07598 112.032 -8.5375 110.402 -11.645 108.029C-12.2436 107.582 -12.6687 107.084 -13.1454 106.548C-15.0046 104.422 -16.1734 101.929 -17.2831 99.3805C-17.5125 98.8265 -17.6535 98.1209 -18.7541 97.9407C-18.1285 99.9094 -17.4994 101.627 -16.9996 103.389C-16.6404 104.718 -15.9489 105.856 -15.0507 106.867C-12.4413 109.803 -9.31914 112.128 -5.75429 113.695C-0.183562 116.089 4.7933 119.288 9.08399 123.559C10.7507 125.217 12.6499 126.631 14.8036 127.66C15.1509 127.829 15.9299 127.585 15.6944 128.764C9.57757 126.917 5.10563 122.107 -1.08925 119.658C-0.64544 120.541 -0.180048 120.736 0.200499 120.969C2.50964 122.382 4.86675 123.673 7.08366 125.216C9.29686 126.737 11.4215 128.409 14.0257 129.271C14.4099 129.389 14.9344 129.529 14.8609 130.043C14.7948 130.601 14.267 130.848 13.7425 130.845C12.4722 130.876 11.2164 130.721 9.99376 130.357C7.16805 129.531 4.53028 128.196 1.76352 127.178C-1.97105 125.821 -5.75331 124.723 -9.76756 124.689C-12.962 124.655 -16.1673 124.827 -19.3508 124.586C-25.6476 124.114 -31.7087 122.873 -36.3986 118.122C-36.7608 117.727 -37.2339 117.214 -38.0163 117.846C-36.8444 119.541 -35.1411 120.6 -33.5043 121.67C-28.8859 124.633 -23.6709 125.446 -18.3456 125.693C-10.9779 126.031 -3.79427 127.175 3.04722 130.085C6.33127 131.471 9.56738 132.98 13.3194 132.944C12.9949 133.591 12.5813 133.569 12.1603 133.639C9.02907 134.118 5.95621 133.722 2.90163 133.026C-0.79193 132.186 -4.44845 131.431 -8.27803 131.412C-15.254 131.373 -22.2633 131.271 -29.023 129.122C-33.7363 127.633 -38.5933 126.51 -42.5251 123.158C-43.0793 122.704 -43.7519 122.088 -44.8705 122.48C-41.8216 125.456 -38.3121 127.238 -34.5813 128.572C-26.3697 131.503 -17.8306 132.853 -9.14078 133.334C-6.65903 133.465 -4.10357 133.356 -1.36627 134.47C-4.84107 134.801 -7.8615 135.261 -10.8744 136.039C-13.95 136.851 -17.1033 137.47 -20.3308 137.646C-24.4815 137.886 -28.5514 137.383 -32.5884 136.532C-33.2976 136.378 -34.1215 135.809 -34.9518 136.7C-33.8617 137.634 -32.5876 137.762 -31.3909 137.972C-24.7464 139.16 -18.2027 138.794 -11.6897 137.019C-7.7908 135.956 -3.90651 135.214 0.256013 135.998C4.20431 136.726 8.28159 137 12.2579 135.719C13.0369 135.475 13.5724 135.545 13.706 136.479C13.8581 137.388 13.9216 138.175 12.6956 138.335C11.3331 138.494 10.0035 138.444 8.66662 138.349C4.96244 138.126 1.30959 137.394 -2.41643 137.585C-5.75841 137.757 -8.90042 138.716 -11.8018 140.433C-10.8121 140.358 -9.87421 140.11 -8.9401 139.84C-7.07187 139.299 -5.20006 138.78 -3.22416 139.019C1.05635 139.555 5.31865 140.39 10.0347 140.671C7.02961 141.904 4.16708 141.267 1.265 142.026C2.70248 143.267 4.4377 142.611 6.2479 143.493C-0.457695 144.525 -6.96098 144.452 -12.2351 148.594C-9.99384 148.105 -8.04527 146.411 -5.44884 146.819C-6.78112 147.977 -8.77914 147.742 -9.69378 149.353C-4.65454 147.21 0.673774 146.386 6.24967 145.817C5.51537 146.601 4.73637 146.845 3.93149 147.071C0.512532 148.008 -2.90654 148.809 -6.28107 149.875C-8.76582 150.679 -11.1357 152.033 -12.7443 154.125C-11.5963 153.363 -10.7253 152.716 -9.79139 152.172C-8.04909 151.151 -6.2662 150.101 -4.1686 150.114C-1.27333 150.13 1.50694 149.459 4.27238 148.7C4.73021 148.578 5.22102 148.108 5.87155 148.865C2.96967 149.898 0.104759 150.879 -2.61225 152.2C-5.33298 153.499 -7.52519 155.37 -9.38836 157.71C-6.37313 155.177 -3.10267 153.216 0.826052 152.467C0.497843 153.092 0.0549809 153.576 -0.417383 154.02C-2.24408 155.761 -4.17792 157.407 -5.92332 159.226C-10.392 163.825 -15.0122 168.199 -20.4161 171.702C-22.5348 173.059 -24.4983 174.664 -26.5208 176.188C-27.1446 176.679 -27.9457 177.064 -27.993 178.006C-25.789 177.159 -24.1691 175.406 -22.2424 174.127C-16.7426 170.517 -11.5791 166.53 -6.91846 161.853C-3.4054 158.348 0.277635 155.043 4.20462 151.97C5.09411 151.297 5.93925 150.494 7.70071 150.404C2.90349 155.218 -0.866905 160.316 -5.45762 164.73C-4.58636 164.356 -3.84816 163.868 -3.14692 163.295C-0.858681 161.453 1.22626 159.35 3.07841 157.08C5.84562 153.746 8.96031 150.854 12.4631 148.376C13.1127 147.903 13.6918 147.145 14.9735 147.454C13.5679 149.262 12.0439 150.771 10.4644 152.22C9.19859 153.366 7.78503 154.446 7.30627 156.212C8.6981 155.683 9.38769 154.36 10.3878 153.395C12.3473 151.494 14.4509 149.775 17.0459 148.269C17.3243 150.068 16.9819 151.424 16.0816 152.578C13.2334 156.245 10.193 159.716 6.24716 162.268C3.05799 164.306 -0.0645539 166.47 -3.35358 168.32C-4.10293 168.741 -5.0702 169.086 -5.16171 170.172C-4.94016 170.135 -4.66318 170.157 -4.47492 170.057C4.24431 165.406 12.8231 160.597 18.9104 152.469C19.0801 152.258 19.283 152.11 19.5972 152.49C18.7309 154.527 17.6024 156.493 16.3445 158.367C13.9763 161.908 10.6396 164.29 6.95922 166.25C2.88757 168.459 -0.99925 170.956 -4.79361 173.596C-5.11841 173.833 -5.57988 173.933 -5.37245 174.764C0.0497263 171.099 5.95641 168.423 11.327 164.858C15.4684 162.114 18.7708 158.576 20.6211 153.845C21.0524 152.748 21.6315 151.717 22.1884 150.689C22.7083 149.713 23.3686 148.896 24.8456 148.603C23.08 153.023 20.8413 156.793 17.7934 160.084C14.6533 163.503 11.0955 166.469 7.53775 169.435C2.17894 173.887 -3.37213 178.143 -8.16914 183.23C-13.9735 189.375 -19.39 195.796 -23.1695 203.424C-27.2404 211.625 -29.9408 220.257 -31.6218 229.266C-31.9785 231.217 -32.2872 233.182 -32.4852 235.13C-32.1935 235.103 -31.8833 235.051 -31.5952 235.003L-29.7343 234.692C-29.2422 230.963 -28.7059 227.228 -27.6044 223.603ZM94.92 70.857C95.4333 70.7938 95.7548 71.0817 96.1613 71.4694C95.4745 71.5844 95.1087 71.3039 94.92 70.857ZM66.1635 160.184C67.3229 159.899 68.2834 160.467 69.2735 160.939C68.0589 161.439 67.113 160.823 66.1635 160.184ZM83.0687 173.69C81.3635 179.831 77.8476 184.544 72.2441 187.67C69.291 189.35 66.8037 191.635 64.5344 194.134C54.8373 204.781 42.6058 208.994 28.5058 208.44C24.148 208.258 19.7826 207.759 15.6416 206.151C13.983 205.495 12.4978 204.65 10.946 203.68C11.6509 202.992 12.3416 203.309 12.9399 203.346C17.0134 203.597 20.3248 202.017 23.0443 199.078C24.0073 198.028 24.9372 196.916 25.7451 195.755C27.8884 192.639 29.6694 189.265 32.3596 186.558C32.8504 186.089 33.7917 185.453 32.8308 184.474C32.5536 184.179 32.9262 183.684 33.1401 183.329C35.9798 178.114 39.3736 173.353 44.0276 169.588C46.3565 167.717 48.9924 166.456 52.0163 165.744C51.4376 167.185 49.6574 166.891 48.7981 168.425C50.1124 167.84 51.1165 167.444 52.0837 166.963C57.4364 164.244 63.2261 163.183 69.1568 162.964C72.7536 162.817 76.358 162.852 79.7989 161.637C80.2502 162.701 79.4342 162.997 78.995 163.367C75.238 166.502 71.3553 169.431 66.9957 171.688C64.0425 173.231 61.1483 174.855 58.5353 176.933C59.4474 176.94 60.2374 176.489 61.0717 176.167C68.5773 173.246 75.262 168.959 81.4807 163.793C80.1756 166.746 77.9098 168.994 75.9581 171.486C73.988 174.003 72.1769 176.653 70.07 179.034C67.8819 181.474 65.424 183.663 63.0733 185.948C60.826 188.17 58.597 190.366 56.431 192.666C66.3114 185.292 74.444 176.182 82.2326 166.652C81.589 170.155 80.0993 173.23 78.5469 176.338C76.965 179.543 74.4371 181.994 72.3417 184.851C73.8373 184.806 74.6822 183.73 75.4866 182.821C78.9034 179.013 81.3301 174.596 83.0326 169.799C83.9945 167.109 84.9341 164.423 86.0178 161.78C85.3783 165.852 84.1663 169.769 83.0687 173.69ZM102.548 142.697C102.71 141.759 103.104 141.26 103.928 141.281C104.752 141.303 104.874 142.171 105.085 142.751C105.873 144.874 106.51 147.046 107.32 149.166C109.096 153.79 111.105 158.307 113.786 162.484C113.967 162.75 114.089 163.071 114.37 163.662C105.609 166.565 96.7386 166.911 87.983 167.398C87.6204 166.456 87.8563 165.824 88.07 165.196C88.9026 162.55 89.7833 159.919 90.5716 157.281C91.2936 154.927 92.5404 152.85 93.6614 150.702C94.5981 148.95 95.3389 147.117 96.9001 145.831C97.8006 145.087 98.3941 143.735 100.189 144.528C100.88 144.845 102.335 143.872 102.548 142.697ZM113.939 135.23C112.248 135.741 110.564 136.296 108.899 136.826C108.489 136.963 108.109 137.14 107.718 137.251C107.456 137.318 107.23 137.196 107.115 136.919C106.997 136.62 107.167 136.41 107.351 136.288C108.758 135.437 110.327 135.151 111.933 134.95C112.738 134.861 113.58 134.993 114.474 134.479C113.583 133.512 112.653 133.941 111.84 134.123C110.452 134.401 109.064 134.816 107.694 135.205C106.978 135.416 106.593 135.161 106.345 134.496C105.842 133.122 105.03 128.132 105.087 126.163C106.177 126.687 106.647 127.998 107.884 128.178C108.376 128.255 108.291 128.839 108.269 129.253C108.222 130.058 108.042 130.886 108.626 131.79C109.777 131.051 110.098 129.972 110.13 128.941C110.352 124.688 112.163 120.808 112.954 116.688C113.697 112.827 116.379 109.803 119.232 107.115C121.435 105.037 123.612 102.94 126.481 101.708C127.075 101.449 127.584 100.953 128.079 100.506C129.47 99.2933 131.035 98.302 132.696 97.4769C136.344 95.7267 139.958 93.9137 143.346 91.7056C145.092 90.5701 146.935 90.8311 148.701 91.0366C151.374 91.3634 153.927 91.9157 156.689 91.5442C158.697 91.2989 160.855 91.9401 162.816 92.7736C167.548 94.7835 172 97.2961 176.006 100.544C178.559 102.6 180.961 104.841 183.36 107.059C183.921 107.558 184.398 108.23 184.65 108.917C185.582 111.358 187.268 113.4 188.285 115.804C189.099 117.673 190.075 119.424 191.487 120.919C192.012 121.469 192.474 122.052 192.349 123.349C189.08 122.324 186.211 122.873 183.657 124.896C182.229 126.024 180.815 127.24 179.428 128.475C177.882 129.851 176.387 131.263 174.494 133.016C177.145 132.936 178.751 131.779 180.19 130.444C181.747 128.998 183.519 127.881 185.202 126.642C186.93 125.396 188.783 125.313 190.719 125.992C193.888 127.101 194.695 129.609 192.788 132.504C192.652 132.504 192.408 132.544 192.349 132.463C190.227 129.72 187.158 129.482 183.961 131.339C181.2 132.941 178.369 134.395 175.508 135.808C173.363 136.874 171.181 137.581 168.829 137.952C167.053 138.227 165.479 137.807 163.972 137.102C162.217 136.28 162.232 135.822 163.756 134.587C163.9 134.494 163.94 134.328 164.029 134.176C162.673 133.697 162.027 133.919 160.791 135.243C159.536 136.592 159.342 138.288 160.285 140.386C161.045 139.347 160.239 137.933 161.213 137.086C161.512 136.968 161.719 137.115 161.889 137.315C164.236 139.906 167.431 140.078 170.518 139.879C172.911 139.752 175.348 139.207 177.581 138.127C180.151 136.876 182.868 135.965 185.267 134.379C186.474 133.561 187.847 133.058 189.329 133.607C190.832 134.153 191.054 135.072 189.925 136.219C189.634 136.518 189.346 136.84 188.995 137.058C185.522 139.166 182.769 142.179 179.58 144.627C176.163 147.205 172.323 148.896 168.306 150.207C165.198 151.229 162.089 152.251 159.11 153.639C156.972 154.612 154.713 155.264 152.335 155.48C156.497 151.638 161.3 148.76 166.479 146.366C154.209 148.854 142.064 150.046 130.169 144.975C129.915 145.769 130.513 145.942 130.886 146.13C135.752 148.665 140.864 150.087 146.407 149.865C150.414 149.718 154.424 149.593 158.397 148.973C158.564 149.834 157.988 149.93 157.6 150.2C155.607 151.628 153.607 153.011 151.669 154.498C148.801 156.687 145.423 157.321 142 157.826C140.334 158.082 138.654 158.25 136.974 158.281C131.76 158.425 126.908 160.194 121.946 161.436C119.391 162.092 119.373 162.118 117.909 159.902C114.411 154.655 111.139 149.256 108.849 143.328C107.291 139.328 107.269 139.605 111.444 137.744C112.352 137.318 113.371 137.148 114.331 136.896C115.026 136.688 115.734 136.433 115.449 135.546C115.183 134.771 114.459 135.074 113.939 135.23ZM105.595 114.093C106.192 111.942 106.227 109.566 108.25 107.906C108.051 109.443 107.687 110.94 107.943 112.469C108.028 113.115 107.371 113.408 107.139 113.925L107.161 113.921C107.165 113.944 107.146 113.969 107.146 113.969C108.476 113.884 109.58 114.496 110.032 115.56C110.476 116.579 109.813 119.561 108.868 120.175C107.373 121.177 105.908 122.22 104.816 123.861C105.83 121.755 104.783 119.72 104.948 117.71C105.032 116.853 105.316 116.099 105.94 115.47C106.386 115.008 106.966 114.66 107.146 113.969C107.124 113.973 107.124 113.973 107.102 113.977C107.098 113.955 107.121 113.951 107.139 113.925C106.644 113.826 106.294 114.454 105.595 114.093ZM113.338 107.692C112.321 109.913 111.51 111.735 110.544 113.856C109.25 112.523 108.758 111.079 109.274 109.671C109.834 108.119 111.418 107.785 113.338 107.692ZM108.869 121.405C109.556 121.153 109.527 121.933 109.66 122.457C109.698 123.773 109.415 125.073 108.847 126.308C108.471 127.191 107.747 127.084 107.241 126.508C106.646 125.811 106.224 124.924 106.563 123.956C106.983 122.792 107.71 121.827 108.869 121.405ZM111.059 106.729C110.218 107.28 109.663 106.963 109.212 106.173C108.787 105.401 108.838 104.754 109.584 104.174C110.329 103.593 111.23 103.397 112.157 103.219C112.644 103.137 113.209 102.974 113.076 102.313C112.987 101.781 112.455 101.87 112.041 101.848C111.632 101.848 111.211 102.056 110.716 101.683C112.419 98.1164 114.688 94.9338 117.234 91.9098C118.584 90.3165 119.801 88.6088 121.525 87.3403C122.237 86.8336 122.876 86.4305 123.811 86.7068C128.985 88.2325 134.264 89.2852 139.56 90.1753C139.866 90.2378 140.188 90.3891 140.624 90.5439C140.026 91.601 139.199 91.8306 138.439 92.1859C133.588 94.5022 128.519 96.331 123.816 98.9872C120.734 100.711 117.781 102.664 115.371 105.278C114.833 105.869 114.39 106.354 113.47 106.166C112.643 105.985 111.801 106.263 111.059 106.729ZM125.091 84.6924C128.323 81.8268 131.93 80.1062 135.766 78.9396C142.748 76.8359 149.945 76.2912 157.206 76.8067C160.064 77.0114 162.856 77.5007 165.608 78.4297C169.18 79.6314 172.848 80.5892 176.269 82.2492C177.784 82.998 179.239 83.8023 180.54 84.906C182.27 86.3936 184.235 87.5226 186.164 88.7034C189.049 90.4302 191.706 92.56 193.636 95.3811C195.089 97.5302 196.401 99.7939 197.751 102.006C201.848 108.657 203.589 116.066 204.795 123.68C205.529 128.205 205.695 132.734 205.27 137.271C204.552 144.819 201.448 151.583 197.187 157.696C193.321 163.311 188.642 168.287 183.113 172.403C174.709 178.664 165.439 182.336 154.725 181.602C150.781 181.305 146.848 181.075 142.995 180.103C139.261 179.156 135.892 177.533 132.817 175.223C128.797 172.159 124.832 169.018 121.72 164.983C121.48 164.636 121.177 164.322 120.94 163.997C120.873 163.871 120.884 163.664 120.81 163.221C123.664 162.447 126.533 161.625 129.439 160.887C131.975 160.257 134.582 160.048 137.2 159.906C138.87 159.809 140.524 159.486 142.193 159.252C142.618 159.204 143.072 158.923 143.43 159.022C146.968 160.024 150.169 158.326 153.492 157.77C157.572 157.109 161.512 155.879 165.192 153.919C168.097 152.361 171.113 151.058 174.185 149.951C177.796 148.663 180.948 146.54 184.082 144.443C186.81 142.642 189.349 140.53 191.925 138.504C193.357 137.398 194.345 135.957 194.846 134.187C195.542 131.678 196.146 129.161 195.997 126.498C195.817 123.247 194.843 120.425 192.452 118.114C190.682 116.383 189.632 114.189 188.81 111.866C187.345 107.736 185.06 104.154 181.572 101.412C179.58 99.8544 178.053 97.8088 176.04 96.255C170.855 92.2245 165.048 89.9161 158.504 89.1895C149.385 88.1877 140.307 87.0196 131.225 85.8294C129.268 85.5649 127.255 85.5147 125.091 84.6924ZM15.9728 125.527C15.939 124.781 16.6595 125.412 17.0214 125.397C17.11 125.382 17.232 125.567 17.3392 125.663C16.8151 126.07 16.0175 126.067 15.9728 125.527ZM21.9009 146.659C20.9815 146.744 20.1984 146.557 19.7214 145.748C17.2587 141.512 15.4754 137.117 16.9525 132.062C17.214 131.175 17.5495 130.321 17.885 129.468C18.8837 126.726 20.6553 125.335 23.7574 125.362C30.3789 125.461 36.182 122.712 41.804 119.56C48.2566 115.927 54.2395 111.53 60.2928 107.28C64.4304 104.377 68.6641 101.64 73.0236 99.11C77.8592 96.2949 83.2428 95.2564 88.593 94.1552C94.3826 92.9576 99.9649 91.0656 105.566 89.2844C109.007 88.2067 112.396 86.9555 116.007 86.4873C116.41 86.4426 116.856 86.2539 117.182 86.7007C117.282 87.2991 116.784 87.5877 116.477 87.9352C111.865 93.5837 108.491 99.9591 105.427 106.556C101.626 114.735 101.337 123.214 102.566 131.917C102.614 132.342 102.662 132.767 102.773 133.158C103.599 135.64 103.567 137.764 100.536 138.705C100.167 138.812 99.868 139.204 99.5765 139.504C99.4215 139.666 99.3478 139.907 99.1413 140.306C100.312 140.224 100.891 139.466 101.629 138.978C102.246 138.578 102.976 137.362 103.675 138.407C104.433 139.533 103.081 139.896 102.332 140.318C101.313 140.899 100.353 141.561 99.3716 142.227C95.7987 144.694 92.6287 147.526 90.2901 151.244C91.3769 147.667 94.0671 145.234 96.4248 142.447C94.7819 143.109 93.6381 144.304 92.2176 146.023C89.657 149.095 87.7541 152.558 85.6738 155.914C82.3541 161.255 75.5891 161.932 71.0087 160.284C64.7807 158.046 59.0949 154.966 54.5599 149.915C53.1296 148.309 51.5257 146.755 49.8666 145.415C47.0805 143.193 43.7781 141.969 40.0593 141.931C36.4291 141.878 33.1357 142.886 29.8685 144.322C27.3249 145.454 24.7 146.372 21.9009 146.659ZM-50.92 205.953C-50.2573 203.245 -49.421 200.621 -48.2559 198.056C-46.5895 194.405 -44.1211 191.326 -41.7046 188.21C-41.0663 187.396 -40.3024 186.653 -40.0855 185.364C-41.2337 185.852 -41.9275 186.47 -42.5659 187.146C-47.8093 192.832 -52.0588 199.149 -53.8737 206.813C-55.2689 212.766 -55.0944 218.843 -55.1047 224.905C-55.0962 226.317 -54.8995 227.765 -54.7322 229.172C-54.6393 230 -54.502 230.82 -54.2983 231.629C-53.275 232.164 -52.2184 232.625 -51.1509 233.015C-53.1554 224.169 -53.1584 215.169 -50.92 205.953ZM-28.0041 178.077C-28.0078 178.054 -28.0115 178.032 -27.993 178.006C-28.0115 178.032 -28.0336 178.036 -28.0557 178.04L-28.0041 178.077ZM-5.17647 170.22C-5.18018 170.198 -5.18016 170.198 -5.16171 170.172C-5.18387 170.176 -5.18391 170.176 -5.20606 170.179C-5.20235 170.201 -5.17647 170.22 -5.17647 170.22ZM7.29522 156.283C7.29151 156.26 7.30998 156.234 7.30627 156.212C7.28783 156.238 7.2656 156.242 7.24344 156.246L7.29522 156.283ZM-9.72701 149.427C-9.70856 149.401 -9.69007 149.375 -9.69378 149.353C-9.71223 149.379 -9.73446 149.383 -9.75661 149.387L-9.72701 149.427ZM43.3173 74.032C43.3358 74.0062 43.3321 73.984 43.3505 73.9581C43.3321 73.984 43.2877 73.9914 43.2656 73.9951L43.3173 74.032Z" fill="#EFECF0"/>
<path d="M207.849 58.4117C209.189 60.7953 210.845 62.1943 212.238 63.8005C212.861 64.5111 213.522 65.1688 213.819 66.1204C214.067 66.9171 213.976 67.6075 213.372 68.2443C212.789 68.8774 212.167 68.7254 211.512 68.5092C211.024 68.3348 210.521 68.2095 210.07 67.9823C204.302 65.0367 198.123 63.2075 192.081 60.9597C191.273 60.6527 190.447 60.5117 189.595 60.4914C188.396 60.4592 187.253 60.2083 186.106 59.7951C184.206 59.1353 184.206 59.1353 184.788 57.1285C192.26 57.5068 199.178 60.1901 206.532 63.01C205.8 60.9671 204.691 59.9652 203.743 58.9598C202.373 57.4894 202.179 56.1947 203.175 54.4678C203.693 53.5894 204.21 53.3864 205.01 53.6481C211.492 55.9156 218.44 56.5912 224.667 59.8093C228.129 61.5811 231.658 63.3418 235.597 63.9861C236.87 64.1919 237.611 65.465 237.245 66.4343C236.788 67.6752 235.88 67.5944 234.744 67.3888C230.005 66.4828 225.853 64.0116 221.501 62.1326C217.276 60.3255 212.853 59.2502 207.849 58.4117Z" fill="#EFECF0"/>
<path d="M118.993 52.7961C116.963 51.2843 115.315 50.4173 113.383 50.0322C112.652 49.8804 111.862 49.9213 111.211 49.4359C110.634 48.9838 109.77 48.58 110.009 47.6941C110.259 46.7379 110.66 45.7334 111.956 45.722C113.459 45.7218 114.969 45.6288 116.487 45.7175C120.594 45.8984 124.704 46.1015 128.757 47.0458C130.227 47.394 131.734 47.5531 133.262 47.4342C135.146 47.2559 136.923 47.9413 138.766 48.067C141.875 48.2777 144.985 48.4883 148.083 48.3581C148.74 48.3394 149.416 48.2948 150.351 48.8469C148.809 49.5625 147.458 50.2002 146.032 50.2561C142.842 50.3789 139.67 50.4759 136.468 50.2578C131.334 49.9289 126.278 49.107 121.196 48.5409C119.711 48.378 118.186 48.382 116.324 48.2823C117.053 49.3718 118.014 49.6682 118.742 50.2091C119.548 50.8057 120.464 51.2466 121.2 51.9692C122.472 53.1735 122.414 54.0519 120.838 54.8416C118.901 55.7834 116.741 56.3508 114.717 55.6841C111.085 54.5321 107.385 55.0146 103.721 54.6224C98.8055 54.097 93.8676 53.7124 88.9444 53.2797C88.5972 53.2464 88.0578 53.0167 88.1831 52.8128C88.5331 52.1827 88.2105 51.208 89.0927 50.9002C89.4803 50.7667 89.9456 50.6888 90.3261 50.7851C92.9672 51.3257 95.6883 50.9842 98.3367 51.4322C102.086 52.0616 105.878 51.9979 109.649 52.2122C111.097 52.2898 112.474 52.3562 113.867 52.7859C115.312 53.2526 116.826 53.3191 118.993 52.7961Z" fill="#EFECF0"/>
<path d="M141.124 35.6548C141.931 33.2831 141.496 30.9581 141.092 28.6743C140.979 28.0014 140.671 27.3844 140.581 26.7079C140.423 25.6277 140.876 24.5372 141.627 23.9965C142.436 23.3999 143.404 24.1599 144.095 24.7589C146.368 26.6607 148.677 28.5103 150.777 30.6025C153.45 33.2672 156.554 35.5142 158.812 38.8248C157.501 39.2749 156.61 38.4328 155.86 37.8897C153.666 36.3206 151.468 34.7291 149.608 32.712C147.829 30.7736 145.386 29.7534 143.676 27.688C143.001 28.6772 143.313 29.4549 143.411 30.1763C143.791 32.8562 143.132 35.4337 142.653 38.0039C142.298 39.954 141.351 40.1356 139.902 38.6723C138.29 37.0517 136.714 35.3789 135.102 33.7584C134.559 33.2269 134.026 32.6244 133.376 32.2722C131.205 31.1141 129.232 29.6462 127.3 28.1485C124.481 25.9693 121.398 24.2493 118.417 22.3277C117.066 21.4474 117.132 21.4363 117.883 19.9502C118.513 18.6918 119.304 19.3433 119.958 19.718C123.458 21.76 126.834 24.0073 130.005 26.5197C130.529 26.939 131.003 27.4591 131.601 27.774C134.418 29.2619 136.735 31.2945 138.781 33.7416C139.395 34.4227 139.998 35.1747 141.124 35.6548Z" fill="#EFECF0"/>
<path d="M193.932 42.6924C193.935 41.6257 194.644 41.5301 195.294 41.3518C197.5 40.7272 199.738 40.5611 201.996 40.7856C203.996 40.9605 205.977 40.8837 208.086 40.7623C207.978 39.575 207.2 38.9867 206.561 38.4214C205.517 37.4605 206.234 36.7377 206.502 35.7656C206.809 34.6247 207.479 34.698 208.185 34.8578C209.951 35.2574 211.642 34.3948 213.421 34.6066C215.848 34.8955 218.197 35.6612 220.475 36.4154C223.063 37.2569 225.71 37.5089 228.326 37.9749C228.745 38.0437 229.164 37.9736 229.587 38.065C230.451 38.2215 230.902 38.8877 230.924 39.6953C230.958 40.5706 230.39 41.1061 229.519 41.1824C229.097 41.23 228.671 41.255 228.273 41.1825C225.566 40.7087 222.805 40.5916 220.18 39.5247C217.842 38.5487 215.348 38.1319 212.862 37.7602C212.373 37.6798 211.854 37.6971 211.37 37.7783C210.58 37.9337 210.174 38.3495 210.681 39.2149C211.303 40.2234 211.951 41.2507 212.51 42.2928C212.937 43.0791 213.116 43.8835 212.48 44.6854C211.749 45.596 210.909 45.1804 210.206 44.7651C206.631 42.6285 202.507 43.4352 198.717 42.4474C198.055 42.2802 197.247 42.6008 196.502 42.7489C195.654 42.9605 194.78 43.1532 193.932 42.6924Z" fill="#EFECF0"/>
<path d="M226.309 85.3488C229.036 84.8254 230.798 85.8179 232.209 87.6243C233.504 89.2723 233.632 91.0937 232.879 92.9516C231.878 95.4504 230.076 97.3952 227.943 98.9514C225.551 100.684 221.143 98.3143 220.985 95.1214C220.813 91.9753 221.96 89.1633 223.877 86.7108C224.574 85.8393 225.572 85.45 226.309 85.3488ZM226.793 95.9247C228.234 95.6611 230.543 93.4316 230.84 92.0276C230.99 91.3363 230.824 90.7424 230.443 90.1847C229 88.0508 225.88 88.0848 224.492 90.2491C223.946 91.0953 223.728 92.0421 223.603 93.0177C223.346 95.3253 224.472 96.3579 226.793 95.9247Z" fill="#EFECF0"/>
<path d="M159.449 53.9348C159.192 53.0756 158.982 52.3663 158.727 51.6644C158.226 50.1692 159.085 48.8973 159.951 48.0755C160.836 47.228 162.355 47.718 163.526 48.0407C164.576 48.316 164.741 49.3035 164.633 50.2917C164.45 51.9241 163.827 53.382 162.776 54.5958C162.128 55.3585 161.846 56.1276 161.727 57.05C161.272 60.6004 160.795 64.1545 160.296 67.7123C160.21 68.2906 160.124 68.869 159.991 69.4328C159.835 70.1357 159.247 70.3019 158.622 70.2486C157.701 70.1997 157.883 69.515 157.95 68.9624C158.379 65.6645 158.782 62.3485 159.255 59.0432C159.531 57.2825 159.629 55.5516 159.449 53.9348Z" fill="#EFECF0"/>
<path d="M233.205 83.4695C232.853 81.3669 235.156 77.995 237.346 77.4276C238.375 77.1661 239.238 77.445 239.84 78.2577C240.813 79.6102 241.229 81.1226 240.441 82.6808C239.878 83.7778 239.15 84.8581 238.35 85.7942C237.437 86.8831 235.741 86.922 234.679 86.008C233.887 85.3162 233.436 84.4335 233.205 83.4695ZM238.767 81.1785C238.56 80.5 238.224 80.0216 237.339 80.1697C236.141 80.3928 235.105 81.5912 235.344 82.5986C235.509 83.3063 235.978 83.7403 236.779 83.6507C237.837 83.5626 238.972 82.1246 238.767 81.1785Z" fill="#EFECF0"/>
<path d="M245.151 94.3574C243.121 94.7439 241.161 92.5884 241.76 90.5151C242.148 89.1967 242.828 88.0149 243.795 87.0637C245.46 85.4385 247.65 86.1395 248.211 88.4133C248.842 90.8377 247.243 93.9374 245.151 94.3574ZM246.353 89.5601C246.142 89.108 245.783 88.9824 245.331 89.1046C244.334 89.3411 243.446 90.6273 243.812 91.3321C244.052 91.8257 244.553 91.997 245.082 91.7924C245.848 91.5248 246.558 90.2454 246.353 89.5601Z" fill="#EFECF0"/>
<path d="M83.4898 85.9431C80.2091 83.243 76.5213 81.6253 72.6776 80.5636C69.9472 79.7995 67.2498 78.9607 64.5592 78.0286C63.5522 77.6903 62.5268 77.3781 61.705 76.5247C61.9617 76.4356 62.119 76.294 62.2404 76.3429C67.5822 78.5133 73.2689 79.6349 78.578 81.88C80.0633 82.5069 81.3989 83.3203 82.6688 84.283C83.1326 84.6201 83.5598 85.0095 83.4898 85.9431Z" fill="#EFECF0"/>
<path d="M2.86608 124.793C-3.72665 121.062 -10.9609 121.897 -17.9997 121.283C-15.5353 120.587 -13.0491 120.572 -10.5656 120.816C-5.87523 121.304 -1.05613 121.323 2.86608 124.793Z" fill="#EFECF0"/>
<path d="M28.1298 106.121C33.0691 105.121 37.8885 103.67 42.6338 101.911C40.6508 103.653 31.2481 106.366 28.1298 106.121Z" fill="#EFECF0"/>
<path d="M69.4313 86.3415C70.817 85.8063 71.7819 86.7636 72.8099 87.4305C74.239 88.3567 74.8612 90.0706 76.1391 91.1619C76.3728 91.3559 76.5356 91.7948 76.2692 92.0725C75.8553 92.5381 75.4968 92.132 75.2839 91.7947C73.8114 89.4073 71.5945 87.9138 69.4852 86.2625L69.4313 86.3415Z" fill="#EFECF0"/>
<path d="M42.946 73.7516C39.177 75.3333 35.2511 76.5008 31.6027 78.41C32.0275 77.4116 32.987 77.2509 33.7483 76.8221C36.1487 75.4464 38.7502 74.6166 41.3516 73.7868C41.9123 73.6002 42.4454 73.5109 42.9962 73.7895L42.946 73.7516Z" fill="#EFECF0"/>
<path d="M16.3436 120.509C14.5527 119.475 13.0867 117.998 11.5732 116.238C13.5201 116.616 15.2607 118.143 16.3436 120.509Z" fill="#EFECF0"/>
<path d="M69.4133 86.2355C67.8839 85.1658 65.6772 85.3404 63.9932 84.1406C66.7015 83.921 68.6761 84.7406 69.3766 86.2807L69.4133 86.2355Z" fill="#EFECF0"/>
<path d="M95.5313 66.6082C94.7698 66.9563 94.0874 66.8746 93.4191 66.1043C94.2816 65.7148 94.933 65.9978 95.5313 66.6082Z" fill="#EFECF0"/>
<path d="M39.4461 113.148C38.8059 114.105 38.119 113.667 37.4667 113.437C37.9858 112.712 38.5879 112.484 39.4461 113.148Z" fill="#EFECF0"/>
<path d="M7.95488 155.374C7.42543 156.139 6.87228 156.907 6.34283 157.672C6.36735 156.509 7.03491 155.842 7.98645 155.417C8.01013 155.413 7.95488 155.374 7.95488 155.374Z" fill="#EFECF0"/>
<path d="M89.7969 74.748C91.0091 74.846 91.5387 75.0583 91.9345 75.4039C91.1149 75.4778 90.5575 75.2543 89.7969 74.748Z" fill="#EFECF0"/>
<path d="M49.4511 100.236C48.8813 100.755 48.3184 101.315 47.4993 100.69C48.0171 99.63 48.7178 99.8936 49.4511 100.236Z" fill="#EFECF0"/>
<path d="M44.7715 102.568C45.1804 101.185 45.8596 101.673 46.579 101.252C46.0626 102.502 45.4921 102.41 44.7715 102.568Z" fill="#EFECF0"/>
<path d="M93.3556 129.389C92.1723 130.09 91.7293 131.329 90.9801 132.345C88.6418 131.503 88.9036 129.45 88.5737 127.747C88.1328 125.514 88.9083 123.717 90.6381 122.263C89.0623 125.039 89.0759 127.8 90.5454 130.819C92.0799 129.671 93.4186 128.694 93.6292 126.603C93.8996 123.932 94.4785 123.104 96.6041 121.469C94.1011 124.332 93.996 127.455 95.6777 130.804C94.2461 131.227 94.3423 129.658 93.3556 129.389Z" fill="#EFECF0"/>
<path d="M65.5706 129.502C65.3594 127.834 66.4978 126.654 67.1142 125.331C70.1055 119.122 74.3157 113.837 79.4428 109.296C79.6809 109.095 80.022 108.968 80.2934 108.831L80.2418 108.794C79.7543 110.21 78.6151 111.114 77.6191 112.064C73.5216 115.857 70.536 120.477 67.9886 125.414C67.2734 126.823 66.536 128.235 65.497 129.468L65.5706 129.502Z" fill="#EFECF0"/>
<path d="M89.0635 118.82C88.4552 119.71 87.847 120.6 87.2387 121.49C85.7887 123.572 84.9923 125.742 86.1034 128.139C86.2862 128.524 86.4425 128.892 85.8654 129.12C85.3114 129.344 85.1054 128.963 84.9031 128.603C83.6166 126.147 84.4874 123.856 85.9036 121.714C86.6799 120.555 87.7945 119.58 88.7533 118.522C88.8667 118.634 88.9766 118.725 89.0635 118.82Z" fill="#EFECF0"/>
<path d="M77.7438 135.745C78.7066 133.705 79.6489 131.669 80.6357 129.647C80.7899 129.312 81.15 129.075 81.6159 128.842C79.7213 131.347 80.4828 134.137 80.8903 137.075C79.545 136.704 79.9259 135.336 79.2042 134.794C78.5206 134.731 78.3372 135.646 77.6957 135.709L77.7438 135.745Z" fill="#EFECF0"/>
<path d="M74.2238 145.254C74.0068 143.674 74.5089 142.414 75.706 141.331C76.3046 140.79 77.0238 140.544 77.3454 141.33C77.9614 142.738 79.1142 143.805 80.3122 145.284C77.7492 145.02 77.5992 142.988 76.2657 142.119C75.0241 142.936 75.0681 144.336 74.2238 145.254Z" fill="#EFECF0"/>
<path d="M85.3875 115.03C84.7665 117.049 84.1701 119.063 84.218 121.309C82.3955 119.918 82.7631 117.893 85.3875 115.03Z" fill="#EFECF0"/>
<path d="M96.244 107.207C95.8234 108.126 95.3768 109.028 94.9749 109.922C94.6565 110.628 94.0729 110.574 93.4903 110.389C92.8854 110.207 92.5545 109.74 92.5223 109.136C92.5281 108.896 92.8245 108.607 92.9799 108.711C94.5078 109.739 94.7575 108.348 95.3442 107.597C95.5841 107.383 95.7392 107.074 96.244 107.207Z" fill="#EFECF0"/>
<path d="M95.1204 106.304C96.3905 104.002 97.5091 103.391 99.766 104.018C97.9587 104.718 96.4404 105.289 95.0715 106.259L95.1204 106.304Z" fill="#EFECF0"/>
<path d="M44.7815 126.853C43.3548 124.96 43.2726 124.784 43.1413 122.105C43.9241 123.941 44.506 125.312 44.7378 126.908L44.7815 126.853Z" fill="#EFECF0"/>
<path d="M76.0283 131.807C75.827 132.821 76.4432 133.82 76.0677 134.843C75.0432 133.504 75.0456 133.401 76.0283 131.807Z" fill="#EFECF0"/>
<path d="M39.0371 128.877C39.1729 128.873 39.3406 128.826 39.4285 128.885C40.0616 129.406 40.6567 129.933 41.3398 130.519C39.7195 130.625 39.45 130.412 39.0371 128.877Z" fill="#EFECF0"/>
<path d="M64.4792 129.684C64.0403 130.421 63.9424 131.404 62.877 131.98C63.1569 130.853 63.4466 130.009 64.5218 129.715C64.5401 129.712 64.4792 129.684 64.4792 129.684Z" fill="#EFECF0"/>
<path d="M82.4454 139.857C83.0725 137.661 83.0725 137.661 84.7743 136.425C85.1045 136.631 84.904 136.879 84.7481 137.071C84.0797 137.896 83.4073 138.698 82.4454 139.857Z" fill="#EFECF0"/>
<path d="M75.5324 121.751C74.9711 120.643 75.2234 120.141 75.2322 119.603C75.2468 119.217 75.417 118.933 75.8456 118.657C76.1016 119.713 75.7796 120.508 75.5324 121.751Z" fill="#EFECF0"/>
<path d="M78.6252 135.554C78.0992 136.046 77.7412 137.196 76.7814 136.307C77.0933 134.882 78.1734 136.316 78.6947 135.623L78.6252 135.554Z" fill="#EFECF0"/>
<path d="M73.8924 147.372C73.5189 147.229 73.4093 146.954 73.5469 146.637C73.6157 146.479 73.9365 146.308 74.0697 146.344C74.4645 146.425 74.5528 146.762 74.4152 147.079C74.3416 147.209 74.0682 147.284 73.8924 147.372Z" fill="#EFECF0"/>
<path d="M80.3165 108.782C80.5257 108.286 81.1115 108.004 82.0936 107.47C81.6502 108.313 81.0644 108.595 80.2878 108.756C80.2641 108.76 80.3165 108.782 80.3165 108.782Z" fill="#EFECF0"/>
<path d="M44.795 126.934C45.2169 127.099 45.6388 127.264 45.9378 127.704C45.1 127.971 45.0484 127.327 44.8255 126.892L44.795 126.934Z" fill="#EFECF0"/>
<path d="M100.097 105.992C99.9224 106.221 99.7688 106.447 99.5748 106.559C99.3951 106.629 99.0574 106.646 99.146 106.031C99.1833 105.745 99.46 105.619 99.6812 105.542C99.7574 105.489 99.9129 105.783 100.097 105.992Z" fill="#EFECF0"/>
<path d="M94.877 105.329C94.8864 105.968 94.7081 106.417 94.0931 106.471C94.1056 105.73 94.3799 105.388 94.923 105.371L94.877 105.329Z" fill="#EFECF0"/>
<path d="M46.4926 118.901C46.4475 119.342 46.2165 119.562 45.8982 119.615C45.6088 119.664 45.4866 119.467 45.6249 119.227C45.7402 119.027 45.8903 118.857 46.0693 118.682C46.2945 118.428 46.4279 118.514 46.4926 118.901Z" fill="#EFECF0"/>
<path d="M154.537 124.721C152.042 125.072 149.54 125.114 147.106 124.343C143.526 123.21 141.524 120.7 141.674 117.008C141.97 110.269 144.467 107.228 150.293 104.63C152.838 103.492 155.49 103.137 158.346 103.592C163.385 104.393 167.09 108.839 165.542 114.988C164.405 119.535 160.967 123.977 154.537 124.721ZM152.6 105.044C146.179 106.519 142.296 110.592 143.542 117.095C144.042 119.678 145.691 121.291 148.118 122.152C153.758 124.118 159.059 122.164 162.047 117.062C164.999 112.012 163.17 107.562 159.313 105.719C157.128 104.685 154.754 104.816 152.6 105.044Z" fill="#EFECF0"/>
<path d="M120.227 137.522C118.397 135.747 117.755 133.527 117.522 131.059C117.275 128.503 116.874 125.974 116.587 123.448C116.266 120.592 116.257 117.572 117.515 114.72C118.395 115.132 118.142 115.778 118.091 116.279C117.709 120.731 119.567 124.158 123.084 126.725C125.499 128.491 127.872 130.287 129.888 132.502C130.385 133.045 130.805 133.669 131.181 134.3C131.272 134.441 131.18 134.837 131.042 134.95C130.903 135.063 130.563 135.052 130.369 134.973C130.154 134.897 129.96 134.683 129.796 134.509C126.615 130.856 122.156 128.716 118.573 125.354C118.758 128.21 118.79 131.093 119.753 133.752C120.52 135.906 122.543 136.687 124.651 137.162C125.425 137.345 126.313 137.13 127.047 137.88C126.488 138.846 125.516 138.696 124.661 138.705C123.039 138.708 121.64 137.89 120.143 137.424L120.227 137.522Z" fill="#EFECF0"/>
<path d="M136.796 109.463C137.433 109.998 137.358 110.446 137.253 110.853C136.48 113.962 136.678 117.069 136.754 120.196C136.79 121.45 136.757 122.739 136.543 123.99C135.805 128.193 136.724 132.049 138.873 135.677C139.325 136.45 139.757 137.248 140.326 138.276C137.292 136.927 136.46 134.477 135.925 132.023C135.349 129.323 135.035 126.557 135.308 123.738C135.628 120.453 135.699 117.164 135.919 113.873C136.03 112.456 135.96 111.001 136.796 109.463Z" fill="#EFECF0"/>
<path d="M120.401 138.571C122.116 141.608 124.386 144.223 126.653 146.814C127.688 148.008 129.308 148.256 130.62 149.026C128.445 149.343 126.745 148.331 125.238 146.957C124.415 146.198 123.769 145.246 123.107 144.343C122.105 142.931 121.185 141.458 120.183 140.046C119.699 139.372 119.792 138.956 120.48 138.628C120.476 138.605 120.401 138.571 120.401 138.571Z" fill="#EFECF0"/>
<path d="M158.832 143.287C154.893 143.306 150.994 143.148 147.548 141.121C149.588 140.843 151.303 141.944 153.27 142.062C155.193 142.189 157.079 142.513 158.974 142.751C158.915 142.953 158.875 143.13 158.832 143.287Z" fill="#EFECF0"/>
<path d="M125.354 141.797C126.17 142.079 127.019 142.334 127.657 143.439C126.352 143.525 126.123 142.153 125.354 141.797Z" fill="#EFECF0"/>
<path d="M163.263 144.147C162.659 144.863 162.043 144.932 161.258 144.278C161.862 143.561 162.5 143.625 163.263 144.147Z" fill="#EFECF0"/>
<path d="M157.457 133.689C157.426 134.116 157.194 134.409 156.825 134.499C156.626 134.532 156.46 134.306 156.582 134.117C156.695 133.873 156.886 133.643 157.092 133.496C157.243 133.33 157.415 133.442 157.457 133.689Z" fill="#EFECF0"/>
<path d="M153.417 178.635C151.772 178.814 150.325 178.861 148.995 177.89C148.317 177.395 147.534 177.063 146.696 177.057C146.033 177.047 145.381 176.839 144.861 176.366C144.054 175.624 142.619 174.817 143.014 173.753C143.484 172.48 144.663 173.866 145.522 173.99C148.297 174.378 150.839 175.608 153.381 176.839C153.882 177.072 154.668 176.891 154.674 177.719C154.694 178.763 153.816 178.52 153.417 178.635Z" fill="#EFECF0"/>
<path d="M202.778 131.872C202.921 126.148 201.946 120.475 201.987 114.768C205.08 120.243 204.215 126.044 202.778 131.872Z" fill="#EFECF0"/>
<path d="M199.915 112.073C198.641 111.325 198.663 110.381 198.411 109.685C197.722 107.586 197.245 105.407 195.335 103.96C195.05 103.739 194.945 103.242 194.879 102.85C194.712 101.849 195.307 101.369 196.176 101.85C197.735 102.685 199.123 103.84 199.407 105.671C199.716 107.655 199.741 109.686 199.915 112.073Z" fill="#EFECF0"/>
<path d="M182.524 168.382C182.652 168.886 182.487 169.334 182.105 169.65C181.184 170.393 180.393 171.262 179.394 171.933C178.651 172.436 178.029 172.751 177.245 172.23C176.802 171.926 176.926 170.329 177.578 169.925C178.841 169.146 180.216 168.516 181.592 167.887C181.977 167.717 182.367 167.967 182.524 168.382Z" fill="#EFECF0"/>
<path d="M166.489 175.534C166.249 176.27 165.758 176.452 165.175 176.629C163.126 177.27 161.089 176.896 159.063 176.857C158.879 176.848 158.594 176.637 158.543 176.467C158.422 176.149 158.705 175.942 159.027 175.829C159.263 175.75 159.486 175.593 159.736 175.591C161.97 175.515 164.219 175.258 166.489 175.534Z" fill="#EFECF0"/>
<path d="M193.385 99.9854C191.475 98.344 189.063 97.1605 188.284 93.7422C190.508 95.2842 192.674 97.8398 193.385 99.9854Z" fill="#EFECF0"/>
<path d="M192.768 156.868C192.831 159.598 191.45 161.04 189.807 162.434C188.939 160.296 189.338 159.498 192.768 156.868Z" fill="#EFECF0"/>
<path d="M173.487 172.265C173.818 172.249 174.232 172.199 174.618 172.25C174.979 172.286 175.178 172.542 175.142 172.857C175.13 173.052 175.047 173.355 174.902 173.418C173.603 173.886 172.31 174.392 170.965 174.714C170.323 174.86 170.207 174.301 170.508 173.845C171.148 172.889 172.271 172.566 173.487 172.265Z" fill="#EFECF0"/>
<path d="M140.831 173.679C139.74 173.544 139.21 173.112 138.529 172.04C139.665 171.792 140.127 172.467 140.831 173.679Z" fill="#EFECF0"/>
<path d="M65.3705 171.106C58.0274 174.537 50.2786 176.881 42.19 177.996C45.9569 176.45 50.0709 176.175 53.9022 174.879C57.69 173.591 61.6 172.631 65.3705 171.106Z" fill="#EFECF0"/>
<path d="M55.3578 183.972C50.4815 188.161 36.0208 194.147 31.6533 193.79C31.8172 193.144 32.4033 193.259 32.8072 193.234C36.9091 192.952 40.5439 191.234 44.16 189.54C47.4627 188.005 50.6249 186.174 53.8557 184.48C54.2945 184.257 54.6974 183.955 55.3578 183.972Z" fill="#EFECF0"/>
<path d="M60.2787 177.029C57.7638 179.134 54.8152 180.28 51.8976 181.474C54.4479 179.445 57.4452 178.454 60.2787 177.029Z" fill="#EFECF0"/>
<path d="M68.9109 174.084C67.1381 175.565 65.3444 177.049 63.5675 178.506C65.0992 176.612 66.7141 174.83 68.6575 173.597C68.7489 173.758 68.8195 173.923 68.9109 174.084Z" fill="#EFECF0"/>
<path d="M58.1137 176.378C56.2226 178.237 53.868 178.774 51.5675 179.502C53.654 178.153 55.7545 176.887 58.1444 176.43C58.1659 176.426 58.1137 176.378 58.1137 176.378Z" fill="#EFECF0"/>
<path d="M45.7778 181.259C46.8354 179.989 48.2518 180.064 49.6211 179.991C48.5751 181.197 47.1993 181.365 45.7778 181.259Z" fill="#EFECF0"/>
<path d="M47.6358 198.41C48.8351 197.541 50.0514 196.646 51.2507 195.777C50.3808 197.211 49.1529 198.037 47.6358 198.41Z" fill="#EFECF0"/>
<path d="M46.1744 183.626C44.2949 184.486 42.9345 185.259 41.3579 185.138C42.7973 184.704 43.9989 183.381 46.1744 183.626Z" fill="#EFECF0"/>
<path d="M60.7742 179.987C60.1472 181.344 59.1565 181.898 58.1456 182.455C58.7822 181.155 59.6936 180.377 60.7742 179.987Z" fill="#EFECF0"/>
<path d="M38.3827 197.932C37.9811 199.195 36.9754 199.104 35.6348 199.406C36.6208 198.253 37.6306 198.37 38.4327 197.95L38.3827 197.932Z" fill="#EFECF0"/>
<path d="M38.6044 198.779C39.8608 198.274 41.1173 197.77 42.3738 197.265C41.3584 198.44 40.0611 198.853 38.5754 198.759C38.5543 198.787 38.6044 198.779 38.6044 198.779Z" fill="#EFECF0"/>
<path d="M44.3267 196.814C44.3875 196.087 44.9233 195.655 45.1019 195.874C45.4794 196.434 44.987 196.641 44.7363 196.839C44.6529 196.946 44.4698 196.821 44.3267 196.814Z" fill="#EFECF0"/>
<path d="M50.1027 192.928C49.7825 192.946 49.6428 192.755 49.7709 192.554C49.9396 192.275 50.1404 192.027 50.3587 191.883C50.5567 191.778 50.7081 192.039 50.5859 192.274C50.4695 192.545 50.257 192.723 50.1027 192.928Z" fill="#EFECF0"/>
<path d="M152.949 118.925C149.352 119.549 146.597 116.824 147.331 113.382C147.947 110.469 150.937 107.866 153.91 107.633C156.565 107.432 159.08 109.954 158.889 112.663C158.653 115.646 156.053 118.383 152.949 118.925ZM152.101 113.999C152.814 113.725 153.037 113.134 153.111 112.48C153.147 112.142 152.888 111.832 152.496 111.964C151.888 112.176 151.603 112.667 151.614 113.284C151.62 113.593 151.629 113.924 152.101 113.999Z" fill="#EFECF0"/>
</svg>
