<svg width="50" height="40" viewBox="0 0 50 40" fill="none" xmlns="http://www.w3.org/2000/svg">
<rect x="0.25" y="0.25" width="49.5" height="39.5" rx="19.75" fill="white"/>
<rect x="0.25" y="0.25" width="49.5" height="39.5" rx="19.75" stroke="#CCD7E2" stroke-width="0.5"/>
<path d="M28.5954 12.2051H21.4054C19.0854 12.2051 17.2051 14.0857 17.2051 16.4057V23.5951C17.2051 25.9151 19.0857 27.7957 21.4057 27.7957H28.5951C30.9151 27.7957 32.7957 25.9151 32.7957 23.5951V16.4057C32.7957 14.0857 30.9154 12.2051 28.5954 12.2051Z" stroke="#18131B" stroke-width="0.5" stroke-miterlimit="10"/>
<path d="M24.9997 23.763C27.0781 23.763 28.763 22.0781 28.763 19.9997C28.763 17.9212 27.0781 16.2363 24.9997 16.2363C22.9212 16.2363 21.2363 17.9212 21.2363 19.9997C21.2363 22.0781 22.9212 23.763 24.9997 23.763Z" stroke="#18131B" stroke-width="0.5" stroke-miterlimit="10"/>
<path d="M29.57 16.2357C30.0153 16.2357 30.3763 15.8747 30.3763 15.4294C30.3763 14.9841 30.0153 14.623 29.57 14.623C29.1247 14.623 28.7637 14.9841 28.7637 15.4294C28.7637 15.8747 29.1247 16.2357 29.57 16.2357Z" fill="#18131B"/>
</svg>
