<svg width="96" height="63" viewBox="0 0 96 63" fill="none" xmlns="http://www.w3.org/2000/svg">
<path d="M26.0081 36.9783C26.0081 36.7752 26.0173 36.8458 26.0081 36.837C26.0081 36.837 25.9898 36.9253 26.0081 36.9959C26.0173 37.0577 26.0264 37.0842 26.0264 37.0754C26.0264 37.0754 26.0081 36.9695 26.0081 36.9783Z" fill="#7B181E"/>
<path d="M28.0495 41.5691L27.9124 41.4102C28.2597 41.5338 28.7443 41.6044 29.2288 41.6839C28.8082 41.6574 28.3877 41.6309 28.0495 41.5691Z" fill="#7B181E"/>
<path d="M35.3994 39.209C35.4177 39.262 35.436 39.3239 35.4269 39.3946C35.4269 39.598 35.308 39.8013 35.0977 39.9605C34.8783 40.1196 34.6315 40.2257 34.2659 40.3406C33.5711 40.5528 32.6661 40.6854 31.9896 41.0037L31.7793 41.2424L30.9565 40.8092C31.825 40.6501 32.9037 40.4821 33.7448 40.2522C34.1653 40.1373 34.5401 39.987 34.7687 39.8544C35.0246 39.7129 35.2257 39.5272 35.3354 39.3327C35.3629 39.2974 35.3811 39.2532 35.3903 39.2178L35.3994 39.209Z" fill="#7B181E"/>
<path d="M33.9822 36.5915C34.165 36.6268 34.1742 36.4591 34.1742 36.4414C34.165 36.4061 34.2107 36.6092 34.2107 37.1124C34.165 37.0683 34.1468 37.0595 34.1193 37.033C34.101 36.9358 34.0919 36.8387 33.9822 36.5915Z" fill="#7B181E"/>
<path d="M34.1197 37.035C33.7997 36.8046 34.1654 37.4603 34.1197 37.035V37.035Z" fill="#7B181E"/>
<path d="M32.9036 34.1863C33.0408 34.5664 33.1596 34.92 33.251 35.256C32.9951 35.1764 32.4191 34.3719 32.5014 34.7521C32.2454 34.2304 32.1632 33.9652 32.2546 33.9033C32.3369 33.8415 32.5837 33.9829 32.9036 34.1863Z" fill="#7B181E"/>
<path d="M32.7485 32.9062L33.0136 33.4978C32.8856 33.4448 32.7577 33.3124 32.7485 32.9062Z" fill="#7B181E"/>
<path d="M33.5071 34.6984C33.37 34.3183 33.1963 33.9116 33.0134 33.4961C33.2237 33.5668 33.4614 33.4519 33.2785 34.053C33.4157 33.832 33.3791 34.1857 33.5071 34.7073V34.6984Z" fill="#7B181E"/>
<path d="M33.9458 35.2042C34.1652 35.4075 34.3663 35.655 34.4943 35.7258C34.6132 35.7965 34.7046 35.7081 34.5949 35.1953C34.9971 36.0971 34.8691 36.4507 34.7229 36.4419C34.5583 36.4154 34.3663 36.0706 33.9458 35.2042Z" fill="#7B181E"/>
<path d="M36.3048 39.3865C36.259 39.5722 36.2042 39.749 36.1219 39.9347C36.0854 40.0054 36.0579 40.085 36.0122 40.1557C35.7745 40.2618 35.5277 40.3414 35.29 40.3944C35.482 40.359 35.7563 40.0585 35.9391 39.7932C36.1036 39.5368 36.2133 39.3158 36.3139 39.3954L36.3048 39.3865Z" fill="#7B181E"/>
<path d="M29.3019 31.6581C29.247 31.4904 29.6401 31.2343 29.7224 31.0312C29.9418 31.1107 30.1338 31.199 30.2709 31.2961C30.0423 31.3491 29.375 31.4109 29.3019 31.6581Z" fill="#7B181E"/>
<path d="M29.7223 31.0317C29.3841 30.9169 28.9727 30.811 28.5156 30.7227C29.119 30.6962 29.4207 30.7403 29.5761 30.8021C29.7315 30.8639 29.7498 30.9434 29.7132 31.0317H29.7223Z" fill="#7B181E"/>
<path d="M33.37 32.2324C33.6168 32.9486 33.9002 33.7177 34.0739 34.3896C33.8271 33.6116 33.4431 32.6833 33.1323 31.8965L33.37 32.2324Z" fill="#7B181E"/>
<path d="M24.713 32.012C24.9415 32.0827 25.1883 32.1798 25.4169 32.2681C25.0055 32.1445 24.6033 32.0297 24.1919 31.9414L24.7221 32.0209L24.713 32.012Z" fill="#7B181E"/>
<path d="M22.336 32.7734C22.7748 32.8707 22.2446 33.4277 22.6377 33.41C22.1898 33.6045 21.7693 33.631 21.3396 33.7725C21.6961 33.5603 21.9064 33.3127 22.336 32.7734Z" fill="#7B181E"/>
<path d="M20.6904 34.1266C20.855 33.9588 21.0927 33.8617 21.3395 33.7734C21.1567 33.897 20.9464 33.9853 20.6904 34.1266Z" fill="#7B181E"/>
<path d="M26.3219 30.9141C26.2396 31.02 26.0751 31.2849 25.426 31.488L25.8283 30.9759C25.9745 30.9494 26.1482 30.9406 26.3219 30.9141Z" fill="#7B181E"/>
<path d="M25.8462 30.959L25.828 30.9767C25.2977 31.0565 24.9502 31.1274 24.804 31.1628C24.932 31.1362 25.2337 31.0653 25.8462 30.959Z" fill="#7B181E"/>
<path d="M26.4498 30.9023C26.4498 30.9023 26.3675 30.9114 26.3218 30.9205C26.3675 30.8657 26.3949 30.8474 26.4498 30.9023Z" fill="#7B181E"/>
<path d="M31.1758 30.5981C31.0752 30.3859 30.7369 30.1384 30.5084 29.9439C30.289 29.7582 30.2981 29.5637 30.9929 29.5195C31.1666 29.7406 31.0478 29.8466 30.9929 29.9881C30.9289 30.1296 30.9746 30.2799 31.1666 30.5981H31.1758Z" fill="#7B181E"/>
<path d="M27.0256 30.28C27.4919 30.2094 27.9581 30.1652 28.4426 30.1211C28.4152 30.2447 28.1683 30.4301 28.5614 30.5449C28.0495 30.4478 27.5467 30.3506 27.0348 30.28H27.0256Z" fill="#7B181E"/>
<path d="M26.3218 30.1914C26.5503 30.2092 26.788 30.2538 27.0166 30.2805L26.5046 30.3607L26.3218 30.1914Z" fill="#7B181E"/>
<path d="M21.2573 32.78C20.8002 32.8861 20.5168 33.2309 20.2151 33.6288C20.4253 33.1337 20.7545 32.6651 21.2207 32.3203C21.3852 32.3822 21.7143 32.4353 21.2573 32.7712V32.78Z" fill="#7B181E"/>
<path d="M23.1128 31.6244C23.1128 31.6244 23.0305 31.6244 22.9939 31.6336C23.0488 31.5787 23.0945 31.5421 23.1128 31.6244Z" fill="#7B181E"/>
<path d="M19.3828 39.9531C19.3828 39.9531 19.328 39.8818 19.3005 39.8462C19.328 39.8373 19.3463 39.8284 19.3737 39.8105V39.9531H19.3828Z" fill="#7B181E"/>
<path d="M21.2479 32.2088C21.5587 31.8733 21.8878 31.8203 22.1895 31.8203C22.0158 31.8733 21.8421 31.9439 21.6867 32.0322C21.513 32.1117 21.3668 32.2176 21.2114 32.3236C21.1382 32.2971 21.1108 32.2706 21.2388 32.2L21.2479 32.2088Z" fill="#7B181E"/>
<path d="M20.0324 35.4257C19.9958 35.1605 19.9867 34.8776 20.005 34.6035C20.0598 34.8511 20.1604 35.355 20.0324 35.4257Z" fill="#7B181E"/>
<path d="M22.8937 31.8104C22.8937 31.8104 22.9394 31.8104 22.9668 31.8008C22.8662 31.964 22.8571 31.9064 22.8937 31.8104Z" fill="#7B181E"/>
<path d="M22.8937 31.8101C22.6377 31.8455 22.4091 31.81 22.1897 31.8189C22.4548 31.7126 22.7474 31.6594 22.9943 31.6328C22.9486 31.6771 22.912 31.7569 22.8937 31.8101Z" fill="#7B181E"/>
<path d="M17.0797 42.5607C17.4088 42.3574 17.4453 40.6953 16.97 39.2807C17.2168 37.8396 18.5332 38.8033 19.3011 39.8465C19.1457 39.8996 18.9446 39.9084 18.8897 41.2699C18.7526 41.0577 18.5332 40.3239 18.3595 39.7758C18.1767 39.2277 18.0213 38.8652 17.8567 39.4752C17.8202 40.4124 17.9024 40.8014 18.0213 41.0401C18.1492 41.2876 18.2864 41.4114 18.4692 41.8269C18.1767 41.4909 18.0853 42.101 18.0487 42.7729C18.003 43.4448 18.0213 44.1874 17.6282 44.0813C17.5185 43.5067 17.4545 42.932 17.4088 42.3662C17.2899 42.3574 17.2717 43.0027 17.0614 42.5519L17.0797 42.5607Z" fill="#7B181E"/>
<path d="M19.2551 37.2971L19.3374 36.7578C19.3648 37.3767 19.502 37.8452 19.8036 38.6409C19.6208 39.5339 19.502 39.7372 19.374 39.8079C19.3008 38.9238 19.2917 38.0132 19.3282 37.1115L19.2551 37.2971Z" fill="#7B181E"/>
<path d="M19.7304 34.5842C19.4653 34.6903 19.2093 35.0263 18.9991 35.2562C18.7888 35.486 18.606 35.6009 18.4414 35.1677C18.6151 34.3986 18.8071 34.1864 18.9716 34.045C19.1453 33.9123 19.3007 33.8504 19.5658 33.541C19.3007 34.0007 19.2459 34.2483 19.2368 34.319C19.2368 34.3897 19.3007 34.3013 19.4013 34.2129C19.5933 34.0273 19.8218 33.8151 19.6938 34.5577C19.895 34.1864 20.0504 33.8858 20.2241 33.6383C20.1052 33.9388 20.0412 34.2748 20.0138 34.6019C20.0138 34.5843 20.0138 34.5665 20.0047 34.5489C19.9772 34.4516 19.959 34.4163 19.9498 34.5135C19.9498 34.5135 19.9315 34.54 19.9315 34.5489C19.8675 34.5489 19.8035 34.5666 19.7395 34.5931C19.6573 35.2119 19.8218 34.708 19.9315 34.5489C19.9589 34.5489 19.9772 34.54 20.0047 34.5489C19.7121 35.1589 19.4927 35.9192 19.3465 36.7591C19.3465 36.2286 19.3921 35.5302 19.7304 34.5842Z" fill="#7B181E"/>
<path d="M29.7593 28.3242C29.6679 28.3626 29.6679 28.401 29.6587 28.4394C29.4759 28.3722 29.4027 28.3242 29.7593 28.3242Z" fill="#7B181E"/>
<path d="M28.5614 28.5899C28.7717 28.6517 28.9545 28.8286 29.6219 28.802C30.1978 28.6871 29.631 28.581 29.6676 28.4219C30.0881 28.5633 31.0023 28.8816 29.7864 28.9965L29.5945 28.9258C29.0368 28.9789 28.3695 29.191 27.8941 29.3767C27.4187 29.5712 27.1262 29.748 27.2176 29.7745C27.5193 29.3413 27.7935 29.0231 28.5614 28.5987V28.5899Z" fill="#7B181E"/>
<path d="M22.336 30.5174C21.6412 30.7119 20.9922 30.9949 20.3979 31.3662C20.5899 31.0479 20.8185 30.7473 21.0836 30.4379L21.1567 30.6677C21.6778 30.3318 21.9337 30.2787 22.0709 30.3141C22.208 30.3495 22.2263 30.4644 22.336 30.5174Z" fill="#7B181E"/>
<path d="M19.6119 40.1738L20.0324 39.8555C19.8496 40.271 19.6759 40.6954 19.5205 41.1286C19.5388 40.8103 19.5662 40.492 19.6028 40.1738H19.6119Z" fill="#7B181E"/>
<path d="M19.9958 42.8339L20.3341 42.6484C20.3158 42.8868 20.2975 43.134 20.2975 43.3636C20.1878 43.1958 20.0873 43.0193 19.9958 42.8339Z" fill="#7B181E"/>
<path d="M68.1359 29.2638L68.1176 29.1774C68.1176 29.1774 68.1084 29.1582 68.1176 29.1582H68.1724L68.2822 29.1774C68.2364 29.1774 68.1999 29.1774 68.1541 29.1678C68.0993 29.1582 68.1542 29.187 68.1359 29.1966C68.1359 29.2254 68.1359 29.2446 68.1359 29.2638Z" fill="#7B181E"/>
<path d="M69.8727 30.2087C69.8727 30.2087 69.8727 30.2759 69.8727 30.3143C69.7996 30.2375 69.7996 30.1799 69.8727 30.2087Z" fill="#7B181E"/>
<path d="M53.9753 47.0949C54.5056 47.0331 55.0815 46.9536 55.4197 46.9006C55.4929 46.883 55.566 46.8742 55.6208 46.8653C55.6848 46.8565 55.758 46.8477 55.8128 46.8477C55.9134 46.8477 55.9682 46.8653 55.9408 46.9271L55.6391 47.1567C55.0723 47.1125 54.4416 47.0861 53.9753 47.1037V47.0949Z" fill="#7B181E"/>
<path d="M68.2185 41.6222C68.127 41.6667 68.0356 41.7202 67.9442 41.7647C67.679 41.7647 67.4322 41.7825 67.2036 41.7647C67.5145 41.738 67.8527 41.6667 68.2185 41.6133V41.6222Z" fill="#7B181E"/>
<path d="M69.1873 42.1783C69.6261 41.9929 70.0557 41.8075 70.4854 41.6133C70.202 41.7634 69.7906 41.9488 69.1873 42.1783Z" fill="#7B181E"/>
<path d="M88.4214 15.2235L89.0339 14.5781C88.4305 15.754 88.5768 15.1793 88.4214 15.2235Z" fill="#7B181E"/>
<path d="M45.9675 54.6113C46.8635 54.6556 47.5675 54.7265 48.1801 54.7974C47.1104 54.7974 46.2052 54.886 45.9675 54.6113Z" fill="#7B181E"/>
<path d="M64.7075 30.1119C64.3418 29.7676 64.2321 29.6263 64.3144 29.6352C64.6892 29.9707 64.8721 30.1737 64.7075 30.1119Z" fill="#7B181E"/>
<path d="M50.7027 55.0882C50.5473 55.0971 50.3919 55.097 50.2365 55.1059C49.6057 54.9999 48.9658 54.8852 48.1887 54.7969C48.9841 54.7969 49.8708 54.8322 50.7027 55.0882Z" fill="#7B181E"/>
<path d="M5.05801 26.6914C5.03059 26.7623 4.99402 26.8421 4.97573 26.9129C4.90259 26.8952 4.95744 26.8066 5.05801 26.6914Z" fill="#7B181E"/>
<path d="M6.6854 55.3718C6.61226 55.0977 6.45684 54.6645 6.32886 54.2578C6.41113 54.4523 6.52999 54.7794 6.6854 55.3718Z" fill="#7B181E"/>
<path d="M27.044 50.0092C26.4863 49.7562 26.9618 49.9369 27.044 50.0092V50.0092Z" fill="#7B181E"/>
<path d="M23.7253 49.9609C23.8168 50.0669 23.8807 50.164 23.8533 50.2435C23.8533 50.1463 23.8076 50.0492 23.7253 49.9609Z" fill="#7B181E"/>
<path d="M57.3761 56.5189C57.3761 56.5189 57.4127 56.5189 57.431 56.5098C57.3121 56.5738 57.3304 56.5646 57.3761 56.5189Z" fill="#7B181E"/>
<path d="M26.1392 49.8008C26.3677 49.8451 26.6237 49.916 26.898 50.0046C26.77 49.978 26.5414 49.916 26.1392 49.8008Z" fill="#7B181E"/>
<path d="M26.3219 49.6937C26.1207 49.6317 25.9836 49.5608 25.8373 49.5077C25.8007 49.419 25.8647 49.419 26.3219 49.6937Z" fill="#7B181E"/>
<path d="M27.8392 50.3207C27.5009 50.1971 27.1992 50.0912 26.8884 50.0117C27.0073 50.0294 27.0621 50.0294 27.0347 50.0117C27.1992 50.0735 27.4278 50.1795 27.83 50.3296L27.8392 50.3207Z" fill="#7B181E"/>
<path d="M58.7291 14.8528C58.7291 14.8528 58.6377 14.8912 58.5919 14.9104C57.8971 14.8432 58.1897 14.824 58.7291 14.8528Z" fill="#7B181E"/>
<path d="M71.6737 47.4415H71.6006C71.6006 47.4415 71.6646 47.4323 71.692 47.4141L71.6737 47.4415Z" fill="#7B181E"/>
<path d="M74.0231 46.9797C72.981 46.962 72.4325 47.1565 71.6829 47.4129L72.2862 46.6172C72.8713 46.7233 73.4563 46.8382 74.014 46.9797H74.0231Z" fill="#7B181E"/>
<path d="M74.6266 27.3096C76.6195 26.1337 78.6855 25.4176 79.8648 24.8783C80.2122 24.6043 79.9928 24.5866 79.9562 24.4805C79.9288 24.3832 80.0751 24.1887 81.1447 23.5257C82.6165 22.509 82.5708 22.6946 82.3697 23.0129C82.1686 23.3223 81.812 23.7379 82.7171 23.1101C83.0553 22.6858 83.3661 22.226 83.6769 21.7928C84.8014 20.9353 85.6607 19.8213 86.2183 18.9019C86.8126 17.9382 87.2879 16.9834 87.809 15.9932C88.0741 15.56 88.2295 15.3566 88.3301 15.2682C88.8054 14.1808 89.4362 13.1022 90.0213 12.1032C90.1676 11.8557 90.3138 11.6081 90.451 11.3606C90.4875 11.2898 90.5058 11.2722 90.5698 11.1484L90.7344 10.8213C90.8441 10.6002 90.9538 10.3881 91.0543 10.1759C91.4657 9.33601 91.8954 8.47842 92.197 7.75347C91.9776 8.11594 92.0965 7.72697 92.261 7.22303C92.4347 6.7191 92.6358 6.13558 92.645 6.01181L96 0C94.4093 2.85561 94.0071 3.12969 93.3214 3.96074C94.1259 2.42242 94.8207 1.34382 95.4698 0.167979C94.903 1.07859 94.3819 1.9008 94.5099 1.41455L95.1315 0.353631C95.0858 0.335949 95.0492 0.309437 94.9853 0.309437L94.6379 0.486239L93.9157 0.866419L92.3159 1.72399C92.6816 1.44108 93.2483 1.05206 93.7146 0.733784C93.422 0.919443 93.0563 1.14932 92.6358 1.41455C92.1787 1.69746 91.676 2.01572 91.1457 2.34284C90.6064 2.69647 90.0396 3.05012 89.5002 3.40376C88.9609 3.73971 88.4306 4.0845 87.9736 4.42045C88.1107 4.44698 88.6592 4.22596 88.7415 4.28785C89.5002 3.68666 90.1127 3.27115 90.5332 3.05012C90.9629 2.8291 91.2189 2.7849 91.4383 2.74954C89.9299 3.69551 89.7196 3.84581 89.6922 3.90769C89.6739 3.96958 89.7927 3.9784 89.0431 4.55306C88.0558 5.12772 87.3702 5.43716 86.9588 5.55209C86.5474 5.66702 86.4286 5.58746 86.7394 5.28687C86.0812 5.69355 85.5419 5.98528 85.0574 6.25935C84.71 6.45385 84.4814 6.57764 84.2071 6.7191C83.6678 6.98432 83.0919 7.19651 82.196 7.47058L82.6713 7.62971C82.1411 7.85073 81.5926 8.02753 81.0624 8.22203C81.5469 8.16899 82.0406 8.11597 82.5251 8.05408C81.0715 8.83208 80.8613 8.75251 80.6145 8.68178C80.3676 8.61989 80.0751 8.55801 78.4204 9.31833L78.5393 9.61891C77.168 9.99023 76.519 9.64542 75.6231 10.3527C74.261 10.5826 77.6617 9.19454 74.6083 10.1052C74.1421 10.4499 73.0085 10.9009 72.1492 11.228C71.1162 11.3429 72.7709 10.6268 73.4016 10.4853C72.2406 10.7859 71.491 11.0335 70.9608 11.2722C70.4397 11.5109 70.1289 11.7496 69.8363 11.9529C69.2421 12.3684 68.7119 12.7839 66.5179 13.005C67.8983 12.4215 65.1284 12.5541 68.5474 11.8203C66.8653 11.9706 65.4666 13.058 63.6566 12.9519C64.0679 13.058 64.4793 13.1376 64.8907 13.2348C64.2782 13.3763 63.5377 13.3144 63.1903 13.3144L63.4189 13.6769C62.2761 13.5354 61.3071 13.7653 60.4295 13.9598C59.5519 14.1543 58.7749 14.2869 58.0527 13.8891C58.5555 14.2073 58.1624 14.2515 57.5316 14.2604C56.9008 14.2604 56.0415 14.225 55.6392 14.4284C57.5042 14.782 60.7129 13.7653 61.0694 14.393C60.2832 14.7378 59.4879 14.5168 58.72 14.8262C59.296 14.8439 60.137 14.9146 60.3747 15.003C57.7053 15.8341 56.0049 15.2152 54.3228 15.1887C55.3101 15.1445 56.2975 15.0826 57.2756 15.0119C56.9282 14.3223 55.9409 15.0649 55.0359 14.5786C53.6281 15.1356 52.4031 14.6494 51.2329 15.003C51.5529 14.9765 51.5803 15.0472 51.9003 15.003C48.7007 15.2329 47.9236 16.5944 46.6347 16.7182C45.3822 16.9215 42.9505 16.6032 43.7916 16.1966C42.7403 16.0286 48.0973 16.1965 46.1684 15.2417C45.3 15.9048 44.3401 15.8517 43.1151 15.7368C41.881 15.6219 40.3817 15.4539 38.3979 15.9667C40.1806 16.3645 37.4015 16.7535 38.9922 17.0364C37.0632 17.0099 36.981 16.8154 36.1125 16.4618L35.5549 16.9038C33.0043 16.0374 34.9332 16.0905 31.112 15.6661C32.401 15.9755 29.6036 16.3292 30.5909 16.6121C29.5396 16.674 28.4975 16.559 27.7204 16.3203L27.8667 16.3822C25.9378 16.3203 25.1424 16.4706 24.3837 16.6121C23.6249 16.7535 22.921 16.8419 21.0469 16.7624L21.3852 16.4618C20.151 16.391 18.7981 16.4706 17.3811 16.7447C15.9641 17.0188 14.474 17.4962 13.0662 18.283C12.3623 18.672 11.6767 19.114 11.055 19.6445C10.406 20.1484 9.84833 20.7319 9.35468 21.2889C8.36737 22.4205 7.63602 23.4726 6.91383 24.3655L7.68173 22.8714C7.47147 23.393 5.52427 25.232 5.0489 26.673C5.23174 26.4432 5.6157 26.0984 5.74368 25.8597C5.97223 26.063 6.01795 26.7703 5.44202 27.7339L4.82036 27.84L4.85694 28.4058C3.89705 29.8204 4.60098 27.6367 3.6411 29.0512C3.91535 29.8292 2.8092 31.3322 1.8676 33.2683C1.40137 34.232 1.0357 35.3194 0.898578 36.2212C0.761452 37.1318 0.807147 37.8921 1.02655 38.3076C0.551178 38.8823 0.569475 38.0159 0.697459 37.1407C0.816302 36.2654 1.06312 35.399 0.487189 36.009C0.487189 36.6279 0.569474 36.9196 0.49634 38.1485L0.0392536 37.6623C-0.0613055 39.1299 0.0483897 40.3234 0.176374 41.3666C0.3135 42.4098 0.496323 43.2939 0.679158 44.1692C1.05397 45.902 1.4288 47.5464 2.04129 49.8185L2.07784 49.6152C2.69034 51.1889 2.92804 52.0464 2.89147 52.8421C3.17486 53.1162 2.83662 51.9669 3.20228 52.5327C3.27542 54.0445 4.07075 55.3529 4.80209 56.4669C5.56999 57.5808 6.25561 58.5357 6.52986 59.4021C6.70355 59.1899 7.35262 59.8529 7.90112 60.3657C8.44048 60.8873 8.84272 61.2763 8.61417 60.5072C8.77872 60.8608 8.96157 61.2056 9.13526 61.5504C9.13526 61.0995 7.42577 58.3235 7.52633 57.5455C6.94126 56.4846 6.39275 55.4148 5.83511 54.3274C6.02708 54.3804 6.07277 53.7262 6.30132 54.2655C6.04535 53.4168 5.84425 52.6741 6.41104 53.6997C4.61012 49.8274 3.73251 45.4511 3.83307 41.2075C3.88792 39.1122 4.26271 37.1407 5.07633 35.4697C5.48771 34.6122 6.01795 33.7634 6.58474 32.8793C7.16067 31.9952 7.76402 31.0404 8.29424 30.0856C8.69647 29.6436 8.71474 30.0679 8.73302 30.342C9.08041 28.6357 9.95802 29.2988 10.5705 28.6445L11.0733 26.1426C11.8961 25.5502 11.7315 26.3371 11.9509 26.3901C12.6366 25.5325 13.2125 24.7457 13.7793 24.1003C14.3369 23.4726 14.9494 22.9068 15.6716 22.4382C17.116 21.5011 18.9352 20.9883 20.6447 21.059C21.6869 20.5551 20.2516 20.2368 21.7143 19.9451C20.7727 20.5905 21.8514 20.5905 23.0307 20.5993C24.21 20.5993 25.5173 20.5993 24.8682 21.0148C26.3034 19.8125 30.4538 20.5463 29.7133 18.9991C31.5782 18.84 31.2857 19.6003 30.7463 19.7683C32.9129 19.618 34.659 19.5384 36.4508 19.9186C37.0358 19.7064 39.5224 19.671 42.1003 19.4765C44.6783 19.282 47.3386 18.9284 48.2527 18.3184C47.0003 19.114 48.3807 18.6543 49.6788 18.8046L48.591 19.5119C49.5417 19.3881 50.5016 19.2467 51.4523 19.1052C52.0466 19.0875 52.202 19.0345 52.1928 18.9814C52.6773 18.893 52.0374 18.672 53.2533 18.3714C55.1913 18.0708 55.3284 18.3449 56.4346 18.451L56.1512 18.5836L57.4767 18.4068C58.4366 18.2388 53.9755 18.451 57.0928 17.6641C57.1294 17.7349 57.6322 17.8586 58.2355 17.9117C58.8297 17.9471 59.5245 17.894 59.9176 17.6376C58.3086 17.9647 58.4549 17.5669 59.0217 17.3105C59.7713 17.169 60.5209 17.0188 61.2614 16.8596L60.6398 17.6376C63.8668 16.9746 67.1121 16.0728 70.3574 15.0207C73.6027 13.9686 76.8389 12.7574 80.0659 11.3959C79.938 11.2103 81.0807 10.7505 82.1137 10.2201C83.165 9.71616 84.1157 9.16803 83.7044 9.04426L83.4941 9.21224C81.94 9.90183 83.7318 8.58451 84.9842 8.02753C83.7958 8.86742 87.5713 7.32911 84.4814 9.03541C84.9111 8.87627 85.3407 8.70829 85.7613 8.53147L86.0812 8.39886C86.1909 8.35466 86.2275 8.34583 86.3006 8.32815L86.6754 8.20436C86.9862 8.44307 87.2239 8.44307 87.617 8.20436C87.809 8.08059 88.0558 7.90378 88.3575 7.66508C88.5129 7.53247 88.6775 7.40868 88.842 7.26723L89.1163 7.04621L89.1894 6.99316C89.1894 6.99316 89.2443 6.94896 89.226 6.96664L89.1985 7.04621C89.0889 7.41752 88.8054 8.15133 88.3849 8.82324C88.4946 8.67294 88.5952 8.58452 88.6592 8.53147C88.3392 9.0354 88.1472 9.41558 87.9644 9.84878C87.6536 10.6091 87.3428 11.3606 87.0685 12.0502C86.4652 13.5708 85.9532 14.7555 85.6881 15.0826L85.7795 15.4804C84.8562 16.674 84.3351 17.3459 83.7775 18.062C83.5124 18.4421 83.2381 18.7781 82.909 19.2113C82.5525 19.6268 82.132 20.1396 81.4829 20.7408C81.5469 20.7408 81.9034 20.5286 81.5195 20.9353C80.7333 21.3419 79.9837 21.7575 77.9359 23.1013L78.0639 23.119C76.9669 23.7909 75.8242 24.3744 74.6541 24.9225C74.846 25.2585 73.2736 25.8862 71.5276 26.3813C71.0888 26.505 70.65 26.6376 70.2112 26.7349C69.9918 26.7879 69.7815 26.8498 69.5804 26.9029C69.4433 26.9382 69.3061 26.9825 69.169 27.0178C69.0136 27.0532 68.8582 27.0797 68.7119 27.1062C68.1086 27.23 67.5875 27.3538 67.2036 27.4775C66.7465 27.5659 66.4173 27.6367 66.3808 27.7516C66.0882 27.7339 65.686 27.7251 65.1924 27.7251C64.6713 27.7163 64.0496 27.7074 63.3823 27.6897C63.3274 27.7516 63.2817 27.8223 63.2452 27.9019C63.1995 27.9726 63.0898 27.9638 63.0258 27.9992C62.9526 28.0257 62.8795 28.061 62.8064 28.0876L62.7058 28.1318C62.7332 28.176 62.8338 28.2555 62.8887 28.3174C63.428 28.839 63.9674 29.3783 64.3056 29.6612C64.3605 29.6612 64.4885 29.7231 64.7444 29.8823C64.845 30.0237 64.9912 30.1917 65.1741 30.3597C65.3935 30.5188 65.6494 30.6868 65.9237 30.8636C66.2162 31.0316 66.4813 31.2349 66.847 31.3852C67.231 31.5267 67.6149 31.6681 68.008 31.8096C68.4011 31.9422 68.7759 32.0925 69.1873 32.1632C69.5164 32.2251 69.8455 32.2782 70.1563 32.3312C70.714 32.4461 71.235 32.4461 71.6738 32.5345C72.2406 32.676 72.4052 32.7114 72.3503 32.7733C72.3046 32.8263 72.0395 32.8793 71.7835 32.897C72.3686 32.897 73.0543 32.897 73.7765 32.9589C74.4895 32.9589 75.2483 33.0385 75.943 33.0119C76.647 33.0119 77.3143 33.012 77.8445 32.9589C78.3747 32.9147 78.7952 32.8882 78.9872 32.7998C80.6327 32.4285 79.5449 32.4019 79.9562 32.1544C81.163 31.9157 81.099 32.0571 81.1355 32.1809C81.1538 32.2339 81.1904 32.2782 81.4281 32.2251C81.5012 32.2251 81.5743 32.1897 81.8486 32.0218C81.7572 32.0218 81.5195 32.0748 81.6109 31.9952C81.7937 31.898 82.132 31.6328 82.7445 31.2172C83.037 31.0139 83.3935 30.784 83.7501 30.5807C84.0974 30.3597 84.4448 30.1563 84.6825 30.0326C84.8105 29.9618 84.9202 29.9176 84.9659 29.9088L84.4723 30.2094L84.1523 30.4039C84.198 30.3862 84.2529 30.3685 84.3169 30.342C84.6094 30.2359 84.9933 29.9795 85.4779 29.6789L85.6607 29.564L85.7064 29.5375C85.7064 29.5375 85.7064 29.5463 85.7064 29.5552V29.5994L85.6607 29.7762C85.6424 29.8911 85.5967 30.006 85.5601 30.1298C85.3956 30.6072 85.0482 31.1465 84.4905 31.4471C84.3626 31.4736 84.2255 31.509 84.0883 31.5532C83.8872 31.9599 83.6587 32.2605 83.5032 32.4638C83.3387 32.6672 83.229 32.7732 83.1193 32.8705C83.0096 32.9766 82.8999 33.065 82.7171 33.2595C82.6165 33.3656 82.4977 33.507 82.3331 33.675C82.1228 33.9049 81.8669 34.1789 81.5469 34.5237H81.6109C80.3676 35.5846 79.7917 36.3185 78.9141 36.4687L79.3529 36.124C78.5118 36.6721 78.0365 36.9461 77.552 37.176C77.0675 37.4236 76.519 37.6711 75.5591 38.1132C75.3122 38.1839 74.3524 38.5552 74.1147 38.7409C74.005 38.6259 72.8623 39.0856 71.6281 39.5807C70.394 40.0758 69.0502 40.5621 68.6114 40.7124C70.2112 40.2438 69.5073 40.5974 69.0867 40.8538C68.072 40.9334 67.423 41.0925 66.1431 41.5788C66.006 41.4197 65.8506 41.2605 65.4026 41.2075C65.1832 41.181 64.8907 41.1809 64.4976 41.1898C64.1045 41.2163 63.6017 41.2605 62.9526 41.3224C63.3549 41.3224 63.9948 41.287 63.748 41.3931C63.492 41.4992 62.8795 41.4904 62.6692 41.4816C62.4133 41.5876 63.2634 41.5523 62.98 41.7026C61.6636 41.57 60.6398 41.7202 59.168 41.6849L49.2766 41.4285L58.848 43.7183C59.3782 43.8421 59.9816 44.0012 60.6581 44.2045C59.8719 43.8863 60.5941 43.9924 60.9232 43.957C61.0054 44.399 64.525 44.6112 63.3914 44.8411C64.6164 45.124 65.9877 45.513 67.4138 45.9197C68.8399 46.3175 70.3574 46.7154 71.8658 46.8568C73.3651 47.0071 74.8095 46.8922 75.9705 46.6535C76.5464 46.5297 77.0675 46.3971 77.5063 46.2556C77.9451 46.1053 78.3107 45.9727 78.585 45.8578L83.0096 43.9658L78.3656 44.6466C78.2559 44.6643 78.1736 44.6819 78.1005 44.6908C77.5428 44.8499 76.0253 44.7262 75.0837 44.8941L75.2483 45.0621C73.9227 45.1152 73.4199 45.2212 72.8623 45.3273C72.3138 45.4334 71.6921 45.566 70.2112 45.7782C71.4636 45.681 70.9974 45.9197 69.8455 46.4059C69.1507 46.4413 68.4651 46.459 67.8069 46.4148L67.4778 46.7684C67.0664 46.7596 66.6368 46.7861 66.198 46.8038C65.7591 46.8303 65.2563 46.8568 64.7901 46.9099C65.2563 46.8922 65.0004 46.9276 64.973 46.9806C64.7353 46.7861 63.6657 46.7419 62.587 46.8038C61.4991 46.8568 60.4387 46.9894 60.1461 46.9275C59.296 47.4757 57.751 47.1132 57.1293 47.5287C56.8277 47.4845 56.4437 47.458 56.0324 47.4315C56.462 47.237 56.6083 47.0248 55.8038 47.1397C55.7307 47.1397 55.6849 47.1397 55.6118 47.1397C55.5204 47.2193 55.4381 47.3077 55.3102 47.3784C54.5331 47.29 53.6281 47.1839 53.0613 47.1574C53.3264 47.1574 53.6281 47.1221 53.9389 47.0867C53.5732 47.0955 53.2258 47.122 52.8967 47.1486C52.7779 47.1486 52.6682 47.1397 52.5859 47.1309C52.6408 47.1397 52.7048 47.1486 52.7687 47.1574C52.2385 47.1839 51.6992 47.1928 50.9496 47.0778C48.4447 47.3165 45.4645 46.7949 42.6397 47.0513L43.4442 47.2458L43.1791 47.1044C43.0602 47.2547 42.9231 47.4226 42.7768 47.5641C42.6489 47.7055 42.594 47.794 42.4752 47.8824L42.3929 47.9443C42.3929 47.9443 42.3654 47.9708 42.3563 47.9884C42.338 48.015 42.2741 48.0238 42.2649 48.0238C42.2375 48.0061 42.3197 48.0857 42.2832 48.1653C42.3015 48.2979 42.2832 48.4305 42.2558 48.5631C42.2375 48.7399 42.21 48.9433 42.1643 49.1289L42.1369 49.2704C42.2558 49.2704 42.5666 49.3323 42.8134 49.3765C42.6123 49.3323 42.3746 49.2704 42.1643 49.2174H42.1461C42.1461 49.2174 42.146 49.2881 42.1826 49.0405C42.2192 48.8814 42.2375 48.6957 42.2558 48.5454C42.2832 48.4393 42.2923 48.3244 42.2832 48.2095C42.274 48.1476 42.2832 48.1122 42.2832 48.0945C42.2832 48.068 42.274 48.0415 42.2466 48.015C42.274 48.015 42.3106 48.0061 42.3289 47.9884C42.3472 47.9619 42.4477 47.8912 42.53 47.8205C42.6123 47.7497 42.6671 47.679 42.7403 47.5906C42.9322 47.3961 43.1791 47.0867 43.0968 47.1751C43.0876 47.1751 43.0968 47.1928 43.1059 47.1928C43.1151 47.2105 43.1242 47.2281 43.1334 47.2458L43.0785 47.2016L43.0511 47.237L42.9871 47.3077C42.9048 47.405 42.8225 47.4934 42.7311 47.5818C42.6671 47.6613 42.6214 47.7144 42.5574 47.7763C42.5026 47.8382 42.4203 47.8912 42.3655 47.9354C42.338 47.9708 42.3015 47.9973 42.2466 47.9973C42.2192 47.9973 42.2923 48.0503 42.2649 48.1918C42.2649 48.2714 42.2649 48.3509 42.2558 48.4305C42.2558 48.4659 42.2466 48.5101 42.2283 48.5454L42.21 48.7223C42.1917 48.8372 42.1735 48.961 42.1552 49.0759C42.1369 49.1555 42.1369 49.1378 42.1369 49.1378C42.1918 49.1466 42.3563 49.1908 42.4935 49.235C42.8043 49.3323 43.1059 49.4295 43.4076 49.5268C44.0293 49.7389 44.6326 49.9423 45.2085 50.1368C46.3695 50.5346 47.4026 50.9325 48.143 51.3657L47.9328 51.5425C49.7063 52.4354 51.0684 53.1339 52.5311 53.7881L52.4854 54.0798C52.6682 54.1152 52.851 54.2478 52.9607 54.3451C53.0887 54.4423 53.1161 54.4953 53.4635 54.6103C53.5092 54.628 53.6098 54.6545 53.6372 54.6722C53.6646 54.6899 53.7012 54.7075 53.7469 54.7341C53.8383 54.7783 53.9663 54.8402 54.14 54.9109C53.7195 54.8313 53.6189 54.8844 53.4635 54.9462C53.3264 55.017 53.0887 55.0877 52.8693 55.0612C52.9059 55.1407 52.9242 55.2203 52.9333 55.2999C52.7779 55.3176 52.6316 55.3352 52.4854 55.3264H52.3848H52.2477C52.0923 55.3264 51.9368 55.3087 51.7906 55.2999C51.1964 55.238 50.6936 55.1761 50.1999 55.0877C46.7352 55.2557 43.6362 54.071 40.6194 53.4698L40.5737 53.5405L37.5478 52.7095C38.2974 53.125 36.981 52.4178 36.0394 52.2851C35.0978 51.9403 33.4888 51.6751 32.3278 51.6044C31.6879 51.4629 31.0571 51.3215 30.4446 51.1712C32.4741 51.8785 30.1978 51.5513 29.9875 51.8519C29.6127 51.6574 29.2379 51.4718 28.8723 51.2596C28.3512 51.2773 29.5579 51.7458 28.662 51.5602C28.2963 51.3568 27.5284 51.0828 26.8245 50.738C26.468 50.5788 26.1297 50.3843 25.8463 50.2075C25.5721 50.0219 25.3527 49.8362 25.2339 49.6771C25.3801 49.6417 25.6635 49.6771 25.9926 49.7566C26.0657 49.8185 26.0657 49.8097 26.02 49.7566C26.0475 49.7566 26.0657 49.7655 26.1023 49.7743C26.0657 49.7655 26.0475 49.7566 26.0109 49.7478C25.9378 49.6771 25.8281 49.5533 25.7915 49.4826C24.5208 48.9344 25.0602 49.0228 25.1699 48.8991C24.3562 48.793 23.8443 48.4924 23.3781 48.2271C22.921 47.9442 22.5096 47.6967 21.8606 47.5287C22.6925 47.794 22.0617 47.2104 21.5314 46.5209C20.9829 45.8224 20.5624 44.9383 21.1201 45.1682C20.599 44.8588 20.5076 44.6731 20.4619 44.5494C20.407 44.4167 20.3887 44.346 20.0048 44.1073C20.3613 44.8146 20.6081 45.5307 20.8824 46.2379C21.1475 46.9452 21.4766 47.6171 21.8697 48.1741C21.6594 48.0769 21.4675 47.9531 21.2664 47.8382C21.0652 47.7232 20.8641 47.5994 20.6813 47.458C20.6813 48.0238 21.2938 48.5631 21.9611 48.961C22.6467 49.35 23.3598 49.6329 23.6615 49.9246C23.4512 49.7213 23.0856 49.4737 22.7473 49.2881C22.4182 49.0936 22.1165 48.9521 22.0525 48.9963C22.2628 48.9433 22.473 48.8814 22.6742 48.8195C24.2922 49.8008 25.563 50.7645 26.8794 51.4894C26.2029 51.3303 26.5686 51.5425 26.9799 51.79C27.3913 52.0287 27.8667 52.294 27.3182 52.3028C26.9616 52.179 26.6234 52.0287 26.276 51.8873C25.7275 51.8696 26.6965 52.3912 27.2724 52.7007C29.0459 53.0808 31.5234 53.5759 33.7357 53.9649C35.9388 54.3716 37.8677 54.7164 38.5259 54.6722C37.7854 54.6368 36.4873 54.3009 35.884 54.0533L37.566 54.1948C36.2314 53.9207 35.0978 54.0975 33.1597 53.5759C33.5437 53.3637 32.1999 52.6918 33.7722 52.6123C37.6209 52.9571 36.725 53.9561 41.2867 54.7341C41.689 54.8932 40.4274 54.1329 42.8043 54.7429C45.7753 55.6093 47.9419 56.4227 47.8688 56.9443C46.5706 56.6525 44.0567 55.8922 43.5813 56.2105C44.8337 56.6083 47.0734 57.0239 47.1557 57.2803C48.5727 57.0239 44.7057 56.8117 46.5432 56.6879C47.4574 56.8294 47.8322 57.015 48.2436 57.1476C47.6585 56.9001 49.1121 56.9354 49.3954 56.8559C50.9038 56.9885 52.0191 56.9973 53.3355 56.9354C54.5971 56.8736 55.7764 56.7498 57.3305 56.4934C57.4219 56.4315 57.4036 56.2547 57.0836 56.184C57.5773 56.1221 58.2812 56.1221 59.0765 56.0602C59.2868 56.0514 59.4605 56.0337 59.6342 56.016C59.817 55.9983 59.9907 55.9806 60.1644 55.9629H60.2924C60.2924 55.9629 60.4112 55.9453 60.3838 55.9364C60.3838 55.9187 60.3838 55.9011 60.3929 55.8834C60.4112 55.848 60.4387 55.8215 60.4752 55.795C60.5026 55.6358 60.6672 55.5651 61.1609 55.7331C60.2193 55.1761 59.6159 54.902 59.0857 54.6457C58.5463 54.3893 58.1075 54.1683 57.3488 53.7174C60.7312 55.0965 56.782 53.4698 56.9739 53.1604C54.9993 52.1525 56.0323 52.9128 55.0542 52.5504C54.7891 52.3824 54.0943 51.9227 54.0852 51.8077C53.3721 51.6486 53.9298 52.0995 54.2589 52.4708C54.6154 52.851 54.7433 53.1339 54.0943 53.0189C53.8749 52.9747 53.5275 52.8863 53.1618 52.7891C52.7413 52.6653 52.2568 52.5238 51.7814 52.3824C50.8398 52.0906 49.9622 51.8254 49.8525 51.79C49.304 51.1977 50.0536 50.0926 51.2786 50.1633C51.2604 49.9158 49.7977 49.7831 49.1486 49.5268C47.1466 49.067 46.4153 48.0945 44.7789 47.6083L45.9033 48.2537C45.6016 48.2271 43.3711 47.2281 42.914 46.9983C42.8683 47.0955 43.9835 48.0061 43.1882 47.8912C42.9231 47.8116 42.6946 47.7232 42.3655 47.6525C42.3472 47.6525 42.3197 47.6525 42.2832 47.6437C42.2466 47.6437 42.2375 47.626 42.1003 47.6613C42.0455 47.6967 42.0272 47.6525 41.8901 47.8205C41.8352 47.9 41.8261 47.9973 41.8352 48.0592C41.8352 48.0946 41.8444 48.1122 41.8535 48.1388C41.8718 48.183 41.8992 48.236 41.9266 48.2625L41.9632 48.2979C42.0546 48.3951 42.1095 48.4217 42.1643 48.4659C42.274 48.5454 42.3838 48.6161 42.4935 48.6957L42.5757 48.7488H42.722C45.0897 48.7311 47.0003 49.1908 46.8449 49.4826C45.4919 49.4118 44.1207 49.3676 42.7585 49.3411H42.3655L42.1826 49.1996C42.0272 49.0847 41.8992 49.0052 41.6798 48.8195C41.6158 48.8195 41.6798 48.9167 41.7529 49.0051C41.8444 49.1024 41.9541 49.2085 42.1095 49.3234L42.2558 49.4384L42.7768 49.4826C43.6819 49.5621 45.4828 49.5444 45.3548 49.8097C46.7443 49.7124 48.143 49.6505 49.5326 49.6152C49.0023 49.5975 47.3934 49.5356 48.0242 49.3676C49.8251 49.3676 48.9566 49.3146 50.1633 49.182C48.1156 48.7665 44.2487 47.9442 42.8317 47.5729C43.5722 47.5994 44.3126 47.626 45.0531 47.6702L45.6016 47.4757C48.5087 47.6171 51.0775 48.8283 51.7906 49.1466C53.4178 49.1466 52.8876 48.5101 52.5036 48.3686C54.1309 48.4305 54.8713 48.7399 55.7398 48.9256C56.5534 49.1024 57.4036 49.2881 59.0674 49.0494C58.656 49.1466 58.2446 49.2262 57.8241 49.3057C58.2172 49.3057 59.1405 49.1908 59.9084 49.0759C60.6763 48.961 61.2797 48.8549 61.1426 48.9344C61.7551 48.678 62.2761 48.2271 61.5539 48.2271C62.5321 48.2714 63.4829 48.3509 64.4336 48.4747C64.0222 48.4482 64.2507 47.9531 64.0679 47.8824C65.2198 47.7763 66.0334 48.3332 65.3204 48.4305C65.8963 48.3244 66.2894 48.2537 66.5819 48.2006C66.8927 48.1564 67.0938 48.0946 67.2858 48.0592C67.4778 48.015 67.6515 47.9708 67.8983 47.8824C68.136 47.8028 68.4468 47.6879 68.8856 47.5022C69.5621 47.3961 68.9405 48.0061 68.4377 48.1476C70.0283 47.9708 70.8785 47.6437 71.5641 47.4138C69.0685 47.8735 70.6225 46.5828 70.0649 46.3706C71.9115 46.3706 73.7947 46.2733 75.5591 46.4501C75.3762 46.3971 74.8826 46.0435 74.9009 45.9816C75.1477 46.1407 76.6012 45.955 78.3839 45.9639L78.1279 44.5405C76.2356 45.0886 73.941 45.4599 72.4509 45.3273C72.588 45.3273 72.7343 45.3627 72.8806 45.3538C73.0268 45.3892 72.9811 45.4157 72.8166 45.4511C72.652 45.4688 72.3686 45.4688 72.0304 45.4511C71.6921 45.4511 71.3082 45.3716 70.9425 45.3185C70.5768 45.2478 70.2386 45.1505 70.0009 45.071C70.1563 45.1859 70.394 45.2036 70.8237 45.3008C69.8364 45.2654 69.2421 44.956 68.6662 44.6466C68.0811 44.3372 67.5052 44.0277 66.4722 43.8951C68.2548 44.399 68.5474 44.6289 68.4102 44.7527C67.0116 44.2134 63.5834 43.3116 64.4336 43.0906C63.4646 42.9049 62.6235 42.6043 62.6418 42.8519C61.5539 42.4629 60.4569 42.0827 59.3508 41.7291L59.0491 43.6299L59.3691 43.6564C59.0765 43.6034 58.8389 43.4619 59.9724 43.4619C59.6708 43.4619 59.3599 43.4619 59.0674 43.4354L59.3051 41.9059C61.0329 42.3833 62.5321 43.0818 63.5286 43.1083C63.492 43.3912 62.6967 43.3204 63.5834 43.8332C61.819 43.2409 60.4295 42.7458 59.2137 42.2772L59.0948 43.0552C60.6398 43.3116 61.9836 43.4796 63.428 43.4973C64.653 43.3028 65.8506 43.0022 67.0116 42.6397L67.1944 42.7281L67.7246 42.2595C68.1817 42.2065 68.4834 42.1888 68.5565 42.1269C68.6296 42.0739 68.5017 42.065 68.3188 42.0739C68.6936 41.9855 69.0319 41.9059 69.2147 41.8882C69.297 41.6849 68.6296 41.7026 67.9257 41.7114C67.6332 41.8617 67.3315 42.0032 67.0207 42.1358C66.2894 42.1535 65.7683 42.1004 66.6825 41.7644C66.8196 41.7468 66.9933 41.7291 67.1852 41.7114C66.719 41.7026 66.4356 41.6672 66.7373 41.5434C67.6241 41.3843 68.5016 41.1721 69.3793 40.9422C69.0959 41.0749 68.6936 41.3136 68.2091 41.5611C69.9095 41.2871 71.8567 40.8185 70.4763 41.5523C71.1162 41.2605 71.747 40.9511 72.3686 40.6417C74.7638 40.0051 74.3524 40.1112 77.168 39.1122C77.2686 38.9442 76.5098 39.1829 76.9578 38.8911C77.488 38.7497 78.0365 38.5375 78.6216 38.2104C78.905 38.0513 79.1609 37.8656 79.426 37.6976C79.6729 37.512 79.9105 37.3175 80.1299 37.1407C80.9984 36.398 81.5926 35.7084 81.8852 35.6731C83.2564 34.5503 82.6439 35.3902 83.5215 34.674C83.4575 34.674 83.3204 34.7183 83.5672 34.4619C84.0792 34.0552 84.6277 33.5866 85.1762 33.0827C85.3864 32.7644 85.0391 33.118 84.8014 33.3125C84.5454 33.507 84.4905 33.5601 85.103 32.7467C86.4012 31.3675 87.2788 30.2005 87.9918 29.1485C88.3575 28.6092 88.7049 28.0876 89.0431 27.5394C89.3357 27.0532 89.9116 26.1779 89.6191 26.3194C89.6099 26.2133 89.6191 26.116 89.6739 26.0276C89.6831 26.0011 89.7013 25.9834 89.7105 25.9569C89.7379 25.9127 89.7653 25.8773 89.7836 25.842C89.8293 25.7713 89.8842 25.7094 89.9299 25.6652C90.0213 25.5679 90.1036 25.5237 90.1676 25.506C90.2041 25.506 90.2316 25.506 90.2498 25.506C90.2864 25.506 90.3321 25.4706 90.3595 25.4618C90.5058 25.3999 90.6155 25.3823 90.7161 25.3115C90.7618 25.2762 90.8166 25.2143 90.8623 25.1259C90.8897 25.0817 90.9172 25.0286 90.9446 24.9756L90.972 24.9225C90.972 24.9225 91.0177 24.8429 91.036 24.7987C91.0817 24.7103 91.1274 24.6219 91.1823 24.5158C91.1092 24.5335 91.0178 24.56 90.9355 24.5866C90.2041 25.0905 89.4362 25.6121 88.522 26.1956C87.5804 26.7968 86.5932 27.3714 85.2219 28.1141C84.8562 28.2644 84.5454 28.4147 84.3534 28.4677C84.1706 28.5031 84.006 28.5296 83.8232 28.565C83.4393 28.6357 82.8725 28.8302 81.5835 29.2723C81.6383 29.3607 81.684 29.4491 81.7206 29.5375C81.4555 29.617 81.2087 29.6966 80.9527 29.7585C80.779 29.8027 80.6053 29.8469 80.4499 29.8823C80.1848 29.953 79.9471 30.0149 79.746 30.0591C79.3438 30.1563 79.1061 30.2447 79.1243 30.3597C78.6033 30.4127 78.1645 30.4569 77.7897 30.5011C77.4148 30.5453 77.104 30.6072 76.8389 30.6691C75.8699 30.6691 76.2173 30.4835 76.8389 30.289C77.4605 30.0503 78.3473 29.8027 78.5484 29.6789C78.1096 29.8381 77.6891 29.9 77.3052 29.9884C76.9212 30.0768 76.5555 30.1298 76.2173 30.1652C75.879 30.2094 75.5682 30.2624 75.2757 30.3243C74.9831 30.3685 74.7089 30.4304 74.4438 30.5188L75.2665 30.5542L76.0984 30.5365C74.3432 30.8548 73.493 30.6691 72.908 30.5542C72.3138 30.4569 71.9938 30.342 71.1345 30.5542C72.3138 30.7487 73.7764 30.952 73.0451 31.0846C72.7526 31.0316 72.4509 31.0051 72.1675 30.9343L71.3082 30.7222C71.0888 30.7752 72.2955 30.9255 71.4819 30.899C71.235 30.8194 70.8602 30.731 70.522 30.5718C70.3574 30.5011 70.1563 30.4127 70.0466 30.3597C69.9643 30.3066 69.9095 30.2713 69.8729 30.2359V30.2536C69.6444 30.174 69.425 30.0856 69.2239 29.9972C69.0319 29.8823 68.8216 29.7938 68.6571 29.6612C68.8856 29.7938 68.7576 29.8646 68.4742 29.7231C68.392 29.6259 68.3188 29.5286 68.2548 29.4491C68.2 29.3607 68.1726 29.2634 68.1451 29.1838C68.1269 29.2546 68.008 29.2457 67.816 29.1661C67.7246 29.1308 67.6149 29.0689 67.4869 28.9982C67.3864 28.9451 67.4412 28.954 67.4778 28.954C67.5144 28.954 67.5509 28.954 67.5966 28.9451C67.7886 28.9451 67.9989 28.9451 68.1908 28.9451C68.7302 28.954 69.1507 29.0247 69.4341 29.0866C69.7358 29.1485 69.8272 29.1838 70.01 29.007C69.9186 29.0335 69.8821 29.007 69.7815 29.0335C69.8638 28.9628 69.9552 28.9009 70.0923 28.8125C70.202 28.9628 70.6774 28.9186 71.3356 28.7771C71.9847 28.6092 72.8257 28.3616 73.6302 28.0434C75.2666 27.451 76.8115 26.6819 77.0949 26.9294C77.7805 26.4343 77.7805 26.3813 77.36 26.5404C76.9303 26.6907 76.0802 27.0797 75.0197 27.3449C75.5317 27.0443 76.0436 26.7526 76.5372 26.4166C75.8882 26.7172 75.358 27.0001 74.6266 27.2565V27.3096ZM75.0563 30.8106C75.3945 30.6868 76.3361 30.7398 76.8206 30.7575C76.0253 30.8813 75.6048 31.067 75.0563 30.8106ZM66.1888 42.5336C65.5672 42.7546 65.0004 42.8961 64.6164 42.8784C65.2015 42.7369 65.7226 42.6132 66.1888 42.5336ZM33.8545 52.179C33.8545 52.179 33.8271 52.1614 33.8088 52.1525C34.5676 52.2498 34.9698 52.2763 33.8545 52.179ZM32.6752 51.9934C32.1084 51.8961 31.6148 51.7812 31.4868 51.6486C31.3862 51.6751 31.3588 51.7193 31.5691 51.8254C32.209 52.0553 32.5107 52.0464 32.6844 51.9934H32.6752ZM52.3848 18.6455L51.946 18.8311C51.6535 18.7339 51.3518 18.6455 52.3848 18.6455Z" fill="#7B181E"/>
<path d="M69.0593 42.1276C69.1873 42.0474 69.2056 41.9939 69.2239 41.9494C69.425 41.9227 69.4433 41.9583 69.0593 42.1276Z" fill="#7B181E"/>
<path d="M88.3027 15.3402L88.3393 15.2678C88.3393 15.2678 88.4033 15.2227 88.4216 15.2227L88.3027 15.3402Z" fill="#7B181E"/>
<path d="M55.4657 52.2736C54.78 51.9999 54.3961 51.8763 54.1401 51.8145C54.1401 51.7439 54.4601 51.8145 55.4657 52.2736Z" fill="#7B181E"/>
<path d="M22.3453 46.7148C22.455 46.8651 22.5647 47.0154 22.6835 47.1657L23.0583 47.5989C22.8664 47.3956 22.7201 47.2807 22.583 47.2011C22.455 47.1127 22.3544 47.0508 22.2356 46.9712C22.327 46.927 22.5738 46.9889 22.3453 46.7237V46.7148Z" fill="#7B181E"/>
<path d="M16.9517 36.829C17.0248 36.6256 16.9791 36.3869 17.0614 36.1836L17.2807 36.2543C17.1985 37.1207 17.0157 37.7396 16.9517 36.8201V36.829Z" fill="#7B181E"/>
<path d="M20.5442 46.7148C20.1785 46.8386 19.8037 46.0783 19.4746 45.2207C19.4929 45.2737 19.5112 45.318 19.5386 45.371C19.9043 44.9113 20.1237 45.8396 20.5442 46.7148Z" fill="#7B181E"/>
<path d="M19.3924 45.0164C19.2827 44.7512 19.2004 44.4771 19.0815 44.2207C19.2461 44.0439 19.2369 44.5302 19.3924 45.0164Z" fill="#7B181E"/>
<path d="M28.9086 50.9218C28.4424 50.8687 28.7532 50.4532 28.4698 50.4974C28.287 50.2233 28.9635 50.5769 29.4297 50.851C29.8959 51.1251 30.1062 51.3726 28.9178 50.9129L28.9086 50.9218Z" fill="#7B181E"/>
<path d="M19.0906 46.7148L19.6665 46.7855C19.6665 47.0062 19.6665 47.2093 19.6848 47.43C19.4745 47.2004 19.2826 46.9621 19.0906 46.7148Z" fill="#7B181E"/>
<path d="M25.3711 51.3853C24.8592 51.2085 24.3564 51.014 23.8627 50.793C23.9176 50.7488 23.753 50.6162 23.561 50.457C24.4204 50.9433 25.4625 51.2792 25.3711 51.3765V51.3853Z" fill="#7B181E"/>
<path d="M23.5609 50.4536C23.1039 50.2149 22.7108 49.9231 22.5188 49.7109C22.7473 49.8701 23.2227 50.2149 23.5609 50.4536Z" fill="#7B181E"/>
<path d="M20.334 48.5469L20.7362 48.8298C21.0196 49.0862 21.3122 49.3337 21.623 49.5636C21.175 49.2541 20.7362 48.9182 20.334 48.5469Z" fill="#7B181E"/>
<path d="M42.5392 55.2383L44.2853 55.6533C44.4407 55.7945 43.947 55.7769 43.298 55.6179C42.8866 55.459 42.2467 55.3001 42.5392 55.2383Z" fill="#7B181E"/>
<path d="M37.0084 55.1499C37.5021 55.1676 37.5478 55.097 37.8403 55.0352L37.8037 55.4678L36.9993 55.1499H37.0084Z" fill="#7B181E"/>
<path d="M42.146 56.1819C42.3014 56.332 44.6691 56.95 42.4111 56.5351C42.2557 56.3938 40.5005 55.9788 42.146 56.1819Z" fill="#7B181E"/>
<path d="M51.9644 51.7344L52.3849 51.9198L52.0741 52.4054L51.9644 51.7344Z" fill="#7B181E"/>
<path d="M55.5207 49.8166C54.8899 49.843 54.6157 49.8165 54.4237 49.7812C54.25 49.7459 54.1951 49.7106 54.1403 49.6664C54.0489 49.587 53.9666 49.5075 53.0158 49.534C52.5222 49.3839 54.5791 49.4899 54.0854 49.3574C55.3379 49.5782 56.2338 49.4634 55.5207 49.8166Z" fill="#7B181E"/>
<path d="M54.0854 49.3636C53.8843 49.3274 53.6649 49.2913 53.4363 49.2461C53.802 49.3003 53.9757 49.3365 54.0854 49.3636Z" fill="#7B181E"/>
<path d="M8.76034 59.6387C8.9706 60.0188 9.17172 60.399 9.39113 60.7792L8.89749 60.0896L8.75122 59.6387H8.76034Z" fill="#7B181E"/>
<path d="M9.61987 62.0449L9.96726 62.1952C10.0313 62.4605 10.1044 62.7345 10.1867 62.9998C10.0495 62.7345 9.78442 62.2129 9.61987 62.0538V62.0449Z" fill="#7B181E"/>
<path d="M80.2394 29.5117L80.3491 29.5559C80.1755 29.6795 79.8921 29.7854 79.2979 29.9002C79.6178 29.7854 79.9286 29.653 80.2303 29.5117H80.2394Z" fill="#7B181E"/>
<path d="M69.2697 29.3355C69.2697 29.3355 69.2331 29.3355 69.2148 29.3355C69.0046 29.2821 68.8309 29.2108 68.6846 29.1484C68.8674 29.2108 69.0594 29.2732 69.2697 29.3266V29.3355Z" fill="#7B181E"/>
<path d="M81.1814 24.5489C80.6329 24.9468 79.9198 25.3004 79.353 25.654C80.642 24.9644 81.0991 24.1334 81.1814 24.5489Z" fill="#7B181E"/>
</svg>
