<svg width="108" height="19" viewBox="0 0 108 19" fill="none" xmlns="http://www.w3.org/2000/svg">
<path d="M107.705 9.18958C107.947 8.60123 108.253 8.04125 108.609 7.50961C109.136 6.75115 109.129 5.93597 108.595 5.23422C107.954 4.40487 107.064 4.20639 106.287 4.70967C106.245 4.65296 106.202 4.57499 106.159 4.51119C104.956 2.50516 103.417 1.79632 101.01 2.12947C97.7769 2.59022 94.921 4.02209 92.934 6.81494C91.702 8.55161 90.6835 11.9045 91.4385 13.8892C91.7233 14.6477 92.0865 15.3778 92.4996 15.9449C91.1892 16.4127 89.9856 16.5403 88.8461 16.3064C87.0229 15.9378 85.7695 14.9241 85.1357 13.2938C84.687 12.1738 85.3208 11.4721 86.0401 10.6711C86.1897 10.5009 86.3392 10.3308 86.4888 10.1607C88.2337 8.01289 89.5441 6.1061 90.2705 3.81653C90.5838 2.80996 91.004 1.44898 89.7435 0.520393C88.7251 -0.230983 87.5927 -0.103391 86.2538 0.881904C83.9321 2.6044 82.5006 4.82309 81.9593 7.49543C81.8739 7.8853 81.6958 8.2539 81.4109 8.53744C80.9836 8.95566 80.5706 9.38805 80.1433 9.78501C78.7688 11.0255 76.5539 10.2387 76.2975 8.41693C76.2548 8.16884 76.2192 7.92074 76.1693 7.67973C75.7918 5.6737 76.7462 4.015 78.5551 2.98718C79.1676 2.64693 79.7729 2.22871 80.2786 1.73961C80.3213 1.70417 80.3427 1.65455 80.3569 1.59784C80.4994 1.07329 80.186 0.527481 79.7088 0.286474L79.3884 0.130528C79.0679 -0.0183298 78.7047 -0.0466836 78.3771 0.0809086C76.9313 0.655074 74.9942 1.92391 74.0256 3.01553C73.9402 3.11477 73.8547 3.20692 73.7764 3.29907C72.4802 4.64587 67.3311 9.72121 65.9994 11.146C65.5222 11.6634 65.0308 12.1738 64.5465 12.6842C64.0765 13.1662 63.6135 13.6482 63.0367 14.0239C62.9014 14.109 62.4812 14.4563 62.3316 14.2649C62.2675 14.1869 62.2818 14.0735 62.296 13.9743C62.4313 13.152 62.5666 12.3369 62.702 11.5146C62.7091 11.4508 62.7304 11.387 62.7376 11.3232C62.7732 11.1743 62.8017 11.0326 62.8302 10.8766C63.1578 9.14704 63.9625 7.65847 65.2943 6.35419C65.7786 5.87218 66.327 5.28384 66.5121 4.47575C66.562 4.29145 66.5762 4.10715 66.5762 3.94412C66.5762 3.34869 66.3127 2.84541 65.7999 2.49807C64.9311 1.90973 64.1049 2.36339 63.7916 2.53351C63.5993 2.63984 63.4141 2.75326 63.229 2.86667C62.8444 3.10768 62.5097 3.31324 62.118 3.39831C61.5625 3.5259 61.3702 3.44084 61.3346 3.4054C61.2562 3.35578 61.1993 3.22109 61.1779 3.02971L61.1636 2.93047C61.1138 2.54769 60.9856 1.65455 59.9529 1.47025C59.2336 1.33557 58.5428 1.62619 57.9944 2.2996C57.56 2.84541 57.1113 3.44793 56.6342 4.14968C56.3137 4.61043 56.0075 5.07827 55.6941 5.54611C54.4976 7.32531 53.2584 9.1754 51.7557 10.7774C51.2786 11.2878 50.7872 11.8052 50.3029 12.3156C49.8328 12.8118 49.3628 13.2796 48.7931 13.6553C48.6577 13.7404 48.2376 14.0877 48.088 13.8963C48.0239 13.8113 48.0381 13.7049 48.0524 13.6057C48.1877 12.7834 48.323 11.9683 48.4583 11.146C48.5865 10.3875 48.7931 9.62906 49.142 8.94148C49.3842 8.39567 49.6762 7.87112 50.018 7.37493C50.545 6.60229 50.5379 5.80129 50.0038 5.09954C49.3628 4.27019 48.4726 4.07171 47.6963 4.57499C47.6536 4.51828 47.6108 4.44031 47.561 4.36942C46.3645 2.37048 44.8333 1.66163 42.419 1.99479C39.1857 2.45554 36.4367 4.02918 34.2646 6.659C33.7803 7.24734 33.2746 7.8215 32.7547 8.36731C32.534 8.59414 32.2776 8.77845 31.9927 8.92021C31.7648 9.01945 31.5084 9.14705 31.3375 9.21793C30.0627 9.82754 29.4217 9.3597 29.2508 7.97036C29.1938 7.48835 29.1582 6.98507 29.0585 6.49596C28.4674 3.80235 25.8751 2.6682 23.4964 4.04336C23.2899 4.16386 23.062 4.27728 22.8839 4.37651C22.478 3.49754 22.2429 2.62566 21.7302 1.9877C20.6192 0.605454 18.8672 0.598366 16.8304 1.86011C15.2493 2.84541 13.711 3.90159 12.1727 4.94359C10.7768 5.89344 9.40232 6.87165 7.97796 7.87112C7.82128 7.48126 7.73582 7.21898 7.61474 6.97089C7.02363 5.70205 5.79868 5.37599 4.68768 6.21951C4.39569 6.44634 4.16779 6.74406 3.98974 7.07013C2.82177 9.28881 1.69652 11.5075 0.528542 13.7191C-0.276223 15.2148 -0.22637 15.5621 1.12677 16.5757C2.85737 17.88 2.98557 18.0076 4.49539 16.4765C8.09903 12.8189 12.1229 9.67868 16.2677 6.67317C16.5953 6.43217 16.9301 6.19825 17.279 5.96433C17.7918 5.63117 18.4613 6.16989 18.1978 6.7157C18.1906 6.72279 18.1906 6.72988 18.1906 6.72988C17.45 8.16884 16.6666 9.57235 15.9401 11.0113C15.0143 12.833 15.2208 13.3505 16.9657 14.4847C17.7562 14.995 18.2262 14.9383 18.8174 14.1728C20.5978 11.8761 22.4352 9.60071 24.9136 7.97745C24.9136 7.97036 24.9136 7.96327 24.9207 7.96327C25.4193 7.64429 26.0887 7.99871 26.1386 8.58706V8.72883C26.3309 10.9121 27.3137 11.947 29.4645 12.3439C30.3404 12.4999 31.1595 12.5141 31.9571 12.4077C32.6194 12.266 32.6978 13.3718 32.8402 13.7262C33.4171 15.1864 34.2076 16.5261 35.1619 16.8806C36.4652 17.3626 38.0462 17.0081 39.8409 15.8102C40.0617 15.6684 40.3395 15.477 40.6172 15.2573C41.7496 14.3783 42.8748 13.4923 44.0927 12.5424L44.3562 12.3439C44.3704 12.6417 44.3918 12.9323 44.406 13.2229L44.4345 13.5632C44.4986 14.669 44.5912 16.115 45.7164 16.9798C45.9443 17.157 46.215 17.3059 46.5283 17.4335L46.7349 17.5114H46.7633C47.0625 17.5894 47.3616 17.6178 47.6393 17.6178C48.3942 17.6178 49.0708 17.3697 49.6477 17.0436C49.6833 17.0294 49.7118 17.0011 49.7474 16.9869C50.2886 16.6679 50.7373 16.2851 51.1005 15.9803C53.5148 13.9318 55.4947 11.6989 56.9831 9.32426L57.1256 9.09743C57.5742 8.38149 57.9944 7.701 58.5571 7.10557C59.0271 6.60229 59.4971 6.53849 60.1737 6.87874C60.2164 6.90709 60.2521 6.92127 60.2663 6.92836C60.2307 7.02051 54.7113 18.6101 61.8972 17.9934C62.645 17.9367 63.3287 17.7453 63.9055 17.4193C63.9412 17.3909 63.9696 17.3767 64.0052 17.3626C64.5394 17.0365 64.9952 16.6537 65.3584 16.356C65.5792 16.1717 65.7857 15.9803 65.9994 15.8031C66.0848 17.1216 66.6403 17.6603 68.0077 18.1919C70.2796 19.078 72.409 18.5322 74.2108 17.1854C76.7747 15.2573 79.1961 13.1378 81.6389 11.0397C81.6032 12.1667 81.7742 13.6766 82.7926 15.5196C84.0389 17.7879 86.1185 19 88.7393 19C89.0313 19 89.3304 18.9929 89.6295 18.9575C91.8871 18.7377 95.1489 18.1919 97.1858 16.9585C100.134 15.1722 101.509 13.6482 102.727 12.6984L102.99 12.4999C103.004 12.7976 103.026 13.0953 103.04 13.3789L103.068 13.7333C103.147 14.832 103.225 16.278 104.35 17.1428C104.578 17.32 104.849 17.476 105.162 17.5965L105.369 17.6745C105.369 17.6745 105.383 17.6745 105.397 17.6815C105.696 17.7595 105.995 17.7879 106.273 17.7879C107.028 17.7879 107.705 17.5398 108.282 17.1995C108.317 17.1854 108.346 17.157 108.381 17.1428C108.438 17.1074 108.481 17.079 108.531 17.0436C108.196 16.7317 107.89 16.3985 107.648 16.0229C107.427 15.6826 107.185 15.3565 107.035 14.9667C106.793 14.3783 106.75 13.8183 106.793 13.2016C106.893 11.8336 107.213 10.4726 107.747 9.20375L107.705 9.18958ZM87.3648 3.49046C86.9802 4.94359 86.09 6.09901 85.0217 7.26152C85.2282 5.80129 86.0045 4.56081 87.3648 3.49046ZM44.2066 8.33187C43.8648 8.64376 43.5158 8.94857 43.174 9.25337C41.4291 10.827 39.7697 12.3156 37.7044 13.2442C37.1347 13.5064 36.6432 13.5277 36.337 13.3292C36.0094 13.1095 35.8242 12.6133 35.8385 11.9399C35.8955 8.69339 39.4065 5.17751 42.6683 5.08536H42.7609C43.6582 5.08536 44.171 5.42561 44.5769 6.2904C44.7479 6.659 44.8262 6.95671 44.8262 7.22607C44.8262 7.6372 44.6339 7.97036 44.2066 8.33896V8.33187ZM73.7265 13.7758C73.0357 14.995 71.9674 15.4983 70.6998 15.5408H70.6214C69.9947 15.5408 69.368 15.2998 68.9407 14.8249C68.6131 14.4563 68.1786 14.2082 67.7086 14.0948C68.7484 13.0244 69.6671 11.9115 70.4719 10.7632C70.6499 10.6073 70.8066 10.4371 70.9704 10.2599C71.825 9.32426 73.406 9.60779 73.8405 10.7916C74.1823 11.7414 74.3176 12.7125 73.7194 13.7687L73.7265 13.7758ZM101.281 5.23422H101.373C102.271 5.23422 102.784 5.58864 103.189 6.44634C103.367 6.80785 103.453 7.10557 103.453 7.37493C103.453 7.55214 103.41 7.71518 103.332 7.87821C103.232 8.08378 103.061 8.28934 102.819 8.49491C102.477 8.79262 102.128 9.10451 101.786 9.41641C100.811 10.2883 99.8707 11.1318 98.8736 11.869C98.076 12.4644 97.2356 12.989 96.3169 13.4001C95.7472 13.6695 95.2558 13.6907 94.9495 13.4852C94.6219 13.2796 94.4439 12.7692 94.451 12.0958C94.508 8.84933 98.019 5.34054 101.281 5.2413V5.23422Z" fill="#EFECF0"/>
</svg>
