<svg width="198" height="36" viewBox="0 0 198 36" fill="none" xmlns="http://www.w3.org/2000/svg">
<g clip-path="url(#clip0_181_1622)">
<path d="M196.52 17.4285C196.959 16.3448 197.516 15.3133 198.163 14.3341C199.12 12.9371 199.107 11.4356 198.137 10.143C196.972 8.6154 195.355 8.24982 193.945 9.17682C193.868 9.07237 193.79 8.92875 193.713 8.81124C191.527 5.11628 188.732 3.81063 184.36 4.42429C178.487 5.27295 173.3 7.91035 169.691 13.0546C167.453 16.2534 165.604 22.4291 166.975 26.0849C167.492 27.4819 168.152 28.8267 168.902 29.8713C166.522 30.733 164.336 30.968 162.266 30.5371C158.955 29.8582 156.678 27.9911 155.527 24.9881C154.712 22.9252 155.863 21.6326 157.17 20.1573C157.441 19.8439 157.713 19.5306 157.984 19.2172C161.154 15.2611 163.534 11.7489 164.853 7.53171C165.422 5.6777 166.186 3.17087 163.896 1.46048C162.046 0.0764984 159.99 0.311514 157.558 2.12636C153.341 5.29907 150.741 9.38573 149.757 14.308C149.602 15.0261 149.279 15.705 148.761 16.2273C147.985 16.9976 147.235 17.7941 146.459 18.5252C143.962 20.8101 139.939 19.3608 139.474 16.0053C139.396 15.5484 139.331 15.0914 139.241 14.6475C138.555 10.9525 140.289 7.89729 143.574 6.00411C144.687 5.37741 145.786 4.60708 146.705 3.70618C146.782 3.6409 146.821 3.54951 146.847 3.44505C147.106 2.47888 146.536 1.47354 145.67 1.02962L145.088 0.742376C144.506 0.468191 143.846 0.415965 143.251 0.650981C140.625 1.70855 137.106 4.04565 135.347 6.05634C135.192 6.23913 135.037 6.40886 134.894 6.5786C132.54 9.05932 123.188 18.4077 120.769 21.0321C119.902 21.9852 119.009 22.9252 118.13 23.8653C117.276 24.7531 116.435 25.641 115.388 26.333C115.142 26.4896 114.379 27.1294 114.107 26.7769C113.99 26.6333 114.016 26.4244 114.042 26.2416C114.288 24.727 114.534 23.2255 114.78 21.711C114.792 21.5935 114.831 21.476 114.844 21.3585C114.909 21.0843 114.961 20.8231 115.012 20.5359C115.607 17.3501 117.069 14.6083 119.488 12.2059C120.368 11.3181 121.364 10.2344 121.7 8.74596C121.791 8.40649 121.817 8.06703 121.817 7.76673C121.817 6.66999 121.338 5.74298 120.407 5.10322C118.828 4.01954 117.328 4.85515 116.759 5.1685C116.409 5.36435 116.073 5.57325 115.737 5.78215C115.038 6.22607 114.43 6.60471 113.719 6.76139C112.71 6.9964 112.361 6.83972 112.296 6.77444C112.154 6.68305 112.05 6.43498 112.011 6.08245L111.985 5.89966C111.895 5.19462 111.662 3.54951 109.786 3.21004C108.48 2.96197 107.225 3.49728 106.229 4.73764C105.44 5.74298 104.625 6.85278 103.758 8.14537C103.176 8.99403 102.62 9.85576 102.051 10.7175C99.8777 13.9946 97.6269 17.4024 94.8975 20.3531C94.0308 21.2932 93.1383 22.2463 92.2586 23.1864C91.4049 24.1003 90.5511 24.962 89.5163 25.654C89.2705 25.8107 88.5073 26.4505 88.2357 26.0979C88.1192 25.9413 88.1451 25.7454 88.171 25.5626C88.4168 24.0481 88.6625 22.5466 88.9083 21.0321C89.1411 19.635 89.5163 18.238 90.1501 16.9715C90.5899 15.9662 91.1203 15 91.7412 14.086C92.6984 12.6629 92.6855 11.1875 91.7153 9.89493C90.5511 8.36733 88.9342 8.00175 87.5242 8.92875C87.4466 8.8243 87.369 8.68068 87.2784 8.55011C85.1052 4.8682 82.3241 3.56256 77.9389 4.17621C72.0661 5.02488 67.073 7.92341 63.1276 12.7673C62.248 13.851 61.3296 14.9086 60.3853 15.9139C59.9843 16.3317 59.5186 16.6712 59.0012 16.9323C58.5872 17.1151 58.1215 17.3501 57.8111 17.4807C55.4956 18.6036 54.3314 17.7418 54.0209 15.1828C53.9175 14.2949 53.8528 13.3679 53.6717 12.467C52.598 7.5056 47.8895 5.41657 43.569 7.94952C43.1938 8.17148 42.7799 8.38038 42.4565 8.56317C41.7192 6.94418 41.2923 5.33824 40.3609 4.16316C38.343 1.61716 35.1608 1.6041 31.4612 3.92814C28.5895 5.74298 25.7954 7.68839 23.0013 9.60769C20.466 11.3572 17.9694 13.159 15.3823 15C15.0977 14.2819 14.9425 13.7988 14.7226 13.3418C13.6489 11.0047 11.424 10.4041 9.40601 11.9578C8.87565 12.3756 8.46171 12.924 8.13832 13.5246C6.01688 17.6113 3.97305 21.6979 1.85161 25.7715C0.389887 28.5264 0.480437 29.1662 2.9382 31.0333C6.08156 33.4357 6.3144 33.6707 9.05675 30.8505C15.6022 24.1134 22.9108 18.3294 30.4393 12.7935C31.0344 12.3495 31.6423 11.9187 32.2762 11.4878C33.2075 10.8742 34.4235 11.8664 33.9449 12.8718C33.9319 12.8848 33.9319 12.8979 33.9319 12.8979C32.5866 15.5484 31.1637 18.1335 29.8443 20.784C28.1627 24.1395 28.5378 25.0926 31.707 27.1816C33.1429 28.1217 33.9966 28.0172 35.0703 26.6071C38.3042 22.3769 41.6416 18.1858 46.1432 15.1958C46.1432 15.1828 46.1432 15.1697 46.1561 15.1697C47.0616 14.5822 48.2775 15.235 48.3681 16.3187V16.5798C48.7173 20.6012 50.5025 22.5074 54.409 23.2386C56.0001 23.5258 57.4877 23.5519 58.9365 23.3561C60.1395 23.095 60.2818 25.1318 60.5405 25.7846C61.5883 28.4742 63.0241 30.9419 64.7575 31.5947C67.1247 32.4825 69.9964 31.8297 73.2562 29.6232C73.6572 29.362 74.1617 29.0095 74.6662 28.6048C76.723 26.9858 78.7668 25.3537 80.9788 23.6042L81.4574 23.2386C81.4833 23.787 81.5221 24.3223 81.5479 24.8576L81.5997 25.4843C81.7161 27.5211 81.8843 30.1846 83.9281 31.7775C84.342 32.1039 84.8336 32.3781 85.4028 32.6131L85.7779 32.7567H85.8296C86.3729 32.9003 86.9162 32.9526 87.4207 32.9526C88.7919 32.9526 90.0208 32.4956 91.0686 31.895C91.1332 31.8689 91.185 31.8167 91.2496 31.7905C92.2328 31.203 93.0477 30.498 93.7074 29.9365C98.0926 26.1632 101.689 22.0505 104.392 17.6766L104.651 17.2587C105.466 15.94 106.229 14.6866 107.251 13.5899C108.105 12.6629 108.959 12.5454 110.187 13.1721C110.265 13.2243 110.33 13.2504 110.356 13.2635C110.291 13.4332 100.266 34.7805 113.318 33.6446C114.676 33.5401 115.918 33.1876 116.966 32.587C117.03 32.5348 117.082 32.5086 117.147 32.4825C118.117 31.8819 118.945 31.1769 119.605 30.6285C120.006 30.2891 120.381 29.9365 120.769 29.6101C120.924 32.0386 121.933 33.0309 124.417 34.0101C128.543 35.6422 132.411 34.6368 135.684 32.1561C140.34 28.6048 144.738 24.7009 149.175 20.8362C149.111 22.9122 149.421 25.6932 151.271 29.0879C153.535 33.2659 157.312 35.4986 162.072 35.4986C162.603 35.4986 163.146 35.4855 163.689 35.4202C167.79 35.0155 173.714 34.0101 177.414 31.7383C182.769 28.4481 185.266 25.641 187.478 23.8914L187.956 23.5258C187.982 24.0742 188.021 24.6226 188.047 25.1448L188.099 25.7976C188.241 27.8214 188.383 30.4849 190.427 32.0778C190.841 32.4042 191.333 32.6914 191.902 32.9134L192.277 33.057C192.277 33.057 192.303 33.057 192.329 33.0701C192.872 33.2137 193.415 33.2659 193.92 33.2659C195.291 33.2659 196.52 32.8089 197.567 32.1822C197.632 32.1561 197.684 32.1039 197.749 32.0778C197.852 32.0125 197.93 31.9603 198.02 31.895C197.412 31.3205 196.856 30.7069 196.416 30.0149C196.015 29.3882 195.575 28.7876 195.304 28.0695C194.864 26.9858 194.786 25.9543 194.864 24.8184C195.045 22.2985 195.627 19.7917 196.597 17.4546L196.52 17.4285ZM159.576 6.93112C158.877 9.60769 157.26 11.7359 155.32 13.8771C155.695 11.1875 157.105 8.90264 159.576 6.93112ZM81.1857 15.8487C80.5648 16.4231 79.931 16.9846 79.3101 17.546C76.1409 20.4445 73.1269 23.1864 69.3755 24.8968C68.3407 25.3798 67.4481 25.419 66.8919 25.0534C66.2969 24.6487 65.9605 23.7347 65.9864 22.4944C66.0899 16.5145 72.4671 10.0385 78.3916 9.86881H78.5598C80.1897 9.86881 81.1211 10.4955 81.8584 12.0884C82.1688 12.7673 82.3111 13.3157 82.3111 13.8119C82.3111 14.5691 81.9619 15.1828 81.1857 15.8617V15.8487ZM134.804 25.876C133.549 28.1217 131.609 29.0487 129.306 29.127H129.164C128.026 29.127 126.887 28.6831 126.111 27.8083C125.516 27.1294 124.727 26.6724 123.873 26.4635C125.762 24.492 127.431 22.4421 128.892 20.327C129.216 20.0398 129.5 19.7264 129.798 19.4C131.35 17.6766 134.222 18.1988 135.011 20.3792C135.632 22.1288 135.878 23.9175 134.791 25.8629L134.804 25.876ZM184.852 10.143H185.02C186.65 10.143 187.581 10.7958 188.318 12.3756C188.642 13.0415 188.797 13.5899 188.797 14.086C188.797 14.4124 188.719 14.7127 188.577 15.013C188.396 15.3917 188.086 15.7703 187.646 16.149C187.025 16.6973 186.391 17.2718 185.77 17.8463C183.998 19.4522 182.291 21.0059 180.48 22.3638C179.031 23.4605 177.504 24.4267 175.836 25.184C174.801 25.6801 173.908 25.7193 173.352 25.3407C172.757 24.962 172.434 24.022 172.446 22.7816C172.55 16.8018 178.927 10.3388 184.852 10.1561V10.143Z" fill="#EFECF0"/>
</g>
<defs>
<clipPath id="clip0_181_1622">
<rect width="196.981" height="34.9966" fill="white" transform="translate(0.891602 0.501953)"/>
</clipPath>
</defs>
</svg>
