<svg width="50" height="44" viewBox="0 0 50 44" fill="none" xmlns="http://www.w3.org/2000/svg">
<rect x="0.25" y="0.25" width="49.5" height="43.5" rx="21.75" fill="white"/>
<rect x="0.25" y="0.25" width="49.5" height="43.5" rx="21.75" stroke="#CCD7E2" stroke-width="0.5"/>
<path d="M16.7424 30.555C17.9424 32 20.1744 32 24.6404 32H25.3604C29.8264 32 32.0594 32 33.2594 30.555M16.7424 30.555C15.5424 29.109 15.9544 26.915 16.7774 22.525C17.3624 19.405 17.6544 17.844 18.7654 16.922M33.2594 30.555C34.4594 29.109 34.0474 26.915 33.2244 22.525C32.6394 19.405 32.3464 17.844 31.2354 16.922M31.2354 16.922C30.1254 16 28.5364 16 25.3614 16H24.6394C21.4644 16 19.8764 16 18.7654 16.922" stroke="#18131B" stroke-width="0.5"/>
<path d="M22 16V15C22 14.2044 22.3161 13.4413 22.8787 12.8787C23.4413 12.3161 24.2044 12 25 12C25.7956 12 26.5587 12.3161 27.1213 12.8787C27.6839 13.4413 28 14.2044 28 15V16" stroke="#18131B" stroke-width="0.5" stroke-linecap="round"/>
</svg>
