<svg width="50" height="40" viewBox="0 0 50 40" fill="none" xmlns="http://www.w3.org/2000/svg">
<rect x="0.25" y="0.25" width="49.5" height="39.5" rx="19.75" fill="white"/>
<rect x="0.25" y="0.25" width="49.5" height="39.5" rx="19.75" stroke="#CCD7E2" stroke-width="0.5"/>
<path d="M33.4148 12.2402C33.9848 12.2402 34.4148 12.7402 34.1848 13.6702L31.3948 26.8202C31.1998 27.7552 30.6348 27.9802 29.8548 27.5452L23.1998 22.6302C23.174 22.6117 23.153 22.5873 23.1385 22.5591C23.124 22.5308 23.1164 22.4995 23.1164 22.4677C23.1164 22.436 23.124 22.4047 23.1385 22.3764C23.153 22.3481 23.174 22.3238 23.1998 22.3052L30.8848 15.3652C31.2348 15.0552 30.8098 14.9052 30.3498 15.1852L20.7048 21.2702C20.6755 21.2893 20.6423 21.3015 20.6077 21.3058C20.573 21.3101 20.5378 21.3065 20.5048 21.2952L16.4098 20.0002C15.4998 19.7352 15.4998 19.1102 16.6148 18.6652L32.9998 12.3452C33.1299 12.2834 33.2709 12.2477 33.4148 12.2402Z" stroke="#18131B" stroke-width="0.5" stroke-linecap="round" stroke-linejoin="round"/>
</svg>
